G04 EAGLE Gerber RS-274X export*
G75*
%MOMM*%
%FSLAX34Y34*%
%LPD*%
%INTop Copper*%
%IPPOS*%
%AMOC8*
5,1,8,0,0,1.08239X$1,22.5*%
G01*
%ADD10C,1.320800*%
%ADD11C,1.524000*%
%ADD12C,0.152400*%
%ADD13C,0.756400*%


D10*
X101600Y348996D02*
X101600Y362204D01*
X127000Y362204D02*
X127000Y348996D01*
X152400Y348996D02*
X152400Y362204D01*
X177800Y362204D02*
X177800Y348996D01*
X203200Y348996D02*
X203200Y362204D01*
X228600Y362204D02*
X228600Y348996D01*
X101600Y470916D02*
X101600Y484124D01*
X127000Y484124D02*
X127000Y470916D01*
X152400Y470916D02*
X152400Y484124D01*
X177800Y484124D02*
X177800Y470916D01*
X203200Y470916D02*
X203200Y484124D01*
X228600Y484124D02*
X228600Y470916D01*
X825500Y413004D02*
X825500Y399796D01*
X800100Y399796D02*
X800100Y413004D01*
X673100Y413004D02*
X673100Y399796D01*
X647700Y399796D02*
X647700Y413004D01*
X774700Y413004D02*
X774700Y399796D01*
X749300Y399796D02*
X749300Y413004D01*
X698500Y413004D02*
X698500Y399796D01*
X723900Y399796D02*
X723900Y413004D01*
X622300Y413004D02*
X622300Y399796D01*
X596900Y399796D02*
X596900Y413004D01*
X596900Y336804D02*
X596900Y323596D01*
X622300Y323596D02*
X622300Y336804D01*
X647700Y336804D02*
X647700Y323596D01*
X673100Y323596D02*
X673100Y336804D01*
X698500Y336804D02*
X698500Y323596D01*
X723900Y323596D02*
X723900Y336804D01*
X749300Y336804D02*
X749300Y323596D01*
X774700Y323596D02*
X774700Y336804D01*
X800100Y336804D02*
X800100Y323596D01*
X825500Y323596D02*
X825500Y336804D01*
X355600Y209804D02*
X355600Y196596D01*
X330200Y196596D02*
X330200Y209804D01*
X203200Y209804D02*
X203200Y196596D01*
X203200Y133604D02*
X203200Y120396D01*
X304800Y196596D02*
X304800Y209804D01*
X279400Y209804D02*
X279400Y196596D01*
X228600Y196596D02*
X228600Y209804D01*
X254000Y209804D02*
X254000Y196596D01*
X228600Y133604D02*
X228600Y120396D01*
X254000Y120396D02*
X254000Y133604D01*
X279400Y133604D02*
X279400Y120396D01*
X304800Y120396D02*
X304800Y133604D01*
X330200Y133604D02*
X330200Y120396D01*
X355600Y120396D02*
X355600Y133604D01*
X825500Y196596D02*
X825500Y209804D01*
X800100Y209804D02*
X800100Y196596D01*
X673100Y196596D02*
X673100Y209804D01*
X647700Y209804D02*
X647700Y196596D01*
X774700Y196596D02*
X774700Y209804D01*
X749300Y209804D02*
X749300Y196596D01*
X698500Y196596D02*
X698500Y209804D01*
X723900Y209804D02*
X723900Y196596D01*
X622300Y196596D02*
X622300Y209804D01*
X596900Y209804D02*
X596900Y196596D01*
X596900Y133604D02*
X596900Y120396D01*
X622300Y120396D02*
X622300Y133604D01*
X647700Y133604D02*
X647700Y120396D01*
X673100Y120396D02*
X673100Y133604D01*
X698500Y133604D02*
X698500Y120396D01*
X723900Y120396D02*
X723900Y133604D01*
X749300Y133604D02*
X749300Y120396D01*
X774700Y120396D02*
X774700Y133604D01*
X800100Y133604D02*
X800100Y120396D01*
X825500Y120396D02*
X825500Y133604D01*
D11*
X152400Y58420D02*
X152400Y43180D01*
X177800Y43180D02*
X177800Y58420D01*
X203200Y58420D02*
X203200Y43180D01*
X228600Y43180D02*
X228600Y58420D01*
X254000Y58420D02*
X254000Y43180D01*
X279400Y43180D02*
X279400Y58420D01*
X304800Y58420D02*
X304800Y43180D01*
X330200Y43180D02*
X330200Y58420D01*
X355600Y58420D02*
X355600Y43180D01*
X381000Y43180D02*
X381000Y58420D01*
X406400Y58420D02*
X406400Y43180D01*
X431800Y43180D02*
X431800Y58420D01*
X457200Y58420D02*
X457200Y43180D01*
X482600Y43180D02*
X482600Y58420D01*
X508000Y58420D02*
X508000Y43180D01*
X533400Y43180D02*
X533400Y58420D01*
X558800Y58420D02*
X558800Y43180D01*
X406400Y474980D02*
X406400Y490220D01*
X431800Y490220D02*
X431800Y474980D01*
X457200Y474980D02*
X457200Y490220D01*
X482600Y490220D02*
X482600Y474980D01*
X508000Y474980D02*
X508000Y490220D01*
X76200Y452120D02*
X76200Y436880D01*
X101600Y436880D02*
X101600Y452120D01*
X127000Y452120D02*
X127000Y436880D01*
X152400Y436880D02*
X152400Y452120D01*
X177800Y452120D02*
X177800Y436880D01*
X203200Y436880D02*
X203200Y452120D01*
X228600Y452120D02*
X228600Y436880D01*
X76200Y325120D02*
X76200Y309880D01*
X101600Y309880D02*
X101600Y325120D01*
X127000Y325120D02*
X127000Y309880D01*
X152400Y309880D02*
X152400Y325120D01*
X177800Y325120D02*
X177800Y309880D01*
X203200Y309880D02*
X203200Y325120D01*
X228600Y325120D02*
X228600Y309880D01*
D12*
X279400Y203200D02*
X279400Y165100D01*
X152400Y165100D01*
X152400Y88900D01*
X254000Y88900D01*
X254000Y50800D01*
X330200Y152400D02*
X330200Y203200D01*
X330200Y152400D02*
X165100Y152400D01*
X165100Y101600D01*
X279400Y101600D01*
X279400Y50800D01*
X825500Y368300D02*
X825500Y406400D01*
X825500Y368300D02*
X800100Y368300D01*
X800100Y330200D01*
X228600Y228600D02*
X228600Y203200D01*
X800100Y304800D02*
X800100Y330200D01*
X266700Y228600D02*
X228600Y228600D01*
D13*
X266700Y228600D03*
X266700Y304800D03*
D12*
X800100Y304800D01*
X304800Y101600D02*
X304800Y50800D01*
X622300Y101600D02*
X622300Y127000D01*
X622300Y101600D02*
X304800Y101600D01*
X330200Y88900D02*
X330200Y50800D01*
X330200Y88900D02*
X673100Y88900D01*
X673100Y127000D01*
X355600Y76200D02*
X355600Y50800D01*
X355600Y76200D02*
X723900Y76200D01*
X723900Y127000D01*
D13*
X406400Y228600D03*
D12*
X622300Y228600D01*
X622300Y203200D01*
D13*
X431800Y355600D03*
D12*
X673100Y355600D01*
X673100Y330200D01*
D13*
X457200Y368300D03*
D12*
X723900Y368300D01*
X723900Y330200D01*
X774700Y381000D02*
X482600Y381000D01*
X774700Y381000D02*
X774700Y330200D01*
D13*
X482600Y381000D03*
D12*
X228600Y355600D02*
X228600Y317500D01*
X228600Y292100D01*
X800100Y292100D02*
X800100Y203200D01*
X800100Y292100D02*
X228600Y292100D01*
X203200Y317500D02*
X203200Y355600D01*
X203200Y317500D02*
X203200Y279400D01*
X749300Y279400D01*
X749300Y203200D01*
X177800Y317500D02*
X177800Y355600D01*
X177800Y317500D02*
X177800Y266700D01*
X698500Y266700D02*
X698500Y203200D01*
X698500Y266700D02*
X177800Y266700D01*
X152400Y317500D02*
X152400Y355600D01*
X152400Y317500D02*
X152400Y254000D01*
X647700Y254000D01*
X647700Y203200D01*
X228600Y444500D02*
X228600Y477520D01*
X228600Y444500D02*
X254000Y444500D01*
X254000Y457200D01*
X533400Y457200D01*
X533400Y495300D01*
X800100Y495300D01*
X800100Y406400D01*
X203200Y444500D02*
X203200Y477520D01*
X203200Y444500D02*
X203200Y419100D01*
X266700Y419100D01*
X266700Y444500D01*
X546100Y444500D01*
X546100Y482600D01*
X749300Y482600D01*
X749300Y406400D01*
X177800Y444500D02*
X177800Y477520D01*
X177800Y444500D02*
X177800Y406400D01*
X279400Y406400D01*
X279400Y431800D01*
X558800Y431800D01*
X558800Y469900D01*
X698500Y469900D01*
X698500Y406400D01*
X152400Y444500D02*
X152400Y477520D01*
X152400Y444500D02*
X152400Y393700D01*
X292100Y393700D01*
X292100Y419100D01*
X571500Y419100D01*
X571500Y457200D01*
X647700Y457200D01*
X647700Y406400D01*
X127000Y444500D02*
X127000Y477520D01*
X127000Y444500D02*
X127000Y381000D01*
X254000Y381000D01*
X254000Y330200D01*
X596900Y330200D01*
X304800Y228600D02*
X304800Y203200D01*
X304800Y228600D02*
X393700Y228600D01*
X393700Y165100D01*
X800100Y165100D01*
X825500Y165100D01*
X825500Y203200D01*
X800100Y165100D02*
X800100Y127000D01*
X127000Y317500D02*
X127000Y355600D01*
X127000Y317500D02*
X127000Y241300D01*
D13*
X571500Y241300D03*
D12*
X127000Y241300D01*
X533400Y50800D02*
X533400Y25400D01*
X114300Y25400D01*
D13*
X114300Y25400D03*
D12*
X114300Y203200D02*
X203200Y203200D01*
X114300Y203200D02*
X114300Y25400D01*
X533400Y203200D02*
X596900Y203200D01*
D13*
X533400Y203200D03*
D12*
X101600Y444500D02*
X101600Y477520D01*
X101600Y444500D02*
X101600Y355600D01*
X101600Y317500D01*
X101600Y12700D01*
X558800Y12700D01*
X558800Y50800D01*
X850900Y12700D02*
X850900Y127000D01*
X850900Y12700D02*
X558800Y12700D01*
X825500Y127000D02*
X850900Y127000D01*
X850900Y330200D01*
X825500Y330200D01*
D13*
X558800Y127000D03*
D12*
X355600Y127000D01*
M02*
