M48
;GenerationSoftware,Autodesk,EAGLE,9.3.2*%
;CreationDate,2019-03-24T23:49:06Z*%
FMAT,2
ICI,OFF
METRIC,TZ,000.000
T3C0.350
T2C0.813
T1C1.016
%
G90
M71
T1
X15240Y5080
X38100Y5080
X35560Y5080
X33020Y5080
X30480Y5080
X27940Y5080
X25400Y5080
X22860Y5080
X20320Y5080
X17780Y5080
X50800Y48260
X40640Y5080
X43180Y5080
X45720Y5080
X48260Y5080
X50800Y5080
X53340Y5080
X55880Y5080
X40640Y48260
X43180Y48260
X45720Y48260
X48260Y48260
X7620Y44450
X10160Y44450
X12700Y44450
X15240Y44450
X17780Y44450
X20320Y44450
X22860Y44450
X7620Y31750
X10160Y31750
X12700Y31750
X15240Y31750
X17780Y31750
X20320Y31750
X22860Y31750
T2
X69850Y33020
X72390Y33020
X74930Y33020
X77470Y33020
X80010Y33020
X82550Y33020
X35560Y20320
X33020Y20320
X20320Y20320
X20320Y12700
X30480Y20320
X27940Y20320
X22860Y20320
X25400Y20320
X22860Y12700
X25400Y12700
X27940Y12700
X30480Y12700
X33020Y12700
X35560Y12700
X69850Y40640
X80010Y20320
X67310Y20320
X64770Y20320
X77470Y20320
X74930Y20320
X69850Y20320
X72390Y20320
X62230Y20320
X59690Y20320
X59690Y12700
X62230Y12700
X64770Y12700
X67310Y12700
X69850Y12700
X72390Y12700
X74930Y12700
X77470Y12700
X80010Y12700
X82550Y12700
X20320Y35560
X10160Y35560
X12700Y35560
X15240Y35560
X17780Y35560
X22860Y35560
X10160Y47752
X12700Y47752
X15240Y47752
X17780Y47752
X20320Y47752
X82550Y20320
X22860Y47752
X82550Y40640
X80010Y40640
X67310Y40640
X64770Y40640
X77470Y40640
X74930Y40640
X72390Y40640
X62230Y40640
X59690Y40640
X59690Y33020
X62230Y33020
X64770Y33020
X67310Y33020
T3
X45720Y36830
X43180Y35560
X40640Y22860
X26670Y30480
X26670Y22860
X55880Y12700
X53340Y20320
X11430Y2540
X57150Y24130
X48260Y38100
M30