G04 EAGLE Gerber RS-274X export*
G75*
%MOMM*%
%FSLAX34Y34*%
%LPD*%
%INSilkscreen Top*%
%IPPOS*%
%AMOC8*
5,1,8,0,0,1.08239X$1,22.5*%
G01*
%ADD10C,0.076200*%
%ADD11C,0.152400*%
%ADD12C,0.127000*%
%ADD13C,0.101600*%


D10*
X71727Y269946D02*
X71727Y271173D01*
X75819Y271173D01*
X75819Y268718D01*
X75817Y268640D01*
X75812Y268562D01*
X75802Y268485D01*
X75789Y268408D01*
X75773Y268332D01*
X75753Y268257D01*
X75729Y268183D01*
X75702Y268110D01*
X75671Y268038D01*
X75637Y267968D01*
X75600Y267900D01*
X75559Y267833D01*
X75515Y267768D01*
X75469Y267706D01*
X75419Y267646D01*
X75367Y267588D01*
X75312Y267533D01*
X75254Y267481D01*
X75194Y267431D01*
X75132Y267385D01*
X75067Y267341D01*
X75001Y267300D01*
X74932Y267263D01*
X74862Y267229D01*
X74790Y267198D01*
X74717Y267171D01*
X74643Y267147D01*
X74568Y267127D01*
X74492Y267111D01*
X74415Y267098D01*
X74338Y267088D01*
X74260Y267083D01*
X74182Y267081D01*
X70090Y267081D01*
X70010Y267083D01*
X69930Y267089D01*
X69850Y267099D01*
X69771Y267112D01*
X69692Y267130D01*
X69615Y267151D01*
X69539Y267177D01*
X69464Y267206D01*
X69390Y267238D01*
X69318Y267274D01*
X69248Y267314D01*
X69181Y267357D01*
X69115Y267403D01*
X69052Y267453D01*
X68991Y267505D01*
X68932Y267560D01*
X68877Y267619D01*
X68825Y267679D01*
X68775Y267743D01*
X68729Y267808D01*
X68686Y267876D01*
X68646Y267946D01*
X68610Y268018D01*
X68578Y268092D01*
X68549Y268166D01*
X68524Y268243D01*
X68502Y268320D01*
X68484Y268399D01*
X68471Y268478D01*
X68461Y268557D01*
X68455Y268638D01*
X68453Y268718D01*
X68453Y271173D01*
X70908Y274805D02*
X75819Y274805D01*
X70908Y274805D02*
X70908Y276852D01*
X70910Y276921D01*
X70916Y276989D01*
X70925Y277058D01*
X70939Y277125D01*
X70956Y277192D01*
X70977Y277258D01*
X71001Y277322D01*
X71030Y277385D01*
X71061Y277446D01*
X71096Y277505D01*
X71134Y277563D01*
X71176Y277618D01*
X71220Y277670D01*
X71268Y277720D01*
X71318Y277768D01*
X71370Y277812D01*
X71425Y277854D01*
X71483Y277892D01*
X71542Y277927D01*
X71603Y277958D01*
X71666Y277987D01*
X71730Y278011D01*
X71796Y278032D01*
X71863Y278049D01*
X71930Y278063D01*
X71999Y278072D01*
X72067Y278078D01*
X72136Y278080D01*
X72136Y278079D02*
X75819Y278079D01*
X75819Y284622D02*
X68453Y284622D01*
X75819Y284622D02*
X75819Y282576D01*
X75817Y282507D01*
X75811Y282439D01*
X75802Y282370D01*
X75788Y282303D01*
X75771Y282236D01*
X75750Y282170D01*
X75726Y282106D01*
X75697Y282043D01*
X75666Y281982D01*
X75631Y281923D01*
X75593Y281865D01*
X75551Y281810D01*
X75507Y281758D01*
X75459Y281708D01*
X75409Y281660D01*
X75357Y281616D01*
X75302Y281575D01*
X75244Y281536D01*
X75185Y281501D01*
X75124Y281470D01*
X75061Y281441D01*
X74997Y281417D01*
X74931Y281396D01*
X74864Y281379D01*
X74797Y281365D01*
X74729Y281356D01*
X74660Y281350D01*
X74591Y281348D01*
X72136Y281348D01*
X72067Y281350D01*
X71999Y281356D01*
X71930Y281365D01*
X71863Y281379D01*
X71796Y281396D01*
X71730Y281417D01*
X71666Y281441D01*
X71603Y281470D01*
X71542Y281501D01*
X71483Y281536D01*
X71425Y281574D01*
X71370Y281616D01*
X71318Y281660D01*
X71268Y281708D01*
X71220Y281758D01*
X71176Y281810D01*
X71134Y281865D01*
X71096Y281923D01*
X71061Y281982D01*
X71030Y282043D01*
X71001Y282106D01*
X70977Y282170D01*
X70956Y282236D01*
X70939Y282303D01*
X70925Y282370D01*
X70916Y282439D01*
X70910Y282507D01*
X70908Y282576D01*
X70908Y284622D01*
X71727Y396946D02*
X71727Y398173D01*
X75819Y398173D01*
X75819Y395718D01*
X75817Y395640D01*
X75812Y395562D01*
X75802Y395485D01*
X75789Y395408D01*
X75773Y395332D01*
X75753Y395257D01*
X75729Y395183D01*
X75702Y395110D01*
X75671Y395038D01*
X75637Y394968D01*
X75600Y394900D01*
X75559Y394833D01*
X75515Y394768D01*
X75469Y394706D01*
X75419Y394646D01*
X75367Y394588D01*
X75312Y394533D01*
X75254Y394481D01*
X75194Y394431D01*
X75132Y394385D01*
X75067Y394341D01*
X75001Y394300D01*
X74932Y394263D01*
X74862Y394229D01*
X74790Y394198D01*
X74717Y394171D01*
X74643Y394147D01*
X74568Y394127D01*
X74492Y394111D01*
X74415Y394098D01*
X74338Y394088D01*
X74260Y394083D01*
X74182Y394081D01*
X70090Y394081D01*
X70010Y394083D01*
X69930Y394089D01*
X69850Y394099D01*
X69771Y394112D01*
X69692Y394130D01*
X69615Y394151D01*
X69539Y394177D01*
X69464Y394206D01*
X69390Y394238D01*
X69318Y394274D01*
X69248Y394314D01*
X69181Y394357D01*
X69115Y394403D01*
X69052Y394453D01*
X68991Y394505D01*
X68932Y394560D01*
X68877Y394619D01*
X68825Y394679D01*
X68775Y394743D01*
X68729Y394808D01*
X68686Y394876D01*
X68646Y394946D01*
X68610Y395018D01*
X68578Y395092D01*
X68549Y395166D01*
X68524Y395243D01*
X68502Y395320D01*
X68484Y395399D01*
X68471Y395478D01*
X68461Y395557D01*
X68455Y395638D01*
X68453Y395718D01*
X68453Y398173D01*
X70908Y401805D02*
X75819Y401805D01*
X70908Y401805D02*
X70908Y403852D01*
X70910Y403921D01*
X70916Y403989D01*
X70925Y404058D01*
X70939Y404125D01*
X70956Y404192D01*
X70977Y404258D01*
X71001Y404322D01*
X71030Y404385D01*
X71061Y404446D01*
X71096Y404505D01*
X71134Y404563D01*
X71176Y404618D01*
X71220Y404670D01*
X71268Y404720D01*
X71318Y404768D01*
X71370Y404812D01*
X71425Y404854D01*
X71483Y404892D01*
X71542Y404927D01*
X71603Y404958D01*
X71666Y404987D01*
X71730Y405011D01*
X71796Y405032D01*
X71863Y405049D01*
X71930Y405063D01*
X71999Y405072D01*
X72067Y405078D01*
X72136Y405080D01*
X72136Y405079D02*
X75819Y405079D01*
X75819Y411622D02*
X68453Y411622D01*
X75819Y411622D02*
X75819Y409576D01*
X75817Y409507D01*
X75811Y409439D01*
X75802Y409370D01*
X75788Y409303D01*
X75771Y409236D01*
X75750Y409170D01*
X75726Y409106D01*
X75697Y409043D01*
X75666Y408982D01*
X75631Y408923D01*
X75593Y408865D01*
X75551Y408810D01*
X75507Y408758D01*
X75459Y408708D01*
X75409Y408660D01*
X75357Y408616D01*
X75302Y408575D01*
X75244Y408536D01*
X75185Y408501D01*
X75124Y408470D01*
X75061Y408441D01*
X74997Y408417D01*
X74931Y408396D01*
X74864Y408379D01*
X74797Y408365D01*
X74729Y408356D01*
X74660Y408350D01*
X74591Y408348D01*
X72136Y408348D01*
X72067Y408350D01*
X71999Y408356D01*
X71930Y408365D01*
X71863Y408379D01*
X71796Y408396D01*
X71730Y408417D01*
X71666Y408441D01*
X71603Y408470D01*
X71542Y408501D01*
X71483Y408536D01*
X71425Y408574D01*
X71370Y408616D01*
X71318Y408660D01*
X71268Y408708D01*
X71220Y408758D01*
X71176Y408810D01*
X71134Y408865D01*
X71096Y408923D01*
X71061Y408982D01*
X71030Y409043D01*
X71001Y409106D01*
X70977Y409170D01*
X70956Y409236D01*
X70939Y409303D01*
X70925Y409370D01*
X70916Y409439D01*
X70910Y409507D01*
X70908Y409576D01*
X70908Y411622D01*
X98354Y398992D02*
X98354Y394081D01*
X95899Y396536D02*
X100810Y396536D01*
X101219Y402293D02*
X101219Y404748D01*
X101217Y404826D01*
X101212Y404904D01*
X101202Y404981D01*
X101189Y405058D01*
X101173Y405134D01*
X101153Y405209D01*
X101129Y405283D01*
X101102Y405356D01*
X101071Y405428D01*
X101037Y405498D01*
X101000Y405567D01*
X100959Y405633D01*
X100915Y405698D01*
X100869Y405760D01*
X100819Y405820D01*
X100767Y405878D01*
X100712Y405933D01*
X100654Y405985D01*
X100594Y406035D01*
X100532Y406081D01*
X100467Y406125D01*
X100401Y406166D01*
X100332Y406203D01*
X100262Y406237D01*
X100190Y406268D01*
X100117Y406295D01*
X100043Y406319D01*
X99968Y406339D01*
X99892Y406355D01*
X99815Y406368D01*
X99738Y406378D01*
X99660Y406383D01*
X99582Y406385D01*
X98764Y406385D01*
X98684Y406383D01*
X98604Y406377D01*
X98524Y406367D01*
X98445Y406354D01*
X98366Y406336D01*
X98289Y406315D01*
X98213Y406289D01*
X98138Y406260D01*
X98064Y406228D01*
X97992Y406192D01*
X97922Y406152D01*
X97855Y406109D01*
X97789Y406063D01*
X97726Y406013D01*
X97665Y405961D01*
X97606Y405906D01*
X97551Y405847D01*
X97499Y405787D01*
X97449Y405723D01*
X97403Y405657D01*
X97360Y405590D01*
X97320Y405520D01*
X97284Y405448D01*
X97252Y405374D01*
X97223Y405300D01*
X97197Y405223D01*
X97176Y405146D01*
X97158Y405067D01*
X97145Y404988D01*
X97135Y404908D01*
X97129Y404828D01*
X97127Y404748D01*
X97127Y402293D01*
X93853Y402293D01*
X93853Y406385D01*
X96308Y409286D02*
X101219Y410923D01*
X96308Y412560D01*
X98354Y271992D02*
X98354Y267081D01*
X95899Y269536D02*
X100810Y269536D01*
X101219Y275293D02*
X101219Y277748D01*
X101217Y277826D01*
X101212Y277904D01*
X101202Y277981D01*
X101189Y278058D01*
X101173Y278134D01*
X101153Y278209D01*
X101129Y278283D01*
X101102Y278356D01*
X101071Y278428D01*
X101037Y278498D01*
X101000Y278567D01*
X100959Y278633D01*
X100915Y278698D01*
X100869Y278760D01*
X100819Y278820D01*
X100767Y278878D01*
X100712Y278933D01*
X100654Y278985D01*
X100594Y279035D01*
X100532Y279081D01*
X100467Y279125D01*
X100401Y279166D01*
X100332Y279203D01*
X100262Y279237D01*
X100190Y279268D01*
X100117Y279295D01*
X100043Y279319D01*
X99968Y279339D01*
X99892Y279355D01*
X99815Y279368D01*
X99738Y279378D01*
X99660Y279383D01*
X99582Y279385D01*
X98764Y279385D01*
X98684Y279383D01*
X98604Y279377D01*
X98524Y279367D01*
X98445Y279354D01*
X98366Y279336D01*
X98289Y279315D01*
X98213Y279289D01*
X98138Y279260D01*
X98064Y279228D01*
X97992Y279192D01*
X97922Y279152D01*
X97855Y279109D01*
X97789Y279063D01*
X97726Y279013D01*
X97665Y278961D01*
X97606Y278906D01*
X97551Y278847D01*
X97499Y278787D01*
X97449Y278723D01*
X97403Y278657D01*
X97360Y278590D01*
X97320Y278520D01*
X97284Y278448D01*
X97252Y278374D01*
X97223Y278300D01*
X97197Y278223D01*
X97176Y278146D01*
X97158Y278067D01*
X97145Y277988D01*
X97135Y277908D01*
X97129Y277828D01*
X97127Y277748D01*
X97127Y275293D01*
X93853Y275293D01*
X93853Y279385D01*
X96308Y282286D02*
X101219Y283923D01*
X96308Y285560D01*
X119253Y394081D02*
X126619Y394081D01*
X119253Y394081D02*
X119253Y397355D01*
X122527Y397355D02*
X122527Y394081D01*
X121708Y400013D02*
X126619Y400013D01*
X119662Y399808D02*
X119253Y399808D01*
X119253Y400217D01*
X119662Y400217D01*
X119662Y399808D01*
X121708Y403299D02*
X126619Y403299D01*
X121708Y403299D02*
X121708Y405754D01*
X122527Y405754D01*
X126619Y409357D02*
X126619Y411403D01*
X126619Y409357D02*
X126617Y409288D01*
X126611Y409220D01*
X126602Y409151D01*
X126588Y409084D01*
X126571Y409017D01*
X126550Y408951D01*
X126526Y408887D01*
X126497Y408824D01*
X126466Y408763D01*
X126431Y408704D01*
X126393Y408646D01*
X126351Y408591D01*
X126307Y408539D01*
X126259Y408489D01*
X126209Y408441D01*
X126157Y408397D01*
X126102Y408356D01*
X126044Y408317D01*
X125985Y408282D01*
X125924Y408251D01*
X125861Y408222D01*
X125797Y408198D01*
X125731Y408177D01*
X125664Y408160D01*
X125597Y408146D01*
X125529Y408137D01*
X125460Y408131D01*
X125391Y408129D01*
X123345Y408129D01*
X123266Y408131D01*
X123187Y408137D01*
X123108Y408146D01*
X123030Y408159D01*
X122953Y408177D01*
X122877Y408197D01*
X122802Y408222D01*
X122728Y408250D01*
X122655Y408281D01*
X122584Y408317D01*
X122515Y408355D01*
X122448Y408397D01*
X122383Y408442D01*
X122320Y408490D01*
X122259Y408541D01*
X122202Y408595D01*
X122146Y408651D01*
X122094Y408710D01*
X122044Y408772D01*
X121998Y408836D01*
X121954Y408902D01*
X121914Y408970D01*
X121878Y409040D01*
X121844Y409112D01*
X121814Y409186D01*
X121788Y409260D01*
X121765Y409336D01*
X121747Y409413D01*
X121731Y409490D01*
X121720Y409569D01*
X121712Y409647D01*
X121708Y409726D01*
X121708Y409806D01*
X121712Y409885D01*
X121720Y409963D01*
X121731Y410042D01*
X121747Y410119D01*
X121765Y410196D01*
X121788Y410272D01*
X121814Y410346D01*
X121844Y410420D01*
X121878Y410492D01*
X121914Y410562D01*
X121954Y410630D01*
X121998Y410696D01*
X122044Y410760D01*
X122094Y410822D01*
X122146Y410881D01*
X122202Y410937D01*
X122259Y410991D01*
X122320Y411042D01*
X122383Y411090D01*
X122448Y411135D01*
X122515Y411177D01*
X122584Y411215D01*
X122655Y411251D01*
X122728Y411282D01*
X122802Y411310D01*
X122877Y411335D01*
X122953Y411355D01*
X123030Y411373D01*
X123108Y411386D01*
X123187Y411395D01*
X123266Y411401D01*
X123345Y411403D01*
X124164Y411403D01*
X124164Y408129D01*
X126619Y267081D02*
X119253Y267081D01*
X119253Y270355D01*
X122527Y270355D02*
X122527Y267081D01*
X121708Y273013D02*
X126619Y273013D01*
X119662Y272808D02*
X119253Y272808D01*
X119253Y273217D01*
X119662Y273217D01*
X119662Y272808D01*
X121708Y276299D02*
X126619Y276299D01*
X121708Y276299D02*
X121708Y278754D01*
X122527Y278754D01*
X126619Y282357D02*
X126619Y284403D01*
X126619Y282357D02*
X126617Y282288D01*
X126611Y282220D01*
X126602Y282151D01*
X126588Y282084D01*
X126571Y282017D01*
X126550Y281951D01*
X126526Y281887D01*
X126497Y281824D01*
X126466Y281763D01*
X126431Y281704D01*
X126393Y281646D01*
X126351Y281591D01*
X126307Y281539D01*
X126259Y281489D01*
X126209Y281441D01*
X126157Y281397D01*
X126102Y281356D01*
X126044Y281317D01*
X125985Y281282D01*
X125924Y281251D01*
X125861Y281222D01*
X125797Y281198D01*
X125731Y281177D01*
X125664Y281160D01*
X125597Y281146D01*
X125529Y281137D01*
X125460Y281131D01*
X125391Y281129D01*
X123345Y281129D01*
X123266Y281131D01*
X123187Y281137D01*
X123108Y281146D01*
X123030Y281159D01*
X122953Y281177D01*
X122877Y281197D01*
X122802Y281222D01*
X122728Y281250D01*
X122655Y281281D01*
X122584Y281317D01*
X122515Y281355D01*
X122448Y281397D01*
X122383Y281442D01*
X122320Y281490D01*
X122259Y281541D01*
X122202Y281595D01*
X122146Y281651D01*
X122094Y281710D01*
X122044Y281772D01*
X121998Y281836D01*
X121954Y281902D01*
X121914Y281970D01*
X121878Y282040D01*
X121844Y282112D01*
X121814Y282186D01*
X121788Y282260D01*
X121765Y282336D01*
X121747Y282413D01*
X121731Y282490D01*
X121720Y282569D01*
X121712Y282647D01*
X121708Y282726D01*
X121708Y282806D01*
X121712Y282885D01*
X121720Y282963D01*
X121731Y283042D01*
X121747Y283119D01*
X121765Y283196D01*
X121788Y283272D01*
X121814Y283346D01*
X121844Y283420D01*
X121878Y283492D01*
X121914Y283562D01*
X121954Y283630D01*
X121998Y283696D01*
X122044Y283760D01*
X122094Y283822D01*
X122146Y283881D01*
X122202Y283937D01*
X122259Y283991D01*
X122320Y284042D01*
X122383Y284090D01*
X122448Y284135D01*
X122515Y284177D01*
X122584Y284215D01*
X122655Y284251D01*
X122728Y284282D01*
X122802Y284310D01*
X122877Y284335D01*
X122953Y284355D01*
X123030Y284373D01*
X123108Y284386D01*
X123187Y284395D01*
X123266Y284401D01*
X123345Y284403D01*
X124164Y284403D01*
X124164Y281129D01*
X144653Y394081D02*
X152019Y394081D01*
X144653Y394081D02*
X144653Y396127D01*
X144655Y396216D01*
X144661Y396305D01*
X144671Y396394D01*
X144684Y396482D01*
X144701Y396570D01*
X144723Y396657D01*
X144748Y396742D01*
X144776Y396827D01*
X144809Y396910D01*
X144845Y396992D01*
X144884Y397072D01*
X144927Y397150D01*
X144973Y397226D01*
X145023Y397301D01*
X145076Y397373D01*
X145132Y397442D01*
X145191Y397509D01*
X145252Y397574D01*
X145317Y397635D01*
X145384Y397694D01*
X145453Y397750D01*
X145525Y397803D01*
X145600Y397853D01*
X145676Y397899D01*
X145754Y397942D01*
X145834Y397981D01*
X145916Y398017D01*
X145999Y398050D01*
X146084Y398078D01*
X146169Y398103D01*
X146256Y398125D01*
X146344Y398142D01*
X146432Y398155D01*
X146521Y398165D01*
X146610Y398171D01*
X146699Y398173D01*
X146788Y398171D01*
X146877Y398165D01*
X146966Y398155D01*
X147054Y398142D01*
X147142Y398125D01*
X147229Y398103D01*
X147314Y398078D01*
X147399Y398050D01*
X147482Y398017D01*
X147564Y397981D01*
X147644Y397942D01*
X147722Y397899D01*
X147798Y397853D01*
X147873Y397803D01*
X147945Y397750D01*
X148014Y397694D01*
X148081Y397635D01*
X148146Y397574D01*
X148207Y397509D01*
X148266Y397442D01*
X148322Y397373D01*
X148375Y397301D01*
X148425Y397226D01*
X148471Y397150D01*
X148514Y397072D01*
X148553Y396992D01*
X148589Y396910D01*
X148622Y396827D01*
X148650Y396742D01*
X148675Y396657D01*
X148697Y396570D01*
X148714Y396482D01*
X148727Y396394D01*
X148737Y396305D01*
X148743Y396216D01*
X148745Y396127D01*
X148745Y394081D01*
X148745Y396536D02*
X152019Y398173D01*
X152019Y401197D02*
X147108Y401197D01*
X145062Y400992D02*
X144653Y400992D01*
X144653Y401401D01*
X145062Y401401D01*
X145062Y400992D01*
X152019Y405379D02*
X152019Y407425D01*
X152019Y405379D02*
X152017Y405310D01*
X152011Y405242D01*
X152002Y405173D01*
X151988Y405106D01*
X151971Y405039D01*
X151950Y404973D01*
X151926Y404909D01*
X151897Y404846D01*
X151866Y404785D01*
X151831Y404726D01*
X151793Y404668D01*
X151751Y404613D01*
X151707Y404561D01*
X151659Y404511D01*
X151609Y404463D01*
X151557Y404419D01*
X151502Y404378D01*
X151444Y404339D01*
X151385Y404304D01*
X151324Y404273D01*
X151261Y404244D01*
X151197Y404220D01*
X151131Y404199D01*
X151064Y404182D01*
X150997Y404168D01*
X150929Y404159D01*
X150860Y404153D01*
X150791Y404151D01*
X150791Y404152D02*
X148336Y404152D01*
X148336Y404151D02*
X148267Y404153D01*
X148199Y404159D01*
X148130Y404168D01*
X148063Y404182D01*
X147996Y404199D01*
X147930Y404220D01*
X147866Y404244D01*
X147803Y404273D01*
X147742Y404304D01*
X147683Y404339D01*
X147625Y404377D01*
X147570Y404419D01*
X147518Y404463D01*
X147468Y404511D01*
X147420Y404561D01*
X147376Y404613D01*
X147334Y404668D01*
X147296Y404726D01*
X147261Y404785D01*
X147230Y404846D01*
X147201Y404909D01*
X147177Y404973D01*
X147156Y405039D01*
X147139Y405106D01*
X147125Y405173D01*
X147116Y405242D01*
X147110Y405310D01*
X147108Y405379D01*
X147108Y407425D01*
X153247Y407425D01*
X153247Y407426D02*
X153316Y407424D01*
X153384Y407418D01*
X153453Y407409D01*
X153520Y407395D01*
X153587Y407378D01*
X153653Y407357D01*
X153717Y407333D01*
X153780Y407304D01*
X153841Y407273D01*
X153900Y407238D01*
X153958Y407200D01*
X154013Y407158D01*
X154065Y407114D01*
X154115Y407066D01*
X154163Y407016D01*
X154207Y406964D01*
X154249Y406909D01*
X154287Y406851D01*
X154322Y406792D01*
X154353Y406731D01*
X154382Y406668D01*
X154406Y406604D01*
X154427Y406538D01*
X154444Y406471D01*
X154458Y406404D01*
X154467Y406335D01*
X154473Y406267D01*
X154475Y406198D01*
X154474Y406198D02*
X154474Y404561D01*
X152019Y411020D02*
X144653Y411020D01*
X147108Y411020D02*
X147108Y413066D01*
X147110Y413135D01*
X147116Y413203D01*
X147125Y413272D01*
X147139Y413339D01*
X147156Y413406D01*
X147177Y413472D01*
X147201Y413536D01*
X147230Y413599D01*
X147261Y413660D01*
X147296Y413719D01*
X147334Y413777D01*
X147376Y413832D01*
X147420Y413884D01*
X147468Y413934D01*
X147518Y413982D01*
X147570Y414026D01*
X147625Y414068D01*
X147683Y414106D01*
X147742Y414141D01*
X147803Y414172D01*
X147866Y414201D01*
X147930Y414225D01*
X147996Y414246D01*
X148063Y414263D01*
X148130Y414277D01*
X148199Y414286D01*
X148267Y414292D01*
X148336Y414294D01*
X152019Y414294D01*
X147108Y416973D02*
X147108Y419429D01*
X144653Y417792D02*
X150791Y417792D01*
X150791Y417791D02*
X150860Y417793D01*
X150928Y417799D01*
X150997Y417808D01*
X151064Y417822D01*
X151131Y417839D01*
X151197Y417860D01*
X151261Y417884D01*
X151324Y417913D01*
X151385Y417944D01*
X151444Y417979D01*
X151502Y418017D01*
X151557Y418059D01*
X151609Y418103D01*
X151659Y418151D01*
X151707Y418201D01*
X151751Y418253D01*
X151793Y418308D01*
X151831Y418366D01*
X151866Y418425D01*
X151897Y418486D01*
X151926Y418549D01*
X151950Y418613D01*
X151971Y418679D01*
X151988Y418746D01*
X152002Y418813D01*
X152011Y418882D01*
X152017Y418950D01*
X152019Y419019D01*
X152019Y419020D02*
X152019Y419429D01*
X152019Y267081D02*
X144653Y267081D01*
X144653Y269127D01*
X144655Y269216D01*
X144661Y269305D01*
X144671Y269394D01*
X144684Y269482D01*
X144701Y269570D01*
X144723Y269657D01*
X144748Y269742D01*
X144776Y269827D01*
X144809Y269910D01*
X144845Y269992D01*
X144884Y270072D01*
X144927Y270150D01*
X144973Y270226D01*
X145023Y270301D01*
X145076Y270373D01*
X145132Y270442D01*
X145191Y270509D01*
X145252Y270574D01*
X145317Y270635D01*
X145384Y270694D01*
X145453Y270750D01*
X145525Y270803D01*
X145600Y270853D01*
X145676Y270899D01*
X145754Y270942D01*
X145834Y270981D01*
X145916Y271017D01*
X145999Y271050D01*
X146084Y271078D01*
X146169Y271103D01*
X146256Y271125D01*
X146344Y271142D01*
X146432Y271155D01*
X146521Y271165D01*
X146610Y271171D01*
X146699Y271173D01*
X146788Y271171D01*
X146877Y271165D01*
X146966Y271155D01*
X147054Y271142D01*
X147142Y271125D01*
X147229Y271103D01*
X147314Y271078D01*
X147399Y271050D01*
X147482Y271017D01*
X147564Y270981D01*
X147644Y270942D01*
X147722Y270899D01*
X147798Y270853D01*
X147873Y270803D01*
X147945Y270750D01*
X148014Y270694D01*
X148081Y270635D01*
X148146Y270574D01*
X148207Y270509D01*
X148266Y270442D01*
X148322Y270373D01*
X148375Y270301D01*
X148425Y270226D01*
X148471Y270150D01*
X148514Y270072D01*
X148553Y269992D01*
X148589Y269910D01*
X148622Y269827D01*
X148650Y269742D01*
X148675Y269657D01*
X148697Y269570D01*
X148714Y269482D01*
X148727Y269394D01*
X148737Y269305D01*
X148743Y269216D01*
X148745Y269127D01*
X148745Y267081D01*
X148745Y269536D02*
X152019Y271173D01*
X152019Y274197D02*
X147108Y274197D01*
X145062Y273992D02*
X144653Y273992D01*
X144653Y274401D01*
X145062Y274401D01*
X145062Y273992D01*
X152019Y278379D02*
X152019Y280425D01*
X152019Y278379D02*
X152017Y278310D01*
X152011Y278242D01*
X152002Y278173D01*
X151988Y278106D01*
X151971Y278039D01*
X151950Y277973D01*
X151926Y277909D01*
X151897Y277846D01*
X151866Y277785D01*
X151831Y277726D01*
X151793Y277668D01*
X151751Y277613D01*
X151707Y277561D01*
X151659Y277511D01*
X151609Y277463D01*
X151557Y277419D01*
X151502Y277378D01*
X151444Y277339D01*
X151385Y277304D01*
X151324Y277273D01*
X151261Y277244D01*
X151197Y277220D01*
X151131Y277199D01*
X151064Y277182D01*
X150997Y277168D01*
X150929Y277159D01*
X150860Y277153D01*
X150791Y277151D01*
X150791Y277152D02*
X148336Y277152D01*
X148336Y277151D02*
X148267Y277153D01*
X148199Y277159D01*
X148130Y277168D01*
X148063Y277182D01*
X147996Y277199D01*
X147930Y277220D01*
X147866Y277244D01*
X147803Y277273D01*
X147742Y277304D01*
X147683Y277339D01*
X147625Y277377D01*
X147570Y277419D01*
X147518Y277463D01*
X147468Y277511D01*
X147420Y277561D01*
X147376Y277613D01*
X147334Y277668D01*
X147296Y277726D01*
X147261Y277785D01*
X147230Y277846D01*
X147201Y277909D01*
X147177Y277973D01*
X147156Y278039D01*
X147139Y278106D01*
X147125Y278173D01*
X147116Y278242D01*
X147110Y278310D01*
X147108Y278379D01*
X147108Y280425D01*
X153247Y280425D01*
X153247Y280426D02*
X153316Y280424D01*
X153384Y280418D01*
X153453Y280409D01*
X153520Y280395D01*
X153587Y280378D01*
X153653Y280357D01*
X153717Y280333D01*
X153780Y280304D01*
X153841Y280273D01*
X153900Y280238D01*
X153958Y280200D01*
X154013Y280158D01*
X154065Y280114D01*
X154115Y280066D01*
X154163Y280016D01*
X154207Y279964D01*
X154249Y279909D01*
X154287Y279851D01*
X154322Y279792D01*
X154353Y279731D01*
X154382Y279668D01*
X154406Y279604D01*
X154427Y279538D01*
X154444Y279471D01*
X154458Y279404D01*
X154467Y279335D01*
X154473Y279267D01*
X154475Y279198D01*
X154474Y279198D02*
X154474Y277561D01*
X152019Y284020D02*
X144653Y284020D01*
X147108Y284020D02*
X147108Y286066D01*
X147110Y286135D01*
X147116Y286203D01*
X147125Y286272D01*
X147139Y286339D01*
X147156Y286406D01*
X147177Y286472D01*
X147201Y286536D01*
X147230Y286599D01*
X147261Y286660D01*
X147296Y286719D01*
X147334Y286777D01*
X147376Y286832D01*
X147420Y286884D01*
X147468Y286934D01*
X147518Y286982D01*
X147570Y287026D01*
X147625Y287068D01*
X147683Y287106D01*
X147742Y287141D01*
X147803Y287172D01*
X147866Y287201D01*
X147930Y287225D01*
X147996Y287246D01*
X148063Y287263D01*
X148130Y287277D01*
X148199Y287286D01*
X148267Y287292D01*
X148336Y287294D01*
X152019Y287294D01*
X147108Y289973D02*
X147108Y292429D01*
X144653Y290792D02*
X150791Y290792D01*
X150791Y290791D02*
X150860Y290793D01*
X150928Y290799D01*
X150997Y290808D01*
X151064Y290822D01*
X151131Y290839D01*
X151197Y290860D01*
X151261Y290884D01*
X151324Y290913D01*
X151385Y290944D01*
X151444Y290979D01*
X151502Y291017D01*
X151557Y291059D01*
X151609Y291103D01*
X151659Y291151D01*
X151707Y291201D01*
X151751Y291253D01*
X151793Y291308D01*
X151831Y291366D01*
X151866Y291425D01*
X151897Y291486D01*
X151926Y291549D01*
X151950Y291613D01*
X151971Y291679D01*
X151988Y291746D01*
X152002Y291813D01*
X152011Y291882D01*
X152017Y291950D01*
X152019Y292019D01*
X152019Y292020D02*
X152019Y292429D01*
X195453Y267081D02*
X202819Y267081D01*
X195453Y267081D02*
X195453Y269127D01*
X195455Y269216D01*
X195461Y269305D01*
X195471Y269394D01*
X195484Y269482D01*
X195501Y269570D01*
X195523Y269657D01*
X195548Y269742D01*
X195576Y269827D01*
X195609Y269910D01*
X195645Y269992D01*
X195684Y270072D01*
X195727Y270150D01*
X195773Y270226D01*
X195823Y270301D01*
X195876Y270373D01*
X195932Y270442D01*
X195991Y270509D01*
X196052Y270574D01*
X196117Y270635D01*
X196184Y270694D01*
X196253Y270750D01*
X196325Y270803D01*
X196400Y270853D01*
X196476Y270899D01*
X196554Y270942D01*
X196634Y270981D01*
X196716Y271017D01*
X196799Y271050D01*
X196884Y271078D01*
X196969Y271103D01*
X197056Y271125D01*
X197144Y271142D01*
X197232Y271155D01*
X197321Y271165D01*
X197410Y271171D01*
X197499Y271173D01*
X200773Y271173D01*
X200862Y271171D01*
X200951Y271165D01*
X201040Y271155D01*
X201128Y271142D01*
X201216Y271125D01*
X201303Y271103D01*
X201388Y271078D01*
X201473Y271050D01*
X201556Y271017D01*
X201638Y270981D01*
X201718Y270942D01*
X201796Y270899D01*
X201872Y270853D01*
X201947Y270803D01*
X202019Y270750D01*
X202088Y270694D01*
X202155Y270635D01*
X202220Y270574D01*
X202281Y270509D01*
X202340Y270442D01*
X202396Y270373D01*
X202449Y270301D01*
X202499Y270226D01*
X202545Y270150D01*
X202588Y270072D01*
X202627Y269992D01*
X202663Y269910D01*
X202696Y269827D01*
X202724Y269742D01*
X202749Y269657D01*
X202771Y269570D01*
X202788Y269482D01*
X202801Y269394D01*
X202811Y269305D01*
X202817Y269216D01*
X202819Y269127D01*
X202819Y267081D01*
X201182Y274562D02*
X199545Y274562D01*
X199545Y274561D02*
X199466Y274563D01*
X199387Y274569D01*
X199308Y274578D01*
X199230Y274591D01*
X199153Y274609D01*
X199077Y274629D01*
X199002Y274654D01*
X198928Y274682D01*
X198855Y274713D01*
X198784Y274749D01*
X198715Y274787D01*
X198648Y274829D01*
X198583Y274874D01*
X198520Y274922D01*
X198459Y274973D01*
X198402Y275027D01*
X198346Y275083D01*
X198294Y275142D01*
X198244Y275204D01*
X198198Y275268D01*
X198154Y275334D01*
X198114Y275402D01*
X198078Y275472D01*
X198044Y275544D01*
X198014Y275618D01*
X197988Y275692D01*
X197965Y275768D01*
X197947Y275845D01*
X197931Y275922D01*
X197920Y276001D01*
X197912Y276079D01*
X197908Y276158D01*
X197908Y276238D01*
X197912Y276317D01*
X197920Y276395D01*
X197931Y276474D01*
X197947Y276551D01*
X197965Y276628D01*
X197988Y276704D01*
X198014Y276778D01*
X198044Y276852D01*
X198078Y276924D01*
X198114Y276994D01*
X198154Y277062D01*
X198198Y277128D01*
X198244Y277192D01*
X198294Y277254D01*
X198346Y277313D01*
X198402Y277369D01*
X198459Y277423D01*
X198520Y277474D01*
X198583Y277522D01*
X198648Y277567D01*
X198715Y277609D01*
X198784Y277647D01*
X198855Y277683D01*
X198928Y277714D01*
X199002Y277742D01*
X199077Y277767D01*
X199153Y277787D01*
X199230Y277805D01*
X199308Y277818D01*
X199387Y277827D01*
X199466Y277833D01*
X199545Y277835D01*
X201182Y277835D01*
X201261Y277833D01*
X201340Y277827D01*
X201419Y277818D01*
X201497Y277805D01*
X201574Y277787D01*
X201650Y277767D01*
X201725Y277742D01*
X201799Y277714D01*
X201872Y277683D01*
X201943Y277647D01*
X202012Y277609D01*
X202079Y277567D01*
X202144Y277522D01*
X202207Y277474D01*
X202268Y277423D01*
X202325Y277369D01*
X202381Y277313D01*
X202433Y277254D01*
X202483Y277192D01*
X202529Y277128D01*
X202573Y277062D01*
X202613Y276994D01*
X202649Y276924D01*
X202683Y276852D01*
X202713Y276778D01*
X202739Y276704D01*
X202762Y276628D01*
X202780Y276551D01*
X202796Y276474D01*
X202807Y276395D01*
X202815Y276317D01*
X202819Y276238D01*
X202819Y276158D01*
X202815Y276079D01*
X202807Y276001D01*
X202796Y275922D01*
X202780Y275845D01*
X202762Y275768D01*
X202739Y275692D01*
X202713Y275618D01*
X202683Y275544D01*
X202649Y275472D01*
X202613Y275402D01*
X202573Y275334D01*
X202529Y275268D01*
X202483Y275204D01*
X202433Y275142D01*
X202381Y275083D01*
X202325Y275027D01*
X202268Y274973D01*
X202207Y274922D01*
X202144Y274874D01*
X202079Y274829D01*
X202012Y274787D01*
X201943Y274749D01*
X201872Y274713D01*
X201799Y274682D01*
X201725Y274654D01*
X201650Y274629D01*
X201574Y274609D01*
X201497Y274591D01*
X201419Y274578D01*
X201340Y274569D01*
X201261Y274563D01*
X201182Y274561D01*
X197908Y280814D02*
X202819Y282042D01*
X199545Y283270D01*
X202819Y284497D01*
X197908Y285725D01*
X197908Y288948D02*
X202819Y288948D01*
X197908Y288948D02*
X197908Y290994D01*
X197910Y291063D01*
X197916Y291131D01*
X197925Y291200D01*
X197939Y291267D01*
X197956Y291334D01*
X197977Y291400D01*
X198001Y291464D01*
X198030Y291527D01*
X198061Y291588D01*
X198096Y291647D01*
X198134Y291705D01*
X198176Y291760D01*
X198220Y291812D01*
X198268Y291862D01*
X198318Y291910D01*
X198370Y291954D01*
X198425Y291996D01*
X198483Y292034D01*
X198542Y292069D01*
X198603Y292100D01*
X198666Y292129D01*
X198730Y292153D01*
X198796Y292174D01*
X198863Y292191D01*
X198930Y292205D01*
X198999Y292214D01*
X199067Y292220D01*
X199136Y292222D01*
X202819Y292222D01*
X202819Y394081D02*
X195453Y394081D01*
X195453Y396127D01*
X195455Y396216D01*
X195461Y396305D01*
X195471Y396394D01*
X195484Y396482D01*
X195501Y396570D01*
X195523Y396657D01*
X195548Y396742D01*
X195576Y396827D01*
X195609Y396910D01*
X195645Y396992D01*
X195684Y397072D01*
X195727Y397150D01*
X195773Y397226D01*
X195823Y397301D01*
X195876Y397373D01*
X195932Y397442D01*
X195991Y397509D01*
X196052Y397574D01*
X196117Y397635D01*
X196184Y397694D01*
X196253Y397750D01*
X196325Y397803D01*
X196400Y397853D01*
X196476Y397899D01*
X196554Y397942D01*
X196634Y397981D01*
X196716Y398017D01*
X196799Y398050D01*
X196884Y398078D01*
X196969Y398103D01*
X197056Y398125D01*
X197144Y398142D01*
X197232Y398155D01*
X197321Y398165D01*
X197410Y398171D01*
X197499Y398173D01*
X200773Y398173D01*
X200862Y398171D01*
X200951Y398165D01*
X201040Y398155D01*
X201128Y398142D01*
X201216Y398125D01*
X201303Y398103D01*
X201388Y398078D01*
X201473Y398050D01*
X201556Y398017D01*
X201638Y397981D01*
X201718Y397942D01*
X201796Y397899D01*
X201872Y397853D01*
X201947Y397803D01*
X202019Y397750D01*
X202088Y397694D01*
X202155Y397635D01*
X202220Y397574D01*
X202281Y397509D01*
X202340Y397442D01*
X202396Y397373D01*
X202449Y397301D01*
X202499Y397226D01*
X202545Y397150D01*
X202588Y397072D01*
X202627Y396992D01*
X202663Y396910D01*
X202696Y396827D01*
X202724Y396742D01*
X202749Y396657D01*
X202771Y396570D01*
X202788Y396482D01*
X202801Y396394D01*
X202811Y396305D01*
X202817Y396216D01*
X202819Y396127D01*
X202819Y394081D01*
X201182Y401562D02*
X199545Y401562D01*
X199545Y401561D02*
X199466Y401563D01*
X199387Y401569D01*
X199308Y401578D01*
X199230Y401591D01*
X199153Y401609D01*
X199077Y401629D01*
X199002Y401654D01*
X198928Y401682D01*
X198855Y401713D01*
X198784Y401749D01*
X198715Y401787D01*
X198648Y401829D01*
X198583Y401874D01*
X198520Y401922D01*
X198459Y401973D01*
X198402Y402027D01*
X198346Y402083D01*
X198294Y402142D01*
X198244Y402204D01*
X198198Y402268D01*
X198154Y402334D01*
X198114Y402402D01*
X198078Y402472D01*
X198044Y402544D01*
X198014Y402618D01*
X197988Y402692D01*
X197965Y402768D01*
X197947Y402845D01*
X197931Y402922D01*
X197920Y403001D01*
X197912Y403079D01*
X197908Y403158D01*
X197908Y403238D01*
X197912Y403317D01*
X197920Y403395D01*
X197931Y403474D01*
X197947Y403551D01*
X197965Y403628D01*
X197988Y403704D01*
X198014Y403778D01*
X198044Y403852D01*
X198078Y403924D01*
X198114Y403994D01*
X198154Y404062D01*
X198198Y404128D01*
X198244Y404192D01*
X198294Y404254D01*
X198346Y404313D01*
X198402Y404369D01*
X198459Y404423D01*
X198520Y404474D01*
X198583Y404522D01*
X198648Y404567D01*
X198715Y404609D01*
X198784Y404647D01*
X198855Y404683D01*
X198928Y404714D01*
X199002Y404742D01*
X199077Y404767D01*
X199153Y404787D01*
X199230Y404805D01*
X199308Y404818D01*
X199387Y404827D01*
X199466Y404833D01*
X199545Y404835D01*
X201182Y404835D01*
X201261Y404833D01*
X201340Y404827D01*
X201419Y404818D01*
X201497Y404805D01*
X201574Y404787D01*
X201650Y404767D01*
X201725Y404742D01*
X201799Y404714D01*
X201872Y404683D01*
X201943Y404647D01*
X202012Y404609D01*
X202079Y404567D01*
X202144Y404522D01*
X202207Y404474D01*
X202268Y404423D01*
X202325Y404369D01*
X202381Y404313D01*
X202433Y404254D01*
X202483Y404192D01*
X202529Y404128D01*
X202573Y404062D01*
X202613Y403994D01*
X202649Y403924D01*
X202683Y403852D01*
X202713Y403778D01*
X202739Y403704D01*
X202762Y403628D01*
X202780Y403551D01*
X202796Y403474D01*
X202807Y403395D01*
X202815Y403317D01*
X202819Y403238D01*
X202819Y403158D01*
X202815Y403079D01*
X202807Y403001D01*
X202796Y402922D01*
X202780Y402845D01*
X202762Y402768D01*
X202739Y402692D01*
X202713Y402618D01*
X202683Y402544D01*
X202649Y402472D01*
X202613Y402402D01*
X202573Y402334D01*
X202529Y402268D01*
X202483Y402204D01*
X202433Y402142D01*
X202381Y402083D01*
X202325Y402027D01*
X202268Y401973D01*
X202207Y401922D01*
X202144Y401874D01*
X202079Y401829D01*
X202012Y401787D01*
X201943Y401749D01*
X201872Y401713D01*
X201799Y401682D01*
X201725Y401654D01*
X201650Y401629D01*
X201574Y401609D01*
X201497Y401591D01*
X201419Y401578D01*
X201340Y401569D01*
X201261Y401563D01*
X201182Y401561D01*
X197908Y407814D02*
X202819Y409042D01*
X199545Y410270D01*
X202819Y411497D01*
X197908Y412725D01*
X197908Y415948D02*
X202819Y415948D01*
X197908Y415948D02*
X197908Y417994D01*
X197910Y418063D01*
X197916Y418131D01*
X197925Y418200D01*
X197939Y418267D01*
X197956Y418334D01*
X197977Y418400D01*
X198001Y418464D01*
X198030Y418527D01*
X198061Y418588D01*
X198096Y418647D01*
X198134Y418705D01*
X198176Y418760D01*
X198220Y418812D01*
X198268Y418862D01*
X198318Y418910D01*
X198370Y418954D01*
X198425Y418996D01*
X198483Y419034D01*
X198542Y419069D01*
X198603Y419100D01*
X198666Y419129D01*
X198730Y419153D01*
X198796Y419174D01*
X198863Y419191D01*
X198930Y419205D01*
X198999Y419214D01*
X199067Y419220D01*
X199136Y419222D01*
X202819Y419222D01*
X220853Y394081D02*
X226173Y394081D01*
X226262Y394083D01*
X226351Y394089D01*
X226440Y394099D01*
X226528Y394112D01*
X226616Y394129D01*
X226703Y394151D01*
X226788Y394176D01*
X226873Y394204D01*
X226956Y394237D01*
X227038Y394273D01*
X227118Y394312D01*
X227196Y394355D01*
X227272Y394401D01*
X227347Y394451D01*
X227419Y394504D01*
X227488Y394560D01*
X227555Y394619D01*
X227620Y394680D01*
X227681Y394745D01*
X227740Y394812D01*
X227796Y394881D01*
X227849Y394953D01*
X227899Y395028D01*
X227945Y395104D01*
X227988Y395182D01*
X228027Y395262D01*
X228063Y395344D01*
X228096Y395427D01*
X228124Y395512D01*
X228149Y395597D01*
X228171Y395684D01*
X228188Y395772D01*
X228201Y395860D01*
X228211Y395949D01*
X228217Y396038D01*
X228219Y396127D01*
X228217Y396216D01*
X228211Y396305D01*
X228201Y396394D01*
X228188Y396482D01*
X228171Y396570D01*
X228149Y396657D01*
X228124Y396742D01*
X228096Y396827D01*
X228063Y396910D01*
X228027Y396992D01*
X227988Y397072D01*
X227945Y397150D01*
X227899Y397226D01*
X227849Y397301D01*
X227796Y397373D01*
X227740Y397442D01*
X227681Y397509D01*
X227620Y397574D01*
X227555Y397635D01*
X227488Y397694D01*
X227419Y397750D01*
X227347Y397803D01*
X227272Y397853D01*
X227196Y397899D01*
X227118Y397942D01*
X227038Y397981D01*
X226956Y398017D01*
X226873Y398050D01*
X226788Y398078D01*
X226703Y398103D01*
X226616Y398125D01*
X226528Y398142D01*
X226440Y398155D01*
X226351Y398165D01*
X226262Y398171D01*
X226173Y398173D01*
X220853Y398173D01*
X223308Y401846D02*
X230674Y401846D01*
X223308Y401846D02*
X223308Y403892D01*
X223310Y403961D01*
X223316Y404029D01*
X223325Y404098D01*
X223339Y404165D01*
X223356Y404232D01*
X223377Y404298D01*
X223401Y404362D01*
X223430Y404425D01*
X223461Y404486D01*
X223496Y404545D01*
X223534Y404603D01*
X223576Y404658D01*
X223620Y404710D01*
X223668Y404760D01*
X223718Y404808D01*
X223770Y404852D01*
X223825Y404894D01*
X223883Y404932D01*
X223942Y404967D01*
X224003Y404998D01*
X224066Y405027D01*
X224130Y405051D01*
X224196Y405072D01*
X224263Y405089D01*
X224330Y405103D01*
X224399Y405112D01*
X224467Y405118D01*
X224536Y405120D01*
X226991Y405120D01*
X227060Y405118D01*
X227128Y405112D01*
X227197Y405103D01*
X227264Y405089D01*
X227331Y405072D01*
X227397Y405051D01*
X227461Y405027D01*
X227524Y404998D01*
X227585Y404967D01*
X227644Y404932D01*
X227702Y404894D01*
X227757Y404852D01*
X227809Y404808D01*
X227859Y404760D01*
X227907Y404710D01*
X227951Y404658D01*
X227993Y404603D01*
X228031Y404545D01*
X228066Y404486D01*
X228097Y404425D01*
X228126Y404362D01*
X228150Y404298D01*
X228171Y404232D01*
X228188Y404165D01*
X228202Y404098D01*
X228211Y404029D01*
X228217Y403961D01*
X228219Y403892D01*
X228219Y401846D01*
X226173Y267081D02*
X220853Y267081D01*
X226173Y267081D02*
X226262Y267083D01*
X226351Y267089D01*
X226440Y267099D01*
X226528Y267112D01*
X226616Y267129D01*
X226703Y267151D01*
X226788Y267176D01*
X226873Y267204D01*
X226956Y267237D01*
X227038Y267273D01*
X227118Y267312D01*
X227196Y267355D01*
X227272Y267401D01*
X227347Y267451D01*
X227419Y267504D01*
X227488Y267560D01*
X227555Y267619D01*
X227620Y267680D01*
X227681Y267745D01*
X227740Y267812D01*
X227796Y267881D01*
X227849Y267953D01*
X227899Y268028D01*
X227945Y268104D01*
X227988Y268182D01*
X228027Y268262D01*
X228063Y268344D01*
X228096Y268427D01*
X228124Y268512D01*
X228149Y268597D01*
X228171Y268684D01*
X228188Y268772D01*
X228201Y268860D01*
X228211Y268949D01*
X228217Y269038D01*
X228219Y269127D01*
X228217Y269216D01*
X228211Y269305D01*
X228201Y269394D01*
X228188Y269482D01*
X228171Y269570D01*
X228149Y269657D01*
X228124Y269742D01*
X228096Y269827D01*
X228063Y269910D01*
X228027Y269992D01*
X227988Y270072D01*
X227945Y270150D01*
X227899Y270226D01*
X227849Y270301D01*
X227796Y270373D01*
X227740Y270442D01*
X227681Y270509D01*
X227620Y270574D01*
X227555Y270635D01*
X227488Y270694D01*
X227419Y270750D01*
X227347Y270803D01*
X227272Y270853D01*
X227196Y270899D01*
X227118Y270942D01*
X227038Y270981D01*
X226956Y271017D01*
X226873Y271050D01*
X226788Y271078D01*
X226703Y271103D01*
X226616Y271125D01*
X226528Y271142D01*
X226440Y271155D01*
X226351Y271165D01*
X226262Y271171D01*
X226173Y271173D01*
X220853Y271173D01*
X223308Y274846D02*
X230674Y274846D01*
X223308Y274846D02*
X223308Y276892D01*
X223310Y276961D01*
X223316Y277029D01*
X223325Y277098D01*
X223339Y277165D01*
X223356Y277232D01*
X223377Y277298D01*
X223401Y277362D01*
X223430Y277425D01*
X223461Y277486D01*
X223496Y277545D01*
X223534Y277603D01*
X223576Y277658D01*
X223620Y277710D01*
X223668Y277760D01*
X223718Y277808D01*
X223770Y277852D01*
X223825Y277894D01*
X223883Y277932D01*
X223942Y277967D01*
X224003Y277998D01*
X224066Y278027D01*
X224130Y278051D01*
X224196Y278072D01*
X224263Y278089D01*
X224330Y278103D01*
X224399Y278112D01*
X224467Y278118D01*
X224536Y278120D01*
X226991Y278120D01*
X227060Y278118D01*
X227128Y278112D01*
X227197Y278103D01*
X227264Y278089D01*
X227331Y278072D01*
X227397Y278051D01*
X227461Y278027D01*
X227524Y277998D01*
X227585Y277967D01*
X227644Y277932D01*
X227702Y277894D01*
X227757Y277852D01*
X227809Y277808D01*
X227859Y277760D01*
X227907Y277710D01*
X227951Y277658D01*
X227993Y277603D01*
X228031Y277545D01*
X228066Y277486D01*
X228097Y277425D01*
X228126Y277362D01*
X228150Y277298D01*
X228171Y277232D01*
X228188Y277165D01*
X228202Y277098D01*
X228211Y277029D01*
X228217Y276961D01*
X228219Y276892D01*
X228219Y274846D01*
X177419Y394081D02*
X170053Y394081D01*
X177419Y394081D02*
X177419Y397355D01*
X177419Y401310D02*
X177419Y403357D01*
X177419Y401310D02*
X177417Y401241D01*
X177411Y401173D01*
X177402Y401104D01*
X177388Y401037D01*
X177371Y400970D01*
X177350Y400904D01*
X177326Y400840D01*
X177297Y400777D01*
X177266Y400716D01*
X177231Y400657D01*
X177193Y400599D01*
X177151Y400544D01*
X177107Y400492D01*
X177059Y400442D01*
X177009Y400394D01*
X176957Y400350D01*
X176902Y400309D01*
X176844Y400270D01*
X176785Y400235D01*
X176724Y400204D01*
X176661Y400175D01*
X176597Y400151D01*
X176531Y400130D01*
X176464Y400113D01*
X176397Y400099D01*
X176329Y400090D01*
X176260Y400084D01*
X176191Y400082D01*
X176191Y400083D02*
X174145Y400083D01*
X174066Y400085D01*
X173987Y400091D01*
X173908Y400100D01*
X173830Y400113D01*
X173753Y400131D01*
X173677Y400151D01*
X173602Y400176D01*
X173528Y400204D01*
X173455Y400235D01*
X173384Y400271D01*
X173315Y400309D01*
X173248Y400351D01*
X173183Y400396D01*
X173120Y400444D01*
X173059Y400495D01*
X173002Y400549D01*
X172946Y400605D01*
X172894Y400664D01*
X172844Y400726D01*
X172798Y400790D01*
X172754Y400856D01*
X172714Y400924D01*
X172678Y400994D01*
X172644Y401066D01*
X172614Y401140D01*
X172588Y401214D01*
X172565Y401290D01*
X172547Y401367D01*
X172531Y401444D01*
X172520Y401523D01*
X172512Y401601D01*
X172508Y401680D01*
X172508Y401760D01*
X172512Y401839D01*
X172520Y401917D01*
X172531Y401996D01*
X172547Y402073D01*
X172565Y402150D01*
X172588Y402226D01*
X172614Y402300D01*
X172644Y402374D01*
X172678Y402446D01*
X172714Y402516D01*
X172754Y402584D01*
X172798Y402650D01*
X172844Y402714D01*
X172894Y402776D01*
X172946Y402835D01*
X173002Y402891D01*
X173059Y402945D01*
X173120Y402996D01*
X173183Y403044D01*
X173248Y403089D01*
X173315Y403131D01*
X173384Y403169D01*
X173455Y403205D01*
X173528Y403236D01*
X173602Y403264D01*
X173677Y403289D01*
X173753Y403309D01*
X173830Y403327D01*
X173908Y403340D01*
X173987Y403349D01*
X174066Y403355D01*
X174145Y403357D01*
X174964Y403357D01*
X174964Y400083D01*
X177419Y406816D02*
X171281Y406816D01*
X171212Y406818D01*
X171144Y406824D01*
X171075Y406833D01*
X171008Y406847D01*
X170941Y406864D01*
X170875Y406885D01*
X170811Y406909D01*
X170748Y406938D01*
X170687Y406969D01*
X170628Y407004D01*
X170570Y407042D01*
X170515Y407084D01*
X170463Y407128D01*
X170413Y407176D01*
X170365Y407226D01*
X170321Y407278D01*
X170280Y407333D01*
X170241Y407391D01*
X170206Y407450D01*
X170175Y407511D01*
X170146Y407574D01*
X170122Y407638D01*
X170101Y407704D01*
X170084Y407771D01*
X170070Y407838D01*
X170061Y407906D01*
X170055Y407975D01*
X170053Y408044D01*
X170053Y408453D01*
X172508Y408453D02*
X172508Y405998D01*
X172508Y409938D02*
X172508Y412393D01*
X170053Y410756D02*
X176191Y410756D01*
X176260Y410758D01*
X176328Y410764D01*
X176397Y410773D01*
X176464Y410787D01*
X176531Y410804D01*
X176597Y410825D01*
X176661Y410849D01*
X176724Y410878D01*
X176785Y410909D01*
X176844Y410944D01*
X176902Y410982D01*
X176957Y411024D01*
X177009Y411068D01*
X177059Y411116D01*
X177107Y411166D01*
X177151Y411218D01*
X177193Y411273D01*
X177231Y411331D01*
X177266Y411390D01*
X177297Y411451D01*
X177326Y411514D01*
X177350Y411578D01*
X177371Y411644D01*
X177388Y411711D01*
X177402Y411778D01*
X177411Y411847D01*
X177417Y411915D01*
X177419Y411984D01*
X177419Y412393D01*
X177419Y267081D02*
X170053Y267081D01*
X177419Y267081D02*
X177419Y270355D01*
X177419Y274310D02*
X177419Y276357D01*
X177419Y274310D02*
X177417Y274241D01*
X177411Y274173D01*
X177402Y274104D01*
X177388Y274037D01*
X177371Y273970D01*
X177350Y273904D01*
X177326Y273840D01*
X177297Y273777D01*
X177266Y273716D01*
X177231Y273657D01*
X177193Y273599D01*
X177151Y273544D01*
X177107Y273492D01*
X177059Y273442D01*
X177009Y273394D01*
X176957Y273350D01*
X176902Y273309D01*
X176844Y273270D01*
X176785Y273235D01*
X176724Y273204D01*
X176661Y273175D01*
X176597Y273151D01*
X176531Y273130D01*
X176464Y273113D01*
X176397Y273099D01*
X176329Y273090D01*
X176260Y273084D01*
X176191Y273082D01*
X176191Y273083D02*
X174145Y273083D01*
X174066Y273085D01*
X173987Y273091D01*
X173908Y273100D01*
X173830Y273113D01*
X173753Y273131D01*
X173677Y273151D01*
X173602Y273176D01*
X173528Y273204D01*
X173455Y273235D01*
X173384Y273271D01*
X173315Y273309D01*
X173248Y273351D01*
X173183Y273396D01*
X173120Y273444D01*
X173059Y273495D01*
X173002Y273549D01*
X172946Y273605D01*
X172894Y273664D01*
X172844Y273726D01*
X172798Y273790D01*
X172754Y273856D01*
X172714Y273924D01*
X172678Y273994D01*
X172644Y274066D01*
X172614Y274140D01*
X172588Y274214D01*
X172565Y274290D01*
X172547Y274367D01*
X172531Y274444D01*
X172520Y274523D01*
X172512Y274601D01*
X172508Y274680D01*
X172508Y274760D01*
X172512Y274839D01*
X172520Y274917D01*
X172531Y274996D01*
X172547Y275073D01*
X172565Y275150D01*
X172588Y275226D01*
X172614Y275300D01*
X172644Y275374D01*
X172678Y275446D01*
X172714Y275516D01*
X172754Y275584D01*
X172798Y275650D01*
X172844Y275714D01*
X172894Y275776D01*
X172946Y275835D01*
X173002Y275891D01*
X173059Y275945D01*
X173120Y275996D01*
X173183Y276044D01*
X173248Y276089D01*
X173315Y276131D01*
X173384Y276169D01*
X173455Y276205D01*
X173528Y276236D01*
X173602Y276264D01*
X173677Y276289D01*
X173753Y276309D01*
X173830Y276327D01*
X173908Y276340D01*
X173987Y276349D01*
X174066Y276355D01*
X174145Y276357D01*
X174964Y276357D01*
X174964Y273083D01*
X177419Y279816D02*
X171281Y279816D01*
X171212Y279818D01*
X171144Y279824D01*
X171075Y279833D01*
X171008Y279847D01*
X170941Y279864D01*
X170875Y279885D01*
X170811Y279909D01*
X170748Y279938D01*
X170687Y279969D01*
X170628Y280004D01*
X170570Y280042D01*
X170515Y280084D01*
X170463Y280128D01*
X170413Y280176D01*
X170365Y280226D01*
X170321Y280278D01*
X170280Y280333D01*
X170241Y280391D01*
X170206Y280450D01*
X170175Y280511D01*
X170146Y280574D01*
X170122Y280638D01*
X170101Y280704D01*
X170084Y280771D01*
X170070Y280838D01*
X170061Y280906D01*
X170055Y280975D01*
X170053Y281044D01*
X170053Y281453D01*
X172508Y281453D02*
X172508Y278998D01*
X172508Y282938D02*
X172508Y285393D01*
X170053Y283756D02*
X176191Y283756D01*
X176260Y283758D01*
X176328Y283764D01*
X176397Y283773D01*
X176464Y283787D01*
X176531Y283804D01*
X176597Y283825D01*
X176661Y283849D01*
X176724Y283878D01*
X176785Y283909D01*
X176844Y283944D01*
X176902Y283982D01*
X176957Y284024D01*
X177009Y284068D01*
X177059Y284116D01*
X177107Y284166D01*
X177151Y284218D01*
X177193Y284273D01*
X177231Y284331D01*
X177266Y284390D01*
X177297Y284451D01*
X177326Y284514D01*
X177350Y284578D01*
X177371Y284644D01*
X177388Y284711D01*
X177402Y284778D01*
X177411Y284847D01*
X177417Y284915D01*
X177419Y284984D01*
X177419Y285393D01*
X559181Y31510D02*
X561227Y33147D01*
X561227Y25781D01*
X559181Y25781D02*
X563273Y25781D01*
X566496Y32329D02*
X566496Y33147D01*
X570588Y33147D01*
X568542Y25781D01*
X154827Y33147D02*
X152781Y31510D01*
X154827Y33147D02*
X154827Y25781D01*
X152781Y25781D02*
X156873Y25781D01*
X180432Y33148D02*
X180517Y33146D01*
X180602Y33140D01*
X180686Y33130D01*
X180770Y33117D01*
X180854Y33099D01*
X180936Y33078D01*
X181017Y33053D01*
X181097Y33024D01*
X181176Y32991D01*
X181253Y32955D01*
X181328Y32915D01*
X181402Y32872D01*
X181473Y32826D01*
X181542Y32776D01*
X181609Y32723D01*
X181673Y32667D01*
X181734Y32608D01*
X181793Y32547D01*
X181849Y32483D01*
X181902Y32416D01*
X181952Y32347D01*
X181998Y32276D01*
X182041Y32202D01*
X182081Y32127D01*
X182117Y32050D01*
X182150Y31971D01*
X182179Y31891D01*
X182204Y31810D01*
X182225Y31728D01*
X182243Y31644D01*
X182256Y31560D01*
X182266Y31476D01*
X182272Y31391D01*
X182274Y31306D01*
X180432Y33147D02*
X180336Y33145D01*
X180240Y33139D01*
X180145Y33129D01*
X180050Y33116D01*
X179955Y33098D01*
X179862Y33077D01*
X179769Y33052D01*
X179678Y33023D01*
X179587Y32991D01*
X179498Y32955D01*
X179411Y32915D01*
X179325Y32872D01*
X179241Y32826D01*
X179159Y32776D01*
X179079Y32722D01*
X179002Y32666D01*
X178927Y32606D01*
X178854Y32544D01*
X178784Y32478D01*
X178716Y32410D01*
X178651Y32339D01*
X178590Y32266D01*
X178531Y32190D01*
X178475Y32111D01*
X178423Y32031D01*
X178374Y31948D01*
X178328Y31864D01*
X178286Y31778D01*
X178248Y31690D01*
X178213Y31601D01*
X178181Y31510D01*
X181659Y29874D02*
X181719Y29933D01*
X181776Y29995D01*
X181831Y30059D01*
X181882Y30126D01*
X181931Y30195D01*
X181977Y30265D01*
X182020Y30338D01*
X182060Y30412D01*
X182096Y30488D01*
X182129Y30566D01*
X182159Y30645D01*
X182186Y30725D01*
X182209Y30806D01*
X182228Y30888D01*
X182244Y30970D01*
X182257Y31054D01*
X182266Y31138D01*
X182271Y31222D01*
X182273Y31306D01*
X181659Y29873D02*
X178181Y25781D01*
X182273Y25781D01*
X203581Y25781D02*
X205627Y25781D01*
X205716Y25783D01*
X205805Y25789D01*
X205894Y25799D01*
X205982Y25812D01*
X206070Y25829D01*
X206157Y25851D01*
X206242Y25876D01*
X206327Y25904D01*
X206410Y25937D01*
X206492Y25973D01*
X206572Y26012D01*
X206650Y26055D01*
X206726Y26101D01*
X206801Y26151D01*
X206873Y26204D01*
X206942Y26260D01*
X207009Y26319D01*
X207074Y26380D01*
X207135Y26445D01*
X207194Y26512D01*
X207250Y26581D01*
X207303Y26653D01*
X207353Y26728D01*
X207399Y26804D01*
X207442Y26882D01*
X207481Y26962D01*
X207517Y27044D01*
X207550Y27127D01*
X207578Y27212D01*
X207603Y27297D01*
X207625Y27384D01*
X207642Y27472D01*
X207655Y27560D01*
X207665Y27649D01*
X207671Y27738D01*
X207673Y27827D01*
X207671Y27916D01*
X207665Y28005D01*
X207655Y28094D01*
X207642Y28182D01*
X207625Y28270D01*
X207603Y28357D01*
X207578Y28442D01*
X207550Y28527D01*
X207517Y28610D01*
X207481Y28692D01*
X207442Y28772D01*
X207399Y28850D01*
X207353Y28926D01*
X207303Y29001D01*
X207250Y29073D01*
X207194Y29142D01*
X207135Y29209D01*
X207074Y29274D01*
X207009Y29335D01*
X206942Y29394D01*
X206873Y29450D01*
X206801Y29503D01*
X206726Y29553D01*
X206650Y29599D01*
X206572Y29642D01*
X206492Y29681D01*
X206410Y29717D01*
X206327Y29750D01*
X206242Y29778D01*
X206157Y29803D01*
X206070Y29825D01*
X205982Y29842D01*
X205894Y29855D01*
X205805Y29865D01*
X205716Y29871D01*
X205627Y29873D01*
X206036Y33147D02*
X203581Y33147D01*
X206036Y33147D02*
X206115Y33145D01*
X206194Y33139D01*
X206273Y33130D01*
X206351Y33117D01*
X206428Y33099D01*
X206504Y33079D01*
X206579Y33054D01*
X206653Y33026D01*
X206726Y32995D01*
X206797Y32959D01*
X206866Y32921D01*
X206933Y32879D01*
X206998Y32834D01*
X207061Y32786D01*
X207122Y32735D01*
X207179Y32681D01*
X207235Y32625D01*
X207287Y32566D01*
X207337Y32504D01*
X207383Y32440D01*
X207427Y32374D01*
X207467Y32306D01*
X207503Y32236D01*
X207537Y32164D01*
X207567Y32090D01*
X207593Y32016D01*
X207616Y31940D01*
X207634Y31863D01*
X207650Y31786D01*
X207661Y31707D01*
X207669Y31629D01*
X207673Y31550D01*
X207673Y31470D01*
X207669Y31391D01*
X207661Y31313D01*
X207650Y31234D01*
X207634Y31157D01*
X207616Y31080D01*
X207593Y31004D01*
X207567Y30930D01*
X207537Y30856D01*
X207503Y30784D01*
X207467Y30714D01*
X207427Y30646D01*
X207383Y30580D01*
X207337Y30516D01*
X207287Y30454D01*
X207235Y30395D01*
X207179Y30339D01*
X207122Y30285D01*
X207061Y30234D01*
X206998Y30186D01*
X206933Y30141D01*
X206866Y30099D01*
X206797Y30061D01*
X206726Y30025D01*
X206653Y29994D01*
X206579Y29966D01*
X206504Y29941D01*
X206428Y29921D01*
X206351Y29903D01*
X206273Y29890D01*
X206194Y29881D01*
X206115Y29875D01*
X206036Y29873D01*
X204399Y29873D01*
X228981Y27418D02*
X230618Y33147D01*
X228981Y27418D02*
X233073Y27418D01*
X231846Y29055D02*
X231846Y25781D01*
X254381Y25781D02*
X256836Y25781D01*
X256914Y25783D01*
X256992Y25788D01*
X257069Y25798D01*
X257146Y25811D01*
X257222Y25827D01*
X257297Y25847D01*
X257371Y25871D01*
X257444Y25898D01*
X257516Y25929D01*
X257586Y25963D01*
X257655Y26000D01*
X257721Y26041D01*
X257786Y26085D01*
X257848Y26131D01*
X257908Y26181D01*
X257966Y26233D01*
X258021Y26288D01*
X258073Y26346D01*
X258123Y26406D01*
X258169Y26468D01*
X258213Y26533D01*
X258254Y26600D01*
X258291Y26668D01*
X258325Y26738D01*
X258356Y26810D01*
X258383Y26883D01*
X258407Y26957D01*
X258427Y27032D01*
X258443Y27108D01*
X258456Y27185D01*
X258466Y27262D01*
X258471Y27340D01*
X258473Y27418D01*
X258473Y28236D01*
X258471Y28314D01*
X258466Y28392D01*
X258456Y28469D01*
X258443Y28546D01*
X258427Y28622D01*
X258407Y28697D01*
X258383Y28771D01*
X258356Y28844D01*
X258325Y28916D01*
X258291Y28986D01*
X258254Y29055D01*
X258213Y29121D01*
X258169Y29186D01*
X258123Y29248D01*
X258073Y29308D01*
X258021Y29366D01*
X257966Y29421D01*
X257908Y29473D01*
X257848Y29523D01*
X257786Y29569D01*
X257721Y29613D01*
X257655Y29654D01*
X257586Y29691D01*
X257516Y29725D01*
X257444Y29756D01*
X257371Y29783D01*
X257297Y29807D01*
X257222Y29827D01*
X257146Y29843D01*
X257069Y29856D01*
X256992Y29866D01*
X256914Y29871D01*
X256836Y29873D01*
X254381Y29873D01*
X254381Y33147D01*
X258473Y33147D01*
X279781Y29873D02*
X282236Y29873D01*
X282314Y29871D01*
X282392Y29866D01*
X282469Y29856D01*
X282546Y29843D01*
X282622Y29827D01*
X282697Y29807D01*
X282771Y29783D01*
X282844Y29756D01*
X282916Y29725D01*
X282986Y29691D01*
X283055Y29654D01*
X283121Y29613D01*
X283186Y29569D01*
X283248Y29523D01*
X283308Y29473D01*
X283366Y29421D01*
X283421Y29366D01*
X283473Y29308D01*
X283523Y29248D01*
X283569Y29186D01*
X283613Y29121D01*
X283654Y29055D01*
X283691Y28986D01*
X283725Y28916D01*
X283756Y28844D01*
X283783Y28771D01*
X283807Y28697D01*
X283827Y28622D01*
X283843Y28546D01*
X283856Y28469D01*
X283866Y28392D01*
X283871Y28314D01*
X283873Y28236D01*
X283873Y27827D01*
X283871Y27738D01*
X283865Y27649D01*
X283855Y27560D01*
X283842Y27472D01*
X283825Y27384D01*
X283803Y27297D01*
X283778Y27212D01*
X283750Y27127D01*
X283717Y27044D01*
X283681Y26962D01*
X283642Y26882D01*
X283599Y26804D01*
X283553Y26728D01*
X283503Y26653D01*
X283450Y26581D01*
X283394Y26512D01*
X283335Y26445D01*
X283274Y26380D01*
X283209Y26319D01*
X283142Y26260D01*
X283073Y26204D01*
X283001Y26151D01*
X282926Y26101D01*
X282850Y26055D01*
X282772Y26012D01*
X282692Y25973D01*
X282610Y25937D01*
X282527Y25904D01*
X282442Y25876D01*
X282357Y25851D01*
X282270Y25829D01*
X282182Y25812D01*
X282094Y25799D01*
X282005Y25789D01*
X281916Y25783D01*
X281827Y25781D01*
X281738Y25783D01*
X281649Y25789D01*
X281560Y25799D01*
X281472Y25812D01*
X281384Y25829D01*
X281297Y25851D01*
X281212Y25876D01*
X281127Y25904D01*
X281044Y25937D01*
X280962Y25973D01*
X280882Y26012D01*
X280804Y26055D01*
X280728Y26101D01*
X280653Y26151D01*
X280581Y26204D01*
X280512Y26260D01*
X280445Y26319D01*
X280380Y26380D01*
X280319Y26445D01*
X280260Y26512D01*
X280204Y26581D01*
X280151Y26653D01*
X280101Y26728D01*
X280055Y26804D01*
X280012Y26882D01*
X279973Y26962D01*
X279937Y27044D01*
X279904Y27127D01*
X279876Y27212D01*
X279851Y27297D01*
X279829Y27384D01*
X279812Y27472D01*
X279799Y27560D01*
X279789Y27649D01*
X279783Y27738D01*
X279781Y27827D01*
X279781Y29873D01*
X279783Y29987D01*
X279789Y30101D01*
X279799Y30215D01*
X279813Y30329D01*
X279831Y30442D01*
X279853Y30554D01*
X279878Y30665D01*
X279908Y30775D01*
X279941Y30885D01*
X279978Y30993D01*
X280019Y31099D01*
X280064Y31205D01*
X280112Y31308D01*
X280164Y31410D01*
X280220Y31510D01*
X280278Y31608D01*
X280341Y31704D01*
X280406Y31797D01*
X280475Y31889D01*
X280547Y31977D01*
X280622Y32064D01*
X280700Y32147D01*
X280781Y32228D01*
X280864Y32306D01*
X280951Y32381D01*
X281039Y32453D01*
X281131Y32522D01*
X281224Y32587D01*
X281320Y32649D01*
X281418Y32708D01*
X281518Y32764D01*
X281620Y32816D01*
X281723Y32864D01*
X281829Y32909D01*
X281935Y32950D01*
X282043Y32987D01*
X282153Y33020D01*
X282263Y33050D01*
X282374Y33075D01*
X282486Y33097D01*
X282599Y33115D01*
X282713Y33129D01*
X282827Y33139D01*
X282941Y33145D01*
X283055Y33147D01*
X305181Y33147D02*
X305181Y32329D01*
X305181Y33147D02*
X309273Y33147D01*
X307227Y25781D01*
X330581Y27827D02*
X330583Y27916D01*
X330589Y28005D01*
X330599Y28094D01*
X330612Y28182D01*
X330629Y28270D01*
X330651Y28357D01*
X330676Y28442D01*
X330704Y28527D01*
X330737Y28610D01*
X330773Y28692D01*
X330812Y28772D01*
X330855Y28850D01*
X330901Y28926D01*
X330951Y29001D01*
X331004Y29073D01*
X331060Y29142D01*
X331119Y29209D01*
X331180Y29274D01*
X331245Y29335D01*
X331312Y29394D01*
X331381Y29450D01*
X331453Y29503D01*
X331528Y29553D01*
X331604Y29599D01*
X331682Y29642D01*
X331762Y29681D01*
X331844Y29717D01*
X331927Y29750D01*
X332012Y29778D01*
X332097Y29803D01*
X332184Y29825D01*
X332272Y29842D01*
X332360Y29855D01*
X332449Y29865D01*
X332538Y29871D01*
X332627Y29873D01*
X332716Y29871D01*
X332805Y29865D01*
X332894Y29855D01*
X332982Y29842D01*
X333070Y29825D01*
X333157Y29803D01*
X333242Y29778D01*
X333327Y29750D01*
X333410Y29717D01*
X333492Y29681D01*
X333572Y29642D01*
X333650Y29599D01*
X333726Y29553D01*
X333801Y29503D01*
X333873Y29450D01*
X333942Y29394D01*
X334009Y29335D01*
X334074Y29274D01*
X334135Y29209D01*
X334194Y29142D01*
X334250Y29073D01*
X334303Y29001D01*
X334353Y28926D01*
X334399Y28850D01*
X334442Y28772D01*
X334481Y28692D01*
X334517Y28610D01*
X334550Y28527D01*
X334578Y28442D01*
X334603Y28357D01*
X334625Y28270D01*
X334642Y28182D01*
X334655Y28094D01*
X334665Y28005D01*
X334671Y27916D01*
X334673Y27827D01*
X334671Y27738D01*
X334665Y27649D01*
X334655Y27560D01*
X334642Y27472D01*
X334625Y27384D01*
X334603Y27297D01*
X334578Y27212D01*
X334550Y27127D01*
X334517Y27044D01*
X334481Y26962D01*
X334442Y26882D01*
X334399Y26804D01*
X334353Y26728D01*
X334303Y26653D01*
X334250Y26581D01*
X334194Y26512D01*
X334135Y26445D01*
X334074Y26380D01*
X334009Y26319D01*
X333942Y26260D01*
X333873Y26204D01*
X333801Y26151D01*
X333726Y26101D01*
X333650Y26055D01*
X333572Y26012D01*
X333492Y25973D01*
X333410Y25937D01*
X333327Y25904D01*
X333242Y25876D01*
X333157Y25851D01*
X333070Y25829D01*
X332982Y25812D01*
X332894Y25799D01*
X332805Y25789D01*
X332716Y25783D01*
X332627Y25781D01*
X332538Y25783D01*
X332449Y25789D01*
X332360Y25799D01*
X332272Y25812D01*
X332184Y25829D01*
X332097Y25851D01*
X332012Y25876D01*
X331927Y25904D01*
X331844Y25937D01*
X331762Y25973D01*
X331682Y26012D01*
X331604Y26055D01*
X331528Y26101D01*
X331453Y26151D01*
X331381Y26204D01*
X331312Y26260D01*
X331245Y26319D01*
X331180Y26380D01*
X331119Y26445D01*
X331060Y26512D01*
X331004Y26581D01*
X330951Y26653D01*
X330901Y26728D01*
X330855Y26804D01*
X330812Y26882D01*
X330773Y26962D01*
X330737Y27044D01*
X330704Y27127D01*
X330676Y27212D01*
X330651Y27297D01*
X330629Y27384D01*
X330612Y27472D01*
X330599Y27560D01*
X330589Y27649D01*
X330583Y27738D01*
X330581Y27827D01*
X330990Y31510D02*
X330992Y31589D01*
X330998Y31668D01*
X331007Y31747D01*
X331020Y31825D01*
X331038Y31902D01*
X331058Y31978D01*
X331083Y32053D01*
X331111Y32127D01*
X331142Y32200D01*
X331178Y32271D01*
X331216Y32340D01*
X331258Y32407D01*
X331303Y32472D01*
X331351Y32535D01*
X331402Y32596D01*
X331456Y32653D01*
X331512Y32709D01*
X331571Y32761D01*
X331633Y32811D01*
X331697Y32857D01*
X331763Y32901D01*
X331831Y32941D01*
X331901Y32977D01*
X331973Y33011D01*
X332047Y33041D01*
X332121Y33067D01*
X332197Y33090D01*
X332274Y33108D01*
X332351Y33124D01*
X332430Y33135D01*
X332508Y33143D01*
X332587Y33147D01*
X332667Y33147D01*
X332746Y33143D01*
X332824Y33135D01*
X332903Y33124D01*
X332980Y33108D01*
X333057Y33090D01*
X333133Y33067D01*
X333207Y33041D01*
X333281Y33011D01*
X333353Y32977D01*
X333423Y32941D01*
X333491Y32901D01*
X333557Y32857D01*
X333621Y32811D01*
X333683Y32761D01*
X333742Y32709D01*
X333798Y32653D01*
X333852Y32596D01*
X333903Y32535D01*
X333951Y32472D01*
X333996Y32407D01*
X334038Y32340D01*
X334076Y32271D01*
X334112Y32200D01*
X334143Y32127D01*
X334171Y32053D01*
X334196Y31978D01*
X334216Y31902D01*
X334234Y31825D01*
X334247Y31747D01*
X334256Y31668D01*
X334262Y31589D01*
X334264Y31510D01*
X334262Y31431D01*
X334256Y31352D01*
X334247Y31273D01*
X334234Y31195D01*
X334216Y31118D01*
X334196Y31042D01*
X334171Y30967D01*
X334143Y30893D01*
X334112Y30820D01*
X334076Y30749D01*
X334038Y30680D01*
X333996Y30613D01*
X333951Y30548D01*
X333903Y30485D01*
X333852Y30424D01*
X333798Y30367D01*
X333742Y30311D01*
X333683Y30259D01*
X333621Y30209D01*
X333557Y30163D01*
X333491Y30119D01*
X333423Y30079D01*
X333353Y30043D01*
X333281Y30009D01*
X333207Y29979D01*
X333133Y29953D01*
X333057Y29930D01*
X332980Y29912D01*
X332903Y29896D01*
X332824Y29885D01*
X332746Y29877D01*
X332667Y29873D01*
X332587Y29873D01*
X332508Y29877D01*
X332430Y29885D01*
X332351Y29896D01*
X332274Y29912D01*
X332197Y29930D01*
X332121Y29953D01*
X332047Y29979D01*
X331973Y30009D01*
X331901Y30043D01*
X331831Y30079D01*
X331763Y30119D01*
X331697Y30163D01*
X331633Y30209D01*
X331571Y30259D01*
X331512Y30311D01*
X331456Y30367D01*
X331402Y30424D01*
X331351Y30485D01*
X331303Y30548D01*
X331258Y30613D01*
X331216Y30680D01*
X331178Y30749D01*
X331142Y30820D01*
X331111Y30893D01*
X331083Y30967D01*
X331058Y31042D01*
X331038Y31118D01*
X331020Y31195D01*
X331007Y31273D01*
X330998Y31352D01*
X330992Y31431D01*
X330990Y31510D01*
X357618Y29055D02*
X360073Y29055D01*
X357618Y29055D02*
X357540Y29057D01*
X357462Y29062D01*
X357385Y29072D01*
X357308Y29085D01*
X357232Y29101D01*
X357157Y29121D01*
X357083Y29145D01*
X357010Y29172D01*
X356938Y29203D01*
X356868Y29237D01*
X356799Y29274D01*
X356733Y29315D01*
X356668Y29359D01*
X356606Y29405D01*
X356546Y29455D01*
X356488Y29507D01*
X356433Y29562D01*
X356381Y29620D01*
X356331Y29680D01*
X356285Y29742D01*
X356241Y29807D01*
X356200Y29874D01*
X356163Y29942D01*
X356129Y30012D01*
X356098Y30084D01*
X356071Y30157D01*
X356047Y30231D01*
X356027Y30306D01*
X356011Y30382D01*
X355998Y30459D01*
X355988Y30536D01*
X355983Y30614D01*
X355981Y30692D01*
X355981Y31101D01*
X355983Y31190D01*
X355989Y31279D01*
X355999Y31368D01*
X356012Y31456D01*
X356029Y31544D01*
X356051Y31631D01*
X356076Y31716D01*
X356104Y31801D01*
X356137Y31884D01*
X356173Y31966D01*
X356212Y32046D01*
X356255Y32124D01*
X356301Y32200D01*
X356351Y32275D01*
X356404Y32347D01*
X356460Y32416D01*
X356519Y32483D01*
X356580Y32548D01*
X356645Y32609D01*
X356712Y32668D01*
X356781Y32724D01*
X356853Y32777D01*
X356928Y32827D01*
X357004Y32873D01*
X357082Y32916D01*
X357162Y32955D01*
X357244Y32991D01*
X357327Y33024D01*
X357412Y33052D01*
X357497Y33077D01*
X357584Y33099D01*
X357672Y33116D01*
X357760Y33129D01*
X357849Y33139D01*
X357938Y33145D01*
X358027Y33147D01*
X358116Y33145D01*
X358205Y33139D01*
X358294Y33129D01*
X358382Y33116D01*
X358470Y33099D01*
X358557Y33077D01*
X358642Y33052D01*
X358727Y33024D01*
X358810Y32991D01*
X358892Y32955D01*
X358972Y32916D01*
X359050Y32873D01*
X359126Y32827D01*
X359201Y32777D01*
X359273Y32724D01*
X359342Y32668D01*
X359409Y32609D01*
X359474Y32548D01*
X359535Y32483D01*
X359594Y32416D01*
X359650Y32347D01*
X359703Y32275D01*
X359753Y32200D01*
X359799Y32124D01*
X359842Y32046D01*
X359881Y31966D01*
X359917Y31884D01*
X359950Y31801D01*
X359978Y31716D01*
X360003Y31631D01*
X360025Y31544D01*
X360042Y31456D01*
X360055Y31368D01*
X360065Y31279D01*
X360071Y31190D01*
X360073Y31101D01*
X360073Y29055D01*
X360071Y28943D01*
X360065Y28832D01*
X360056Y28720D01*
X360043Y28609D01*
X360025Y28499D01*
X360005Y28389D01*
X359980Y28280D01*
X359952Y28172D01*
X359920Y28065D01*
X359884Y27959D01*
X359845Y27854D01*
X359802Y27751D01*
X359756Y27649D01*
X359706Y27549D01*
X359653Y27450D01*
X359596Y27354D01*
X359537Y27259D01*
X359474Y27167D01*
X359408Y27077D01*
X359339Y26989D01*
X359267Y26903D01*
X359192Y26820D01*
X359114Y26740D01*
X359034Y26662D01*
X358951Y26587D01*
X358865Y26515D01*
X358777Y26446D01*
X358687Y26380D01*
X358595Y26317D01*
X358500Y26258D01*
X358404Y26201D01*
X358305Y26148D01*
X358205Y26098D01*
X358103Y26052D01*
X358000Y26009D01*
X357895Y25970D01*
X357789Y25934D01*
X357682Y25902D01*
X357574Y25874D01*
X357465Y25849D01*
X357355Y25829D01*
X357245Y25811D01*
X357134Y25798D01*
X357022Y25789D01*
X356911Y25783D01*
X356799Y25781D01*
X381381Y31510D02*
X383427Y33147D01*
X383427Y25781D01*
X381381Y25781D02*
X385473Y25781D01*
X388697Y29464D02*
X388699Y29617D01*
X388705Y29770D01*
X388714Y29922D01*
X388728Y30075D01*
X388745Y30227D01*
X388766Y30378D01*
X388791Y30529D01*
X388820Y30679D01*
X388852Y30829D01*
X388889Y30977D01*
X388929Y31125D01*
X388972Y31272D01*
X389020Y31417D01*
X389071Y31561D01*
X389125Y31704D01*
X389184Y31846D01*
X389245Y31985D01*
X389311Y32124D01*
X389310Y32124D02*
X389336Y32194D01*
X389366Y32264D01*
X389399Y32331D01*
X389435Y32397D01*
X389474Y32461D01*
X389517Y32523D01*
X389563Y32582D01*
X389611Y32640D01*
X389662Y32694D01*
X389716Y32747D01*
X389773Y32796D01*
X389832Y32843D01*
X389893Y32886D01*
X389956Y32927D01*
X390021Y32964D01*
X390088Y32999D01*
X390157Y33029D01*
X390227Y33057D01*
X390298Y33080D01*
X390370Y33101D01*
X390443Y33117D01*
X390517Y33130D01*
X390592Y33140D01*
X390667Y33145D01*
X390742Y33147D01*
X390817Y33145D01*
X390892Y33140D01*
X390967Y33130D01*
X391041Y33117D01*
X391114Y33101D01*
X391186Y33080D01*
X391257Y33057D01*
X391327Y33029D01*
X391396Y32999D01*
X391463Y32964D01*
X391528Y32927D01*
X391591Y32886D01*
X391652Y32843D01*
X391711Y32796D01*
X391768Y32747D01*
X391822Y32694D01*
X391873Y32640D01*
X391922Y32582D01*
X391967Y32523D01*
X392010Y32461D01*
X392049Y32397D01*
X392086Y32331D01*
X392118Y32263D01*
X392148Y32194D01*
X392174Y32124D01*
X392239Y31986D01*
X392301Y31846D01*
X392359Y31704D01*
X392414Y31561D01*
X392465Y31417D01*
X392513Y31272D01*
X392556Y31125D01*
X392596Y30978D01*
X392633Y30829D01*
X392665Y30679D01*
X392694Y30529D01*
X392719Y30378D01*
X392740Y30227D01*
X392757Y30075D01*
X392771Y29922D01*
X392780Y29770D01*
X392786Y29617D01*
X392788Y29464D01*
X388696Y29464D02*
X388698Y29311D01*
X388704Y29158D01*
X388713Y29005D01*
X388727Y28853D01*
X388744Y28701D01*
X388765Y28550D01*
X388790Y28399D01*
X388819Y28248D01*
X388851Y28099D01*
X388888Y27950D01*
X388928Y27803D01*
X388971Y27656D01*
X389019Y27511D01*
X389070Y27366D01*
X389125Y27224D01*
X389183Y27082D01*
X389245Y26942D01*
X389310Y26804D01*
X389336Y26733D01*
X389366Y26664D01*
X389399Y26597D01*
X389435Y26531D01*
X389474Y26467D01*
X389517Y26405D01*
X389563Y26346D01*
X389611Y26288D01*
X389662Y26234D01*
X389716Y26181D01*
X389773Y26132D01*
X389832Y26085D01*
X389893Y26042D01*
X389956Y26001D01*
X390021Y25964D01*
X390088Y25929D01*
X390157Y25899D01*
X390227Y25871D01*
X390298Y25848D01*
X390370Y25827D01*
X390443Y25811D01*
X390517Y25798D01*
X390592Y25788D01*
X390667Y25783D01*
X390742Y25781D01*
X392174Y26804D02*
X392239Y26942D01*
X392301Y27082D01*
X392359Y27224D01*
X392414Y27367D01*
X392465Y27511D01*
X392513Y27656D01*
X392556Y27803D01*
X392596Y27951D01*
X392633Y28099D01*
X392665Y28249D01*
X392694Y28399D01*
X392719Y28550D01*
X392740Y28701D01*
X392757Y28853D01*
X392771Y29006D01*
X392780Y29158D01*
X392786Y29311D01*
X392788Y29464D01*
X392174Y26804D02*
X392148Y26734D01*
X392118Y26664D01*
X392086Y26597D01*
X392049Y26531D01*
X392010Y26467D01*
X391967Y26405D01*
X391921Y26346D01*
X391873Y26288D01*
X391822Y26234D01*
X391768Y26181D01*
X391711Y26132D01*
X391652Y26085D01*
X391591Y26042D01*
X391528Y26001D01*
X391463Y25964D01*
X391396Y25929D01*
X391327Y25899D01*
X391257Y25871D01*
X391186Y25848D01*
X391114Y25827D01*
X391041Y25811D01*
X390967Y25798D01*
X390892Y25788D01*
X390817Y25783D01*
X390742Y25781D01*
X389105Y27418D02*
X392379Y31510D01*
X406781Y31510D02*
X408827Y33147D01*
X408827Y25781D01*
X406781Y25781D02*
X410873Y25781D01*
X414096Y31510D02*
X416142Y33147D01*
X416142Y25781D01*
X414096Y25781D02*
X418188Y25781D01*
X432181Y31510D02*
X434227Y33147D01*
X434227Y25781D01*
X432181Y25781D02*
X436273Y25781D01*
X443589Y31306D02*
X443587Y31391D01*
X443581Y31476D01*
X443571Y31560D01*
X443558Y31644D01*
X443540Y31728D01*
X443519Y31810D01*
X443494Y31891D01*
X443465Y31971D01*
X443432Y32050D01*
X443396Y32127D01*
X443356Y32202D01*
X443313Y32276D01*
X443267Y32347D01*
X443217Y32416D01*
X443164Y32483D01*
X443108Y32547D01*
X443049Y32608D01*
X442988Y32667D01*
X442924Y32723D01*
X442857Y32776D01*
X442788Y32826D01*
X442717Y32872D01*
X442643Y32915D01*
X442568Y32955D01*
X442491Y32991D01*
X442412Y33024D01*
X442332Y33053D01*
X442251Y33078D01*
X442169Y33099D01*
X442085Y33117D01*
X442001Y33130D01*
X441917Y33140D01*
X441832Y33146D01*
X441747Y33148D01*
X441747Y33147D02*
X441651Y33145D01*
X441555Y33139D01*
X441460Y33129D01*
X441365Y33116D01*
X441270Y33098D01*
X441177Y33077D01*
X441084Y33052D01*
X440993Y33023D01*
X440902Y32991D01*
X440813Y32955D01*
X440726Y32915D01*
X440640Y32872D01*
X440556Y32826D01*
X440474Y32776D01*
X440394Y32722D01*
X440317Y32666D01*
X440242Y32606D01*
X440169Y32544D01*
X440099Y32478D01*
X440031Y32410D01*
X439966Y32339D01*
X439905Y32266D01*
X439846Y32190D01*
X439790Y32111D01*
X439738Y32031D01*
X439689Y31948D01*
X439643Y31864D01*
X439601Y31778D01*
X439563Y31690D01*
X439528Y31601D01*
X439496Y31510D01*
X442975Y29874D02*
X443035Y29933D01*
X443092Y29995D01*
X443147Y30059D01*
X443198Y30126D01*
X443247Y30195D01*
X443293Y30265D01*
X443336Y30338D01*
X443376Y30412D01*
X443412Y30488D01*
X443445Y30566D01*
X443475Y30645D01*
X443502Y30725D01*
X443525Y30806D01*
X443544Y30888D01*
X443560Y30970D01*
X443573Y31054D01*
X443582Y31138D01*
X443587Y31222D01*
X443589Y31306D01*
X442975Y29873D02*
X439496Y25781D01*
X443588Y25781D01*
X457581Y31510D02*
X459627Y33147D01*
X459627Y25781D01*
X457581Y25781D02*
X461673Y25781D01*
X464896Y25781D02*
X466942Y25781D01*
X467031Y25783D01*
X467120Y25789D01*
X467209Y25799D01*
X467297Y25812D01*
X467385Y25829D01*
X467472Y25851D01*
X467557Y25876D01*
X467642Y25904D01*
X467725Y25937D01*
X467807Y25973D01*
X467887Y26012D01*
X467965Y26055D01*
X468041Y26101D01*
X468116Y26151D01*
X468188Y26204D01*
X468257Y26260D01*
X468324Y26319D01*
X468389Y26380D01*
X468450Y26445D01*
X468509Y26512D01*
X468565Y26581D01*
X468618Y26653D01*
X468668Y26728D01*
X468714Y26804D01*
X468757Y26882D01*
X468796Y26962D01*
X468832Y27044D01*
X468865Y27127D01*
X468893Y27212D01*
X468918Y27297D01*
X468940Y27384D01*
X468957Y27472D01*
X468970Y27560D01*
X468980Y27649D01*
X468986Y27738D01*
X468988Y27827D01*
X468986Y27916D01*
X468980Y28005D01*
X468970Y28094D01*
X468957Y28182D01*
X468940Y28270D01*
X468918Y28357D01*
X468893Y28442D01*
X468865Y28527D01*
X468832Y28610D01*
X468796Y28692D01*
X468757Y28772D01*
X468714Y28850D01*
X468668Y28926D01*
X468618Y29001D01*
X468565Y29073D01*
X468509Y29142D01*
X468450Y29209D01*
X468389Y29274D01*
X468324Y29335D01*
X468257Y29394D01*
X468188Y29450D01*
X468116Y29503D01*
X468041Y29553D01*
X467965Y29599D01*
X467887Y29642D01*
X467807Y29681D01*
X467725Y29717D01*
X467642Y29750D01*
X467557Y29778D01*
X467472Y29803D01*
X467385Y29825D01*
X467297Y29842D01*
X467209Y29855D01*
X467120Y29865D01*
X467031Y29871D01*
X466942Y29873D01*
X467352Y33147D02*
X464896Y33147D01*
X467352Y33147D02*
X467431Y33145D01*
X467510Y33139D01*
X467589Y33130D01*
X467667Y33117D01*
X467744Y33099D01*
X467820Y33079D01*
X467895Y33054D01*
X467969Y33026D01*
X468042Y32995D01*
X468113Y32959D01*
X468182Y32921D01*
X468249Y32879D01*
X468314Y32834D01*
X468377Y32786D01*
X468438Y32735D01*
X468495Y32681D01*
X468551Y32625D01*
X468603Y32566D01*
X468653Y32504D01*
X468699Y32440D01*
X468743Y32374D01*
X468783Y32306D01*
X468819Y32236D01*
X468853Y32164D01*
X468883Y32090D01*
X468909Y32016D01*
X468932Y31940D01*
X468950Y31863D01*
X468966Y31786D01*
X468977Y31707D01*
X468985Y31629D01*
X468989Y31550D01*
X468989Y31470D01*
X468985Y31391D01*
X468977Y31313D01*
X468966Y31234D01*
X468950Y31157D01*
X468932Y31080D01*
X468909Y31004D01*
X468883Y30930D01*
X468853Y30856D01*
X468819Y30784D01*
X468783Y30714D01*
X468743Y30646D01*
X468699Y30580D01*
X468653Y30516D01*
X468603Y30454D01*
X468551Y30395D01*
X468495Y30339D01*
X468438Y30285D01*
X468377Y30234D01*
X468314Y30186D01*
X468249Y30141D01*
X468182Y30099D01*
X468113Y30061D01*
X468042Y30025D01*
X467969Y29994D01*
X467895Y29966D01*
X467820Y29941D01*
X467744Y29921D01*
X467667Y29903D01*
X467589Y29890D01*
X467510Y29881D01*
X467431Y29875D01*
X467352Y29873D01*
X465715Y29873D01*
X482981Y31510D02*
X485027Y33147D01*
X485027Y25781D01*
X482981Y25781D02*
X487073Y25781D01*
X490296Y27418D02*
X491933Y33147D01*
X490296Y27418D02*
X494388Y27418D01*
X493161Y29055D02*
X493161Y25781D01*
X508381Y31510D02*
X510427Y33147D01*
X510427Y25781D01*
X508381Y25781D02*
X512473Y25781D01*
X515696Y25781D02*
X518152Y25781D01*
X518230Y25783D01*
X518308Y25788D01*
X518385Y25798D01*
X518462Y25811D01*
X518538Y25827D01*
X518613Y25847D01*
X518687Y25871D01*
X518760Y25898D01*
X518832Y25929D01*
X518902Y25963D01*
X518971Y26000D01*
X519037Y26041D01*
X519102Y26085D01*
X519164Y26131D01*
X519224Y26181D01*
X519282Y26233D01*
X519337Y26288D01*
X519389Y26346D01*
X519439Y26406D01*
X519485Y26468D01*
X519529Y26533D01*
X519570Y26600D01*
X519607Y26668D01*
X519641Y26738D01*
X519672Y26810D01*
X519699Y26883D01*
X519723Y26957D01*
X519743Y27032D01*
X519759Y27108D01*
X519772Y27185D01*
X519782Y27262D01*
X519787Y27340D01*
X519789Y27418D01*
X519788Y27418D02*
X519788Y28236D01*
X519789Y28236D02*
X519787Y28314D01*
X519782Y28392D01*
X519772Y28469D01*
X519759Y28546D01*
X519743Y28622D01*
X519723Y28697D01*
X519699Y28771D01*
X519672Y28844D01*
X519641Y28916D01*
X519607Y28986D01*
X519570Y29055D01*
X519529Y29121D01*
X519485Y29186D01*
X519439Y29248D01*
X519389Y29308D01*
X519337Y29366D01*
X519282Y29421D01*
X519224Y29473D01*
X519164Y29523D01*
X519102Y29569D01*
X519037Y29613D01*
X518971Y29654D01*
X518902Y29691D01*
X518832Y29725D01*
X518760Y29756D01*
X518687Y29783D01*
X518613Y29807D01*
X518538Y29827D01*
X518462Y29843D01*
X518385Y29856D01*
X518308Y29866D01*
X518230Y29871D01*
X518152Y29873D01*
X515696Y29873D01*
X515696Y33147D01*
X519788Y33147D01*
X533781Y31510D02*
X535827Y33147D01*
X535827Y25781D01*
X533781Y25781D02*
X537873Y25781D01*
X541096Y29873D02*
X543552Y29873D01*
X543630Y29871D01*
X543708Y29866D01*
X543785Y29856D01*
X543862Y29843D01*
X543938Y29827D01*
X544013Y29807D01*
X544087Y29783D01*
X544160Y29756D01*
X544232Y29725D01*
X544302Y29691D01*
X544371Y29654D01*
X544437Y29613D01*
X544502Y29569D01*
X544564Y29523D01*
X544624Y29473D01*
X544682Y29421D01*
X544737Y29366D01*
X544789Y29308D01*
X544839Y29248D01*
X544885Y29186D01*
X544929Y29121D01*
X544970Y29055D01*
X545007Y28986D01*
X545041Y28916D01*
X545072Y28844D01*
X545099Y28771D01*
X545123Y28697D01*
X545143Y28622D01*
X545159Y28546D01*
X545172Y28469D01*
X545182Y28392D01*
X545187Y28314D01*
X545189Y28236D01*
X545188Y28236D02*
X545188Y27827D01*
X545186Y27738D01*
X545180Y27649D01*
X545170Y27560D01*
X545157Y27472D01*
X545140Y27384D01*
X545118Y27297D01*
X545093Y27212D01*
X545065Y27127D01*
X545032Y27044D01*
X544996Y26962D01*
X544957Y26882D01*
X544914Y26804D01*
X544868Y26728D01*
X544818Y26653D01*
X544765Y26581D01*
X544709Y26512D01*
X544650Y26445D01*
X544589Y26380D01*
X544524Y26319D01*
X544457Y26260D01*
X544388Y26204D01*
X544316Y26151D01*
X544241Y26101D01*
X544165Y26055D01*
X544087Y26012D01*
X544007Y25973D01*
X543925Y25937D01*
X543842Y25904D01*
X543757Y25876D01*
X543672Y25851D01*
X543585Y25829D01*
X543497Y25812D01*
X543409Y25799D01*
X543320Y25789D01*
X543231Y25783D01*
X543142Y25781D01*
X543053Y25783D01*
X542964Y25789D01*
X542875Y25799D01*
X542787Y25812D01*
X542699Y25829D01*
X542612Y25851D01*
X542527Y25876D01*
X542442Y25904D01*
X542359Y25937D01*
X542277Y25973D01*
X542197Y26012D01*
X542119Y26055D01*
X542043Y26101D01*
X541968Y26151D01*
X541896Y26204D01*
X541827Y26260D01*
X541760Y26319D01*
X541695Y26380D01*
X541634Y26445D01*
X541575Y26512D01*
X541519Y26581D01*
X541466Y26653D01*
X541416Y26728D01*
X541370Y26804D01*
X541327Y26882D01*
X541288Y26962D01*
X541252Y27044D01*
X541219Y27127D01*
X541191Y27212D01*
X541166Y27297D01*
X541144Y27384D01*
X541127Y27472D01*
X541114Y27560D01*
X541104Y27649D01*
X541098Y27738D01*
X541096Y27827D01*
X541096Y29873D01*
X541098Y29987D01*
X541104Y30101D01*
X541114Y30215D01*
X541128Y30329D01*
X541146Y30442D01*
X541168Y30554D01*
X541193Y30665D01*
X541223Y30775D01*
X541256Y30885D01*
X541293Y30993D01*
X541334Y31099D01*
X541379Y31205D01*
X541427Y31308D01*
X541479Y31410D01*
X541535Y31510D01*
X541593Y31608D01*
X541656Y31704D01*
X541721Y31797D01*
X541790Y31889D01*
X541862Y31977D01*
X541937Y32064D01*
X542015Y32147D01*
X542096Y32228D01*
X542179Y32306D01*
X542266Y32381D01*
X542354Y32453D01*
X542446Y32522D01*
X542539Y32587D01*
X542635Y32649D01*
X542733Y32708D01*
X542833Y32764D01*
X542935Y32816D01*
X543038Y32864D01*
X543144Y32909D01*
X543250Y32950D01*
X543358Y32987D01*
X543468Y33020D01*
X543578Y33050D01*
X543689Y33075D01*
X543801Y33097D01*
X543914Y33115D01*
X544028Y33129D01*
X544142Y33139D01*
X544256Y33145D01*
X544370Y33147D01*
X370727Y223647D02*
X368681Y222010D01*
X370727Y223647D02*
X370727Y216281D01*
X368681Y216281D02*
X372773Y216281D01*
X838581Y425210D02*
X840627Y426847D01*
X840627Y419481D01*
X838581Y419481D02*
X842673Y419481D01*
X840627Y223647D02*
X838581Y222010D01*
X840627Y223647D02*
X840627Y216281D01*
X838581Y216281D02*
X842673Y216281D01*
D11*
X584962Y55118D02*
X584962Y38862D01*
X584962Y55118D02*
X589478Y55118D01*
X589611Y55116D01*
X589743Y55110D01*
X589875Y55100D01*
X590007Y55087D01*
X590139Y55069D01*
X590269Y55048D01*
X590400Y55023D01*
X590529Y54994D01*
X590657Y54961D01*
X590785Y54925D01*
X590911Y54885D01*
X591036Y54841D01*
X591160Y54793D01*
X591282Y54742D01*
X591403Y54687D01*
X591522Y54629D01*
X591640Y54567D01*
X591755Y54502D01*
X591869Y54433D01*
X591980Y54362D01*
X592089Y54286D01*
X592196Y54208D01*
X592301Y54127D01*
X592403Y54042D01*
X592503Y53955D01*
X592600Y53865D01*
X592695Y53772D01*
X592786Y53676D01*
X592875Y53578D01*
X592961Y53477D01*
X593044Y53373D01*
X593124Y53267D01*
X593200Y53159D01*
X593274Y53049D01*
X593344Y52936D01*
X593411Y52822D01*
X593474Y52705D01*
X593534Y52587D01*
X593591Y52467D01*
X593644Y52345D01*
X593693Y52222D01*
X593739Y52098D01*
X593781Y51972D01*
X593819Y51845D01*
X593854Y51717D01*
X593885Y51588D01*
X593912Y51459D01*
X593935Y51328D01*
X593955Y51197D01*
X593970Y51065D01*
X593982Y50933D01*
X593990Y50801D01*
X593994Y50668D01*
X593994Y50536D01*
X593990Y50403D01*
X593982Y50271D01*
X593970Y50139D01*
X593955Y50007D01*
X593935Y49876D01*
X593912Y49745D01*
X593885Y49616D01*
X593854Y49487D01*
X593819Y49359D01*
X593781Y49232D01*
X593739Y49106D01*
X593693Y48982D01*
X593644Y48859D01*
X593591Y48737D01*
X593534Y48617D01*
X593474Y48499D01*
X593411Y48382D01*
X593344Y48268D01*
X593274Y48155D01*
X593200Y48045D01*
X593124Y47937D01*
X593044Y47831D01*
X592961Y47727D01*
X592875Y47626D01*
X592786Y47528D01*
X592695Y47432D01*
X592600Y47339D01*
X592503Y47249D01*
X592403Y47162D01*
X592301Y47077D01*
X592196Y46996D01*
X592089Y46918D01*
X591980Y46842D01*
X591869Y46771D01*
X591755Y46702D01*
X591640Y46637D01*
X591522Y46575D01*
X591403Y46517D01*
X591282Y46462D01*
X591160Y46411D01*
X591036Y46363D01*
X590911Y46319D01*
X590785Y46279D01*
X590657Y46243D01*
X590529Y46210D01*
X590400Y46181D01*
X590269Y46156D01*
X590139Y46135D01*
X590007Y46117D01*
X589875Y46104D01*
X589743Y46094D01*
X589611Y46088D01*
X589478Y46086D01*
X589478Y46087D02*
X584962Y46087D01*
X590381Y46087D02*
X593993Y38862D01*
X603975Y38862D02*
X603975Y55118D01*
X599460Y55118D02*
X608491Y55118D01*
X614600Y55118D02*
X614600Y38862D01*
X614600Y55118D02*
X621824Y55118D01*
X621824Y47893D02*
X614600Y47893D01*
X628256Y55118D02*
X628256Y38862D01*
X633675Y46087D02*
X628256Y55118D01*
X633675Y46087D02*
X639093Y55118D01*
X639093Y38862D01*
X655303Y38862D02*
X655303Y55118D01*
X659818Y55118D01*
X659951Y55116D01*
X660083Y55110D01*
X660215Y55100D01*
X660347Y55087D01*
X660479Y55069D01*
X660609Y55048D01*
X660740Y55023D01*
X660869Y54994D01*
X660997Y54961D01*
X661125Y54925D01*
X661251Y54885D01*
X661376Y54841D01*
X661500Y54793D01*
X661622Y54742D01*
X661743Y54687D01*
X661862Y54629D01*
X661980Y54567D01*
X662095Y54502D01*
X662209Y54433D01*
X662320Y54362D01*
X662429Y54286D01*
X662536Y54208D01*
X662641Y54127D01*
X662743Y54042D01*
X662843Y53955D01*
X662940Y53865D01*
X663035Y53772D01*
X663126Y53676D01*
X663215Y53578D01*
X663301Y53477D01*
X663384Y53373D01*
X663464Y53267D01*
X663540Y53159D01*
X663614Y53049D01*
X663684Y52936D01*
X663751Y52822D01*
X663814Y52705D01*
X663874Y52587D01*
X663931Y52467D01*
X663984Y52345D01*
X664033Y52222D01*
X664079Y52098D01*
X664121Y51972D01*
X664159Y51845D01*
X664194Y51717D01*
X664225Y51588D01*
X664252Y51459D01*
X664275Y51328D01*
X664295Y51197D01*
X664310Y51065D01*
X664322Y50933D01*
X664330Y50801D01*
X664334Y50668D01*
X664334Y50536D01*
X664330Y50403D01*
X664322Y50271D01*
X664310Y50139D01*
X664295Y50007D01*
X664275Y49876D01*
X664252Y49745D01*
X664225Y49616D01*
X664194Y49487D01*
X664159Y49359D01*
X664121Y49232D01*
X664079Y49106D01*
X664033Y48982D01*
X663984Y48859D01*
X663931Y48737D01*
X663874Y48617D01*
X663814Y48499D01*
X663751Y48382D01*
X663684Y48268D01*
X663614Y48155D01*
X663540Y48045D01*
X663464Y47937D01*
X663384Y47831D01*
X663301Y47727D01*
X663215Y47626D01*
X663126Y47528D01*
X663035Y47432D01*
X662940Y47339D01*
X662843Y47249D01*
X662743Y47162D01*
X662641Y47077D01*
X662536Y46996D01*
X662429Y46918D01*
X662320Y46842D01*
X662209Y46771D01*
X662095Y46702D01*
X661980Y46637D01*
X661862Y46575D01*
X661743Y46517D01*
X661622Y46462D01*
X661500Y46411D01*
X661376Y46363D01*
X661251Y46319D01*
X661125Y46279D01*
X660997Y46243D01*
X660869Y46210D01*
X660740Y46181D01*
X660609Y46156D01*
X660479Y46135D01*
X660347Y46117D01*
X660215Y46104D01*
X660083Y46094D01*
X659951Y46088D01*
X659818Y46086D01*
X659818Y46087D02*
X655303Y46087D01*
X660721Y46087D02*
X664334Y38862D01*
X673413Y38862D02*
X677928Y38862D01*
X673413Y38862D02*
X673312Y38864D01*
X673211Y38870D01*
X673110Y38879D01*
X673009Y38892D01*
X672909Y38909D01*
X672810Y38930D01*
X672712Y38954D01*
X672615Y38982D01*
X672518Y39014D01*
X672423Y39049D01*
X672330Y39088D01*
X672238Y39130D01*
X672147Y39176D01*
X672059Y39225D01*
X671972Y39277D01*
X671887Y39333D01*
X671804Y39391D01*
X671724Y39453D01*
X671646Y39518D01*
X671570Y39585D01*
X671497Y39655D01*
X671427Y39728D01*
X671360Y39804D01*
X671295Y39882D01*
X671233Y39962D01*
X671175Y40045D01*
X671119Y40130D01*
X671067Y40216D01*
X671018Y40305D01*
X670972Y40396D01*
X670930Y40488D01*
X670891Y40581D01*
X670856Y40676D01*
X670824Y40773D01*
X670796Y40870D01*
X670772Y40968D01*
X670751Y41067D01*
X670734Y41167D01*
X670721Y41268D01*
X670712Y41369D01*
X670706Y41470D01*
X670704Y41571D01*
X670703Y41571D02*
X670703Y46087D01*
X670704Y46087D02*
X670706Y46206D01*
X670712Y46326D01*
X670722Y46445D01*
X670736Y46563D01*
X670753Y46682D01*
X670775Y46799D01*
X670800Y46916D01*
X670830Y47031D01*
X670863Y47146D01*
X670900Y47260D01*
X670940Y47372D01*
X670985Y47483D01*
X671033Y47592D01*
X671084Y47700D01*
X671139Y47806D01*
X671198Y47910D01*
X671260Y48012D01*
X671325Y48112D01*
X671394Y48210D01*
X671466Y48306D01*
X671541Y48399D01*
X671618Y48489D01*
X671699Y48577D01*
X671783Y48662D01*
X671870Y48744D01*
X671959Y48824D01*
X672051Y48900D01*
X672145Y48974D01*
X672242Y49044D01*
X672340Y49111D01*
X672441Y49175D01*
X672545Y49235D01*
X672650Y49292D01*
X672757Y49345D01*
X672865Y49395D01*
X672975Y49441D01*
X673087Y49483D01*
X673200Y49522D01*
X673314Y49557D01*
X673429Y49588D01*
X673546Y49616D01*
X673663Y49639D01*
X673780Y49659D01*
X673899Y49675D01*
X674018Y49687D01*
X674137Y49695D01*
X674256Y49699D01*
X674376Y49699D01*
X674495Y49695D01*
X674614Y49687D01*
X674733Y49675D01*
X674852Y49659D01*
X674969Y49639D01*
X675086Y49616D01*
X675203Y49588D01*
X675318Y49557D01*
X675432Y49522D01*
X675545Y49483D01*
X675657Y49441D01*
X675767Y49395D01*
X675875Y49345D01*
X675982Y49292D01*
X676087Y49235D01*
X676191Y49175D01*
X676292Y49111D01*
X676390Y49044D01*
X676487Y48974D01*
X676581Y48900D01*
X676673Y48824D01*
X676762Y48744D01*
X676849Y48662D01*
X676933Y48577D01*
X677014Y48489D01*
X677091Y48399D01*
X677166Y48306D01*
X677238Y48210D01*
X677307Y48112D01*
X677372Y48012D01*
X677434Y47910D01*
X677493Y47806D01*
X677548Y47700D01*
X677599Y47592D01*
X677647Y47483D01*
X677692Y47372D01*
X677732Y47260D01*
X677769Y47146D01*
X677802Y47031D01*
X677832Y46916D01*
X677857Y46799D01*
X677879Y46682D01*
X677896Y46563D01*
X677910Y46445D01*
X677920Y46326D01*
X677926Y46206D01*
X677928Y46087D01*
X677928Y44281D01*
X670703Y44281D01*
X684487Y41571D02*
X684487Y55118D01*
X684488Y41571D02*
X684490Y41470D01*
X684496Y41369D01*
X684505Y41268D01*
X684518Y41167D01*
X684535Y41067D01*
X684556Y40968D01*
X684580Y40870D01*
X684608Y40773D01*
X684640Y40676D01*
X684675Y40581D01*
X684714Y40488D01*
X684756Y40396D01*
X684802Y40305D01*
X684851Y40216D01*
X684903Y40130D01*
X684959Y40045D01*
X685017Y39962D01*
X685079Y39882D01*
X685144Y39804D01*
X685211Y39728D01*
X685281Y39655D01*
X685354Y39585D01*
X685430Y39518D01*
X685508Y39453D01*
X685588Y39391D01*
X685671Y39333D01*
X685756Y39277D01*
X685843Y39225D01*
X685931Y39176D01*
X686022Y39130D01*
X686114Y39088D01*
X686207Y39049D01*
X686302Y39014D01*
X686399Y38982D01*
X686496Y38954D01*
X686594Y38930D01*
X686693Y38909D01*
X686793Y38892D01*
X686894Y38879D01*
X686995Y38870D01*
X687096Y38864D01*
X687197Y38862D01*
X692587Y42474D02*
X692587Y46087D01*
X692589Y46206D01*
X692595Y46326D01*
X692605Y46445D01*
X692619Y46563D01*
X692636Y46682D01*
X692658Y46799D01*
X692683Y46916D01*
X692713Y47031D01*
X692746Y47146D01*
X692783Y47260D01*
X692823Y47372D01*
X692868Y47483D01*
X692916Y47592D01*
X692967Y47700D01*
X693022Y47806D01*
X693081Y47910D01*
X693143Y48012D01*
X693208Y48112D01*
X693277Y48210D01*
X693349Y48306D01*
X693424Y48399D01*
X693501Y48489D01*
X693582Y48577D01*
X693666Y48662D01*
X693753Y48744D01*
X693842Y48824D01*
X693934Y48900D01*
X694028Y48974D01*
X694125Y49044D01*
X694223Y49111D01*
X694324Y49175D01*
X694428Y49235D01*
X694533Y49292D01*
X694640Y49345D01*
X694748Y49395D01*
X694858Y49441D01*
X694970Y49483D01*
X695083Y49522D01*
X695197Y49557D01*
X695312Y49588D01*
X695429Y49616D01*
X695546Y49639D01*
X695663Y49659D01*
X695782Y49675D01*
X695901Y49687D01*
X696020Y49695D01*
X696139Y49699D01*
X696259Y49699D01*
X696378Y49695D01*
X696497Y49687D01*
X696616Y49675D01*
X696735Y49659D01*
X696852Y49639D01*
X696969Y49616D01*
X697086Y49588D01*
X697201Y49557D01*
X697315Y49522D01*
X697428Y49483D01*
X697540Y49441D01*
X697650Y49395D01*
X697758Y49345D01*
X697865Y49292D01*
X697970Y49235D01*
X698074Y49175D01*
X698175Y49111D01*
X698273Y49044D01*
X698370Y48974D01*
X698464Y48900D01*
X698556Y48824D01*
X698645Y48744D01*
X698732Y48662D01*
X698816Y48577D01*
X698897Y48489D01*
X698974Y48399D01*
X699049Y48306D01*
X699121Y48210D01*
X699190Y48112D01*
X699255Y48012D01*
X699317Y47910D01*
X699376Y47806D01*
X699431Y47700D01*
X699482Y47592D01*
X699530Y47483D01*
X699575Y47372D01*
X699615Y47260D01*
X699652Y47146D01*
X699685Y47031D01*
X699715Y46916D01*
X699740Y46799D01*
X699762Y46682D01*
X699779Y46563D01*
X699793Y46445D01*
X699803Y46326D01*
X699809Y46206D01*
X699811Y46087D01*
X699812Y46087D02*
X699812Y42474D01*
X699811Y42474D02*
X699809Y42355D01*
X699803Y42235D01*
X699793Y42116D01*
X699779Y41998D01*
X699762Y41879D01*
X699740Y41762D01*
X699715Y41645D01*
X699685Y41530D01*
X699652Y41415D01*
X699615Y41301D01*
X699575Y41189D01*
X699530Y41078D01*
X699482Y40969D01*
X699431Y40861D01*
X699376Y40755D01*
X699317Y40651D01*
X699255Y40549D01*
X699190Y40449D01*
X699121Y40351D01*
X699049Y40255D01*
X698974Y40162D01*
X698897Y40072D01*
X698816Y39984D01*
X698732Y39899D01*
X698645Y39817D01*
X698556Y39737D01*
X698464Y39661D01*
X698370Y39587D01*
X698273Y39517D01*
X698175Y39450D01*
X698074Y39386D01*
X697970Y39326D01*
X697865Y39269D01*
X697758Y39216D01*
X697650Y39166D01*
X697540Y39120D01*
X697428Y39078D01*
X697315Y39039D01*
X697201Y39004D01*
X697086Y38973D01*
X696969Y38945D01*
X696852Y38922D01*
X696735Y38902D01*
X696616Y38886D01*
X696497Y38874D01*
X696378Y38866D01*
X696259Y38862D01*
X696139Y38862D01*
X696020Y38866D01*
X695901Y38874D01*
X695782Y38886D01*
X695663Y38902D01*
X695546Y38922D01*
X695429Y38945D01*
X695312Y38973D01*
X695197Y39004D01*
X695083Y39039D01*
X694970Y39078D01*
X694858Y39120D01*
X694748Y39166D01*
X694640Y39216D01*
X694533Y39269D01*
X694428Y39326D01*
X694324Y39386D01*
X694223Y39450D01*
X694125Y39517D01*
X694028Y39587D01*
X693934Y39661D01*
X693842Y39737D01*
X693753Y39817D01*
X693666Y39899D01*
X693582Y39984D01*
X693501Y40072D01*
X693424Y40162D01*
X693349Y40255D01*
X693277Y40351D01*
X693208Y40449D01*
X693143Y40549D01*
X693081Y40651D01*
X693022Y40755D01*
X692967Y40861D01*
X692916Y40969D01*
X692868Y41078D01*
X692823Y41189D01*
X692783Y41301D01*
X692746Y41415D01*
X692713Y41530D01*
X692683Y41645D01*
X692658Y41762D01*
X692636Y41879D01*
X692619Y41998D01*
X692605Y42116D01*
X692595Y42235D01*
X692589Y42355D01*
X692587Y42474D01*
X709222Y45184D02*
X713286Y45184D01*
X709222Y45184D02*
X709110Y45182D01*
X708999Y45176D01*
X708888Y45166D01*
X708777Y45153D01*
X708667Y45135D01*
X708558Y45113D01*
X708449Y45088D01*
X708341Y45059D01*
X708235Y45026D01*
X708129Y44989D01*
X708025Y44949D01*
X707923Y44905D01*
X707822Y44857D01*
X707723Y44806D01*
X707625Y44751D01*
X707530Y44693D01*
X707437Y44632D01*
X707346Y44567D01*
X707257Y44499D01*
X707171Y44428D01*
X707088Y44355D01*
X707007Y44278D01*
X706928Y44198D01*
X706853Y44116D01*
X706781Y44031D01*
X706711Y43944D01*
X706645Y43854D01*
X706582Y43762D01*
X706522Y43667D01*
X706466Y43571D01*
X706413Y43473D01*
X706364Y43373D01*
X706318Y43271D01*
X706276Y43168D01*
X706237Y43063D01*
X706202Y42957D01*
X706171Y42850D01*
X706144Y42742D01*
X706120Y42633D01*
X706101Y42523D01*
X706085Y42413D01*
X706073Y42302D01*
X706065Y42190D01*
X706061Y42079D01*
X706061Y41967D01*
X706065Y41856D01*
X706073Y41744D01*
X706085Y41633D01*
X706101Y41523D01*
X706120Y41413D01*
X706144Y41304D01*
X706171Y41196D01*
X706202Y41089D01*
X706237Y40983D01*
X706276Y40878D01*
X706318Y40775D01*
X706364Y40673D01*
X706413Y40573D01*
X706466Y40475D01*
X706522Y40379D01*
X706582Y40284D01*
X706645Y40192D01*
X706711Y40102D01*
X706781Y40015D01*
X706853Y39930D01*
X706928Y39848D01*
X707007Y39768D01*
X707088Y39691D01*
X707171Y39618D01*
X707257Y39547D01*
X707346Y39479D01*
X707437Y39414D01*
X707530Y39353D01*
X707625Y39295D01*
X707723Y39240D01*
X707822Y39189D01*
X707923Y39141D01*
X708025Y39097D01*
X708129Y39057D01*
X708235Y39020D01*
X708341Y38987D01*
X708449Y38958D01*
X708558Y38933D01*
X708667Y38911D01*
X708777Y38893D01*
X708888Y38880D01*
X708999Y38870D01*
X709110Y38864D01*
X709222Y38862D01*
X713286Y38862D01*
X713286Y46990D01*
X713285Y46990D02*
X713283Y47091D01*
X713277Y47192D01*
X713268Y47293D01*
X713255Y47394D01*
X713238Y47494D01*
X713217Y47593D01*
X713193Y47691D01*
X713165Y47788D01*
X713133Y47885D01*
X713098Y47980D01*
X713059Y48073D01*
X713017Y48165D01*
X712971Y48256D01*
X712922Y48345D01*
X712870Y48431D01*
X712814Y48516D01*
X712756Y48599D01*
X712694Y48679D01*
X712629Y48757D01*
X712562Y48833D01*
X712492Y48906D01*
X712419Y48976D01*
X712343Y49043D01*
X712265Y49108D01*
X712185Y49170D01*
X712102Y49228D01*
X712017Y49284D01*
X711931Y49336D01*
X711842Y49385D01*
X711751Y49431D01*
X711659Y49473D01*
X711566Y49512D01*
X711471Y49547D01*
X711374Y49579D01*
X711277Y49607D01*
X711179Y49631D01*
X711080Y49652D01*
X710980Y49669D01*
X710879Y49682D01*
X710778Y49691D01*
X710677Y49697D01*
X710576Y49699D01*
X706964Y49699D01*
X727354Y55118D02*
X727354Y38862D01*
X722838Y38862D01*
X722737Y38864D01*
X722636Y38870D01*
X722535Y38879D01*
X722434Y38892D01*
X722334Y38909D01*
X722235Y38930D01*
X722137Y38954D01*
X722040Y38982D01*
X721943Y39014D01*
X721848Y39049D01*
X721755Y39088D01*
X721663Y39130D01*
X721572Y39176D01*
X721484Y39225D01*
X721397Y39277D01*
X721312Y39333D01*
X721229Y39391D01*
X721149Y39453D01*
X721071Y39518D01*
X720995Y39585D01*
X720922Y39655D01*
X720852Y39728D01*
X720785Y39804D01*
X720720Y39882D01*
X720658Y39962D01*
X720600Y40045D01*
X720544Y40130D01*
X720492Y40216D01*
X720443Y40305D01*
X720397Y40396D01*
X720355Y40488D01*
X720316Y40581D01*
X720281Y40676D01*
X720249Y40773D01*
X720221Y40870D01*
X720197Y40968D01*
X720176Y41067D01*
X720159Y41167D01*
X720146Y41268D01*
X720137Y41369D01*
X720131Y41470D01*
X720129Y41571D01*
X720129Y46990D01*
X720131Y47091D01*
X720137Y47192D01*
X720146Y47293D01*
X720159Y47394D01*
X720176Y47494D01*
X720197Y47593D01*
X720221Y47691D01*
X720249Y47788D01*
X720281Y47885D01*
X720316Y47980D01*
X720355Y48073D01*
X720397Y48165D01*
X720443Y48256D01*
X720492Y48345D01*
X720544Y48431D01*
X720600Y48516D01*
X720658Y48599D01*
X720720Y48679D01*
X720785Y48757D01*
X720852Y48833D01*
X720922Y48906D01*
X720995Y48976D01*
X721071Y49043D01*
X721149Y49108D01*
X721229Y49170D01*
X721312Y49228D01*
X721397Y49284D01*
X721484Y49336D01*
X721572Y49385D01*
X721663Y49431D01*
X721755Y49473D01*
X721848Y49512D01*
X721943Y49547D01*
X722040Y49579D01*
X722137Y49607D01*
X722235Y49631D01*
X722334Y49652D01*
X722434Y49669D01*
X722535Y49682D01*
X722636Y49691D01*
X722737Y49697D01*
X722838Y49699D01*
X727354Y49699D01*
X736980Y38862D02*
X741495Y38862D01*
X736980Y38862D02*
X736879Y38864D01*
X736778Y38870D01*
X736677Y38879D01*
X736576Y38892D01*
X736476Y38909D01*
X736377Y38930D01*
X736279Y38954D01*
X736182Y38982D01*
X736085Y39014D01*
X735990Y39049D01*
X735897Y39088D01*
X735805Y39130D01*
X735714Y39176D01*
X735626Y39225D01*
X735539Y39277D01*
X735454Y39333D01*
X735371Y39391D01*
X735291Y39453D01*
X735213Y39518D01*
X735137Y39585D01*
X735064Y39655D01*
X734994Y39728D01*
X734927Y39804D01*
X734862Y39882D01*
X734800Y39962D01*
X734742Y40045D01*
X734686Y40130D01*
X734634Y40216D01*
X734585Y40305D01*
X734539Y40396D01*
X734497Y40488D01*
X734458Y40581D01*
X734423Y40676D01*
X734391Y40773D01*
X734363Y40870D01*
X734339Y40968D01*
X734318Y41067D01*
X734301Y41167D01*
X734288Y41268D01*
X734279Y41369D01*
X734273Y41470D01*
X734271Y41571D01*
X734270Y41571D02*
X734270Y46087D01*
X734271Y46087D02*
X734273Y46206D01*
X734279Y46326D01*
X734289Y46445D01*
X734303Y46563D01*
X734320Y46682D01*
X734342Y46799D01*
X734367Y46916D01*
X734397Y47031D01*
X734430Y47146D01*
X734467Y47260D01*
X734507Y47372D01*
X734552Y47483D01*
X734600Y47592D01*
X734651Y47700D01*
X734706Y47806D01*
X734765Y47910D01*
X734827Y48012D01*
X734892Y48112D01*
X734961Y48210D01*
X735033Y48306D01*
X735108Y48399D01*
X735185Y48489D01*
X735266Y48577D01*
X735350Y48662D01*
X735437Y48744D01*
X735526Y48824D01*
X735618Y48900D01*
X735712Y48974D01*
X735809Y49044D01*
X735907Y49111D01*
X736008Y49175D01*
X736112Y49235D01*
X736217Y49292D01*
X736324Y49345D01*
X736432Y49395D01*
X736542Y49441D01*
X736654Y49483D01*
X736767Y49522D01*
X736881Y49557D01*
X736996Y49588D01*
X737113Y49616D01*
X737230Y49639D01*
X737347Y49659D01*
X737466Y49675D01*
X737585Y49687D01*
X737704Y49695D01*
X737823Y49699D01*
X737943Y49699D01*
X738062Y49695D01*
X738181Y49687D01*
X738300Y49675D01*
X738419Y49659D01*
X738536Y49639D01*
X738653Y49616D01*
X738770Y49588D01*
X738885Y49557D01*
X738999Y49522D01*
X739112Y49483D01*
X739224Y49441D01*
X739334Y49395D01*
X739442Y49345D01*
X739549Y49292D01*
X739654Y49235D01*
X739758Y49175D01*
X739859Y49111D01*
X739957Y49044D01*
X740054Y48974D01*
X740148Y48900D01*
X740240Y48824D01*
X740329Y48744D01*
X740416Y48662D01*
X740500Y48577D01*
X740581Y48489D01*
X740658Y48399D01*
X740733Y48306D01*
X740805Y48210D01*
X740874Y48112D01*
X740939Y48012D01*
X741001Y47910D01*
X741060Y47806D01*
X741115Y47700D01*
X741166Y47592D01*
X741214Y47483D01*
X741259Y47372D01*
X741299Y47260D01*
X741336Y47146D01*
X741369Y47031D01*
X741399Y46916D01*
X741424Y46799D01*
X741446Y46682D01*
X741463Y46563D01*
X741477Y46445D01*
X741487Y46326D01*
X741493Y46206D01*
X741495Y46087D01*
X741495Y44281D01*
X734270Y44281D01*
X754969Y38862D02*
X754969Y55118D01*
X754969Y38862D02*
X750453Y38862D01*
X750352Y38864D01*
X750251Y38870D01*
X750150Y38879D01*
X750049Y38892D01*
X749949Y38909D01*
X749850Y38930D01*
X749752Y38954D01*
X749655Y38982D01*
X749558Y39014D01*
X749463Y39049D01*
X749370Y39088D01*
X749278Y39130D01*
X749187Y39176D01*
X749099Y39225D01*
X749012Y39277D01*
X748927Y39333D01*
X748844Y39391D01*
X748764Y39453D01*
X748686Y39518D01*
X748610Y39585D01*
X748537Y39655D01*
X748467Y39728D01*
X748400Y39804D01*
X748335Y39882D01*
X748273Y39962D01*
X748215Y40045D01*
X748159Y40130D01*
X748107Y40216D01*
X748058Y40305D01*
X748012Y40396D01*
X747970Y40488D01*
X747931Y40581D01*
X747896Y40676D01*
X747864Y40773D01*
X747836Y40870D01*
X747812Y40968D01*
X747791Y41067D01*
X747774Y41167D01*
X747761Y41268D01*
X747752Y41369D01*
X747746Y41470D01*
X747744Y41571D01*
X747744Y46990D01*
X747746Y47091D01*
X747752Y47192D01*
X747761Y47293D01*
X747774Y47394D01*
X747791Y47494D01*
X747812Y47593D01*
X747836Y47691D01*
X747864Y47788D01*
X747896Y47885D01*
X747931Y47980D01*
X747970Y48073D01*
X748012Y48165D01*
X748058Y48256D01*
X748107Y48345D01*
X748159Y48431D01*
X748215Y48516D01*
X748273Y48599D01*
X748335Y48679D01*
X748400Y48757D01*
X748467Y48833D01*
X748537Y48906D01*
X748610Y48976D01*
X748686Y49043D01*
X748764Y49108D01*
X748844Y49170D01*
X748927Y49228D01*
X749012Y49284D01*
X749099Y49336D01*
X749187Y49385D01*
X749278Y49431D01*
X749370Y49473D01*
X749463Y49512D01*
X749558Y49547D01*
X749655Y49579D01*
X749752Y49607D01*
X749850Y49631D01*
X749949Y49652D01*
X750049Y49669D01*
X750150Y49682D01*
X750251Y49691D01*
X750352Y49697D01*
X750453Y49699D01*
X754969Y49699D01*
X769701Y49699D02*
X773313Y38862D01*
X776926Y49699D01*
X782866Y51506D02*
X787381Y55118D01*
X787381Y38862D01*
X782866Y38862D02*
X791897Y38862D01*
X797872Y38862D02*
X797872Y39765D01*
X798775Y39765D01*
X798775Y38862D01*
X797872Y38862D01*
X804750Y46990D02*
X804754Y47310D01*
X804765Y47629D01*
X804784Y47949D01*
X804811Y48267D01*
X804845Y48585D01*
X804887Y48902D01*
X804937Y49218D01*
X804994Y49533D01*
X805058Y49846D01*
X805130Y50158D01*
X805209Y50468D01*
X805296Y50775D01*
X805390Y51081D01*
X805491Y51384D01*
X805600Y51685D01*
X805715Y51983D01*
X805838Y52279D01*
X805968Y52571D01*
X806105Y52860D01*
X806104Y52861D02*
X806143Y52969D01*
X806186Y53076D01*
X806232Y53181D01*
X806283Y53285D01*
X806336Y53387D01*
X806393Y53487D01*
X806454Y53585D01*
X806518Y53680D01*
X806585Y53774D01*
X806656Y53865D01*
X806729Y53954D01*
X806806Y54040D01*
X806885Y54123D01*
X806967Y54204D01*
X807052Y54282D01*
X807140Y54356D01*
X807230Y54428D01*
X807322Y54496D01*
X807417Y54562D01*
X807514Y54624D01*
X807613Y54682D01*
X807715Y54738D01*
X807817Y54789D01*
X807922Y54837D01*
X808028Y54882D01*
X808136Y54923D01*
X808245Y54960D01*
X808355Y54993D01*
X808467Y55022D01*
X808579Y55048D01*
X808692Y55070D01*
X808806Y55087D01*
X808920Y55101D01*
X809035Y55111D01*
X809150Y55117D01*
X809265Y55119D01*
X809265Y55118D02*
X809380Y55116D01*
X809495Y55110D01*
X809610Y55100D01*
X809724Y55086D01*
X809838Y55069D01*
X809951Y55047D01*
X810063Y55021D01*
X810175Y54992D01*
X810285Y54959D01*
X810394Y54922D01*
X810502Y54881D01*
X810608Y54836D01*
X810713Y54788D01*
X810815Y54737D01*
X810916Y54681D01*
X811016Y54623D01*
X811113Y54561D01*
X811207Y54496D01*
X811300Y54427D01*
X811390Y54355D01*
X811478Y54281D01*
X811563Y54203D01*
X811645Y54122D01*
X811724Y54039D01*
X811801Y53953D01*
X811874Y53864D01*
X811945Y53773D01*
X812012Y53679D01*
X812076Y53584D01*
X812137Y53486D01*
X812194Y53386D01*
X812247Y53284D01*
X812298Y53180D01*
X812344Y53075D01*
X812387Y52968D01*
X812426Y52860D01*
X812563Y52571D01*
X812693Y52279D01*
X812816Y51983D01*
X812931Y51685D01*
X813040Y51384D01*
X813141Y51081D01*
X813235Y50775D01*
X813322Y50468D01*
X813401Y50158D01*
X813473Y49846D01*
X813537Y49533D01*
X813594Y49218D01*
X813644Y48902D01*
X813686Y48585D01*
X813720Y48267D01*
X813747Y47949D01*
X813766Y47629D01*
X813777Y47310D01*
X813781Y46990D01*
X804750Y46990D02*
X804754Y46670D01*
X804765Y46351D01*
X804784Y46031D01*
X804811Y45713D01*
X804845Y45395D01*
X804887Y45078D01*
X804937Y44762D01*
X804994Y44447D01*
X805058Y44134D01*
X805130Y43822D01*
X805209Y43512D01*
X805296Y43205D01*
X805390Y42899D01*
X805491Y42596D01*
X805600Y42295D01*
X805715Y41997D01*
X805838Y41701D01*
X805968Y41409D01*
X806105Y41120D01*
X806104Y41120D02*
X806143Y41012D01*
X806186Y40905D01*
X806232Y40800D01*
X806283Y40696D01*
X806336Y40594D01*
X806393Y40494D01*
X806454Y40396D01*
X806518Y40301D01*
X806585Y40207D01*
X806656Y40116D01*
X806729Y40027D01*
X806806Y39941D01*
X806885Y39858D01*
X806967Y39777D01*
X807052Y39699D01*
X807140Y39625D01*
X807230Y39553D01*
X807323Y39484D01*
X807417Y39419D01*
X807514Y39357D01*
X807614Y39299D01*
X807715Y39243D01*
X807817Y39192D01*
X807922Y39144D01*
X808028Y39099D01*
X808136Y39058D01*
X808245Y39021D01*
X808355Y38988D01*
X808467Y38959D01*
X808579Y38933D01*
X808692Y38911D01*
X808806Y38894D01*
X808920Y38880D01*
X809035Y38870D01*
X809150Y38864D01*
X809265Y38862D01*
X812425Y41120D02*
X812562Y41409D01*
X812692Y41701D01*
X812815Y41997D01*
X812930Y42295D01*
X813039Y42596D01*
X813140Y42899D01*
X813234Y43205D01*
X813321Y43512D01*
X813400Y43822D01*
X813472Y44134D01*
X813536Y44447D01*
X813593Y44762D01*
X813643Y45078D01*
X813685Y45395D01*
X813719Y45713D01*
X813746Y46031D01*
X813765Y46351D01*
X813776Y46670D01*
X813780Y46990D01*
X812426Y41120D02*
X812387Y41012D01*
X812344Y40905D01*
X812298Y40800D01*
X812247Y40696D01*
X812194Y40594D01*
X812137Y40494D01*
X812076Y40396D01*
X812012Y40301D01*
X811945Y40207D01*
X811874Y40116D01*
X811801Y40027D01*
X811724Y39941D01*
X811645Y39858D01*
X811563Y39777D01*
X811478Y39699D01*
X811390Y39625D01*
X811300Y39553D01*
X811207Y39484D01*
X811113Y39419D01*
X811016Y39357D01*
X810916Y39299D01*
X810815Y39243D01*
X810712Y39192D01*
X810608Y39144D01*
X810502Y39099D01*
X810394Y39058D01*
X810285Y39021D01*
X810175Y38988D01*
X810063Y38959D01*
X809951Y38933D01*
X809838Y38911D01*
X809724Y38894D01*
X809610Y38880D01*
X809495Y38870D01*
X809380Y38864D01*
X809265Y38862D01*
X805653Y42474D02*
X812878Y51506D01*
X241300Y342900D02*
X241300Y368300D01*
X88900Y368300D02*
X88900Y342900D01*
X95250Y349250D01*
X95250Y361950D02*
X88900Y368300D01*
X107950Y361950D02*
X114300Y368300D01*
X241300Y368300D01*
X114300Y342900D02*
X107950Y349250D01*
X114300Y342900D02*
X88900Y342900D01*
X114300Y342900D02*
X114300Y368300D01*
X88900Y368300D01*
X114300Y342900D02*
X241300Y342900D01*
D12*
X93345Y377825D02*
X93345Y386715D01*
X93345Y377825D02*
X93343Y377725D01*
X93337Y377626D01*
X93327Y377526D01*
X93314Y377428D01*
X93296Y377329D01*
X93275Y377232D01*
X93250Y377136D01*
X93221Y377040D01*
X93188Y376946D01*
X93152Y376853D01*
X93112Y376762D01*
X93068Y376672D01*
X93021Y376584D01*
X92971Y376498D01*
X92917Y376414D01*
X92860Y376332D01*
X92800Y376253D01*
X92736Y376175D01*
X92670Y376101D01*
X92601Y376029D01*
X92529Y375960D01*
X92455Y375894D01*
X92377Y375830D01*
X92298Y375770D01*
X92216Y375713D01*
X92132Y375659D01*
X92046Y375609D01*
X91958Y375562D01*
X91868Y375518D01*
X91777Y375478D01*
X91684Y375442D01*
X91590Y375409D01*
X91494Y375380D01*
X91398Y375355D01*
X91301Y375334D01*
X91202Y375316D01*
X91104Y375303D01*
X91004Y375293D01*
X90905Y375287D01*
X90805Y375285D01*
X89535Y375285D01*
X98754Y378460D02*
X98754Y383540D01*
X98756Y383651D01*
X98762Y383761D01*
X98771Y383872D01*
X98785Y383982D01*
X98802Y384091D01*
X98823Y384200D01*
X98848Y384308D01*
X98877Y384415D01*
X98909Y384521D01*
X98945Y384626D01*
X98985Y384729D01*
X99028Y384831D01*
X99075Y384932D01*
X99126Y385031D01*
X99179Y385128D01*
X99236Y385222D01*
X99297Y385315D01*
X99360Y385406D01*
X99427Y385495D01*
X99497Y385581D01*
X99570Y385664D01*
X99645Y385746D01*
X99723Y385824D01*
X99805Y385899D01*
X99888Y385972D01*
X99974Y386042D01*
X100063Y386109D01*
X100154Y386172D01*
X100247Y386233D01*
X100342Y386290D01*
X100438Y386343D01*
X100537Y386394D01*
X100638Y386441D01*
X100740Y386484D01*
X100843Y386524D01*
X100948Y386560D01*
X101054Y386592D01*
X101161Y386621D01*
X101269Y386646D01*
X101378Y386667D01*
X101487Y386684D01*
X101597Y386698D01*
X101708Y386707D01*
X101818Y386713D01*
X101929Y386715D01*
X102040Y386713D01*
X102150Y386707D01*
X102261Y386698D01*
X102371Y386684D01*
X102480Y386667D01*
X102589Y386646D01*
X102697Y386621D01*
X102804Y386592D01*
X102910Y386560D01*
X103015Y386524D01*
X103118Y386484D01*
X103220Y386441D01*
X103321Y386394D01*
X103420Y386343D01*
X103517Y386290D01*
X103611Y386233D01*
X103704Y386172D01*
X103795Y386109D01*
X103884Y386042D01*
X103970Y385972D01*
X104053Y385899D01*
X104135Y385824D01*
X104213Y385746D01*
X104288Y385664D01*
X104361Y385581D01*
X104431Y385495D01*
X104498Y385406D01*
X104561Y385315D01*
X104622Y385222D01*
X104679Y385128D01*
X104732Y385031D01*
X104783Y384932D01*
X104830Y384831D01*
X104873Y384729D01*
X104913Y384626D01*
X104949Y384521D01*
X104981Y384415D01*
X105010Y384308D01*
X105035Y384200D01*
X105056Y384091D01*
X105073Y383982D01*
X105087Y383872D01*
X105096Y383761D01*
X105102Y383651D01*
X105104Y383540D01*
X105104Y378460D01*
X105102Y378349D01*
X105096Y378239D01*
X105087Y378128D01*
X105073Y378018D01*
X105056Y377909D01*
X105035Y377800D01*
X105010Y377692D01*
X104981Y377585D01*
X104949Y377479D01*
X104913Y377374D01*
X104873Y377271D01*
X104830Y377169D01*
X104783Y377068D01*
X104732Y376969D01*
X104679Y376872D01*
X104622Y376778D01*
X104561Y376685D01*
X104498Y376594D01*
X104431Y376505D01*
X104361Y376419D01*
X104288Y376336D01*
X104213Y376254D01*
X104135Y376176D01*
X104053Y376101D01*
X103970Y376028D01*
X103884Y375958D01*
X103795Y375891D01*
X103704Y375828D01*
X103611Y375767D01*
X103516Y375710D01*
X103420Y375657D01*
X103321Y375606D01*
X103220Y375559D01*
X103118Y375516D01*
X103015Y375476D01*
X102910Y375440D01*
X102804Y375408D01*
X102697Y375379D01*
X102589Y375354D01*
X102480Y375333D01*
X102371Y375316D01*
X102261Y375302D01*
X102150Y375293D01*
X102040Y375287D01*
X101929Y375285D01*
X101818Y375287D01*
X101708Y375293D01*
X101597Y375302D01*
X101487Y375316D01*
X101378Y375333D01*
X101269Y375354D01*
X101161Y375379D01*
X101054Y375408D01*
X100948Y375440D01*
X100843Y375476D01*
X100740Y375516D01*
X100638Y375559D01*
X100537Y375606D01*
X100438Y375657D01*
X100342Y375710D01*
X100247Y375767D01*
X100154Y375828D01*
X100063Y375891D01*
X99974Y375958D01*
X99888Y376028D01*
X99805Y376101D01*
X99723Y376176D01*
X99645Y376254D01*
X99570Y376336D01*
X99497Y376419D01*
X99427Y376505D01*
X99360Y376594D01*
X99297Y376685D01*
X99236Y376778D01*
X99179Y376873D01*
X99126Y376969D01*
X99075Y377068D01*
X99028Y377169D01*
X98985Y377271D01*
X98945Y377374D01*
X98909Y377479D01*
X98877Y377585D01*
X98848Y377692D01*
X98823Y377800D01*
X98802Y377909D01*
X98785Y378018D01*
X98771Y378128D01*
X98762Y378239D01*
X98756Y378349D01*
X98754Y378460D01*
X109549Y386715D02*
X113359Y381318D01*
X117169Y386715D01*
X113359Y381318D02*
X113359Y375285D01*
X121614Y384175D02*
X124789Y386715D01*
X124789Y375285D01*
X121614Y375285D02*
X127964Y375285D01*
D11*
X241300Y464820D02*
X241300Y490220D01*
X88900Y490220D02*
X88900Y464820D01*
X95250Y471170D01*
X95250Y483870D02*
X88900Y490220D01*
X107950Y483870D02*
X114300Y490220D01*
X241300Y490220D01*
X114300Y464820D02*
X107950Y471170D01*
X114300Y464820D02*
X88900Y464820D01*
X114300Y464820D02*
X114300Y490220D01*
X88900Y490220D01*
X114300Y464820D02*
X241300Y464820D01*
D12*
X93345Y499745D02*
X93345Y508635D01*
X93345Y499745D02*
X93343Y499645D01*
X93337Y499546D01*
X93327Y499446D01*
X93314Y499348D01*
X93296Y499249D01*
X93275Y499152D01*
X93250Y499056D01*
X93221Y498960D01*
X93188Y498866D01*
X93152Y498773D01*
X93112Y498682D01*
X93068Y498592D01*
X93021Y498504D01*
X92971Y498418D01*
X92917Y498334D01*
X92860Y498252D01*
X92800Y498173D01*
X92736Y498095D01*
X92670Y498021D01*
X92601Y497949D01*
X92529Y497880D01*
X92455Y497814D01*
X92377Y497750D01*
X92298Y497690D01*
X92216Y497633D01*
X92132Y497579D01*
X92046Y497529D01*
X91958Y497482D01*
X91868Y497438D01*
X91777Y497398D01*
X91684Y497362D01*
X91590Y497329D01*
X91494Y497300D01*
X91398Y497275D01*
X91301Y497254D01*
X91202Y497236D01*
X91104Y497223D01*
X91004Y497213D01*
X90905Y497207D01*
X90805Y497205D01*
X89535Y497205D01*
X98754Y500380D02*
X98754Y505460D01*
X98756Y505571D01*
X98762Y505681D01*
X98771Y505792D01*
X98785Y505902D01*
X98802Y506011D01*
X98823Y506120D01*
X98848Y506228D01*
X98877Y506335D01*
X98909Y506441D01*
X98945Y506546D01*
X98985Y506649D01*
X99028Y506751D01*
X99075Y506852D01*
X99126Y506951D01*
X99179Y507048D01*
X99236Y507142D01*
X99297Y507235D01*
X99360Y507326D01*
X99427Y507415D01*
X99497Y507501D01*
X99570Y507584D01*
X99645Y507666D01*
X99723Y507744D01*
X99805Y507819D01*
X99888Y507892D01*
X99974Y507962D01*
X100063Y508029D01*
X100154Y508092D01*
X100247Y508153D01*
X100342Y508210D01*
X100438Y508263D01*
X100537Y508314D01*
X100638Y508361D01*
X100740Y508404D01*
X100843Y508444D01*
X100948Y508480D01*
X101054Y508512D01*
X101161Y508541D01*
X101269Y508566D01*
X101378Y508587D01*
X101487Y508604D01*
X101597Y508618D01*
X101708Y508627D01*
X101818Y508633D01*
X101929Y508635D01*
X102040Y508633D01*
X102150Y508627D01*
X102261Y508618D01*
X102371Y508604D01*
X102480Y508587D01*
X102589Y508566D01*
X102697Y508541D01*
X102804Y508512D01*
X102910Y508480D01*
X103015Y508444D01*
X103118Y508404D01*
X103220Y508361D01*
X103321Y508314D01*
X103420Y508263D01*
X103517Y508210D01*
X103611Y508153D01*
X103704Y508092D01*
X103795Y508029D01*
X103884Y507962D01*
X103970Y507892D01*
X104053Y507819D01*
X104135Y507744D01*
X104213Y507666D01*
X104288Y507584D01*
X104361Y507501D01*
X104431Y507415D01*
X104498Y507326D01*
X104561Y507235D01*
X104622Y507142D01*
X104679Y507048D01*
X104732Y506951D01*
X104783Y506852D01*
X104830Y506751D01*
X104873Y506649D01*
X104913Y506546D01*
X104949Y506441D01*
X104981Y506335D01*
X105010Y506228D01*
X105035Y506120D01*
X105056Y506011D01*
X105073Y505902D01*
X105087Y505792D01*
X105096Y505681D01*
X105102Y505571D01*
X105104Y505460D01*
X105104Y500380D01*
X105102Y500269D01*
X105096Y500159D01*
X105087Y500048D01*
X105073Y499938D01*
X105056Y499829D01*
X105035Y499720D01*
X105010Y499612D01*
X104981Y499505D01*
X104949Y499399D01*
X104913Y499294D01*
X104873Y499191D01*
X104830Y499089D01*
X104783Y498988D01*
X104732Y498889D01*
X104679Y498792D01*
X104622Y498698D01*
X104561Y498605D01*
X104498Y498514D01*
X104431Y498425D01*
X104361Y498339D01*
X104288Y498256D01*
X104213Y498174D01*
X104135Y498096D01*
X104053Y498021D01*
X103970Y497948D01*
X103884Y497878D01*
X103795Y497811D01*
X103704Y497748D01*
X103611Y497687D01*
X103516Y497630D01*
X103420Y497577D01*
X103321Y497526D01*
X103220Y497479D01*
X103118Y497436D01*
X103015Y497396D01*
X102910Y497360D01*
X102804Y497328D01*
X102697Y497299D01*
X102589Y497274D01*
X102480Y497253D01*
X102371Y497236D01*
X102261Y497222D01*
X102150Y497213D01*
X102040Y497207D01*
X101929Y497205D01*
X101818Y497207D01*
X101708Y497213D01*
X101597Y497222D01*
X101487Y497236D01*
X101378Y497253D01*
X101269Y497274D01*
X101161Y497299D01*
X101054Y497328D01*
X100948Y497360D01*
X100843Y497396D01*
X100740Y497436D01*
X100638Y497479D01*
X100537Y497526D01*
X100438Y497577D01*
X100342Y497630D01*
X100247Y497687D01*
X100154Y497748D01*
X100063Y497811D01*
X99974Y497878D01*
X99888Y497948D01*
X99805Y498021D01*
X99723Y498096D01*
X99645Y498174D01*
X99570Y498256D01*
X99497Y498339D01*
X99427Y498425D01*
X99360Y498514D01*
X99297Y498605D01*
X99236Y498698D01*
X99179Y498793D01*
X99126Y498889D01*
X99075Y498988D01*
X99028Y499089D01*
X98985Y499191D01*
X98945Y499294D01*
X98909Y499399D01*
X98877Y499505D01*
X98848Y499612D01*
X98823Y499720D01*
X98802Y499829D01*
X98785Y499938D01*
X98771Y500048D01*
X98762Y500159D01*
X98756Y500269D01*
X98754Y500380D01*
X109549Y508635D02*
X113359Y503238D01*
X117169Y508635D01*
X113359Y503238D02*
X113359Y497205D01*
X125106Y508636D02*
X125210Y508634D01*
X125315Y508628D01*
X125419Y508619D01*
X125522Y508606D01*
X125625Y508588D01*
X125727Y508568D01*
X125829Y508543D01*
X125929Y508515D01*
X126029Y508483D01*
X126127Y508447D01*
X126224Y508408D01*
X126319Y508366D01*
X126413Y508320D01*
X126505Y508270D01*
X126595Y508218D01*
X126683Y508162D01*
X126769Y508102D01*
X126853Y508040D01*
X126934Y507975D01*
X127013Y507907D01*
X127090Y507835D01*
X127163Y507762D01*
X127235Y507685D01*
X127303Y507606D01*
X127368Y507525D01*
X127430Y507441D01*
X127490Y507355D01*
X127546Y507267D01*
X127598Y507177D01*
X127648Y507085D01*
X127694Y506991D01*
X127736Y506896D01*
X127775Y506799D01*
X127811Y506701D01*
X127843Y506601D01*
X127871Y506501D01*
X127896Y506399D01*
X127916Y506297D01*
X127934Y506194D01*
X127947Y506091D01*
X127956Y505987D01*
X127962Y505882D01*
X127964Y505778D01*
X125106Y508635D02*
X124988Y508633D01*
X124869Y508627D01*
X124751Y508618D01*
X124634Y508605D01*
X124517Y508587D01*
X124400Y508567D01*
X124284Y508542D01*
X124169Y508514D01*
X124056Y508481D01*
X123943Y508446D01*
X123831Y508406D01*
X123721Y508364D01*
X123612Y508317D01*
X123504Y508267D01*
X123399Y508214D01*
X123295Y508157D01*
X123193Y508097D01*
X123093Y508034D01*
X122995Y507967D01*
X122899Y507898D01*
X122806Y507825D01*
X122715Y507749D01*
X122626Y507671D01*
X122540Y507589D01*
X122457Y507505D01*
X122376Y507419D01*
X122299Y507329D01*
X122224Y507238D01*
X122152Y507144D01*
X122083Y507047D01*
X122018Y506949D01*
X121955Y506848D01*
X121896Y506745D01*
X121840Y506641D01*
X121788Y506535D01*
X121739Y506427D01*
X121694Y506318D01*
X121652Y506207D01*
X121614Y506095D01*
X127012Y503556D02*
X127088Y503631D01*
X127163Y503710D01*
X127234Y503791D01*
X127303Y503875D01*
X127368Y503961D01*
X127430Y504049D01*
X127490Y504139D01*
X127546Y504231D01*
X127599Y504326D01*
X127648Y504422D01*
X127694Y504520D01*
X127737Y504619D01*
X127776Y504720D01*
X127811Y504822D01*
X127843Y504925D01*
X127871Y505029D01*
X127896Y505134D01*
X127917Y505241D01*
X127934Y505347D01*
X127947Y505454D01*
X127956Y505562D01*
X127962Y505670D01*
X127964Y505778D01*
X127011Y503555D02*
X121614Y497205D01*
X127964Y497205D01*
D11*
X584200Y339090D02*
X838200Y339090D01*
X838200Y397510D02*
X584200Y397510D01*
X584200Y339090D01*
X838200Y339090D02*
X838200Y358140D01*
X838200Y378460D02*
X838200Y397510D01*
X838200Y378460D02*
X837953Y378457D01*
X837705Y378448D01*
X837458Y378433D01*
X837212Y378412D01*
X836966Y378385D01*
X836721Y378352D01*
X836476Y378313D01*
X836233Y378268D01*
X835991Y378217D01*
X835750Y378160D01*
X835511Y378098D01*
X835273Y378029D01*
X835037Y377955D01*
X834803Y377875D01*
X834571Y377790D01*
X834341Y377698D01*
X834113Y377602D01*
X833888Y377499D01*
X833665Y377392D01*
X833445Y377278D01*
X833228Y377160D01*
X833013Y377036D01*
X832802Y376907D01*
X832594Y376773D01*
X832389Y376634D01*
X832188Y376490D01*
X831990Y376342D01*
X831796Y376188D01*
X831606Y376030D01*
X831420Y375867D01*
X831238Y375700D01*
X831060Y375528D01*
X830886Y375352D01*
X830716Y375172D01*
X830551Y374987D01*
X830391Y374799D01*
X830235Y374607D01*
X830083Y374411D01*
X829937Y374212D01*
X829795Y374009D01*
X829659Y373802D01*
X829527Y373593D01*
X829401Y373380D01*
X829280Y373164D01*
X829164Y372946D01*
X829054Y372724D01*
X828949Y372500D01*
X828849Y372274D01*
X828755Y372045D01*
X828667Y371814D01*
X828584Y371580D01*
X828507Y371345D01*
X828436Y371108D01*
X828370Y370870D01*
X828311Y370630D01*
X828257Y370388D01*
X828209Y370145D01*
X828167Y369902D01*
X828131Y369657D01*
X828101Y369411D01*
X828077Y369165D01*
X828059Y368918D01*
X828047Y368671D01*
X828041Y368424D01*
X828041Y368176D01*
X828047Y367929D01*
X828059Y367682D01*
X828077Y367435D01*
X828101Y367189D01*
X828131Y366943D01*
X828167Y366698D01*
X828209Y366455D01*
X828257Y366212D01*
X828311Y365970D01*
X828370Y365730D01*
X828436Y365492D01*
X828507Y365255D01*
X828584Y365020D01*
X828667Y364786D01*
X828755Y364555D01*
X828849Y364326D01*
X828949Y364100D01*
X829054Y363876D01*
X829164Y363654D01*
X829280Y363436D01*
X829401Y363220D01*
X829527Y363007D01*
X829659Y362798D01*
X829795Y362591D01*
X829937Y362388D01*
X830083Y362189D01*
X830235Y361993D01*
X830391Y361801D01*
X830551Y361613D01*
X830716Y361428D01*
X830886Y361248D01*
X831060Y361072D01*
X831238Y360900D01*
X831420Y360733D01*
X831606Y360570D01*
X831796Y360412D01*
X831990Y360258D01*
X832188Y360110D01*
X832389Y359966D01*
X832594Y359827D01*
X832802Y359693D01*
X833013Y359564D01*
X833228Y359440D01*
X833445Y359322D01*
X833665Y359208D01*
X833888Y359101D01*
X834113Y358998D01*
X834341Y358902D01*
X834571Y358810D01*
X834803Y358725D01*
X835037Y358645D01*
X835273Y358571D01*
X835511Y358502D01*
X835750Y358440D01*
X835991Y358383D01*
X836233Y358332D01*
X836476Y358287D01*
X836721Y358248D01*
X836966Y358215D01*
X837212Y358188D01*
X837458Y358167D01*
X837705Y358152D01*
X837953Y358143D01*
X838200Y358140D01*
D13*
X842518Y376357D02*
X854202Y376357D01*
X854202Y375059D02*
X854202Y377656D01*
X842518Y377656D02*
X842518Y375059D01*
X854202Y384819D02*
X854202Y387416D01*
X854202Y384819D02*
X854200Y384720D01*
X854194Y384620D01*
X854185Y384521D01*
X854172Y384423D01*
X854155Y384325D01*
X854134Y384227D01*
X854109Y384131D01*
X854081Y384036D01*
X854049Y383942D01*
X854014Y383849D01*
X853975Y383757D01*
X853932Y383667D01*
X853887Y383579D01*
X853837Y383492D01*
X853785Y383408D01*
X853729Y383325D01*
X853671Y383245D01*
X853609Y383167D01*
X853544Y383092D01*
X853476Y383019D01*
X853406Y382949D01*
X853333Y382881D01*
X853258Y382816D01*
X853180Y382754D01*
X853100Y382696D01*
X853017Y382640D01*
X852933Y382588D01*
X852846Y382538D01*
X852758Y382493D01*
X852668Y382450D01*
X852576Y382411D01*
X852483Y382376D01*
X852389Y382344D01*
X852294Y382316D01*
X852198Y382291D01*
X852100Y382270D01*
X852002Y382253D01*
X851904Y382240D01*
X851805Y382231D01*
X851705Y382225D01*
X851606Y382223D01*
X845114Y382223D01*
X845114Y382222D02*
X845015Y382224D01*
X844915Y382230D01*
X844816Y382239D01*
X844718Y382252D01*
X844620Y382270D01*
X844522Y382290D01*
X844426Y382315D01*
X844330Y382343D01*
X844236Y382375D01*
X844143Y382410D01*
X844052Y382449D01*
X843962Y382492D01*
X843873Y382537D01*
X843787Y382587D01*
X843702Y382639D01*
X843620Y382695D01*
X843540Y382754D01*
X843462Y382815D01*
X843386Y382880D01*
X843313Y382948D01*
X843243Y383018D01*
X843175Y383091D01*
X843110Y383167D01*
X843049Y383245D01*
X842990Y383325D01*
X842934Y383407D01*
X842882Y383492D01*
X842833Y383578D01*
X842787Y383667D01*
X842744Y383757D01*
X842705Y383848D01*
X842670Y383941D01*
X842638Y384035D01*
X842610Y384131D01*
X842585Y384227D01*
X842565Y384325D01*
X842547Y384423D01*
X842534Y384521D01*
X842525Y384620D01*
X842519Y384719D01*
X842517Y384819D01*
X842518Y384819D02*
X842518Y387416D01*
X845114Y391781D02*
X842518Y395026D01*
X854202Y395026D01*
X854202Y391781D02*
X854202Y398272D01*
D11*
X368300Y135890D02*
X190500Y135890D01*
X190500Y194310D02*
X368300Y194310D01*
X190500Y194310D02*
X190500Y135890D01*
X368300Y135890D02*
X368300Y154940D01*
X368300Y175260D02*
X368300Y194310D01*
X368300Y175260D02*
X368053Y175257D01*
X367805Y175248D01*
X367558Y175233D01*
X367312Y175212D01*
X367066Y175185D01*
X366821Y175152D01*
X366576Y175113D01*
X366333Y175068D01*
X366091Y175017D01*
X365850Y174960D01*
X365611Y174898D01*
X365373Y174829D01*
X365137Y174755D01*
X364903Y174675D01*
X364671Y174590D01*
X364441Y174498D01*
X364213Y174402D01*
X363988Y174299D01*
X363765Y174192D01*
X363545Y174078D01*
X363328Y173960D01*
X363113Y173836D01*
X362902Y173707D01*
X362694Y173573D01*
X362489Y173434D01*
X362288Y173290D01*
X362090Y173142D01*
X361896Y172988D01*
X361706Y172830D01*
X361520Y172667D01*
X361338Y172500D01*
X361160Y172328D01*
X360986Y172152D01*
X360816Y171972D01*
X360651Y171787D01*
X360491Y171599D01*
X360335Y171407D01*
X360183Y171211D01*
X360037Y171012D01*
X359895Y170809D01*
X359759Y170602D01*
X359627Y170393D01*
X359501Y170180D01*
X359380Y169964D01*
X359264Y169746D01*
X359154Y169524D01*
X359049Y169300D01*
X358949Y169074D01*
X358855Y168845D01*
X358767Y168614D01*
X358684Y168380D01*
X358607Y168145D01*
X358536Y167908D01*
X358470Y167670D01*
X358411Y167430D01*
X358357Y167188D01*
X358309Y166945D01*
X358267Y166702D01*
X358231Y166457D01*
X358201Y166211D01*
X358177Y165965D01*
X358159Y165718D01*
X358147Y165471D01*
X358141Y165224D01*
X358141Y164976D01*
X358147Y164729D01*
X358159Y164482D01*
X358177Y164235D01*
X358201Y163989D01*
X358231Y163743D01*
X358267Y163498D01*
X358309Y163255D01*
X358357Y163012D01*
X358411Y162770D01*
X358470Y162530D01*
X358536Y162292D01*
X358607Y162055D01*
X358684Y161820D01*
X358767Y161586D01*
X358855Y161355D01*
X358949Y161126D01*
X359049Y160900D01*
X359154Y160676D01*
X359264Y160454D01*
X359380Y160236D01*
X359501Y160020D01*
X359627Y159807D01*
X359759Y159598D01*
X359895Y159391D01*
X360037Y159188D01*
X360183Y158989D01*
X360335Y158793D01*
X360491Y158601D01*
X360651Y158413D01*
X360816Y158228D01*
X360986Y158048D01*
X361160Y157872D01*
X361338Y157700D01*
X361520Y157533D01*
X361706Y157370D01*
X361896Y157212D01*
X362090Y157058D01*
X362288Y156910D01*
X362489Y156766D01*
X362694Y156627D01*
X362902Y156493D01*
X363113Y156364D01*
X363328Y156240D01*
X363545Y156122D01*
X363765Y156008D01*
X363988Y155901D01*
X364213Y155798D01*
X364441Y155702D01*
X364671Y155610D01*
X364903Y155525D01*
X365137Y155445D01*
X365373Y155371D01*
X365611Y155302D01*
X365850Y155240D01*
X366091Y155183D01*
X366333Y155132D01*
X366576Y155087D01*
X366821Y155048D01*
X367066Y155015D01*
X367312Y154988D01*
X367558Y154967D01*
X367805Y154952D01*
X368053Y154943D01*
X368300Y154940D01*
D12*
X372745Y173101D02*
X384175Y173101D01*
X384175Y171831D02*
X384175Y174371D01*
X372745Y174371D02*
X372745Y171831D01*
X384175Y181573D02*
X384175Y184113D01*
X384175Y181573D02*
X384173Y181473D01*
X384167Y181374D01*
X384157Y181274D01*
X384144Y181176D01*
X384126Y181077D01*
X384105Y180980D01*
X384080Y180884D01*
X384051Y180788D01*
X384018Y180694D01*
X383982Y180601D01*
X383942Y180510D01*
X383898Y180420D01*
X383851Y180332D01*
X383801Y180246D01*
X383747Y180162D01*
X383690Y180080D01*
X383630Y180001D01*
X383566Y179923D01*
X383500Y179849D01*
X383431Y179777D01*
X383359Y179708D01*
X383285Y179642D01*
X383207Y179578D01*
X383128Y179518D01*
X383046Y179461D01*
X382962Y179407D01*
X382876Y179357D01*
X382788Y179310D01*
X382698Y179266D01*
X382607Y179226D01*
X382514Y179190D01*
X382420Y179157D01*
X382324Y179128D01*
X382228Y179103D01*
X382131Y179082D01*
X382032Y179064D01*
X381934Y179051D01*
X381834Y179041D01*
X381735Y179035D01*
X381635Y179033D01*
X375285Y179033D01*
X375185Y179035D01*
X375086Y179041D01*
X374986Y179051D01*
X374888Y179064D01*
X374789Y179082D01*
X374692Y179103D01*
X374596Y179128D01*
X374500Y179157D01*
X374406Y179190D01*
X374313Y179226D01*
X374222Y179266D01*
X374132Y179310D01*
X374044Y179357D01*
X373958Y179407D01*
X373874Y179461D01*
X373792Y179518D01*
X373713Y179578D01*
X373635Y179642D01*
X373561Y179708D01*
X373489Y179777D01*
X373420Y179849D01*
X373354Y179923D01*
X373290Y180001D01*
X373230Y180080D01*
X373173Y180162D01*
X373119Y180246D01*
X373069Y180332D01*
X373022Y180420D01*
X372978Y180510D01*
X372938Y180601D01*
X372902Y180694D01*
X372869Y180788D01*
X372840Y180884D01*
X372815Y180980D01*
X372794Y181077D01*
X372776Y181176D01*
X372763Y181274D01*
X372753Y181374D01*
X372747Y181473D01*
X372745Y181573D01*
X372745Y184113D01*
X372745Y192088D02*
X372747Y192192D01*
X372753Y192297D01*
X372762Y192401D01*
X372775Y192504D01*
X372793Y192607D01*
X372813Y192709D01*
X372838Y192811D01*
X372866Y192911D01*
X372898Y193011D01*
X372934Y193109D01*
X372973Y193206D01*
X373015Y193301D01*
X373061Y193395D01*
X373111Y193487D01*
X373163Y193577D01*
X373219Y193665D01*
X373279Y193751D01*
X373341Y193835D01*
X373406Y193916D01*
X373474Y193995D01*
X373546Y194072D01*
X373619Y194145D01*
X373696Y194217D01*
X373775Y194285D01*
X373856Y194350D01*
X373940Y194412D01*
X374026Y194472D01*
X374114Y194528D01*
X374204Y194580D01*
X374296Y194630D01*
X374390Y194676D01*
X374485Y194718D01*
X374582Y194757D01*
X374680Y194793D01*
X374780Y194825D01*
X374880Y194853D01*
X374982Y194878D01*
X375084Y194898D01*
X375187Y194916D01*
X375290Y194929D01*
X375394Y194938D01*
X375499Y194944D01*
X375603Y194946D01*
X372745Y192088D02*
X372747Y191970D01*
X372753Y191851D01*
X372762Y191733D01*
X372775Y191616D01*
X372793Y191499D01*
X372813Y191382D01*
X372838Y191266D01*
X372866Y191151D01*
X372899Y191038D01*
X372934Y190925D01*
X372974Y190813D01*
X373016Y190703D01*
X373063Y190594D01*
X373113Y190486D01*
X373166Y190381D01*
X373223Y190277D01*
X373283Y190175D01*
X373346Y190075D01*
X373413Y189977D01*
X373482Y189881D01*
X373555Y189788D01*
X373631Y189697D01*
X373709Y189608D01*
X373791Y189522D01*
X373875Y189439D01*
X373961Y189358D01*
X374051Y189281D01*
X374142Y189206D01*
X374236Y189134D01*
X374333Y189065D01*
X374431Y189000D01*
X374532Y188937D01*
X374635Y188878D01*
X374739Y188822D01*
X374845Y188770D01*
X374953Y188721D01*
X375062Y188676D01*
X375173Y188634D01*
X375285Y188596D01*
X377825Y193993D02*
X377750Y194069D01*
X377671Y194144D01*
X377590Y194215D01*
X377506Y194284D01*
X377420Y194349D01*
X377332Y194411D01*
X377242Y194471D01*
X377150Y194527D01*
X377055Y194580D01*
X376959Y194629D01*
X376861Y194675D01*
X376762Y194718D01*
X376661Y194757D01*
X376559Y194792D01*
X376456Y194824D01*
X376352Y194852D01*
X376247Y194877D01*
X376140Y194898D01*
X376034Y194915D01*
X375927Y194928D01*
X375819Y194937D01*
X375711Y194943D01*
X375603Y194945D01*
X377825Y193993D02*
X384175Y188595D01*
X384175Y194945D01*
D11*
X584200Y135890D02*
X838200Y135890D01*
X838200Y194310D02*
X584200Y194310D01*
X584200Y135890D01*
X838200Y135890D02*
X838200Y154940D01*
X838200Y175260D02*
X838200Y194310D01*
X838200Y175260D02*
X837953Y175257D01*
X837705Y175248D01*
X837458Y175233D01*
X837212Y175212D01*
X836966Y175185D01*
X836721Y175152D01*
X836476Y175113D01*
X836233Y175068D01*
X835991Y175017D01*
X835750Y174960D01*
X835511Y174898D01*
X835273Y174829D01*
X835037Y174755D01*
X834803Y174675D01*
X834571Y174590D01*
X834341Y174498D01*
X834113Y174402D01*
X833888Y174299D01*
X833665Y174192D01*
X833445Y174078D01*
X833228Y173960D01*
X833013Y173836D01*
X832802Y173707D01*
X832594Y173573D01*
X832389Y173434D01*
X832188Y173290D01*
X831990Y173142D01*
X831796Y172988D01*
X831606Y172830D01*
X831420Y172667D01*
X831238Y172500D01*
X831060Y172328D01*
X830886Y172152D01*
X830716Y171972D01*
X830551Y171787D01*
X830391Y171599D01*
X830235Y171407D01*
X830083Y171211D01*
X829937Y171012D01*
X829795Y170809D01*
X829659Y170602D01*
X829527Y170393D01*
X829401Y170180D01*
X829280Y169964D01*
X829164Y169746D01*
X829054Y169524D01*
X828949Y169300D01*
X828849Y169074D01*
X828755Y168845D01*
X828667Y168614D01*
X828584Y168380D01*
X828507Y168145D01*
X828436Y167908D01*
X828370Y167670D01*
X828311Y167430D01*
X828257Y167188D01*
X828209Y166945D01*
X828167Y166702D01*
X828131Y166457D01*
X828101Y166211D01*
X828077Y165965D01*
X828059Y165718D01*
X828047Y165471D01*
X828041Y165224D01*
X828041Y164976D01*
X828047Y164729D01*
X828059Y164482D01*
X828077Y164235D01*
X828101Y163989D01*
X828131Y163743D01*
X828167Y163498D01*
X828209Y163255D01*
X828257Y163012D01*
X828311Y162770D01*
X828370Y162530D01*
X828436Y162292D01*
X828507Y162055D01*
X828584Y161820D01*
X828667Y161586D01*
X828755Y161355D01*
X828849Y161126D01*
X828949Y160900D01*
X829054Y160676D01*
X829164Y160454D01*
X829280Y160236D01*
X829401Y160020D01*
X829527Y159807D01*
X829659Y159598D01*
X829795Y159391D01*
X829937Y159188D01*
X830083Y158989D01*
X830235Y158793D01*
X830391Y158601D01*
X830551Y158413D01*
X830716Y158228D01*
X830886Y158048D01*
X831060Y157872D01*
X831238Y157700D01*
X831420Y157533D01*
X831606Y157370D01*
X831796Y157212D01*
X831990Y157058D01*
X832188Y156910D01*
X832389Y156766D01*
X832594Y156627D01*
X832802Y156493D01*
X833013Y156364D01*
X833228Y156240D01*
X833445Y156122D01*
X833665Y156008D01*
X833888Y155901D01*
X834113Y155798D01*
X834341Y155702D01*
X834571Y155610D01*
X834803Y155525D01*
X835037Y155445D01*
X835273Y155371D01*
X835511Y155302D01*
X835750Y155240D01*
X835991Y155183D01*
X836233Y155132D01*
X836476Y155087D01*
X836721Y155048D01*
X836966Y155015D01*
X837212Y154988D01*
X837458Y154967D01*
X837705Y154952D01*
X837953Y154943D01*
X838200Y154940D01*
D13*
X842518Y173157D02*
X854202Y173157D01*
X854202Y171859D02*
X854202Y174456D01*
X842518Y174456D02*
X842518Y171859D01*
X854202Y181619D02*
X854202Y184216D01*
X854202Y181619D02*
X854200Y181520D01*
X854194Y181420D01*
X854185Y181321D01*
X854172Y181223D01*
X854155Y181125D01*
X854134Y181027D01*
X854109Y180931D01*
X854081Y180836D01*
X854049Y180742D01*
X854014Y180649D01*
X853975Y180557D01*
X853932Y180467D01*
X853887Y180379D01*
X853837Y180292D01*
X853785Y180208D01*
X853729Y180125D01*
X853671Y180045D01*
X853609Y179967D01*
X853544Y179892D01*
X853476Y179819D01*
X853406Y179749D01*
X853333Y179681D01*
X853258Y179616D01*
X853180Y179554D01*
X853100Y179496D01*
X853017Y179440D01*
X852933Y179388D01*
X852846Y179338D01*
X852758Y179293D01*
X852668Y179250D01*
X852576Y179211D01*
X852483Y179176D01*
X852389Y179144D01*
X852294Y179116D01*
X852198Y179091D01*
X852100Y179070D01*
X852002Y179053D01*
X851904Y179040D01*
X851805Y179031D01*
X851705Y179025D01*
X851606Y179023D01*
X845114Y179023D01*
X845114Y179022D02*
X845015Y179024D01*
X844915Y179030D01*
X844816Y179039D01*
X844718Y179052D01*
X844620Y179070D01*
X844522Y179090D01*
X844426Y179115D01*
X844330Y179143D01*
X844236Y179175D01*
X844143Y179210D01*
X844052Y179249D01*
X843962Y179292D01*
X843873Y179337D01*
X843787Y179387D01*
X843702Y179439D01*
X843620Y179495D01*
X843540Y179554D01*
X843462Y179615D01*
X843386Y179680D01*
X843313Y179748D01*
X843243Y179818D01*
X843175Y179891D01*
X843110Y179967D01*
X843049Y180045D01*
X842990Y180125D01*
X842934Y180207D01*
X842882Y180292D01*
X842833Y180378D01*
X842787Y180467D01*
X842744Y180557D01*
X842705Y180648D01*
X842670Y180741D01*
X842638Y180835D01*
X842610Y180931D01*
X842585Y181027D01*
X842565Y181125D01*
X842547Y181223D01*
X842534Y181321D01*
X842525Y181420D01*
X842519Y181519D01*
X842517Y181619D01*
X842518Y181619D02*
X842518Y184216D01*
X854202Y188581D02*
X854202Y191826D01*
X854200Y191939D01*
X854194Y192052D01*
X854184Y192165D01*
X854170Y192278D01*
X854153Y192390D01*
X854131Y192501D01*
X854106Y192611D01*
X854076Y192721D01*
X854043Y192829D01*
X854006Y192936D01*
X853966Y193042D01*
X853921Y193146D01*
X853873Y193249D01*
X853822Y193350D01*
X853767Y193449D01*
X853709Y193546D01*
X853647Y193641D01*
X853582Y193734D01*
X853514Y193824D01*
X853443Y193912D01*
X853368Y193998D01*
X853291Y194081D01*
X853211Y194161D01*
X853128Y194238D01*
X853042Y194313D01*
X852954Y194384D01*
X852864Y194452D01*
X852771Y194517D01*
X852676Y194579D01*
X852579Y194637D01*
X852480Y194692D01*
X852379Y194743D01*
X852276Y194791D01*
X852172Y194836D01*
X852066Y194876D01*
X851959Y194913D01*
X851851Y194946D01*
X851741Y194976D01*
X851631Y195001D01*
X851520Y195023D01*
X851408Y195040D01*
X851295Y195054D01*
X851182Y195064D01*
X851069Y195070D01*
X850956Y195072D01*
X850843Y195070D01*
X850730Y195064D01*
X850617Y195054D01*
X850504Y195040D01*
X850392Y195023D01*
X850281Y195001D01*
X850171Y194976D01*
X850061Y194946D01*
X849953Y194913D01*
X849846Y194876D01*
X849740Y194836D01*
X849636Y194791D01*
X849533Y194743D01*
X849432Y194692D01*
X849333Y194637D01*
X849236Y194579D01*
X849141Y194517D01*
X849048Y194452D01*
X848958Y194384D01*
X848870Y194313D01*
X848784Y194238D01*
X848701Y194161D01*
X848621Y194081D01*
X848544Y193998D01*
X848469Y193912D01*
X848398Y193824D01*
X848330Y193734D01*
X848265Y193641D01*
X848203Y193546D01*
X848145Y193449D01*
X848090Y193350D01*
X848039Y193249D01*
X847991Y193146D01*
X847946Y193042D01*
X847906Y192936D01*
X847869Y192829D01*
X847836Y192721D01*
X847806Y192611D01*
X847781Y192501D01*
X847759Y192390D01*
X847742Y192278D01*
X847728Y192165D01*
X847718Y192052D01*
X847712Y191939D01*
X847710Y191826D01*
X842518Y192476D02*
X842518Y188581D01*
X842518Y192476D02*
X842520Y192577D01*
X842526Y192677D01*
X842536Y192777D01*
X842549Y192877D01*
X842567Y192976D01*
X842588Y193075D01*
X842613Y193172D01*
X842642Y193269D01*
X842675Y193364D01*
X842711Y193458D01*
X842751Y193550D01*
X842794Y193641D01*
X842841Y193730D01*
X842891Y193817D01*
X842945Y193903D01*
X843002Y193986D01*
X843062Y194066D01*
X843125Y194145D01*
X843192Y194221D01*
X843261Y194294D01*
X843333Y194364D01*
X843407Y194432D01*
X843484Y194497D01*
X843564Y194558D01*
X843646Y194617D01*
X843730Y194672D01*
X843816Y194724D01*
X843904Y194773D01*
X843994Y194818D01*
X844086Y194860D01*
X844179Y194898D01*
X844274Y194932D01*
X844369Y194963D01*
X844466Y194990D01*
X844564Y195013D01*
X844663Y195033D01*
X844763Y195048D01*
X844863Y195060D01*
X844963Y195068D01*
X845064Y195072D01*
X845164Y195072D01*
X845265Y195068D01*
X845365Y195060D01*
X845465Y195048D01*
X845565Y195033D01*
X845664Y195013D01*
X845762Y194990D01*
X845859Y194963D01*
X845954Y194932D01*
X846049Y194898D01*
X846142Y194860D01*
X846234Y194818D01*
X846324Y194773D01*
X846412Y194724D01*
X846498Y194672D01*
X846582Y194617D01*
X846664Y194558D01*
X846744Y194497D01*
X846821Y194432D01*
X846895Y194364D01*
X846967Y194294D01*
X847036Y194221D01*
X847103Y194145D01*
X847166Y194066D01*
X847226Y193986D01*
X847283Y193903D01*
X847337Y193817D01*
X847387Y193730D01*
X847434Y193641D01*
X847477Y193550D01*
X847517Y193458D01*
X847553Y193364D01*
X847586Y193269D01*
X847615Y193172D01*
X847640Y193075D01*
X847661Y192976D01*
X847679Y192877D01*
X847692Y192777D01*
X847702Y192677D01*
X847708Y192577D01*
X847710Y192476D01*
X847711Y192476D02*
X847711Y189879D01*
D11*
X539750Y63500D02*
X527050Y63500D01*
X539750Y63500D02*
X546100Y57150D01*
X546100Y44450D01*
X539750Y38100D01*
X501650Y63500D02*
X495300Y57150D01*
X501650Y63500D02*
X514350Y63500D01*
X520700Y57150D01*
X520700Y44450D01*
X514350Y38100D01*
X501650Y38100D01*
X495300Y44450D01*
X520700Y57150D02*
X527050Y63500D01*
X520700Y44450D02*
X527050Y38100D01*
X539750Y38100D01*
X463550Y63500D02*
X450850Y63500D01*
X463550Y63500D02*
X469900Y57150D01*
X469900Y44450D01*
X463550Y38100D01*
X469900Y57150D02*
X476250Y63500D01*
X488950Y63500D01*
X495300Y57150D01*
X495300Y44450D01*
X488950Y38100D01*
X476250Y38100D01*
X469900Y44450D01*
X425450Y63500D02*
X419100Y57150D01*
X425450Y63500D02*
X438150Y63500D01*
X444500Y57150D01*
X444500Y44450D01*
X438150Y38100D01*
X425450Y38100D01*
X419100Y44450D01*
X444500Y57150D02*
X450850Y63500D01*
X444500Y44450D02*
X450850Y38100D01*
X463550Y38100D01*
X387350Y63500D02*
X374650Y63500D01*
X387350Y63500D02*
X393700Y57150D01*
X393700Y44450D01*
X387350Y38100D01*
X393700Y57150D02*
X400050Y63500D01*
X412750Y63500D01*
X419100Y57150D01*
X419100Y44450D01*
X412750Y38100D01*
X400050Y38100D01*
X393700Y44450D01*
X349250Y63500D02*
X342900Y57150D01*
X349250Y63500D02*
X361950Y63500D01*
X368300Y57150D01*
X368300Y44450D01*
X361950Y38100D01*
X349250Y38100D01*
X342900Y44450D01*
X368300Y57150D02*
X374650Y63500D01*
X368300Y44450D02*
X374650Y38100D01*
X387350Y38100D01*
X311150Y63500D02*
X298450Y63500D01*
X311150Y63500D02*
X317500Y57150D01*
X317500Y44450D01*
X311150Y38100D01*
X317500Y57150D02*
X323850Y63500D01*
X336550Y63500D01*
X342900Y57150D01*
X342900Y44450D01*
X336550Y38100D01*
X323850Y38100D01*
X317500Y44450D01*
X273050Y63500D02*
X266700Y57150D01*
X273050Y63500D02*
X285750Y63500D01*
X292100Y57150D01*
X292100Y44450D01*
X285750Y38100D01*
X273050Y38100D01*
X266700Y44450D01*
X292100Y57150D02*
X298450Y63500D01*
X292100Y44450D02*
X298450Y38100D01*
X311150Y38100D01*
X234950Y63500D02*
X222250Y63500D01*
X234950Y63500D02*
X241300Y57150D01*
X241300Y44450D01*
X234950Y38100D01*
X241300Y57150D02*
X247650Y63500D01*
X260350Y63500D01*
X266700Y57150D01*
X266700Y44450D01*
X260350Y38100D01*
X247650Y38100D01*
X241300Y44450D01*
X196850Y63500D02*
X190500Y57150D01*
X196850Y63500D02*
X209550Y63500D01*
X215900Y57150D01*
X215900Y44450D01*
X209550Y38100D01*
X196850Y38100D01*
X190500Y44450D01*
X215900Y57150D02*
X222250Y63500D01*
X215900Y44450D02*
X222250Y38100D01*
X234950Y38100D01*
X158750Y63500D02*
X146050Y63500D01*
X158750Y63500D02*
X165100Y57150D01*
X165100Y44450D01*
X158750Y38100D01*
X165100Y57150D02*
X171450Y63500D01*
X184150Y63500D01*
X190500Y57150D01*
X190500Y44450D01*
X184150Y38100D01*
X171450Y38100D01*
X165100Y44450D01*
X139700Y44450D02*
X139700Y57150D01*
X146050Y63500D01*
X139700Y44450D02*
X146050Y38100D01*
X158750Y38100D01*
X546100Y57150D02*
X552450Y63500D01*
X565150Y63500D01*
X571500Y57150D01*
X571500Y44450D01*
X565150Y38100D01*
X552450Y38100D01*
X546100Y44450D01*
D12*
X144653Y69723D02*
X139573Y69723D01*
X139573Y81153D01*
X144653Y81153D01*
X143383Y76073D02*
X139573Y76073D01*
X151575Y69723D02*
X154115Y69723D01*
X151575Y69723D02*
X151475Y69725D01*
X151376Y69731D01*
X151276Y69741D01*
X151178Y69754D01*
X151079Y69772D01*
X150982Y69793D01*
X150886Y69818D01*
X150790Y69847D01*
X150696Y69880D01*
X150603Y69916D01*
X150512Y69956D01*
X150422Y70000D01*
X150334Y70047D01*
X150248Y70097D01*
X150164Y70151D01*
X150082Y70208D01*
X150003Y70268D01*
X149925Y70332D01*
X149851Y70398D01*
X149779Y70467D01*
X149710Y70539D01*
X149644Y70613D01*
X149580Y70691D01*
X149520Y70770D01*
X149463Y70852D01*
X149409Y70936D01*
X149359Y71022D01*
X149312Y71110D01*
X149268Y71200D01*
X149228Y71291D01*
X149192Y71384D01*
X149159Y71478D01*
X149130Y71574D01*
X149105Y71670D01*
X149084Y71767D01*
X149066Y71866D01*
X149053Y71964D01*
X149043Y72064D01*
X149037Y72163D01*
X149035Y72263D01*
X149035Y78613D01*
X149037Y78713D01*
X149043Y78812D01*
X149053Y78912D01*
X149066Y79010D01*
X149084Y79109D01*
X149105Y79206D01*
X149130Y79302D01*
X149159Y79398D01*
X149192Y79492D01*
X149228Y79585D01*
X149268Y79676D01*
X149312Y79766D01*
X149359Y79854D01*
X149409Y79940D01*
X149463Y80024D01*
X149520Y80106D01*
X149580Y80185D01*
X149644Y80263D01*
X149710Y80337D01*
X149779Y80409D01*
X149851Y80478D01*
X149925Y80544D01*
X150003Y80608D01*
X150082Y80668D01*
X150164Y80725D01*
X150248Y80779D01*
X150334Y80829D01*
X150422Y80876D01*
X150512Y80920D01*
X150603Y80960D01*
X150696Y80996D01*
X150790Y81029D01*
X150886Y81058D01*
X150982Y81083D01*
X151079Y81104D01*
X151178Y81122D01*
X151276Y81135D01*
X151376Y81145D01*
X151475Y81151D01*
X151575Y81153D01*
X154115Y81153D01*
X158598Y77978D02*
X158598Y72898D01*
X158598Y77978D02*
X158600Y78089D01*
X158606Y78199D01*
X158615Y78310D01*
X158629Y78420D01*
X158646Y78529D01*
X158667Y78638D01*
X158692Y78746D01*
X158721Y78853D01*
X158753Y78959D01*
X158789Y79064D01*
X158829Y79167D01*
X158872Y79269D01*
X158919Y79370D01*
X158970Y79469D01*
X159023Y79565D01*
X159080Y79660D01*
X159141Y79753D01*
X159204Y79844D01*
X159271Y79933D01*
X159341Y80019D01*
X159414Y80102D01*
X159489Y80184D01*
X159567Y80262D01*
X159649Y80337D01*
X159732Y80410D01*
X159818Y80480D01*
X159907Y80547D01*
X159998Y80610D01*
X160091Y80671D01*
X160186Y80728D01*
X160282Y80781D01*
X160381Y80832D01*
X160482Y80879D01*
X160584Y80922D01*
X160687Y80962D01*
X160792Y80998D01*
X160898Y81030D01*
X161005Y81059D01*
X161113Y81084D01*
X161222Y81105D01*
X161331Y81122D01*
X161441Y81136D01*
X161552Y81145D01*
X161662Y81151D01*
X161773Y81153D01*
X161884Y81151D01*
X161994Y81145D01*
X162105Y81136D01*
X162215Y81122D01*
X162324Y81105D01*
X162433Y81084D01*
X162541Y81059D01*
X162648Y81030D01*
X162754Y80998D01*
X162859Y80962D01*
X162962Y80922D01*
X163064Y80879D01*
X163165Y80832D01*
X163264Y80781D01*
X163361Y80728D01*
X163455Y80671D01*
X163548Y80610D01*
X163639Y80547D01*
X163728Y80480D01*
X163814Y80410D01*
X163897Y80337D01*
X163979Y80262D01*
X164057Y80184D01*
X164132Y80102D01*
X164205Y80019D01*
X164275Y79933D01*
X164342Y79844D01*
X164405Y79753D01*
X164466Y79660D01*
X164523Y79566D01*
X164576Y79469D01*
X164627Y79370D01*
X164674Y79269D01*
X164717Y79167D01*
X164757Y79064D01*
X164793Y78959D01*
X164825Y78853D01*
X164854Y78746D01*
X164879Y78638D01*
X164900Y78529D01*
X164917Y78420D01*
X164931Y78310D01*
X164940Y78199D01*
X164946Y78089D01*
X164948Y77978D01*
X164948Y72898D01*
X164946Y72787D01*
X164940Y72677D01*
X164931Y72566D01*
X164917Y72456D01*
X164900Y72347D01*
X164879Y72238D01*
X164854Y72130D01*
X164825Y72023D01*
X164793Y71917D01*
X164757Y71812D01*
X164717Y71709D01*
X164674Y71607D01*
X164627Y71506D01*
X164576Y71407D01*
X164523Y71310D01*
X164466Y71216D01*
X164405Y71123D01*
X164342Y71032D01*
X164275Y70943D01*
X164205Y70857D01*
X164132Y70774D01*
X164057Y70692D01*
X163979Y70614D01*
X163897Y70539D01*
X163814Y70466D01*
X163728Y70396D01*
X163639Y70329D01*
X163548Y70266D01*
X163455Y70205D01*
X163360Y70148D01*
X163264Y70095D01*
X163165Y70044D01*
X163064Y69997D01*
X162962Y69954D01*
X162859Y69914D01*
X162754Y69878D01*
X162648Y69846D01*
X162541Y69817D01*
X162433Y69792D01*
X162324Y69771D01*
X162215Y69754D01*
X162105Y69740D01*
X161994Y69731D01*
X161884Y69725D01*
X161773Y69723D01*
X161662Y69725D01*
X161552Y69731D01*
X161441Y69740D01*
X161331Y69754D01*
X161222Y69771D01*
X161113Y69792D01*
X161005Y69817D01*
X160898Y69846D01*
X160792Y69878D01*
X160687Y69914D01*
X160584Y69954D01*
X160482Y69997D01*
X160381Y70044D01*
X160282Y70095D01*
X160186Y70148D01*
X160091Y70205D01*
X159998Y70266D01*
X159907Y70329D01*
X159818Y70396D01*
X159732Y70466D01*
X159649Y70539D01*
X159567Y70614D01*
X159489Y70692D01*
X159414Y70774D01*
X159341Y70857D01*
X159271Y70943D01*
X159204Y71032D01*
X159141Y71123D01*
X159080Y71216D01*
X159023Y71311D01*
X158970Y71407D01*
X158919Y71506D01*
X158872Y71607D01*
X158829Y71709D01*
X158789Y71812D01*
X158753Y71917D01*
X158721Y72023D01*
X158692Y72130D01*
X158667Y72238D01*
X158646Y72347D01*
X158629Y72456D01*
X158615Y72566D01*
X158606Y72677D01*
X158600Y72787D01*
X158598Y72898D01*
X170409Y69723D02*
X170409Y81153D01*
X176759Y69723D01*
X176759Y81153D01*
X182626Y69723D02*
X187706Y69723D01*
X182626Y69723D02*
X182626Y81153D01*
X187706Y81153D01*
X186436Y76073D02*
X182626Y76073D01*
X194539Y81153D02*
X194539Y69723D01*
X191364Y81153D02*
X197714Y81153D01*
X202032Y78613D02*
X205207Y81153D01*
X205207Y69723D01*
X202032Y69723D02*
X208382Y69723D01*
X213462Y79883D02*
X213462Y81153D01*
X219812Y81153D01*
X216637Y69723D01*
D11*
X476250Y495300D02*
X488950Y495300D01*
X495300Y488950D01*
X495300Y476250D01*
X488950Y469900D01*
X450850Y495300D02*
X444500Y488950D01*
X450850Y495300D02*
X463550Y495300D01*
X469900Y488950D01*
X469900Y476250D01*
X463550Y469900D01*
X450850Y469900D01*
X444500Y476250D01*
X469900Y488950D02*
X476250Y495300D01*
X469900Y476250D02*
X476250Y469900D01*
X488950Y469900D01*
X412750Y495300D02*
X400050Y495300D01*
X412750Y495300D02*
X419100Y488950D01*
X419100Y476250D01*
X412750Y469900D01*
X419100Y488950D02*
X425450Y495300D01*
X438150Y495300D01*
X444500Y488950D01*
X444500Y476250D01*
X438150Y469900D01*
X425450Y469900D01*
X419100Y476250D01*
X393700Y476250D02*
X393700Y488950D01*
X400050Y495300D01*
X393700Y476250D02*
X400050Y469900D01*
X412750Y469900D01*
X501650Y495300D02*
X514350Y495300D01*
X520700Y488950D01*
X520700Y476250D01*
X514350Y469900D01*
X495300Y488950D02*
X501650Y495300D01*
X495300Y476250D02*
X501650Y469900D01*
X514350Y469900D01*
D12*
X398653Y501523D02*
X393573Y501523D01*
X393573Y512953D01*
X398653Y512953D01*
X397383Y507873D02*
X393573Y507873D01*
X405575Y501523D02*
X408115Y501523D01*
X405575Y501523D02*
X405475Y501525D01*
X405376Y501531D01*
X405276Y501541D01*
X405178Y501554D01*
X405079Y501572D01*
X404982Y501593D01*
X404886Y501618D01*
X404790Y501647D01*
X404696Y501680D01*
X404603Y501716D01*
X404512Y501756D01*
X404422Y501800D01*
X404334Y501847D01*
X404248Y501897D01*
X404164Y501951D01*
X404082Y502008D01*
X404003Y502068D01*
X403925Y502132D01*
X403851Y502198D01*
X403779Y502267D01*
X403710Y502339D01*
X403644Y502413D01*
X403580Y502491D01*
X403520Y502570D01*
X403463Y502652D01*
X403409Y502736D01*
X403359Y502822D01*
X403312Y502910D01*
X403268Y503000D01*
X403228Y503091D01*
X403192Y503184D01*
X403159Y503278D01*
X403130Y503374D01*
X403105Y503470D01*
X403084Y503567D01*
X403066Y503666D01*
X403053Y503764D01*
X403043Y503864D01*
X403037Y503963D01*
X403035Y504063D01*
X403035Y510413D01*
X403037Y510513D01*
X403043Y510612D01*
X403053Y510712D01*
X403066Y510810D01*
X403084Y510909D01*
X403105Y511006D01*
X403130Y511102D01*
X403159Y511198D01*
X403192Y511292D01*
X403228Y511385D01*
X403268Y511476D01*
X403312Y511566D01*
X403359Y511654D01*
X403409Y511740D01*
X403463Y511824D01*
X403520Y511906D01*
X403580Y511985D01*
X403644Y512063D01*
X403710Y512137D01*
X403779Y512209D01*
X403851Y512278D01*
X403925Y512344D01*
X404003Y512408D01*
X404082Y512468D01*
X404164Y512525D01*
X404248Y512579D01*
X404334Y512629D01*
X404422Y512676D01*
X404512Y512720D01*
X404603Y512760D01*
X404696Y512796D01*
X404790Y512829D01*
X404886Y512858D01*
X404982Y512883D01*
X405079Y512904D01*
X405178Y512922D01*
X405276Y512935D01*
X405376Y512945D01*
X405475Y512951D01*
X405575Y512953D01*
X408115Y512953D01*
X412598Y509778D02*
X412598Y504698D01*
X412598Y509778D02*
X412600Y509889D01*
X412606Y509999D01*
X412615Y510110D01*
X412629Y510220D01*
X412646Y510329D01*
X412667Y510438D01*
X412692Y510546D01*
X412721Y510653D01*
X412753Y510759D01*
X412789Y510864D01*
X412829Y510967D01*
X412872Y511069D01*
X412919Y511170D01*
X412970Y511269D01*
X413023Y511366D01*
X413080Y511460D01*
X413141Y511553D01*
X413204Y511644D01*
X413271Y511733D01*
X413341Y511819D01*
X413414Y511902D01*
X413489Y511984D01*
X413567Y512062D01*
X413649Y512137D01*
X413732Y512210D01*
X413818Y512280D01*
X413907Y512347D01*
X413998Y512410D01*
X414091Y512471D01*
X414186Y512528D01*
X414282Y512581D01*
X414381Y512632D01*
X414482Y512679D01*
X414584Y512722D01*
X414687Y512762D01*
X414792Y512798D01*
X414898Y512830D01*
X415005Y512859D01*
X415113Y512884D01*
X415222Y512905D01*
X415331Y512922D01*
X415441Y512936D01*
X415552Y512945D01*
X415662Y512951D01*
X415773Y512953D01*
X415884Y512951D01*
X415994Y512945D01*
X416105Y512936D01*
X416215Y512922D01*
X416324Y512905D01*
X416433Y512884D01*
X416541Y512859D01*
X416648Y512830D01*
X416754Y512798D01*
X416859Y512762D01*
X416962Y512722D01*
X417064Y512679D01*
X417165Y512632D01*
X417264Y512581D01*
X417361Y512528D01*
X417455Y512471D01*
X417548Y512410D01*
X417639Y512347D01*
X417728Y512280D01*
X417814Y512210D01*
X417897Y512137D01*
X417979Y512062D01*
X418057Y511984D01*
X418132Y511902D01*
X418205Y511819D01*
X418275Y511733D01*
X418342Y511644D01*
X418405Y511553D01*
X418466Y511460D01*
X418523Y511366D01*
X418576Y511269D01*
X418627Y511170D01*
X418674Y511069D01*
X418717Y510967D01*
X418757Y510864D01*
X418793Y510759D01*
X418825Y510653D01*
X418854Y510546D01*
X418879Y510438D01*
X418900Y510329D01*
X418917Y510220D01*
X418931Y510110D01*
X418940Y509999D01*
X418946Y509889D01*
X418948Y509778D01*
X418948Y504698D01*
X418946Y504587D01*
X418940Y504477D01*
X418931Y504366D01*
X418917Y504256D01*
X418900Y504147D01*
X418879Y504038D01*
X418854Y503930D01*
X418825Y503823D01*
X418793Y503717D01*
X418757Y503612D01*
X418717Y503509D01*
X418674Y503407D01*
X418627Y503306D01*
X418576Y503207D01*
X418523Y503110D01*
X418466Y503016D01*
X418405Y502923D01*
X418342Y502832D01*
X418275Y502743D01*
X418205Y502657D01*
X418132Y502574D01*
X418057Y502492D01*
X417979Y502414D01*
X417897Y502339D01*
X417814Y502266D01*
X417728Y502196D01*
X417639Y502129D01*
X417548Y502066D01*
X417455Y502005D01*
X417360Y501948D01*
X417264Y501895D01*
X417165Y501844D01*
X417064Y501797D01*
X416962Y501754D01*
X416859Y501714D01*
X416754Y501678D01*
X416648Y501646D01*
X416541Y501617D01*
X416433Y501592D01*
X416324Y501571D01*
X416215Y501554D01*
X416105Y501540D01*
X415994Y501531D01*
X415884Y501525D01*
X415773Y501523D01*
X415662Y501525D01*
X415552Y501531D01*
X415441Y501540D01*
X415331Y501554D01*
X415222Y501571D01*
X415113Y501592D01*
X415005Y501617D01*
X414898Y501646D01*
X414792Y501678D01*
X414687Y501714D01*
X414584Y501754D01*
X414482Y501797D01*
X414381Y501844D01*
X414282Y501895D01*
X414186Y501948D01*
X414091Y502005D01*
X413998Y502066D01*
X413907Y502129D01*
X413818Y502196D01*
X413732Y502266D01*
X413649Y502339D01*
X413567Y502414D01*
X413489Y502492D01*
X413414Y502574D01*
X413341Y502657D01*
X413271Y502743D01*
X413204Y502832D01*
X413141Y502923D01*
X413080Y503016D01*
X413023Y503111D01*
X412970Y503207D01*
X412919Y503306D01*
X412872Y503407D01*
X412829Y503509D01*
X412789Y503612D01*
X412753Y503717D01*
X412721Y503823D01*
X412692Y503930D01*
X412667Y504038D01*
X412646Y504147D01*
X412629Y504256D01*
X412615Y504366D01*
X412606Y504477D01*
X412600Y504587D01*
X412598Y504698D01*
X424409Y501523D02*
X424409Y512953D01*
X430759Y501523D01*
X430759Y512953D01*
X436626Y501523D02*
X441706Y501523D01*
X436626Y501523D02*
X436626Y512953D01*
X441706Y512953D01*
X440436Y507873D02*
X436626Y507873D01*
X448539Y512953D02*
X448539Y501523D01*
X445364Y512953D02*
X451714Y512953D01*
X456984Y511365D02*
X456888Y511162D01*
X456797Y510957D01*
X456711Y510749D01*
X456630Y510539D01*
X456553Y510328D01*
X456482Y510115D01*
X456416Y509900D01*
X456355Y509683D01*
X456299Y509465D01*
X456249Y509246D01*
X456203Y509026D01*
X456163Y508805D01*
X456128Y508583D01*
X456099Y508360D01*
X456075Y508136D01*
X456056Y507912D01*
X456043Y507688D01*
X456035Y507463D01*
X456032Y507238D01*
X456984Y511366D02*
X457016Y511454D01*
X457052Y511541D01*
X457091Y511627D01*
X457134Y511711D01*
X457180Y511793D01*
X457229Y511873D01*
X457281Y511951D01*
X457337Y512027D01*
X457395Y512101D01*
X457457Y512172D01*
X457521Y512241D01*
X457588Y512307D01*
X457657Y512370D01*
X457729Y512431D01*
X457803Y512489D01*
X457880Y512543D01*
X457958Y512595D01*
X458039Y512643D01*
X458121Y512688D01*
X458206Y512730D01*
X458292Y512768D01*
X458379Y512803D01*
X458467Y512835D01*
X458557Y512862D01*
X458648Y512887D01*
X458740Y512907D01*
X458832Y512924D01*
X458926Y512937D01*
X459019Y512946D01*
X459113Y512952D01*
X459207Y512954D01*
X459301Y512952D01*
X459395Y512946D01*
X459488Y512937D01*
X459582Y512924D01*
X459674Y512907D01*
X459766Y512887D01*
X459857Y512862D01*
X459947Y512835D01*
X460035Y512803D01*
X460122Y512768D01*
X460208Y512730D01*
X460293Y512688D01*
X460375Y512643D01*
X460456Y512595D01*
X460534Y512543D01*
X460611Y512489D01*
X460685Y512431D01*
X460757Y512370D01*
X460826Y512307D01*
X460893Y512241D01*
X460957Y512172D01*
X461019Y512101D01*
X461077Y512027D01*
X461133Y511951D01*
X461185Y511873D01*
X461234Y511793D01*
X461280Y511711D01*
X461323Y511627D01*
X461362Y511541D01*
X461398Y511454D01*
X461430Y511366D01*
X461429Y511365D02*
X461525Y511162D01*
X461616Y510957D01*
X461702Y510749D01*
X461783Y510539D01*
X461860Y510328D01*
X461931Y510115D01*
X461997Y509900D01*
X462058Y509683D01*
X462114Y509465D01*
X462164Y509246D01*
X462210Y509026D01*
X462250Y508805D01*
X462285Y508583D01*
X462314Y508360D01*
X462338Y508136D01*
X462357Y507912D01*
X462370Y507688D01*
X462378Y507463D01*
X462381Y507238D01*
X456032Y507238D02*
X456035Y507013D01*
X456043Y506788D01*
X456056Y506564D01*
X456075Y506340D01*
X456099Y506116D01*
X456128Y505893D01*
X456163Y505671D01*
X456203Y505450D01*
X456249Y505230D01*
X456299Y505011D01*
X456355Y504793D01*
X456416Y504576D01*
X456482Y504361D01*
X456553Y504148D01*
X456630Y503937D01*
X456711Y503727D01*
X456797Y503519D01*
X456888Y503314D01*
X456984Y503111D01*
X457016Y503023D01*
X457052Y502936D01*
X457091Y502850D01*
X457134Y502766D01*
X457180Y502684D01*
X457229Y502604D01*
X457281Y502526D01*
X457337Y502450D01*
X457395Y502376D01*
X457457Y502305D01*
X457521Y502236D01*
X457588Y502170D01*
X457657Y502107D01*
X457729Y502046D01*
X457803Y501988D01*
X457880Y501934D01*
X457958Y501882D01*
X458039Y501834D01*
X458121Y501789D01*
X458206Y501747D01*
X458292Y501709D01*
X458379Y501674D01*
X458467Y501642D01*
X458557Y501615D01*
X458648Y501590D01*
X458740Y501570D01*
X458832Y501553D01*
X458926Y501540D01*
X459019Y501531D01*
X459113Y501525D01*
X459207Y501523D01*
X461429Y503111D02*
X461525Y503314D01*
X461616Y503519D01*
X461702Y503727D01*
X461783Y503937D01*
X461860Y504148D01*
X461931Y504361D01*
X461997Y504576D01*
X462058Y504793D01*
X462114Y505011D01*
X462164Y505230D01*
X462210Y505450D01*
X462250Y505671D01*
X462285Y505893D01*
X462314Y506116D01*
X462338Y506340D01*
X462357Y506564D01*
X462370Y506788D01*
X462378Y507013D01*
X462381Y507238D01*
X461430Y503111D02*
X461398Y503023D01*
X461362Y502936D01*
X461323Y502850D01*
X461280Y502766D01*
X461234Y502684D01*
X461185Y502604D01*
X461133Y502526D01*
X461077Y502450D01*
X461019Y502376D01*
X460957Y502305D01*
X460893Y502236D01*
X460826Y502170D01*
X460757Y502107D01*
X460685Y502046D01*
X460611Y501988D01*
X460534Y501934D01*
X460456Y501882D01*
X460375Y501834D01*
X460293Y501789D01*
X460208Y501747D01*
X460122Y501709D01*
X460035Y501674D01*
X459947Y501642D01*
X459857Y501615D01*
X459766Y501590D01*
X459674Y501570D01*
X459582Y501553D01*
X459488Y501540D01*
X459395Y501531D01*
X459301Y501525D01*
X459207Y501523D01*
X456667Y504063D02*
X461747Y510413D01*
X467462Y501523D02*
X471272Y501523D01*
X471372Y501525D01*
X471471Y501531D01*
X471571Y501541D01*
X471669Y501554D01*
X471768Y501572D01*
X471865Y501593D01*
X471961Y501618D01*
X472057Y501647D01*
X472151Y501680D01*
X472244Y501716D01*
X472335Y501756D01*
X472425Y501800D01*
X472513Y501847D01*
X472599Y501897D01*
X472683Y501951D01*
X472765Y502008D01*
X472844Y502068D01*
X472922Y502132D01*
X472996Y502198D01*
X473068Y502267D01*
X473137Y502339D01*
X473203Y502413D01*
X473267Y502491D01*
X473327Y502570D01*
X473384Y502652D01*
X473438Y502736D01*
X473488Y502822D01*
X473535Y502910D01*
X473579Y503000D01*
X473619Y503091D01*
X473655Y503184D01*
X473688Y503278D01*
X473717Y503374D01*
X473742Y503470D01*
X473763Y503567D01*
X473781Y503666D01*
X473794Y503764D01*
X473804Y503864D01*
X473810Y503963D01*
X473812Y504063D01*
X473812Y505333D01*
X473810Y505433D01*
X473804Y505532D01*
X473794Y505632D01*
X473781Y505730D01*
X473763Y505829D01*
X473742Y505926D01*
X473717Y506022D01*
X473688Y506118D01*
X473655Y506212D01*
X473619Y506305D01*
X473579Y506396D01*
X473535Y506486D01*
X473488Y506574D01*
X473438Y506660D01*
X473384Y506744D01*
X473327Y506826D01*
X473267Y506905D01*
X473203Y506983D01*
X473137Y507057D01*
X473068Y507129D01*
X472996Y507198D01*
X472922Y507264D01*
X472844Y507328D01*
X472765Y507388D01*
X472683Y507445D01*
X472599Y507499D01*
X472513Y507549D01*
X472425Y507596D01*
X472335Y507640D01*
X472244Y507680D01*
X472151Y507716D01*
X472057Y507749D01*
X471961Y507778D01*
X471865Y507803D01*
X471768Y507824D01*
X471669Y507842D01*
X471571Y507855D01*
X471471Y507865D01*
X471372Y507871D01*
X471272Y507873D01*
X467462Y507873D01*
X467462Y512953D01*
X473812Y512953D01*
X483464Y514223D02*
X478384Y500253D01*
X488036Y510413D02*
X491211Y512953D01*
X491211Y501523D01*
X488036Y501523D02*
X494386Y501523D01*
X499466Y501523D02*
X503276Y501523D01*
X503376Y501525D01*
X503475Y501531D01*
X503575Y501541D01*
X503673Y501554D01*
X503772Y501572D01*
X503869Y501593D01*
X503965Y501618D01*
X504061Y501647D01*
X504155Y501680D01*
X504248Y501716D01*
X504339Y501756D01*
X504429Y501800D01*
X504517Y501847D01*
X504603Y501897D01*
X504687Y501951D01*
X504769Y502008D01*
X504848Y502068D01*
X504926Y502132D01*
X505000Y502198D01*
X505072Y502267D01*
X505141Y502339D01*
X505207Y502413D01*
X505271Y502491D01*
X505331Y502570D01*
X505388Y502652D01*
X505442Y502736D01*
X505492Y502822D01*
X505539Y502910D01*
X505583Y503000D01*
X505623Y503091D01*
X505659Y503184D01*
X505692Y503278D01*
X505721Y503374D01*
X505746Y503470D01*
X505767Y503567D01*
X505785Y503666D01*
X505798Y503764D01*
X505808Y503864D01*
X505814Y503963D01*
X505816Y504063D01*
X505816Y505333D01*
X505814Y505433D01*
X505808Y505532D01*
X505798Y505632D01*
X505785Y505730D01*
X505767Y505829D01*
X505746Y505926D01*
X505721Y506022D01*
X505692Y506118D01*
X505659Y506212D01*
X505623Y506305D01*
X505583Y506396D01*
X505539Y506486D01*
X505492Y506574D01*
X505442Y506660D01*
X505388Y506744D01*
X505331Y506826D01*
X505271Y506905D01*
X505207Y506983D01*
X505141Y507057D01*
X505072Y507129D01*
X505000Y507198D01*
X504926Y507264D01*
X504848Y507328D01*
X504769Y507388D01*
X504687Y507445D01*
X504603Y507499D01*
X504517Y507549D01*
X504429Y507596D01*
X504339Y507640D01*
X504248Y507680D01*
X504155Y507716D01*
X504061Y507749D01*
X503965Y507778D01*
X503869Y507803D01*
X503772Y507824D01*
X503673Y507842D01*
X503575Y507855D01*
X503475Y507865D01*
X503376Y507871D01*
X503276Y507873D01*
X499466Y507873D01*
X499466Y512953D01*
X505816Y512953D01*
D11*
X196850Y457200D02*
X190500Y450850D01*
X196850Y457200D02*
X209550Y457200D01*
X215900Y450850D01*
X215900Y438150D01*
X209550Y431800D01*
X196850Y431800D01*
X190500Y438150D01*
X158750Y457200D02*
X146050Y457200D01*
X158750Y457200D02*
X165100Y450850D01*
X165100Y438150D01*
X158750Y431800D01*
X165100Y450850D02*
X171450Y457200D01*
X184150Y457200D01*
X190500Y450850D01*
X190500Y438150D01*
X184150Y431800D01*
X171450Y431800D01*
X165100Y438150D01*
X120650Y457200D02*
X114300Y450850D01*
X120650Y457200D02*
X133350Y457200D01*
X139700Y450850D01*
X139700Y438150D01*
X133350Y431800D01*
X120650Y431800D01*
X114300Y438150D01*
X139700Y450850D02*
X146050Y457200D01*
X139700Y438150D02*
X146050Y431800D01*
X158750Y431800D01*
X82550Y457200D02*
X69850Y457200D01*
X82550Y457200D02*
X88900Y450850D01*
X88900Y438150D01*
X82550Y431800D01*
X88900Y450850D02*
X95250Y457200D01*
X107950Y457200D01*
X114300Y450850D01*
X114300Y438150D01*
X107950Y431800D01*
X95250Y431800D01*
X88900Y438150D01*
X63500Y438150D02*
X63500Y450850D01*
X69850Y457200D01*
X63500Y438150D02*
X69850Y431800D01*
X82550Y431800D01*
X222250Y457200D02*
X234950Y457200D01*
X241300Y450850D01*
X241300Y438150D01*
X234950Y431800D01*
X215900Y450850D02*
X222250Y457200D01*
X215900Y438150D02*
X222250Y431800D01*
X234950Y431800D01*
D12*
X67183Y478663D02*
X67183Y487553D01*
X67183Y478663D02*
X67181Y478563D01*
X67175Y478464D01*
X67165Y478364D01*
X67152Y478266D01*
X67134Y478167D01*
X67113Y478070D01*
X67088Y477974D01*
X67059Y477878D01*
X67026Y477784D01*
X66990Y477691D01*
X66950Y477600D01*
X66906Y477510D01*
X66859Y477422D01*
X66809Y477336D01*
X66755Y477252D01*
X66698Y477170D01*
X66638Y477091D01*
X66574Y477013D01*
X66508Y476939D01*
X66439Y476867D01*
X66367Y476798D01*
X66293Y476732D01*
X66215Y476668D01*
X66136Y476608D01*
X66054Y476551D01*
X65970Y476497D01*
X65884Y476447D01*
X65796Y476400D01*
X65706Y476356D01*
X65615Y476316D01*
X65522Y476280D01*
X65428Y476247D01*
X65332Y476218D01*
X65236Y476193D01*
X65139Y476172D01*
X65040Y476154D01*
X64942Y476141D01*
X64842Y476131D01*
X64743Y476125D01*
X64643Y476123D01*
X63373Y476123D01*
X76084Y487554D02*
X76188Y487552D01*
X76293Y487546D01*
X76397Y487537D01*
X76500Y487524D01*
X76603Y487506D01*
X76705Y487486D01*
X76807Y487461D01*
X76907Y487433D01*
X77007Y487401D01*
X77105Y487365D01*
X77202Y487326D01*
X77297Y487284D01*
X77391Y487238D01*
X77483Y487188D01*
X77573Y487136D01*
X77661Y487080D01*
X77747Y487020D01*
X77831Y486958D01*
X77912Y486893D01*
X77991Y486825D01*
X78068Y486753D01*
X78141Y486680D01*
X78213Y486603D01*
X78281Y486524D01*
X78346Y486443D01*
X78408Y486359D01*
X78468Y486273D01*
X78524Y486185D01*
X78576Y486095D01*
X78626Y486003D01*
X78672Y485909D01*
X78714Y485814D01*
X78753Y485717D01*
X78789Y485619D01*
X78821Y485519D01*
X78849Y485419D01*
X78874Y485317D01*
X78894Y485215D01*
X78912Y485112D01*
X78925Y485009D01*
X78934Y484905D01*
X78940Y484800D01*
X78942Y484696D01*
X76084Y487553D02*
X75966Y487551D01*
X75847Y487545D01*
X75729Y487536D01*
X75612Y487523D01*
X75495Y487505D01*
X75378Y487485D01*
X75262Y487460D01*
X75147Y487432D01*
X75034Y487399D01*
X74921Y487364D01*
X74809Y487324D01*
X74699Y487282D01*
X74590Y487235D01*
X74482Y487185D01*
X74377Y487132D01*
X74273Y487075D01*
X74171Y487015D01*
X74071Y486952D01*
X73973Y486885D01*
X73877Y486816D01*
X73784Y486743D01*
X73693Y486667D01*
X73604Y486589D01*
X73518Y486507D01*
X73435Y486423D01*
X73354Y486337D01*
X73277Y486247D01*
X73202Y486156D01*
X73130Y486062D01*
X73061Y485965D01*
X72996Y485867D01*
X72933Y485766D01*
X72874Y485663D01*
X72818Y485559D01*
X72766Y485453D01*
X72717Y485345D01*
X72672Y485236D01*
X72630Y485125D01*
X72592Y485013D01*
X77990Y482474D02*
X78066Y482549D01*
X78141Y482628D01*
X78212Y482709D01*
X78281Y482793D01*
X78346Y482879D01*
X78408Y482967D01*
X78468Y483057D01*
X78524Y483149D01*
X78577Y483244D01*
X78626Y483340D01*
X78672Y483438D01*
X78715Y483537D01*
X78754Y483638D01*
X78789Y483740D01*
X78821Y483843D01*
X78849Y483947D01*
X78874Y484052D01*
X78895Y484159D01*
X78912Y484265D01*
X78925Y484372D01*
X78934Y484480D01*
X78940Y484588D01*
X78942Y484696D01*
X77989Y482473D02*
X72592Y476123D01*
X78942Y476123D01*
D11*
X196850Y330200D02*
X190500Y323850D01*
X196850Y330200D02*
X209550Y330200D01*
X215900Y323850D01*
X215900Y311150D01*
X209550Y304800D01*
X196850Y304800D01*
X190500Y311150D01*
X158750Y330200D02*
X146050Y330200D01*
X158750Y330200D02*
X165100Y323850D01*
X165100Y311150D01*
X158750Y304800D01*
X165100Y323850D02*
X171450Y330200D01*
X184150Y330200D01*
X190500Y323850D01*
X190500Y311150D01*
X184150Y304800D01*
X171450Y304800D01*
X165100Y311150D01*
X120650Y330200D02*
X114300Y323850D01*
X120650Y330200D02*
X133350Y330200D01*
X139700Y323850D01*
X139700Y311150D01*
X133350Y304800D01*
X120650Y304800D01*
X114300Y311150D01*
X139700Y323850D02*
X146050Y330200D01*
X139700Y311150D02*
X146050Y304800D01*
X158750Y304800D01*
X82550Y330200D02*
X69850Y330200D01*
X82550Y330200D02*
X88900Y323850D01*
X88900Y311150D01*
X82550Y304800D01*
X88900Y323850D02*
X95250Y330200D01*
X107950Y330200D01*
X114300Y323850D01*
X114300Y311150D01*
X107950Y304800D01*
X95250Y304800D01*
X88900Y311150D01*
X63500Y311150D02*
X63500Y323850D01*
X69850Y330200D01*
X63500Y311150D02*
X69850Y304800D01*
X82550Y304800D01*
X222250Y330200D02*
X234950Y330200D01*
X241300Y323850D01*
X241300Y311150D01*
X234950Y304800D01*
X215900Y323850D02*
X222250Y330200D01*
X215900Y311150D02*
X222250Y304800D01*
X234950Y304800D01*
D12*
X67183Y351663D02*
X67183Y360553D01*
X67183Y351663D02*
X67181Y351563D01*
X67175Y351464D01*
X67165Y351364D01*
X67152Y351266D01*
X67134Y351167D01*
X67113Y351070D01*
X67088Y350974D01*
X67059Y350878D01*
X67026Y350784D01*
X66990Y350691D01*
X66950Y350600D01*
X66906Y350510D01*
X66859Y350422D01*
X66809Y350336D01*
X66755Y350252D01*
X66698Y350170D01*
X66638Y350091D01*
X66574Y350013D01*
X66508Y349939D01*
X66439Y349867D01*
X66367Y349798D01*
X66293Y349732D01*
X66215Y349668D01*
X66136Y349608D01*
X66054Y349551D01*
X65970Y349497D01*
X65884Y349447D01*
X65796Y349400D01*
X65706Y349356D01*
X65615Y349316D01*
X65522Y349280D01*
X65428Y349247D01*
X65332Y349218D01*
X65236Y349193D01*
X65139Y349172D01*
X65040Y349154D01*
X64942Y349141D01*
X64842Y349131D01*
X64743Y349125D01*
X64643Y349123D01*
X63373Y349123D01*
X72592Y358013D02*
X75767Y360553D01*
X75767Y349123D01*
X72592Y349123D02*
X78942Y349123D01*
M02*
