G04 EAGLE Gerber RS-274X export*
G75*
%MOMM*%
%FSLAX34Y34*%
%LPD*%
%INSilkscreen Top*%
%IPPOS*%
%AMOC8*
5,1,8,0,0,1.08239X$1,22.5*%
G01*
%ADD10C,0.076200*%
%ADD11C,0.152400*%
%ADD12C,0.101600*%
%ADD13C,0.127000*%


D10*
X376527Y358846D02*
X376527Y360073D01*
X380619Y360073D01*
X380619Y357618D01*
X380617Y357540D01*
X380612Y357462D01*
X380602Y357385D01*
X380589Y357308D01*
X380573Y357232D01*
X380553Y357157D01*
X380529Y357083D01*
X380502Y357010D01*
X380471Y356938D01*
X380437Y356868D01*
X380400Y356800D01*
X380359Y356733D01*
X380315Y356668D01*
X380269Y356606D01*
X380219Y356546D01*
X380167Y356488D01*
X380112Y356433D01*
X380054Y356381D01*
X379994Y356331D01*
X379932Y356285D01*
X379867Y356241D01*
X379801Y356200D01*
X379732Y356163D01*
X379662Y356129D01*
X379590Y356098D01*
X379517Y356071D01*
X379443Y356047D01*
X379368Y356027D01*
X379292Y356011D01*
X379215Y355998D01*
X379138Y355988D01*
X379060Y355983D01*
X378982Y355981D01*
X374890Y355981D01*
X374810Y355983D01*
X374730Y355989D01*
X374650Y355999D01*
X374571Y356012D01*
X374492Y356030D01*
X374415Y356051D01*
X374339Y356077D01*
X374264Y356106D01*
X374190Y356138D01*
X374118Y356174D01*
X374048Y356214D01*
X373981Y356257D01*
X373915Y356303D01*
X373852Y356353D01*
X373791Y356405D01*
X373732Y356460D01*
X373677Y356519D01*
X373625Y356579D01*
X373575Y356643D01*
X373529Y356708D01*
X373486Y356776D01*
X373446Y356846D01*
X373410Y356918D01*
X373378Y356992D01*
X373349Y357066D01*
X373324Y357143D01*
X373302Y357220D01*
X373284Y357299D01*
X373271Y357378D01*
X373261Y357457D01*
X373255Y357538D01*
X373253Y357618D01*
X373253Y360073D01*
X375708Y363705D02*
X380619Y363705D01*
X375708Y363705D02*
X375708Y365752D01*
X375710Y365821D01*
X375716Y365889D01*
X375725Y365958D01*
X375739Y366025D01*
X375756Y366092D01*
X375777Y366158D01*
X375801Y366222D01*
X375830Y366285D01*
X375861Y366346D01*
X375896Y366405D01*
X375934Y366463D01*
X375976Y366518D01*
X376020Y366570D01*
X376068Y366620D01*
X376118Y366668D01*
X376170Y366712D01*
X376225Y366754D01*
X376283Y366792D01*
X376342Y366827D01*
X376403Y366858D01*
X376466Y366887D01*
X376530Y366911D01*
X376596Y366932D01*
X376663Y366949D01*
X376730Y366963D01*
X376799Y366972D01*
X376867Y366978D01*
X376936Y366980D01*
X376936Y366979D02*
X380619Y366979D01*
X380619Y373522D02*
X373253Y373522D01*
X380619Y373522D02*
X380619Y371476D01*
X380617Y371407D01*
X380611Y371339D01*
X380602Y371270D01*
X380588Y371203D01*
X380571Y371136D01*
X380550Y371070D01*
X380526Y371006D01*
X380497Y370943D01*
X380466Y370882D01*
X380431Y370823D01*
X380393Y370765D01*
X380351Y370710D01*
X380307Y370658D01*
X380259Y370608D01*
X380209Y370560D01*
X380157Y370516D01*
X380102Y370475D01*
X380044Y370436D01*
X379985Y370401D01*
X379924Y370370D01*
X379861Y370341D01*
X379797Y370317D01*
X379731Y370296D01*
X379664Y370279D01*
X379597Y370265D01*
X379529Y370256D01*
X379460Y370250D01*
X379391Y370248D01*
X376936Y370248D01*
X376867Y370250D01*
X376799Y370256D01*
X376730Y370265D01*
X376663Y370279D01*
X376596Y370296D01*
X376530Y370317D01*
X376466Y370341D01*
X376403Y370370D01*
X376342Y370401D01*
X376283Y370436D01*
X376225Y370474D01*
X376170Y370516D01*
X376118Y370560D01*
X376068Y370608D01*
X376020Y370658D01*
X375976Y370710D01*
X375934Y370765D01*
X375896Y370823D01*
X375861Y370882D01*
X375830Y370943D01*
X375801Y371006D01*
X375777Y371070D01*
X375756Y371136D01*
X375739Y371203D01*
X375725Y371270D01*
X375716Y371339D01*
X375710Y371407D01*
X375708Y371476D01*
X375708Y373522D01*
X59027Y360073D02*
X59027Y358846D01*
X59027Y360073D02*
X63119Y360073D01*
X63119Y357618D01*
X63117Y357540D01*
X63112Y357462D01*
X63102Y357385D01*
X63089Y357308D01*
X63073Y357232D01*
X63053Y357157D01*
X63029Y357083D01*
X63002Y357010D01*
X62971Y356938D01*
X62937Y356868D01*
X62900Y356800D01*
X62859Y356733D01*
X62815Y356668D01*
X62769Y356606D01*
X62719Y356546D01*
X62667Y356488D01*
X62612Y356433D01*
X62554Y356381D01*
X62494Y356331D01*
X62432Y356285D01*
X62367Y356241D01*
X62301Y356200D01*
X62232Y356163D01*
X62162Y356129D01*
X62090Y356098D01*
X62017Y356071D01*
X61943Y356047D01*
X61868Y356027D01*
X61792Y356011D01*
X61715Y355998D01*
X61638Y355988D01*
X61560Y355983D01*
X61482Y355981D01*
X57390Y355981D01*
X57310Y355983D01*
X57230Y355989D01*
X57150Y355999D01*
X57071Y356012D01*
X56992Y356030D01*
X56915Y356051D01*
X56839Y356077D01*
X56764Y356106D01*
X56690Y356138D01*
X56618Y356174D01*
X56548Y356214D01*
X56481Y356257D01*
X56415Y356303D01*
X56352Y356353D01*
X56291Y356405D01*
X56232Y356460D01*
X56177Y356519D01*
X56125Y356579D01*
X56075Y356643D01*
X56029Y356708D01*
X55986Y356776D01*
X55946Y356846D01*
X55910Y356918D01*
X55878Y356992D01*
X55849Y357066D01*
X55824Y357143D01*
X55802Y357220D01*
X55784Y357299D01*
X55771Y357378D01*
X55761Y357457D01*
X55755Y357538D01*
X55753Y357618D01*
X55753Y360073D01*
X58208Y363705D02*
X63119Y363705D01*
X58208Y363705D02*
X58208Y365752D01*
X58210Y365821D01*
X58216Y365889D01*
X58225Y365958D01*
X58239Y366025D01*
X58256Y366092D01*
X58277Y366158D01*
X58301Y366222D01*
X58330Y366285D01*
X58361Y366346D01*
X58396Y366405D01*
X58434Y366463D01*
X58476Y366518D01*
X58520Y366570D01*
X58568Y366620D01*
X58618Y366668D01*
X58670Y366712D01*
X58725Y366754D01*
X58783Y366792D01*
X58842Y366827D01*
X58903Y366858D01*
X58966Y366887D01*
X59030Y366911D01*
X59096Y366932D01*
X59163Y366949D01*
X59230Y366963D01*
X59299Y366972D01*
X59367Y366978D01*
X59436Y366980D01*
X59436Y366979D02*
X63119Y366979D01*
X63119Y373522D02*
X55753Y373522D01*
X63119Y373522D02*
X63119Y371476D01*
X63117Y371407D01*
X63111Y371339D01*
X63102Y371270D01*
X63088Y371203D01*
X63071Y371136D01*
X63050Y371070D01*
X63026Y371006D01*
X62997Y370943D01*
X62966Y370882D01*
X62931Y370823D01*
X62893Y370765D01*
X62851Y370710D01*
X62807Y370658D01*
X62759Y370608D01*
X62709Y370560D01*
X62657Y370516D01*
X62602Y370475D01*
X62544Y370436D01*
X62485Y370401D01*
X62424Y370370D01*
X62361Y370341D01*
X62297Y370317D01*
X62231Y370296D01*
X62164Y370279D01*
X62097Y370265D01*
X62029Y370256D01*
X61960Y370250D01*
X61891Y370248D01*
X59436Y370248D01*
X59367Y370250D01*
X59299Y370256D01*
X59230Y370265D01*
X59163Y370279D01*
X59096Y370296D01*
X59030Y370317D01*
X58966Y370341D01*
X58903Y370370D01*
X58842Y370401D01*
X58783Y370436D01*
X58725Y370474D01*
X58670Y370516D01*
X58618Y370560D01*
X58568Y370608D01*
X58520Y370658D01*
X58476Y370710D01*
X58434Y370765D01*
X58396Y370823D01*
X58361Y370882D01*
X58330Y370943D01*
X58301Y371006D01*
X58277Y371070D01*
X58256Y371136D01*
X58239Y371203D01*
X58225Y371270D01*
X58216Y371339D01*
X58210Y371407D01*
X58208Y371476D01*
X58208Y373522D01*
X85654Y360892D02*
X85654Y355981D01*
X83199Y358436D02*
X88110Y358436D01*
X88519Y364193D02*
X88519Y366648D01*
X88517Y366726D01*
X88512Y366804D01*
X88502Y366881D01*
X88489Y366958D01*
X88473Y367034D01*
X88453Y367109D01*
X88429Y367183D01*
X88402Y367256D01*
X88371Y367328D01*
X88337Y367398D01*
X88300Y367467D01*
X88259Y367533D01*
X88215Y367598D01*
X88169Y367660D01*
X88119Y367720D01*
X88067Y367778D01*
X88012Y367833D01*
X87954Y367885D01*
X87894Y367935D01*
X87832Y367981D01*
X87767Y368025D01*
X87701Y368066D01*
X87632Y368103D01*
X87562Y368137D01*
X87490Y368168D01*
X87417Y368195D01*
X87343Y368219D01*
X87268Y368239D01*
X87192Y368255D01*
X87115Y368268D01*
X87038Y368278D01*
X86960Y368283D01*
X86882Y368285D01*
X86064Y368285D01*
X85984Y368283D01*
X85904Y368277D01*
X85824Y368267D01*
X85745Y368254D01*
X85666Y368236D01*
X85589Y368215D01*
X85513Y368189D01*
X85438Y368160D01*
X85364Y368128D01*
X85292Y368092D01*
X85222Y368052D01*
X85155Y368009D01*
X85089Y367963D01*
X85026Y367913D01*
X84965Y367861D01*
X84906Y367806D01*
X84851Y367747D01*
X84799Y367687D01*
X84749Y367623D01*
X84703Y367557D01*
X84660Y367490D01*
X84620Y367420D01*
X84584Y367348D01*
X84552Y367274D01*
X84523Y367200D01*
X84497Y367123D01*
X84476Y367046D01*
X84458Y366967D01*
X84445Y366888D01*
X84435Y366808D01*
X84429Y366728D01*
X84427Y366648D01*
X84427Y364193D01*
X81153Y364193D01*
X81153Y368285D01*
X83608Y371186D02*
X88519Y372823D01*
X83608Y374460D01*
X403154Y360892D02*
X403154Y355981D01*
X400699Y358436D02*
X405610Y358436D01*
X406019Y364193D02*
X406019Y366648D01*
X406017Y366726D01*
X406012Y366804D01*
X406002Y366881D01*
X405989Y366958D01*
X405973Y367034D01*
X405953Y367109D01*
X405929Y367183D01*
X405902Y367256D01*
X405871Y367328D01*
X405837Y367398D01*
X405800Y367467D01*
X405759Y367533D01*
X405715Y367598D01*
X405669Y367660D01*
X405619Y367720D01*
X405567Y367778D01*
X405512Y367833D01*
X405454Y367885D01*
X405394Y367935D01*
X405332Y367981D01*
X405267Y368025D01*
X405201Y368066D01*
X405132Y368103D01*
X405062Y368137D01*
X404990Y368168D01*
X404917Y368195D01*
X404843Y368219D01*
X404768Y368239D01*
X404692Y368255D01*
X404615Y368268D01*
X404538Y368278D01*
X404460Y368283D01*
X404382Y368285D01*
X403564Y368285D01*
X403484Y368283D01*
X403404Y368277D01*
X403324Y368267D01*
X403245Y368254D01*
X403166Y368236D01*
X403089Y368215D01*
X403013Y368189D01*
X402938Y368160D01*
X402864Y368128D01*
X402792Y368092D01*
X402722Y368052D01*
X402655Y368009D01*
X402589Y367963D01*
X402526Y367913D01*
X402465Y367861D01*
X402406Y367806D01*
X402351Y367747D01*
X402299Y367687D01*
X402249Y367623D01*
X402203Y367557D01*
X402160Y367490D01*
X402120Y367420D01*
X402084Y367348D01*
X402052Y367274D01*
X402023Y367200D01*
X401997Y367123D01*
X401976Y367046D01*
X401958Y366967D01*
X401945Y366888D01*
X401935Y366808D01*
X401929Y366728D01*
X401927Y366648D01*
X401927Y364193D01*
X398653Y364193D01*
X398653Y368285D01*
X401108Y371186D02*
X406019Y372823D01*
X401108Y374460D01*
X113919Y355981D02*
X106553Y355981D01*
X106553Y359255D01*
X109827Y359255D02*
X109827Y355981D01*
X109008Y361913D02*
X113919Y361913D01*
X106962Y361708D02*
X106553Y361708D01*
X106553Y362117D01*
X106962Y362117D01*
X106962Y361708D01*
X109008Y365199D02*
X113919Y365199D01*
X109008Y365199D02*
X109008Y367654D01*
X109827Y367654D01*
X113919Y371257D02*
X113919Y373303D01*
X113919Y371257D02*
X113917Y371188D01*
X113911Y371120D01*
X113902Y371051D01*
X113888Y370984D01*
X113871Y370917D01*
X113850Y370851D01*
X113826Y370787D01*
X113797Y370724D01*
X113766Y370663D01*
X113731Y370604D01*
X113693Y370546D01*
X113651Y370491D01*
X113607Y370439D01*
X113559Y370389D01*
X113509Y370341D01*
X113457Y370297D01*
X113402Y370256D01*
X113344Y370217D01*
X113285Y370182D01*
X113224Y370151D01*
X113161Y370122D01*
X113097Y370098D01*
X113031Y370077D01*
X112964Y370060D01*
X112897Y370046D01*
X112829Y370037D01*
X112760Y370031D01*
X112691Y370029D01*
X110645Y370029D01*
X110566Y370031D01*
X110487Y370037D01*
X110408Y370046D01*
X110330Y370059D01*
X110253Y370077D01*
X110177Y370097D01*
X110102Y370122D01*
X110028Y370150D01*
X109955Y370181D01*
X109884Y370217D01*
X109815Y370255D01*
X109748Y370297D01*
X109683Y370342D01*
X109620Y370390D01*
X109559Y370441D01*
X109502Y370495D01*
X109446Y370551D01*
X109394Y370610D01*
X109344Y370672D01*
X109298Y370736D01*
X109254Y370802D01*
X109214Y370870D01*
X109178Y370940D01*
X109144Y371012D01*
X109114Y371086D01*
X109088Y371160D01*
X109065Y371236D01*
X109047Y371313D01*
X109031Y371390D01*
X109020Y371469D01*
X109012Y371547D01*
X109008Y371626D01*
X109008Y371706D01*
X109012Y371785D01*
X109020Y371863D01*
X109031Y371942D01*
X109047Y372019D01*
X109065Y372096D01*
X109088Y372172D01*
X109114Y372246D01*
X109144Y372320D01*
X109178Y372392D01*
X109214Y372462D01*
X109254Y372530D01*
X109298Y372596D01*
X109344Y372660D01*
X109394Y372722D01*
X109446Y372781D01*
X109502Y372837D01*
X109559Y372891D01*
X109620Y372942D01*
X109683Y372990D01*
X109748Y373035D01*
X109815Y373077D01*
X109884Y373115D01*
X109955Y373151D01*
X110028Y373182D01*
X110102Y373210D01*
X110177Y373235D01*
X110253Y373255D01*
X110330Y373273D01*
X110408Y373286D01*
X110487Y373295D01*
X110566Y373301D01*
X110645Y373303D01*
X111464Y373303D01*
X111464Y370029D01*
X424053Y355981D02*
X431419Y355981D01*
X424053Y355981D02*
X424053Y359255D01*
X427327Y359255D02*
X427327Y355981D01*
X426508Y361913D02*
X431419Y361913D01*
X424462Y361708D02*
X424053Y361708D01*
X424053Y362117D01*
X424462Y362117D01*
X424462Y361708D01*
X426508Y365199D02*
X431419Y365199D01*
X426508Y365199D02*
X426508Y367654D01*
X427327Y367654D01*
X431419Y371257D02*
X431419Y373303D01*
X431419Y371257D02*
X431417Y371188D01*
X431411Y371120D01*
X431402Y371051D01*
X431388Y370984D01*
X431371Y370917D01*
X431350Y370851D01*
X431326Y370787D01*
X431297Y370724D01*
X431266Y370663D01*
X431231Y370604D01*
X431193Y370546D01*
X431151Y370491D01*
X431107Y370439D01*
X431059Y370389D01*
X431009Y370341D01*
X430957Y370297D01*
X430902Y370256D01*
X430844Y370217D01*
X430785Y370182D01*
X430724Y370151D01*
X430661Y370122D01*
X430597Y370098D01*
X430531Y370077D01*
X430464Y370060D01*
X430397Y370046D01*
X430329Y370037D01*
X430260Y370031D01*
X430191Y370029D01*
X428145Y370029D01*
X428066Y370031D01*
X427987Y370037D01*
X427908Y370046D01*
X427830Y370059D01*
X427753Y370077D01*
X427677Y370097D01*
X427602Y370122D01*
X427528Y370150D01*
X427455Y370181D01*
X427384Y370217D01*
X427315Y370255D01*
X427248Y370297D01*
X427183Y370342D01*
X427120Y370390D01*
X427059Y370441D01*
X427002Y370495D01*
X426946Y370551D01*
X426894Y370610D01*
X426844Y370672D01*
X426798Y370736D01*
X426754Y370802D01*
X426714Y370870D01*
X426678Y370940D01*
X426644Y371012D01*
X426614Y371086D01*
X426588Y371160D01*
X426565Y371236D01*
X426547Y371313D01*
X426531Y371390D01*
X426520Y371469D01*
X426512Y371547D01*
X426508Y371626D01*
X426508Y371706D01*
X426512Y371785D01*
X426520Y371863D01*
X426531Y371942D01*
X426547Y372019D01*
X426565Y372096D01*
X426588Y372172D01*
X426614Y372246D01*
X426644Y372320D01*
X426678Y372392D01*
X426714Y372462D01*
X426754Y372530D01*
X426798Y372596D01*
X426844Y372660D01*
X426894Y372722D01*
X426946Y372781D01*
X427002Y372837D01*
X427059Y372891D01*
X427120Y372942D01*
X427183Y372990D01*
X427248Y373035D01*
X427315Y373077D01*
X427384Y373115D01*
X427455Y373151D01*
X427528Y373182D01*
X427602Y373210D01*
X427677Y373235D01*
X427753Y373255D01*
X427830Y373273D01*
X427908Y373286D01*
X427987Y373295D01*
X428066Y373301D01*
X428145Y373303D01*
X428964Y373303D01*
X428964Y370029D01*
X139319Y355981D02*
X131953Y355981D01*
X131953Y358027D01*
X131955Y358116D01*
X131961Y358205D01*
X131971Y358294D01*
X131984Y358382D01*
X132001Y358470D01*
X132023Y358557D01*
X132048Y358642D01*
X132076Y358727D01*
X132109Y358810D01*
X132145Y358892D01*
X132184Y358972D01*
X132227Y359050D01*
X132273Y359126D01*
X132323Y359201D01*
X132376Y359273D01*
X132432Y359342D01*
X132491Y359409D01*
X132552Y359474D01*
X132617Y359535D01*
X132684Y359594D01*
X132753Y359650D01*
X132825Y359703D01*
X132900Y359753D01*
X132976Y359799D01*
X133054Y359842D01*
X133134Y359881D01*
X133216Y359917D01*
X133299Y359950D01*
X133384Y359978D01*
X133469Y360003D01*
X133556Y360025D01*
X133644Y360042D01*
X133732Y360055D01*
X133821Y360065D01*
X133910Y360071D01*
X133999Y360073D01*
X134088Y360071D01*
X134177Y360065D01*
X134266Y360055D01*
X134354Y360042D01*
X134442Y360025D01*
X134529Y360003D01*
X134614Y359978D01*
X134699Y359950D01*
X134782Y359917D01*
X134864Y359881D01*
X134944Y359842D01*
X135022Y359799D01*
X135098Y359753D01*
X135173Y359703D01*
X135245Y359650D01*
X135314Y359594D01*
X135381Y359535D01*
X135446Y359474D01*
X135507Y359409D01*
X135566Y359342D01*
X135622Y359273D01*
X135675Y359201D01*
X135725Y359126D01*
X135771Y359050D01*
X135814Y358972D01*
X135853Y358892D01*
X135889Y358810D01*
X135922Y358727D01*
X135950Y358642D01*
X135975Y358557D01*
X135997Y358470D01*
X136014Y358382D01*
X136027Y358294D01*
X136037Y358205D01*
X136043Y358116D01*
X136045Y358027D01*
X136045Y355981D01*
X136045Y358436D02*
X139319Y360073D01*
X139319Y363097D02*
X134408Y363097D01*
X132362Y362892D02*
X131953Y362892D01*
X131953Y363301D01*
X132362Y363301D01*
X132362Y362892D01*
X139319Y367279D02*
X139319Y369325D01*
X139319Y367279D02*
X139317Y367210D01*
X139311Y367142D01*
X139302Y367073D01*
X139288Y367006D01*
X139271Y366939D01*
X139250Y366873D01*
X139226Y366809D01*
X139197Y366746D01*
X139166Y366685D01*
X139131Y366626D01*
X139093Y366568D01*
X139051Y366513D01*
X139007Y366461D01*
X138959Y366411D01*
X138909Y366363D01*
X138857Y366319D01*
X138802Y366278D01*
X138744Y366239D01*
X138685Y366204D01*
X138624Y366173D01*
X138561Y366144D01*
X138497Y366120D01*
X138431Y366099D01*
X138364Y366082D01*
X138297Y366068D01*
X138229Y366059D01*
X138160Y366053D01*
X138091Y366051D01*
X138091Y366052D02*
X135636Y366052D01*
X135636Y366051D02*
X135567Y366053D01*
X135499Y366059D01*
X135430Y366068D01*
X135363Y366082D01*
X135296Y366099D01*
X135230Y366120D01*
X135166Y366144D01*
X135103Y366173D01*
X135042Y366204D01*
X134983Y366239D01*
X134925Y366277D01*
X134870Y366319D01*
X134818Y366363D01*
X134768Y366411D01*
X134720Y366461D01*
X134676Y366513D01*
X134634Y366568D01*
X134596Y366626D01*
X134561Y366685D01*
X134530Y366746D01*
X134501Y366809D01*
X134477Y366873D01*
X134456Y366939D01*
X134439Y367006D01*
X134425Y367073D01*
X134416Y367142D01*
X134410Y367210D01*
X134408Y367279D01*
X134408Y369325D01*
X140547Y369325D01*
X140547Y369326D02*
X140616Y369324D01*
X140684Y369318D01*
X140753Y369309D01*
X140820Y369295D01*
X140887Y369278D01*
X140953Y369257D01*
X141017Y369233D01*
X141080Y369204D01*
X141141Y369173D01*
X141200Y369138D01*
X141258Y369100D01*
X141313Y369058D01*
X141365Y369014D01*
X141415Y368966D01*
X141463Y368916D01*
X141507Y368864D01*
X141549Y368809D01*
X141587Y368751D01*
X141622Y368692D01*
X141653Y368631D01*
X141682Y368568D01*
X141706Y368504D01*
X141727Y368438D01*
X141744Y368371D01*
X141758Y368304D01*
X141767Y368235D01*
X141773Y368167D01*
X141775Y368098D01*
X141774Y368098D02*
X141774Y366461D01*
X139319Y372920D02*
X131953Y372920D01*
X134408Y372920D02*
X134408Y374966D01*
X134410Y375035D01*
X134416Y375103D01*
X134425Y375172D01*
X134439Y375239D01*
X134456Y375306D01*
X134477Y375372D01*
X134501Y375436D01*
X134530Y375499D01*
X134561Y375560D01*
X134596Y375619D01*
X134634Y375677D01*
X134676Y375732D01*
X134720Y375784D01*
X134768Y375834D01*
X134818Y375882D01*
X134870Y375926D01*
X134925Y375968D01*
X134983Y376006D01*
X135042Y376041D01*
X135103Y376072D01*
X135166Y376101D01*
X135230Y376125D01*
X135296Y376146D01*
X135363Y376163D01*
X135430Y376177D01*
X135499Y376186D01*
X135567Y376192D01*
X135636Y376194D01*
X139319Y376194D01*
X134408Y378873D02*
X134408Y381329D01*
X131953Y379692D02*
X138091Y379692D01*
X138091Y379691D02*
X138160Y379693D01*
X138228Y379699D01*
X138297Y379708D01*
X138364Y379722D01*
X138431Y379739D01*
X138497Y379760D01*
X138561Y379784D01*
X138624Y379813D01*
X138685Y379844D01*
X138744Y379879D01*
X138802Y379917D01*
X138857Y379959D01*
X138909Y380003D01*
X138959Y380051D01*
X139007Y380101D01*
X139051Y380153D01*
X139093Y380208D01*
X139131Y380266D01*
X139166Y380325D01*
X139197Y380386D01*
X139226Y380449D01*
X139250Y380513D01*
X139271Y380579D01*
X139288Y380646D01*
X139302Y380713D01*
X139311Y380782D01*
X139317Y380850D01*
X139319Y380919D01*
X139319Y380920D02*
X139319Y381329D01*
X449453Y355981D02*
X456819Y355981D01*
X449453Y355981D02*
X449453Y358027D01*
X449455Y358116D01*
X449461Y358205D01*
X449471Y358294D01*
X449484Y358382D01*
X449501Y358470D01*
X449523Y358557D01*
X449548Y358642D01*
X449576Y358727D01*
X449609Y358810D01*
X449645Y358892D01*
X449684Y358972D01*
X449727Y359050D01*
X449773Y359126D01*
X449823Y359201D01*
X449876Y359273D01*
X449932Y359342D01*
X449991Y359409D01*
X450052Y359474D01*
X450117Y359535D01*
X450184Y359594D01*
X450253Y359650D01*
X450325Y359703D01*
X450400Y359753D01*
X450476Y359799D01*
X450554Y359842D01*
X450634Y359881D01*
X450716Y359917D01*
X450799Y359950D01*
X450884Y359978D01*
X450969Y360003D01*
X451056Y360025D01*
X451144Y360042D01*
X451232Y360055D01*
X451321Y360065D01*
X451410Y360071D01*
X451499Y360073D01*
X451588Y360071D01*
X451677Y360065D01*
X451766Y360055D01*
X451854Y360042D01*
X451942Y360025D01*
X452029Y360003D01*
X452114Y359978D01*
X452199Y359950D01*
X452282Y359917D01*
X452364Y359881D01*
X452444Y359842D01*
X452522Y359799D01*
X452598Y359753D01*
X452673Y359703D01*
X452745Y359650D01*
X452814Y359594D01*
X452881Y359535D01*
X452946Y359474D01*
X453007Y359409D01*
X453066Y359342D01*
X453122Y359273D01*
X453175Y359201D01*
X453225Y359126D01*
X453271Y359050D01*
X453314Y358972D01*
X453353Y358892D01*
X453389Y358810D01*
X453422Y358727D01*
X453450Y358642D01*
X453475Y358557D01*
X453497Y358470D01*
X453514Y358382D01*
X453527Y358294D01*
X453537Y358205D01*
X453543Y358116D01*
X453545Y358027D01*
X453545Y355981D01*
X453545Y358436D02*
X456819Y360073D01*
X456819Y363097D02*
X451908Y363097D01*
X449862Y362892D02*
X449453Y362892D01*
X449453Y363301D01*
X449862Y363301D01*
X449862Y362892D01*
X456819Y367279D02*
X456819Y369325D01*
X456819Y367279D02*
X456817Y367210D01*
X456811Y367142D01*
X456802Y367073D01*
X456788Y367006D01*
X456771Y366939D01*
X456750Y366873D01*
X456726Y366809D01*
X456697Y366746D01*
X456666Y366685D01*
X456631Y366626D01*
X456593Y366568D01*
X456551Y366513D01*
X456507Y366461D01*
X456459Y366411D01*
X456409Y366363D01*
X456357Y366319D01*
X456302Y366278D01*
X456244Y366239D01*
X456185Y366204D01*
X456124Y366173D01*
X456061Y366144D01*
X455997Y366120D01*
X455931Y366099D01*
X455864Y366082D01*
X455797Y366068D01*
X455729Y366059D01*
X455660Y366053D01*
X455591Y366051D01*
X455591Y366052D02*
X453136Y366052D01*
X453136Y366051D02*
X453067Y366053D01*
X452999Y366059D01*
X452930Y366068D01*
X452863Y366082D01*
X452796Y366099D01*
X452730Y366120D01*
X452666Y366144D01*
X452603Y366173D01*
X452542Y366204D01*
X452483Y366239D01*
X452425Y366277D01*
X452370Y366319D01*
X452318Y366363D01*
X452268Y366411D01*
X452220Y366461D01*
X452176Y366513D01*
X452134Y366568D01*
X452096Y366626D01*
X452061Y366685D01*
X452030Y366746D01*
X452001Y366809D01*
X451977Y366873D01*
X451956Y366939D01*
X451939Y367006D01*
X451925Y367073D01*
X451916Y367142D01*
X451910Y367210D01*
X451908Y367279D01*
X451908Y369325D01*
X458047Y369325D01*
X458047Y369326D02*
X458116Y369324D01*
X458184Y369318D01*
X458253Y369309D01*
X458320Y369295D01*
X458387Y369278D01*
X458453Y369257D01*
X458517Y369233D01*
X458580Y369204D01*
X458641Y369173D01*
X458700Y369138D01*
X458758Y369100D01*
X458813Y369058D01*
X458865Y369014D01*
X458915Y368966D01*
X458963Y368916D01*
X459007Y368864D01*
X459049Y368809D01*
X459087Y368751D01*
X459122Y368692D01*
X459153Y368631D01*
X459182Y368568D01*
X459206Y368504D01*
X459227Y368438D01*
X459244Y368371D01*
X459258Y368304D01*
X459267Y368235D01*
X459273Y368167D01*
X459275Y368098D01*
X459274Y368098D02*
X459274Y366461D01*
X456819Y372920D02*
X449453Y372920D01*
X451908Y372920D02*
X451908Y374966D01*
X451910Y375035D01*
X451916Y375103D01*
X451925Y375172D01*
X451939Y375239D01*
X451956Y375306D01*
X451977Y375372D01*
X452001Y375436D01*
X452030Y375499D01*
X452061Y375560D01*
X452096Y375619D01*
X452134Y375677D01*
X452176Y375732D01*
X452220Y375784D01*
X452268Y375834D01*
X452318Y375882D01*
X452370Y375926D01*
X452425Y375968D01*
X452483Y376006D01*
X452542Y376041D01*
X452603Y376072D01*
X452666Y376101D01*
X452730Y376125D01*
X452796Y376146D01*
X452863Y376163D01*
X452930Y376177D01*
X452999Y376186D01*
X453067Y376192D01*
X453136Y376194D01*
X456819Y376194D01*
X451908Y378873D02*
X451908Y381329D01*
X449453Y379692D02*
X455591Y379692D01*
X455591Y379691D02*
X455660Y379693D01*
X455728Y379699D01*
X455797Y379708D01*
X455864Y379722D01*
X455931Y379739D01*
X455997Y379760D01*
X456061Y379784D01*
X456124Y379813D01*
X456185Y379844D01*
X456244Y379879D01*
X456302Y379917D01*
X456357Y379959D01*
X456409Y380003D01*
X456459Y380051D01*
X456507Y380101D01*
X456551Y380153D01*
X456593Y380208D01*
X456631Y380266D01*
X456666Y380325D01*
X456697Y380386D01*
X456726Y380449D01*
X456750Y380513D01*
X456771Y380579D01*
X456788Y380646D01*
X456802Y380713D01*
X456811Y380782D01*
X456817Y380850D01*
X456819Y380919D01*
X456819Y380920D02*
X456819Y381329D01*
X500253Y355981D02*
X507619Y355981D01*
X500253Y355981D02*
X500253Y358027D01*
X500255Y358116D01*
X500261Y358205D01*
X500271Y358294D01*
X500284Y358382D01*
X500301Y358470D01*
X500323Y358557D01*
X500348Y358642D01*
X500376Y358727D01*
X500409Y358810D01*
X500445Y358892D01*
X500484Y358972D01*
X500527Y359050D01*
X500573Y359126D01*
X500623Y359201D01*
X500676Y359273D01*
X500732Y359342D01*
X500791Y359409D01*
X500852Y359474D01*
X500917Y359535D01*
X500984Y359594D01*
X501053Y359650D01*
X501125Y359703D01*
X501200Y359753D01*
X501276Y359799D01*
X501354Y359842D01*
X501434Y359881D01*
X501516Y359917D01*
X501599Y359950D01*
X501684Y359978D01*
X501769Y360003D01*
X501856Y360025D01*
X501944Y360042D01*
X502032Y360055D01*
X502121Y360065D01*
X502210Y360071D01*
X502299Y360073D01*
X505573Y360073D01*
X505662Y360071D01*
X505751Y360065D01*
X505840Y360055D01*
X505928Y360042D01*
X506016Y360025D01*
X506103Y360003D01*
X506188Y359978D01*
X506273Y359950D01*
X506356Y359917D01*
X506438Y359881D01*
X506518Y359842D01*
X506596Y359799D01*
X506672Y359753D01*
X506747Y359703D01*
X506819Y359650D01*
X506888Y359594D01*
X506955Y359535D01*
X507020Y359474D01*
X507081Y359409D01*
X507140Y359342D01*
X507196Y359273D01*
X507249Y359201D01*
X507299Y359126D01*
X507345Y359050D01*
X507388Y358972D01*
X507427Y358892D01*
X507463Y358810D01*
X507496Y358727D01*
X507524Y358642D01*
X507549Y358557D01*
X507571Y358470D01*
X507588Y358382D01*
X507601Y358294D01*
X507611Y358205D01*
X507617Y358116D01*
X507619Y358027D01*
X507619Y355981D01*
X505982Y363462D02*
X504345Y363462D01*
X504345Y363461D02*
X504266Y363463D01*
X504187Y363469D01*
X504108Y363478D01*
X504030Y363491D01*
X503953Y363509D01*
X503877Y363529D01*
X503802Y363554D01*
X503728Y363582D01*
X503655Y363613D01*
X503584Y363649D01*
X503515Y363687D01*
X503448Y363729D01*
X503383Y363774D01*
X503320Y363822D01*
X503259Y363873D01*
X503202Y363927D01*
X503146Y363983D01*
X503094Y364042D01*
X503044Y364104D01*
X502998Y364168D01*
X502954Y364234D01*
X502914Y364302D01*
X502878Y364372D01*
X502844Y364444D01*
X502814Y364518D01*
X502788Y364592D01*
X502765Y364668D01*
X502747Y364745D01*
X502731Y364822D01*
X502720Y364901D01*
X502712Y364979D01*
X502708Y365058D01*
X502708Y365138D01*
X502712Y365217D01*
X502720Y365295D01*
X502731Y365374D01*
X502747Y365451D01*
X502765Y365528D01*
X502788Y365604D01*
X502814Y365678D01*
X502844Y365752D01*
X502878Y365824D01*
X502914Y365894D01*
X502954Y365962D01*
X502998Y366028D01*
X503044Y366092D01*
X503094Y366154D01*
X503146Y366213D01*
X503202Y366269D01*
X503259Y366323D01*
X503320Y366374D01*
X503383Y366422D01*
X503448Y366467D01*
X503515Y366509D01*
X503584Y366547D01*
X503655Y366583D01*
X503728Y366614D01*
X503802Y366642D01*
X503877Y366667D01*
X503953Y366687D01*
X504030Y366705D01*
X504108Y366718D01*
X504187Y366727D01*
X504266Y366733D01*
X504345Y366735D01*
X505982Y366735D01*
X506061Y366733D01*
X506140Y366727D01*
X506219Y366718D01*
X506297Y366705D01*
X506374Y366687D01*
X506450Y366667D01*
X506525Y366642D01*
X506599Y366614D01*
X506672Y366583D01*
X506743Y366547D01*
X506812Y366509D01*
X506879Y366467D01*
X506944Y366422D01*
X507007Y366374D01*
X507068Y366323D01*
X507125Y366269D01*
X507181Y366213D01*
X507233Y366154D01*
X507283Y366092D01*
X507329Y366028D01*
X507373Y365962D01*
X507413Y365894D01*
X507449Y365824D01*
X507483Y365752D01*
X507513Y365678D01*
X507539Y365604D01*
X507562Y365528D01*
X507580Y365451D01*
X507596Y365374D01*
X507607Y365295D01*
X507615Y365217D01*
X507619Y365138D01*
X507619Y365058D01*
X507615Y364979D01*
X507607Y364901D01*
X507596Y364822D01*
X507580Y364745D01*
X507562Y364668D01*
X507539Y364592D01*
X507513Y364518D01*
X507483Y364444D01*
X507449Y364372D01*
X507413Y364302D01*
X507373Y364234D01*
X507329Y364168D01*
X507283Y364104D01*
X507233Y364042D01*
X507181Y363983D01*
X507125Y363927D01*
X507068Y363873D01*
X507007Y363822D01*
X506944Y363774D01*
X506879Y363729D01*
X506812Y363687D01*
X506743Y363649D01*
X506672Y363613D01*
X506599Y363582D01*
X506525Y363554D01*
X506450Y363529D01*
X506374Y363509D01*
X506297Y363491D01*
X506219Y363478D01*
X506140Y363469D01*
X506061Y363463D01*
X505982Y363461D01*
X502708Y369714D02*
X507619Y370942D01*
X504345Y372170D01*
X507619Y373397D01*
X502708Y374625D01*
X502708Y377848D02*
X507619Y377848D01*
X502708Y377848D02*
X502708Y379894D01*
X502710Y379963D01*
X502716Y380031D01*
X502725Y380100D01*
X502739Y380167D01*
X502756Y380234D01*
X502777Y380300D01*
X502801Y380364D01*
X502830Y380427D01*
X502861Y380488D01*
X502896Y380547D01*
X502934Y380605D01*
X502976Y380660D01*
X503020Y380712D01*
X503068Y380762D01*
X503118Y380810D01*
X503170Y380854D01*
X503225Y380896D01*
X503283Y380934D01*
X503342Y380969D01*
X503403Y381000D01*
X503466Y381029D01*
X503530Y381053D01*
X503596Y381074D01*
X503663Y381091D01*
X503730Y381105D01*
X503799Y381114D01*
X503867Y381120D01*
X503936Y381122D01*
X507619Y381122D01*
X190119Y355981D02*
X182753Y355981D01*
X182753Y358027D01*
X182755Y358116D01*
X182761Y358205D01*
X182771Y358294D01*
X182784Y358382D01*
X182801Y358470D01*
X182823Y358557D01*
X182848Y358642D01*
X182876Y358727D01*
X182909Y358810D01*
X182945Y358892D01*
X182984Y358972D01*
X183027Y359050D01*
X183073Y359126D01*
X183123Y359201D01*
X183176Y359273D01*
X183232Y359342D01*
X183291Y359409D01*
X183352Y359474D01*
X183417Y359535D01*
X183484Y359594D01*
X183553Y359650D01*
X183625Y359703D01*
X183700Y359753D01*
X183776Y359799D01*
X183854Y359842D01*
X183934Y359881D01*
X184016Y359917D01*
X184099Y359950D01*
X184184Y359978D01*
X184269Y360003D01*
X184356Y360025D01*
X184444Y360042D01*
X184532Y360055D01*
X184621Y360065D01*
X184710Y360071D01*
X184799Y360073D01*
X188073Y360073D01*
X188162Y360071D01*
X188251Y360065D01*
X188340Y360055D01*
X188428Y360042D01*
X188516Y360025D01*
X188603Y360003D01*
X188688Y359978D01*
X188773Y359950D01*
X188856Y359917D01*
X188938Y359881D01*
X189018Y359842D01*
X189096Y359799D01*
X189172Y359753D01*
X189247Y359703D01*
X189319Y359650D01*
X189388Y359594D01*
X189455Y359535D01*
X189520Y359474D01*
X189581Y359409D01*
X189640Y359342D01*
X189696Y359273D01*
X189749Y359201D01*
X189799Y359126D01*
X189845Y359050D01*
X189888Y358972D01*
X189927Y358892D01*
X189963Y358810D01*
X189996Y358727D01*
X190024Y358642D01*
X190049Y358557D01*
X190071Y358470D01*
X190088Y358382D01*
X190101Y358294D01*
X190111Y358205D01*
X190117Y358116D01*
X190119Y358027D01*
X190119Y355981D01*
X188482Y363462D02*
X186845Y363462D01*
X186845Y363461D02*
X186766Y363463D01*
X186687Y363469D01*
X186608Y363478D01*
X186530Y363491D01*
X186453Y363509D01*
X186377Y363529D01*
X186302Y363554D01*
X186228Y363582D01*
X186155Y363613D01*
X186084Y363649D01*
X186015Y363687D01*
X185948Y363729D01*
X185883Y363774D01*
X185820Y363822D01*
X185759Y363873D01*
X185702Y363927D01*
X185646Y363983D01*
X185594Y364042D01*
X185544Y364104D01*
X185498Y364168D01*
X185454Y364234D01*
X185414Y364302D01*
X185378Y364372D01*
X185344Y364444D01*
X185314Y364518D01*
X185288Y364592D01*
X185265Y364668D01*
X185247Y364745D01*
X185231Y364822D01*
X185220Y364901D01*
X185212Y364979D01*
X185208Y365058D01*
X185208Y365138D01*
X185212Y365217D01*
X185220Y365295D01*
X185231Y365374D01*
X185247Y365451D01*
X185265Y365528D01*
X185288Y365604D01*
X185314Y365678D01*
X185344Y365752D01*
X185378Y365824D01*
X185414Y365894D01*
X185454Y365962D01*
X185498Y366028D01*
X185544Y366092D01*
X185594Y366154D01*
X185646Y366213D01*
X185702Y366269D01*
X185759Y366323D01*
X185820Y366374D01*
X185883Y366422D01*
X185948Y366467D01*
X186015Y366509D01*
X186084Y366547D01*
X186155Y366583D01*
X186228Y366614D01*
X186302Y366642D01*
X186377Y366667D01*
X186453Y366687D01*
X186530Y366705D01*
X186608Y366718D01*
X186687Y366727D01*
X186766Y366733D01*
X186845Y366735D01*
X188482Y366735D01*
X188561Y366733D01*
X188640Y366727D01*
X188719Y366718D01*
X188797Y366705D01*
X188874Y366687D01*
X188950Y366667D01*
X189025Y366642D01*
X189099Y366614D01*
X189172Y366583D01*
X189243Y366547D01*
X189312Y366509D01*
X189379Y366467D01*
X189444Y366422D01*
X189507Y366374D01*
X189568Y366323D01*
X189625Y366269D01*
X189681Y366213D01*
X189733Y366154D01*
X189783Y366092D01*
X189829Y366028D01*
X189873Y365962D01*
X189913Y365894D01*
X189949Y365824D01*
X189983Y365752D01*
X190013Y365678D01*
X190039Y365604D01*
X190062Y365528D01*
X190080Y365451D01*
X190096Y365374D01*
X190107Y365295D01*
X190115Y365217D01*
X190119Y365138D01*
X190119Y365058D01*
X190115Y364979D01*
X190107Y364901D01*
X190096Y364822D01*
X190080Y364745D01*
X190062Y364668D01*
X190039Y364592D01*
X190013Y364518D01*
X189983Y364444D01*
X189949Y364372D01*
X189913Y364302D01*
X189873Y364234D01*
X189829Y364168D01*
X189783Y364104D01*
X189733Y364042D01*
X189681Y363983D01*
X189625Y363927D01*
X189568Y363873D01*
X189507Y363822D01*
X189444Y363774D01*
X189379Y363729D01*
X189312Y363687D01*
X189243Y363649D01*
X189172Y363613D01*
X189099Y363582D01*
X189025Y363554D01*
X188950Y363529D01*
X188874Y363509D01*
X188797Y363491D01*
X188719Y363478D01*
X188640Y363469D01*
X188561Y363463D01*
X188482Y363461D01*
X185208Y369714D02*
X190119Y370942D01*
X186845Y372170D01*
X190119Y373397D01*
X185208Y374625D01*
X185208Y377848D02*
X190119Y377848D01*
X185208Y377848D02*
X185208Y379894D01*
X185210Y379963D01*
X185216Y380031D01*
X185225Y380100D01*
X185239Y380167D01*
X185256Y380234D01*
X185277Y380300D01*
X185301Y380364D01*
X185330Y380427D01*
X185361Y380488D01*
X185396Y380547D01*
X185434Y380605D01*
X185476Y380660D01*
X185520Y380712D01*
X185568Y380762D01*
X185618Y380810D01*
X185670Y380854D01*
X185725Y380896D01*
X185783Y380934D01*
X185842Y380969D01*
X185903Y381000D01*
X185966Y381029D01*
X186030Y381053D01*
X186096Y381074D01*
X186163Y381091D01*
X186230Y381105D01*
X186299Y381114D01*
X186367Y381120D01*
X186436Y381122D01*
X190119Y381122D01*
X208153Y355981D02*
X213473Y355981D01*
X213562Y355983D01*
X213651Y355989D01*
X213740Y355999D01*
X213828Y356012D01*
X213916Y356029D01*
X214003Y356051D01*
X214088Y356076D01*
X214173Y356104D01*
X214256Y356137D01*
X214338Y356173D01*
X214418Y356212D01*
X214496Y356255D01*
X214572Y356301D01*
X214647Y356351D01*
X214719Y356404D01*
X214788Y356460D01*
X214855Y356519D01*
X214920Y356580D01*
X214981Y356645D01*
X215040Y356712D01*
X215096Y356781D01*
X215149Y356853D01*
X215199Y356928D01*
X215245Y357004D01*
X215288Y357082D01*
X215327Y357162D01*
X215363Y357244D01*
X215396Y357327D01*
X215424Y357412D01*
X215449Y357497D01*
X215471Y357584D01*
X215488Y357672D01*
X215501Y357760D01*
X215511Y357849D01*
X215517Y357938D01*
X215519Y358027D01*
X215517Y358116D01*
X215511Y358205D01*
X215501Y358294D01*
X215488Y358382D01*
X215471Y358470D01*
X215449Y358557D01*
X215424Y358642D01*
X215396Y358727D01*
X215363Y358810D01*
X215327Y358892D01*
X215288Y358972D01*
X215245Y359050D01*
X215199Y359126D01*
X215149Y359201D01*
X215096Y359273D01*
X215040Y359342D01*
X214981Y359409D01*
X214920Y359474D01*
X214855Y359535D01*
X214788Y359594D01*
X214719Y359650D01*
X214647Y359703D01*
X214572Y359753D01*
X214496Y359799D01*
X214418Y359842D01*
X214338Y359881D01*
X214256Y359917D01*
X214173Y359950D01*
X214088Y359978D01*
X214003Y360003D01*
X213916Y360025D01*
X213828Y360042D01*
X213740Y360055D01*
X213651Y360065D01*
X213562Y360071D01*
X213473Y360073D01*
X208153Y360073D01*
X210608Y363746D02*
X217974Y363746D01*
X210608Y363746D02*
X210608Y365792D01*
X210610Y365861D01*
X210616Y365929D01*
X210625Y365998D01*
X210639Y366065D01*
X210656Y366132D01*
X210677Y366198D01*
X210701Y366262D01*
X210730Y366325D01*
X210761Y366386D01*
X210796Y366445D01*
X210834Y366503D01*
X210876Y366558D01*
X210920Y366610D01*
X210968Y366660D01*
X211018Y366708D01*
X211070Y366752D01*
X211125Y366794D01*
X211183Y366832D01*
X211242Y366867D01*
X211303Y366898D01*
X211366Y366927D01*
X211430Y366951D01*
X211496Y366972D01*
X211563Y366989D01*
X211630Y367003D01*
X211699Y367012D01*
X211767Y367018D01*
X211836Y367020D01*
X214291Y367020D01*
X214360Y367018D01*
X214428Y367012D01*
X214497Y367003D01*
X214564Y366989D01*
X214631Y366972D01*
X214697Y366951D01*
X214761Y366927D01*
X214824Y366898D01*
X214885Y366867D01*
X214944Y366832D01*
X215002Y366794D01*
X215057Y366752D01*
X215109Y366708D01*
X215159Y366660D01*
X215207Y366610D01*
X215251Y366558D01*
X215293Y366503D01*
X215331Y366445D01*
X215366Y366386D01*
X215397Y366325D01*
X215426Y366262D01*
X215450Y366198D01*
X215471Y366132D01*
X215488Y366065D01*
X215502Y365998D01*
X215511Y365929D01*
X215517Y365861D01*
X215519Y365792D01*
X215519Y363746D01*
X525653Y355981D02*
X530973Y355981D01*
X531062Y355983D01*
X531151Y355989D01*
X531240Y355999D01*
X531328Y356012D01*
X531416Y356029D01*
X531503Y356051D01*
X531588Y356076D01*
X531673Y356104D01*
X531756Y356137D01*
X531838Y356173D01*
X531918Y356212D01*
X531996Y356255D01*
X532072Y356301D01*
X532147Y356351D01*
X532219Y356404D01*
X532288Y356460D01*
X532355Y356519D01*
X532420Y356580D01*
X532481Y356645D01*
X532540Y356712D01*
X532596Y356781D01*
X532649Y356853D01*
X532699Y356928D01*
X532745Y357004D01*
X532788Y357082D01*
X532827Y357162D01*
X532863Y357244D01*
X532896Y357327D01*
X532924Y357412D01*
X532949Y357497D01*
X532971Y357584D01*
X532988Y357672D01*
X533001Y357760D01*
X533011Y357849D01*
X533017Y357938D01*
X533019Y358027D01*
X533017Y358116D01*
X533011Y358205D01*
X533001Y358294D01*
X532988Y358382D01*
X532971Y358470D01*
X532949Y358557D01*
X532924Y358642D01*
X532896Y358727D01*
X532863Y358810D01*
X532827Y358892D01*
X532788Y358972D01*
X532745Y359050D01*
X532699Y359126D01*
X532649Y359201D01*
X532596Y359273D01*
X532540Y359342D01*
X532481Y359409D01*
X532420Y359474D01*
X532355Y359535D01*
X532288Y359594D01*
X532219Y359650D01*
X532147Y359703D01*
X532072Y359753D01*
X531996Y359799D01*
X531918Y359842D01*
X531838Y359881D01*
X531756Y359917D01*
X531673Y359950D01*
X531588Y359978D01*
X531503Y360003D01*
X531416Y360025D01*
X531328Y360042D01*
X531240Y360055D01*
X531151Y360065D01*
X531062Y360071D01*
X530973Y360073D01*
X525653Y360073D01*
X528108Y363746D02*
X535474Y363746D01*
X528108Y363746D02*
X528108Y365792D01*
X528110Y365861D01*
X528116Y365929D01*
X528125Y365998D01*
X528139Y366065D01*
X528156Y366132D01*
X528177Y366198D01*
X528201Y366262D01*
X528230Y366325D01*
X528261Y366386D01*
X528296Y366445D01*
X528334Y366503D01*
X528376Y366558D01*
X528420Y366610D01*
X528468Y366660D01*
X528518Y366708D01*
X528570Y366752D01*
X528625Y366794D01*
X528683Y366832D01*
X528742Y366867D01*
X528803Y366898D01*
X528866Y366927D01*
X528930Y366951D01*
X528996Y366972D01*
X529063Y366989D01*
X529130Y367003D01*
X529199Y367012D01*
X529267Y367018D01*
X529336Y367020D01*
X531791Y367020D01*
X531860Y367018D01*
X531928Y367012D01*
X531997Y367003D01*
X532064Y366989D01*
X532131Y366972D01*
X532197Y366951D01*
X532261Y366927D01*
X532324Y366898D01*
X532385Y366867D01*
X532444Y366832D01*
X532502Y366794D01*
X532557Y366752D01*
X532609Y366708D01*
X532659Y366660D01*
X532707Y366610D01*
X532751Y366558D01*
X532793Y366503D01*
X532831Y366445D01*
X532866Y366386D01*
X532897Y366325D01*
X532926Y366262D01*
X532950Y366198D01*
X532971Y366132D01*
X532988Y366065D01*
X533002Y365998D01*
X533011Y365929D01*
X533017Y365861D01*
X533019Y365792D01*
X533019Y363746D01*
X164719Y355981D02*
X157353Y355981D01*
X164719Y355981D02*
X164719Y359255D01*
X164719Y363210D02*
X164719Y365257D01*
X164719Y363210D02*
X164717Y363141D01*
X164711Y363073D01*
X164702Y363004D01*
X164688Y362937D01*
X164671Y362870D01*
X164650Y362804D01*
X164626Y362740D01*
X164597Y362677D01*
X164566Y362616D01*
X164531Y362557D01*
X164493Y362499D01*
X164451Y362444D01*
X164407Y362392D01*
X164359Y362342D01*
X164309Y362294D01*
X164257Y362250D01*
X164202Y362209D01*
X164144Y362170D01*
X164085Y362135D01*
X164024Y362104D01*
X163961Y362075D01*
X163897Y362051D01*
X163831Y362030D01*
X163764Y362013D01*
X163697Y361999D01*
X163629Y361990D01*
X163560Y361984D01*
X163491Y361982D01*
X163491Y361983D02*
X161445Y361983D01*
X161366Y361985D01*
X161287Y361991D01*
X161208Y362000D01*
X161130Y362013D01*
X161053Y362031D01*
X160977Y362051D01*
X160902Y362076D01*
X160828Y362104D01*
X160755Y362135D01*
X160684Y362171D01*
X160615Y362209D01*
X160548Y362251D01*
X160483Y362296D01*
X160420Y362344D01*
X160359Y362395D01*
X160302Y362449D01*
X160246Y362505D01*
X160194Y362564D01*
X160144Y362626D01*
X160098Y362690D01*
X160054Y362756D01*
X160014Y362824D01*
X159978Y362894D01*
X159944Y362966D01*
X159914Y363040D01*
X159888Y363114D01*
X159865Y363190D01*
X159847Y363267D01*
X159831Y363344D01*
X159820Y363423D01*
X159812Y363501D01*
X159808Y363580D01*
X159808Y363660D01*
X159812Y363739D01*
X159820Y363817D01*
X159831Y363896D01*
X159847Y363973D01*
X159865Y364050D01*
X159888Y364126D01*
X159914Y364200D01*
X159944Y364274D01*
X159978Y364346D01*
X160014Y364416D01*
X160054Y364484D01*
X160098Y364550D01*
X160144Y364614D01*
X160194Y364676D01*
X160246Y364735D01*
X160302Y364791D01*
X160359Y364845D01*
X160420Y364896D01*
X160483Y364944D01*
X160548Y364989D01*
X160615Y365031D01*
X160684Y365069D01*
X160755Y365105D01*
X160828Y365136D01*
X160902Y365164D01*
X160977Y365189D01*
X161053Y365209D01*
X161130Y365227D01*
X161208Y365240D01*
X161287Y365249D01*
X161366Y365255D01*
X161445Y365257D01*
X162264Y365257D01*
X162264Y361983D01*
X164719Y368716D02*
X158581Y368716D01*
X158512Y368718D01*
X158444Y368724D01*
X158375Y368733D01*
X158308Y368747D01*
X158241Y368764D01*
X158175Y368785D01*
X158111Y368809D01*
X158048Y368838D01*
X157987Y368869D01*
X157928Y368904D01*
X157870Y368942D01*
X157815Y368984D01*
X157763Y369028D01*
X157713Y369076D01*
X157665Y369126D01*
X157621Y369178D01*
X157580Y369233D01*
X157541Y369291D01*
X157506Y369350D01*
X157475Y369411D01*
X157446Y369474D01*
X157422Y369538D01*
X157401Y369604D01*
X157384Y369671D01*
X157370Y369738D01*
X157361Y369806D01*
X157355Y369875D01*
X157353Y369944D01*
X157353Y370353D01*
X159808Y370353D02*
X159808Y367898D01*
X159808Y371838D02*
X159808Y374293D01*
X157353Y372656D02*
X163491Y372656D01*
X163560Y372658D01*
X163628Y372664D01*
X163697Y372673D01*
X163764Y372687D01*
X163831Y372704D01*
X163897Y372725D01*
X163961Y372749D01*
X164024Y372778D01*
X164085Y372809D01*
X164144Y372844D01*
X164202Y372882D01*
X164257Y372924D01*
X164309Y372968D01*
X164359Y373016D01*
X164407Y373066D01*
X164451Y373118D01*
X164493Y373173D01*
X164531Y373231D01*
X164566Y373290D01*
X164597Y373351D01*
X164626Y373414D01*
X164650Y373478D01*
X164671Y373544D01*
X164688Y373611D01*
X164702Y373678D01*
X164711Y373747D01*
X164717Y373815D01*
X164719Y373884D01*
X164719Y374293D01*
X474853Y355981D02*
X482219Y355981D01*
X482219Y359255D01*
X482219Y363210D02*
X482219Y365257D01*
X482219Y363210D02*
X482217Y363141D01*
X482211Y363073D01*
X482202Y363004D01*
X482188Y362937D01*
X482171Y362870D01*
X482150Y362804D01*
X482126Y362740D01*
X482097Y362677D01*
X482066Y362616D01*
X482031Y362557D01*
X481993Y362499D01*
X481951Y362444D01*
X481907Y362392D01*
X481859Y362342D01*
X481809Y362294D01*
X481757Y362250D01*
X481702Y362209D01*
X481644Y362170D01*
X481585Y362135D01*
X481524Y362104D01*
X481461Y362075D01*
X481397Y362051D01*
X481331Y362030D01*
X481264Y362013D01*
X481197Y361999D01*
X481129Y361990D01*
X481060Y361984D01*
X480991Y361982D01*
X480991Y361983D02*
X478945Y361983D01*
X478866Y361985D01*
X478787Y361991D01*
X478708Y362000D01*
X478630Y362013D01*
X478553Y362031D01*
X478477Y362051D01*
X478402Y362076D01*
X478328Y362104D01*
X478255Y362135D01*
X478184Y362171D01*
X478115Y362209D01*
X478048Y362251D01*
X477983Y362296D01*
X477920Y362344D01*
X477859Y362395D01*
X477802Y362449D01*
X477746Y362505D01*
X477694Y362564D01*
X477644Y362626D01*
X477598Y362690D01*
X477554Y362756D01*
X477514Y362824D01*
X477478Y362894D01*
X477444Y362966D01*
X477414Y363040D01*
X477388Y363114D01*
X477365Y363190D01*
X477347Y363267D01*
X477331Y363344D01*
X477320Y363423D01*
X477312Y363501D01*
X477308Y363580D01*
X477308Y363660D01*
X477312Y363739D01*
X477320Y363817D01*
X477331Y363896D01*
X477347Y363973D01*
X477365Y364050D01*
X477388Y364126D01*
X477414Y364200D01*
X477444Y364274D01*
X477478Y364346D01*
X477514Y364416D01*
X477554Y364484D01*
X477598Y364550D01*
X477644Y364614D01*
X477694Y364676D01*
X477746Y364735D01*
X477802Y364791D01*
X477859Y364845D01*
X477920Y364896D01*
X477983Y364944D01*
X478048Y364989D01*
X478115Y365031D01*
X478184Y365069D01*
X478255Y365105D01*
X478328Y365136D01*
X478402Y365164D01*
X478477Y365189D01*
X478553Y365209D01*
X478630Y365227D01*
X478708Y365240D01*
X478787Y365249D01*
X478866Y365255D01*
X478945Y365257D01*
X479764Y365257D01*
X479764Y361983D01*
X482219Y368716D02*
X476081Y368716D01*
X476012Y368718D01*
X475944Y368724D01*
X475875Y368733D01*
X475808Y368747D01*
X475741Y368764D01*
X475675Y368785D01*
X475611Y368809D01*
X475548Y368838D01*
X475487Y368869D01*
X475428Y368904D01*
X475370Y368942D01*
X475315Y368984D01*
X475263Y369028D01*
X475213Y369076D01*
X475165Y369126D01*
X475121Y369178D01*
X475080Y369233D01*
X475041Y369291D01*
X475006Y369350D01*
X474975Y369411D01*
X474946Y369474D01*
X474922Y369538D01*
X474901Y369604D01*
X474884Y369671D01*
X474870Y369738D01*
X474861Y369806D01*
X474855Y369875D01*
X474853Y369944D01*
X474853Y370353D01*
X477308Y370353D02*
X477308Y367898D01*
X477308Y371838D02*
X477308Y374293D01*
X474853Y372656D02*
X480991Y372656D01*
X481060Y372658D01*
X481128Y372664D01*
X481197Y372673D01*
X481264Y372687D01*
X481331Y372704D01*
X481397Y372725D01*
X481461Y372749D01*
X481524Y372778D01*
X481585Y372809D01*
X481644Y372844D01*
X481702Y372882D01*
X481757Y372924D01*
X481809Y372968D01*
X481859Y373016D01*
X481907Y373066D01*
X481951Y373118D01*
X481993Y373173D01*
X482031Y373231D01*
X482066Y373290D01*
X482097Y373351D01*
X482126Y373414D01*
X482150Y373478D01*
X482171Y373544D01*
X482188Y373611D01*
X482202Y373678D01*
X482211Y373747D01*
X482217Y373815D01*
X482219Y373884D01*
X482219Y374293D01*
X561227Y33147D02*
X559181Y31510D01*
X561227Y33147D02*
X561227Y25781D01*
X559181Y25781D02*
X563273Y25781D01*
X566496Y32329D02*
X566496Y33147D01*
X570588Y33147D01*
X568542Y25781D01*
X154827Y33147D02*
X152781Y31510D01*
X154827Y33147D02*
X154827Y25781D01*
X152781Y25781D02*
X156873Y25781D01*
X180432Y33148D02*
X180517Y33146D01*
X180602Y33140D01*
X180686Y33130D01*
X180770Y33117D01*
X180854Y33099D01*
X180936Y33078D01*
X181017Y33053D01*
X181097Y33024D01*
X181176Y32991D01*
X181253Y32955D01*
X181328Y32915D01*
X181402Y32872D01*
X181473Y32826D01*
X181542Y32776D01*
X181609Y32723D01*
X181673Y32667D01*
X181734Y32608D01*
X181793Y32547D01*
X181849Y32483D01*
X181902Y32416D01*
X181952Y32347D01*
X181998Y32276D01*
X182041Y32202D01*
X182081Y32127D01*
X182117Y32050D01*
X182150Y31971D01*
X182179Y31891D01*
X182204Y31810D01*
X182225Y31728D01*
X182243Y31644D01*
X182256Y31560D01*
X182266Y31476D01*
X182272Y31391D01*
X182274Y31306D01*
X180432Y33147D02*
X180336Y33145D01*
X180240Y33139D01*
X180145Y33129D01*
X180050Y33116D01*
X179955Y33098D01*
X179862Y33077D01*
X179769Y33052D01*
X179678Y33023D01*
X179587Y32991D01*
X179498Y32955D01*
X179411Y32915D01*
X179325Y32872D01*
X179241Y32826D01*
X179159Y32776D01*
X179079Y32722D01*
X179002Y32666D01*
X178927Y32606D01*
X178854Y32544D01*
X178784Y32478D01*
X178716Y32410D01*
X178651Y32339D01*
X178590Y32266D01*
X178531Y32190D01*
X178475Y32111D01*
X178423Y32031D01*
X178374Y31948D01*
X178328Y31864D01*
X178286Y31778D01*
X178248Y31690D01*
X178213Y31601D01*
X178181Y31510D01*
X181659Y29874D02*
X181719Y29933D01*
X181776Y29995D01*
X181831Y30059D01*
X181882Y30126D01*
X181931Y30195D01*
X181977Y30265D01*
X182020Y30338D01*
X182060Y30412D01*
X182096Y30488D01*
X182129Y30566D01*
X182159Y30645D01*
X182186Y30725D01*
X182209Y30806D01*
X182228Y30888D01*
X182244Y30970D01*
X182257Y31054D01*
X182266Y31138D01*
X182271Y31222D01*
X182273Y31306D01*
X181659Y29873D02*
X178181Y25781D01*
X182273Y25781D01*
X203581Y25781D02*
X205627Y25781D01*
X205716Y25783D01*
X205805Y25789D01*
X205894Y25799D01*
X205982Y25812D01*
X206070Y25829D01*
X206157Y25851D01*
X206242Y25876D01*
X206327Y25904D01*
X206410Y25937D01*
X206492Y25973D01*
X206572Y26012D01*
X206650Y26055D01*
X206726Y26101D01*
X206801Y26151D01*
X206873Y26204D01*
X206942Y26260D01*
X207009Y26319D01*
X207074Y26380D01*
X207135Y26445D01*
X207194Y26512D01*
X207250Y26581D01*
X207303Y26653D01*
X207353Y26728D01*
X207399Y26804D01*
X207442Y26882D01*
X207481Y26962D01*
X207517Y27044D01*
X207550Y27127D01*
X207578Y27212D01*
X207603Y27297D01*
X207625Y27384D01*
X207642Y27472D01*
X207655Y27560D01*
X207665Y27649D01*
X207671Y27738D01*
X207673Y27827D01*
X207671Y27916D01*
X207665Y28005D01*
X207655Y28094D01*
X207642Y28182D01*
X207625Y28270D01*
X207603Y28357D01*
X207578Y28442D01*
X207550Y28527D01*
X207517Y28610D01*
X207481Y28692D01*
X207442Y28772D01*
X207399Y28850D01*
X207353Y28926D01*
X207303Y29001D01*
X207250Y29073D01*
X207194Y29142D01*
X207135Y29209D01*
X207074Y29274D01*
X207009Y29335D01*
X206942Y29394D01*
X206873Y29450D01*
X206801Y29503D01*
X206726Y29553D01*
X206650Y29599D01*
X206572Y29642D01*
X206492Y29681D01*
X206410Y29717D01*
X206327Y29750D01*
X206242Y29778D01*
X206157Y29803D01*
X206070Y29825D01*
X205982Y29842D01*
X205894Y29855D01*
X205805Y29865D01*
X205716Y29871D01*
X205627Y29873D01*
X206036Y33147D02*
X203581Y33147D01*
X206036Y33147D02*
X206115Y33145D01*
X206194Y33139D01*
X206273Y33130D01*
X206351Y33117D01*
X206428Y33099D01*
X206504Y33079D01*
X206579Y33054D01*
X206653Y33026D01*
X206726Y32995D01*
X206797Y32959D01*
X206866Y32921D01*
X206933Y32879D01*
X206998Y32834D01*
X207061Y32786D01*
X207122Y32735D01*
X207179Y32681D01*
X207235Y32625D01*
X207287Y32566D01*
X207337Y32504D01*
X207383Y32440D01*
X207427Y32374D01*
X207467Y32306D01*
X207503Y32236D01*
X207537Y32164D01*
X207567Y32090D01*
X207593Y32016D01*
X207616Y31940D01*
X207634Y31863D01*
X207650Y31786D01*
X207661Y31707D01*
X207669Y31629D01*
X207673Y31550D01*
X207673Y31470D01*
X207669Y31391D01*
X207661Y31313D01*
X207650Y31234D01*
X207634Y31157D01*
X207616Y31080D01*
X207593Y31004D01*
X207567Y30930D01*
X207537Y30856D01*
X207503Y30784D01*
X207467Y30714D01*
X207427Y30646D01*
X207383Y30580D01*
X207337Y30516D01*
X207287Y30454D01*
X207235Y30395D01*
X207179Y30339D01*
X207122Y30285D01*
X207061Y30234D01*
X206998Y30186D01*
X206933Y30141D01*
X206866Y30099D01*
X206797Y30061D01*
X206726Y30025D01*
X206653Y29994D01*
X206579Y29966D01*
X206504Y29941D01*
X206428Y29921D01*
X206351Y29903D01*
X206273Y29890D01*
X206194Y29881D01*
X206115Y29875D01*
X206036Y29873D01*
X204399Y29873D01*
X228981Y27418D02*
X230618Y33147D01*
X228981Y27418D02*
X233073Y27418D01*
X231846Y29055D02*
X231846Y25781D01*
X254381Y25781D02*
X256836Y25781D01*
X256914Y25783D01*
X256992Y25788D01*
X257069Y25798D01*
X257146Y25811D01*
X257222Y25827D01*
X257297Y25847D01*
X257371Y25871D01*
X257444Y25898D01*
X257516Y25929D01*
X257586Y25963D01*
X257655Y26000D01*
X257721Y26041D01*
X257786Y26085D01*
X257848Y26131D01*
X257908Y26181D01*
X257966Y26233D01*
X258021Y26288D01*
X258073Y26346D01*
X258123Y26406D01*
X258169Y26468D01*
X258213Y26533D01*
X258254Y26600D01*
X258291Y26668D01*
X258325Y26738D01*
X258356Y26810D01*
X258383Y26883D01*
X258407Y26957D01*
X258427Y27032D01*
X258443Y27108D01*
X258456Y27185D01*
X258466Y27262D01*
X258471Y27340D01*
X258473Y27418D01*
X258473Y28236D01*
X258471Y28314D01*
X258466Y28392D01*
X258456Y28469D01*
X258443Y28546D01*
X258427Y28622D01*
X258407Y28697D01*
X258383Y28771D01*
X258356Y28844D01*
X258325Y28916D01*
X258291Y28986D01*
X258254Y29055D01*
X258213Y29121D01*
X258169Y29186D01*
X258123Y29248D01*
X258073Y29308D01*
X258021Y29366D01*
X257966Y29421D01*
X257908Y29473D01*
X257848Y29523D01*
X257786Y29569D01*
X257721Y29613D01*
X257655Y29654D01*
X257586Y29691D01*
X257516Y29725D01*
X257444Y29756D01*
X257371Y29783D01*
X257297Y29807D01*
X257222Y29827D01*
X257146Y29843D01*
X257069Y29856D01*
X256992Y29866D01*
X256914Y29871D01*
X256836Y29873D01*
X254381Y29873D01*
X254381Y33147D01*
X258473Y33147D01*
X279781Y29873D02*
X282236Y29873D01*
X282314Y29871D01*
X282392Y29866D01*
X282469Y29856D01*
X282546Y29843D01*
X282622Y29827D01*
X282697Y29807D01*
X282771Y29783D01*
X282844Y29756D01*
X282916Y29725D01*
X282986Y29691D01*
X283055Y29654D01*
X283121Y29613D01*
X283186Y29569D01*
X283248Y29523D01*
X283308Y29473D01*
X283366Y29421D01*
X283421Y29366D01*
X283473Y29308D01*
X283523Y29248D01*
X283569Y29186D01*
X283613Y29121D01*
X283654Y29055D01*
X283691Y28986D01*
X283725Y28916D01*
X283756Y28844D01*
X283783Y28771D01*
X283807Y28697D01*
X283827Y28622D01*
X283843Y28546D01*
X283856Y28469D01*
X283866Y28392D01*
X283871Y28314D01*
X283873Y28236D01*
X283873Y27827D01*
X283871Y27738D01*
X283865Y27649D01*
X283855Y27560D01*
X283842Y27472D01*
X283825Y27384D01*
X283803Y27297D01*
X283778Y27212D01*
X283750Y27127D01*
X283717Y27044D01*
X283681Y26962D01*
X283642Y26882D01*
X283599Y26804D01*
X283553Y26728D01*
X283503Y26653D01*
X283450Y26581D01*
X283394Y26512D01*
X283335Y26445D01*
X283274Y26380D01*
X283209Y26319D01*
X283142Y26260D01*
X283073Y26204D01*
X283001Y26151D01*
X282926Y26101D01*
X282850Y26055D01*
X282772Y26012D01*
X282692Y25973D01*
X282610Y25937D01*
X282527Y25904D01*
X282442Y25876D01*
X282357Y25851D01*
X282270Y25829D01*
X282182Y25812D01*
X282094Y25799D01*
X282005Y25789D01*
X281916Y25783D01*
X281827Y25781D01*
X281738Y25783D01*
X281649Y25789D01*
X281560Y25799D01*
X281472Y25812D01*
X281384Y25829D01*
X281297Y25851D01*
X281212Y25876D01*
X281127Y25904D01*
X281044Y25937D01*
X280962Y25973D01*
X280882Y26012D01*
X280804Y26055D01*
X280728Y26101D01*
X280653Y26151D01*
X280581Y26204D01*
X280512Y26260D01*
X280445Y26319D01*
X280380Y26380D01*
X280319Y26445D01*
X280260Y26512D01*
X280204Y26581D01*
X280151Y26653D01*
X280101Y26728D01*
X280055Y26804D01*
X280012Y26882D01*
X279973Y26962D01*
X279937Y27044D01*
X279904Y27127D01*
X279876Y27212D01*
X279851Y27297D01*
X279829Y27384D01*
X279812Y27472D01*
X279799Y27560D01*
X279789Y27649D01*
X279783Y27738D01*
X279781Y27827D01*
X279781Y29873D01*
X279783Y29987D01*
X279789Y30101D01*
X279799Y30215D01*
X279813Y30329D01*
X279831Y30442D01*
X279853Y30554D01*
X279878Y30665D01*
X279908Y30775D01*
X279941Y30885D01*
X279978Y30993D01*
X280019Y31099D01*
X280064Y31205D01*
X280112Y31308D01*
X280164Y31410D01*
X280220Y31510D01*
X280278Y31608D01*
X280341Y31704D01*
X280406Y31797D01*
X280475Y31889D01*
X280547Y31977D01*
X280622Y32064D01*
X280700Y32147D01*
X280781Y32228D01*
X280864Y32306D01*
X280951Y32381D01*
X281039Y32453D01*
X281131Y32522D01*
X281224Y32587D01*
X281320Y32649D01*
X281418Y32708D01*
X281518Y32764D01*
X281620Y32816D01*
X281723Y32864D01*
X281829Y32909D01*
X281935Y32950D01*
X282043Y32987D01*
X282153Y33020D01*
X282263Y33050D01*
X282374Y33075D01*
X282486Y33097D01*
X282599Y33115D01*
X282713Y33129D01*
X282827Y33139D01*
X282941Y33145D01*
X283055Y33147D01*
X305181Y33147D02*
X305181Y32329D01*
X305181Y33147D02*
X309273Y33147D01*
X307227Y25781D01*
X330581Y27827D02*
X330583Y27916D01*
X330589Y28005D01*
X330599Y28094D01*
X330612Y28182D01*
X330629Y28270D01*
X330651Y28357D01*
X330676Y28442D01*
X330704Y28527D01*
X330737Y28610D01*
X330773Y28692D01*
X330812Y28772D01*
X330855Y28850D01*
X330901Y28926D01*
X330951Y29001D01*
X331004Y29073D01*
X331060Y29142D01*
X331119Y29209D01*
X331180Y29274D01*
X331245Y29335D01*
X331312Y29394D01*
X331381Y29450D01*
X331453Y29503D01*
X331528Y29553D01*
X331604Y29599D01*
X331682Y29642D01*
X331762Y29681D01*
X331844Y29717D01*
X331927Y29750D01*
X332012Y29778D01*
X332097Y29803D01*
X332184Y29825D01*
X332272Y29842D01*
X332360Y29855D01*
X332449Y29865D01*
X332538Y29871D01*
X332627Y29873D01*
X332716Y29871D01*
X332805Y29865D01*
X332894Y29855D01*
X332982Y29842D01*
X333070Y29825D01*
X333157Y29803D01*
X333242Y29778D01*
X333327Y29750D01*
X333410Y29717D01*
X333492Y29681D01*
X333572Y29642D01*
X333650Y29599D01*
X333726Y29553D01*
X333801Y29503D01*
X333873Y29450D01*
X333942Y29394D01*
X334009Y29335D01*
X334074Y29274D01*
X334135Y29209D01*
X334194Y29142D01*
X334250Y29073D01*
X334303Y29001D01*
X334353Y28926D01*
X334399Y28850D01*
X334442Y28772D01*
X334481Y28692D01*
X334517Y28610D01*
X334550Y28527D01*
X334578Y28442D01*
X334603Y28357D01*
X334625Y28270D01*
X334642Y28182D01*
X334655Y28094D01*
X334665Y28005D01*
X334671Y27916D01*
X334673Y27827D01*
X334671Y27738D01*
X334665Y27649D01*
X334655Y27560D01*
X334642Y27472D01*
X334625Y27384D01*
X334603Y27297D01*
X334578Y27212D01*
X334550Y27127D01*
X334517Y27044D01*
X334481Y26962D01*
X334442Y26882D01*
X334399Y26804D01*
X334353Y26728D01*
X334303Y26653D01*
X334250Y26581D01*
X334194Y26512D01*
X334135Y26445D01*
X334074Y26380D01*
X334009Y26319D01*
X333942Y26260D01*
X333873Y26204D01*
X333801Y26151D01*
X333726Y26101D01*
X333650Y26055D01*
X333572Y26012D01*
X333492Y25973D01*
X333410Y25937D01*
X333327Y25904D01*
X333242Y25876D01*
X333157Y25851D01*
X333070Y25829D01*
X332982Y25812D01*
X332894Y25799D01*
X332805Y25789D01*
X332716Y25783D01*
X332627Y25781D01*
X332538Y25783D01*
X332449Y25789D01*
X332360Y25799D01*
X332272Y25812D01*
X332184Y25829D01*
X332097Y25851D01*
X332012Y25876D01*
X331927Y25904D01*
X331844Y25937D01*
X331762Y25973D01*
X331682Y26012D01*
X331604Y26055D01*
X331528Y26101D01*
X331453Y26151D01*
X331381Y26204D01*
X331312Y26260D01*
X331245Y26319D01*
X331180Y26380D01*
X331119Y26445D01*
X331060Y26512D01*
X331004Y26581D01*
X330951Y26653D01*
X330901Y26728D01*
X330855Y26804D01*
X330812Y26882D01*
X330773Y26962D01*
X330737Y27044D01*
X330704Y27127D01*
X330676Y27212D01*
X330651Y27297D01*
X330629Y27384D01*
X330612Y27472D01*
X330599Y27560D01*
X330589Y27649D01*
X330583Y27738D01*
X330581Y27827D01*
X330990Y31510D02*
X330992Y31589D01*
X330998Y31668D01*
X331007Y31747D01*
X331020Y31825D01*
X331038Y31902D01*
X331058Y31978D01*
X331083Y32053D01*
X331111Y32127D01*
X331142Y32200D01*
X331178Y32271D01*
X331216Y32340D01*
X331258Y32407D01*
X331303Y32472D01*
X331351Y32535D01*
X331402Y32596D01*
X331456Y32653D01*
X331512Y32709D01*
X331571Y32761D01*
X331633Y32811D01*
X331697Y32857D01*
X331763Y32901D01*
X331831Y32941D01*
X331901Y32977D01*
X331973Y33011D01*
X332047Y33041D01*
X332121Y33067D01*
X332197Y33090D01*
X332274Y33108D01*
X332351Y33124D01*
X332430Y33135D01*
X332508Y33143D01*
X332587Y33147D01*
X332667Y33147D01*
X332746Y33143D01*
X332824Y33135D01*
X332903Y33124D01*
X332980Y33108D01*
X333057Y33090D01*
X333133Y33067D01*
X333207Y33041D01*
X333281Y33011D01*
X333353Y32977D01*
X333423Y32941D01*
X333491Y32901D01*
X333557Y32857D01*
X333621Y32811D01*
X333683Y32761D01*
X333742Y32709D01*
X333798Y32653D01*
X333852Y32596D01*
X333903Y32535D01*
X333951Y32472D01*
X333996Y32407D01*
X334038Y32340D01*
X334076Y32271D01*
X334112Y32200D01*
X334143Y32127D01*
X334171Y32053D01*
X334196Y31978D01*
X334216Y31902D01*
X334234Y31825D01*
X334247Y31747D01*
X334256Y31668D01*
X334262Y31589D01*
X334264Y31510D01*
X334262Y31431D01*
X334256Y31352D01*
X334247Y31273D01*
X334234Y31195D01*
X334216Y31118D01*
X334196Y31042D01*
X334171Y30967D01*
X334143Y30893D01*
X334112Y30820D01*
X334076Y30749D01*
X334038Y30680D01*
X333996Y30613D01*
X333951Y30548D01*
X333903Y30485D01*
X333852Y30424D01*
X333798Y30367D01*
X333742Y30311D01*
X333683Y30259D01*
X333621Y30209D01*
X333557Y30163D01*
X333491Y30119D01*
X333423Y30079D01*
X333353Y30043D01*
X333281Y30009D01*
X333207Y29979D01*
X333133Y29953D01*
X333057Y29930D01*
X332980Y29912D01*
X332903Y29896D01*
X332824Y29885D01*
X332746Y29877D01*
X332667Y29873D01*
X332587Y29873D01*
X332508Y29877D01*
X332430Y29885D01*
X332351Y29896D01*
X332274Y29912D01*
X332197Y29930D01*
X332121Y29953D01*
X332047Y29979D01*
X331973Y30009D01*
X331901Y30043D01*
X331831Y30079D01*
X331763Y30119D01*
X331697Y30163D01*
X331633Y30209D01*
X331571Y30259D01*
X331512Y30311D01*
X331456Y30367D01*
X331402Y30424D01*
X331351Y30485D01*
X331303Y30548D01*
X331258Y30613D01*
X331216Y30680D01*
X331178Y30749D01*
X331142Y30820D01*
X331111Y30893D01*
X331083Y30967D01*
X331058Y31042D01*
X331038Y31118D01*
X331020Y31195D01*
X331007Y31273D01*
X330998Y31352D01*
X330992Y31431D01*
X330990Y31510D01*
X357618Y29055D02*
X360073Y29055D01*
X357618Y29055D02*
X357540Y29057D01*
X357462Y29062D01*
X357385Y29072D01*
X357308Y29085D01*
X357232Y29101D01*
X357157Y29121D01*
X357083Y29145D01*
X357010Y29172D01*
X356938Y29203D01*
X356868Y29237D01*
X356799Y29274D01*
X356733Y29315D01*
X356668Y29359D01*
X356606Y29405D01*
X356546Y29455D01*
X356488Y29507D01*
X356433Y29562D01*
X356381Y29620D01*
X356331Y29680D01*
X356285Y29742D01*
X356241Y29807D01*
X356200Y29874D01*
X356163Y29942D01*
X356129Y30012D01*
X356098Y30084D01*
X356071Y30157D01*
X356047Y30231D01*
X356027Y30306D01*
X356011Y30382D01*
X355998Y30459D01*
X355988Y30536D01*
X355983Y30614D01*
X355981Y30692D01*
X355981Y31101D01*
X355983Y31190D01*
X355989Y31279D01*
X355999Y31368D01*
X356012Y31456D01*
X356029Y31544D01*
X356051Y31631D01*
X356076Y31716D01*
X356104Y31801D01*
X356137Y31884D01*
X356173Y31966D01*
X356212Y32046D01*
X356255Y32124D01*
X356301Y32200D01*
X356351Y32275D01*
X356404Y32347D01*
X356460Y32416D01*
X356519Y32483D01*
X356580Y32548D01*
X356645Y32609D01*
X356712Y32668D01*
X356781Y32724D01*
X356853Y32777D01*
X356928Y32827D01*
X357004Y32873D01*
X357082Y32916D01*
X357162Y32955D01*
X357244Y32991D01*
X357327Y33024D01*
X357412Y33052D01*
X357497Y33077D01*
X357584Y33099D01*
X357672Y33116D01*
X357760Y33129D01*
X357849Y33139D01*
X357938Y33145D01*
X358027Y33147D01*
X358116Y33145D01*
X358205Y33139D01*
X358294Y33129D01*
X358382Y33116D01*
X358470Y33099D01*
X358557Y33077D01*
X358642Y33052D01*
X358727Y33024D01*
X358810Y32991D01*
X358892Y32955D01*
X358972Y32916D01*
X359050Y32873D01*
X359126Y32827D01*
X359201Y32777D01*
X359273Y32724D01*
X359342Y32668D01*
X359409Y32609D01*
X359474Y32548D01*
X359535Y32483D01*
X359594Y32416D01*
X359650Y32347D01*
X359703Y32275D01*
X359753Y32200D01*
X359799Y32124D01*
X359842Y32046D01*
X359881Y31966D01*
X359917Y31884D01*
X359950Y31801D01*
X359978Y31716D01*
X360003Y31631D01*
X360025Y31544D01*
X360042Y31456D01*
X360055Y31368D01*
X360065Y31279D01*
X360071Y31190D01*
X360073Y31101D01*
X360073Y29055D01*
X360071Y28943D01*
X360065Y28832D01*
X360056Y28720D01*
X360043Y28609D01*
X360025Y28499D01*
X360005Y28389D01*
X359980Y28280D01*
X359952Y28172D01*
X359920Y28065D01*
X359884Y27959D01*
X359845Y27854D01*
X359802Y27751D01*
X359756Y27649D01*
X359706Y27549D01*
X359653Y27450D01*
X359596Y27354D01*
X359537Y27259D01*
X359474Y27167D01*
X359408Y27077D01*
X359339Y26989D01*
X359267Y26903D01*
X359192Y26820D01*
X359114Y26740D01*
X359034Y26662D01*
X358951Y26587D01*
X358865Y26515D01*
X358777Y26446D01*
X358687Y26380D01*
X358595Y26317D01*
X358500Y26258D01*
X358404Y26201D01*
X358305Y26148D01*
X358205Y26098D01*
X358103Y26052D01*
X358000Y26009D01*
X357895Y25970D01*
X357789Y25934D01*
X357682Y25902D01*
X357574Y25874D01*
X357465Y25849D01*
X357355Y25829D01*
X357245Y25811D01*
X357134Y25798D01*
X357022Y25789D01*
X356911Y25783D01*
X356799Y25781D01*
X381381Y31510D02*
X383427Y33147D01*
X383427Y25781D01*
X381381Y25781D02*
X385473Y25781D01*
X388697Y29464D02*
X388699Y29617D01*
X388705Y29770D01*
X388714Y29922D01*
X388728Y30075D01*
X388745Y30227D01*
X388766Y30378D01*
X388791Y30529D01*
X388820Y30679D01*
X388852Y30829D01*
X388889Y30977D01*
X388929Y31125D01*
X388972Y31272D01*
X389020Y31417D01*
X389071Y31561D01*
X389125Y31704D01*
X389184Y31846D01*
X389245Y31985D01*
X389311Y32124D01*
X389310Y32124D02*
X389336Y32194D01*
X389366Y32264D01*
X389399Y32331D01*
X389435Y32397D01*
X389474Y32461D01*
X389517Y32523D01*
X389563Y32582D01*
X389611Y32640D01*
X389662Y32694D01*
X389716Y32747D01*
X389773Y32796D01*
X389832Y32843D01*
X389893Y32886D01*
X389956Y32927D01*
X390021Y32964D01*
X390088Y32999D01*
X390157Y33029D01*
X390227Y33057D01*
X390298Y33080D01*
X390370Y33101D01*
X390443Y33117D01*
X390517Y33130D01*
X390592Y33140D01*
X390667Y33145D01*
X390742Y33147D01*
X390817Y33145D01*
X390892Y33140D01*
X390967Y33130D01*
X391041Y33117D01*
X391114Y33101D01*
X391186Y33080D01*
X391257Y33057D01*
X391327Y33029D01*
X391396Y32999D01*
X391463Y32964D01*
X391528Y32927D01*
X391591Y32886D01*
X391652Y32843D01*
X391711Y32796D01*
X391768Y32747D01*
X391822Y32694D01*
X391873Y32640D01*
X391922Y32582D01*
X391967Y32523D01*
X392010Y32461D01*
X392049Y32397D01*
X392086Y32331D01*
X392118Y32263D01*
X392148Y32194D01*
X392174Y32124D01*
X392239Y31986D01*
X392301Y31846D01*
X392359Y31704D01*
X392414Y31561D01*
X392465Y31417D01*
X392513Y31272D01*
X392556Y31125D01*
X392596Y30978D01*
X392633Y30829D01*
X392665Y30679D01*
X392694Y30529D01*
X392719Y30378D01*
X392740Y30227D01*
X392757Y30075D01*
X392771Y29922D01*
X392780Y29770D01*
X392786Y29617D01*
X392788Y29464D01*
X388696Y29464D02*
X388698Y29311D01*
X388704Y29158D01*
X388713Y29005D01*
X388727Y28853D01*
X388744Y28701D01*
X388765Y28550D01*
X388790Y28399D01*
X388819Y28248D01*
X388851Y28099D01*
X388888Y27950D01*
X388928Y27803D01*
X388971Y27656D01*
X389019Y27511D01*
X389070Y27366D01*
X389125Y27224D01*
X389183Y27082D01*
X389245Y26942D01*
X389310Y26804D01*
X389336Y26733D01*
X389366Y26664D01*
X389399Y26597D01*
X389435Y26531D01*
X389474Y26467D01*
X389517Y26405D01*
X389563Y26346D01*
X389611Y26288D01*
X389662Y26234D01*
X389716Y26181D01*
X389773Y26132D01*
X389832Y26085D01*
X389893Y26042D01*
X389956Y26001D01*
X390021Y25964D01*
X390088Y25929D01*
X390157Y25899D01*
X390227Y25871D01*
X390298Y25848D01*
X390370Y25827D01*
X390443Y25811D01*
X390517Y25798D01*
X390592Y25788D01*
X390667Y25783D01*
X390742Y25781D01*
X392174Y26804D02*
X392239Y26942D01*
X392301Y27082D01*
X392359Y27224D01*
X392414Y27367D01*
X392465Y27511D01*
X392513Y27656D01*
X392556Y27803D01*
X392596Y27951D01*
X392633Y28099D01*
X392665Y28249D01*
X392694Y28399D01*
X392719Y28550D01*
X392740Y28701D01*
X392757Y28853D01*
X392771Y29006D01*
X392780Y29158D01*
X392786Y29311D01*
X392788Y29464D01*
X392174Y26804D02*
X392148Y26734D01*
X392118Y26664D01*
X392086Y26597D01*
X392049Y26531D01*
X392010Y26467D01*
X391967Y26405D01*
X391921Y26346D01*
X391873Y26288D01*
X391822Y26234D01*
X391768Y26181D01*
X391711Y26132D01*
X391652Y26085D01*
X391591Y26042D01*
X391528Y26001D01*
X391463Y25964D01*
X391396Y25929D01*
X391327Y25899D01*
X391257Y25871D01*
X391186Y25848D01*
X391114Y25827D01*
X391041Y25811D01*
X390967Y25798D01*
X390892Y25788D01*
X390817Y25783D01*
X390742Y25781D01*
X389105Y27418D02*
X392379Y31510D01*
X406781Y31510D02*
X408827Y33147D01*
X408827Y25781D01*
X406781Y25781D02*
X410873Y25781D01*
X414096Y31510D02*
X416142Y33147D01*
X416142Y25781D01*
X414096Y25781D02*
X418188Y25781D01*
X432181Y31510D02*
X434227Y33147D01*
X434227Y25781D01*
X432181Y25781D02*
X436273Y25781D01*
X443589Y31306D02*
X443587Y31391D01*
X443581Y31476D01*
X443571Y31560D01*
X443558Y31644D01*
X443540Y31728D01*
X443519Y31810D01*
X443494Y31891D01*
X443465Y31971D01*
X443432Y32050D01*
X443396Y32127D01*
X443356Y32202D01*
X443313Y32276D01*
X443267Y32347D01*
X443217Y32416D01*
X443164Y32483D01*
X443108Y32547D01*
X443049Y32608D01*
X442988Y32667D01*
X442924Y32723D01*
X442857Y32776D01*
X442788Y32826D01*
X442717Y32872D01*
X442643Y32915D01*
X442568Y32955D01*
X442491Y32991D01*
X442412Y33024D01*
X442332Y33053D01*
X442251Y33078D01*
X442169Y33099D01*
X442085Y33117D01*
X442001Y33130D01*
X441917Y33140D01*
X441832Y33146D01*
X441747Y33148D01*
X441747Y33147D02*
X441651Y33145D01*
X441555Y33139D01*
X441460Y33129D01*
X441365Y33116D01*
X441270Y33098D01*
X441177Y33077D01*
X441084Y33052D01*
X440993Y33023D01*
X440902Y32991D01*
X440813Y32955D01*
X440726Y32915D01*
X440640Y32872D01*
X440556Y32826D01*
X440474Y32776D01*
X440394Y32722D01*
X440317Y32666D01*
X440242Y32606D01*
X440169Y32544D01*
X440099Y32478D01*
X440031Y32410D01*
X439966Y32339D01*
X439905Y32266D01*
X439846Y32190D01*
X439790Y32111D01*
X439738Y32031D01*
X439689Y31948D01*
X439643Y31864D01*
X439601Y31778D01*
X439563Y31690D01*
X439528Y31601D01*
X439496Y31510D01*
X442975Y29874D02*
X443035Y29933D01*
X443092Y29995D01*
X443147Y30059D01*
X443198Y30126D01*
X443247Y30195D01*
X443293Y30265D01*
X443336Y30338D01*
X443376Y30412D01*
X443412Y30488D01*
X443445Y30566D01*
X443475Y30645D01*
X443502Y30725D01*
X443525Y30806D01*
X443544Y30888D01*
X443560Y30970D01*
X443573Y31054D01*
X443582Y31138D01*
X443587Y31222D01*
X443589Y31306D01*
X442975Y29873D02*
X439496Y25781D01*
X443588Y25781D01*
X457581Y31510D02*
X459627Y33147D01*
X459627Y25781D01*
X457581Y25781D02*
X461673Y25781D01*
X464896Y25781D02*
X466942Y25781D01*
X467031Y25783D01*
X467120Y25789D01*
X467209Y25799D01*
X467297Y25812D01*
X467385Y25829D01*
X467472Y25851D01*
X467557Y25876D01*
X467642Y25904D01*
X467725Y25937D01*
X467807Y25973D01*
X467887Y26012D01*
X467965Y26055D01*
X468041Y26101D01*
X468116Y26151D01*
X468188Y26204D01*
X468257Y26260D01*
X468324Y26319D01*
X468389Y26380D01*
X468450Y26445D01*
X468509Y26512D01*
X468565Y26581D01*
X468618Y26653D01*
X468668Y26728D01*
X468714Y26804D01*
X468757Y26882D01*
X468796Y26962D01*
X468832Y27044D01*
X468865Y27127D01*
X468893Y27212D01*
X468918Y27297D01*
X468940Y27384D01*
X468957Y27472D01*
X468970Y27560D01*
X468980Y27649D01*
X468986Y27738D01*
X468988Y27827D01*
X468986Y27916D01*
X468980Y28005D01*
X468970Y28094D01*
X468957Y28182D01*
X468940Y28270D01*
X468918Y28357D01*
X468893Y28442D01*
X468865Y28527D01*
X468832Y28610D01*
X468796Y28692D01*
X468757Y28772D01*
X468714Y28850D01*
X468668Y28926D01*
X468618Y29001D01*
X468565Y29073D01*
X468509Y29142D01*
X468450Y29209D01*
X468389Y29274D01*
X468324Y29335D01*
X468257Y29394D01*
X468188Y29450D01*
X468116Y29503D01*
X468041Y29553D01*
X467965Y29599D01*
X467887Y29642D01*
X467807Y29681D01*
X467725Y29717D01*
X467642Y29750D01*
X467557Y29778D01*
X467472Y29803D01*
X467385Y29825D01*
X467297Y29842D01*
X467209Y29855D01*
X467120Y29865D01*
X467031Y29871D01*
X466942Y29873D01*
X467352Y33147D02*
X464896Y33147D01*
X467352Y33147D02*
X467431Y33145D01*
X467510Y33139D01*
X467589Y33130D01*
X467667Y33117D01*
X467744Y33099D01*
X467820Y33079D01*
X467895Y33054D01*
X467969Y33026D01*
X468042Y32995D01*
X468113Y32959D01*
X468182Y32921D01*
X468249Y32879D01*
X468314Y32834D01*
X468377Y32786D01*
X468438Y32735D01*
X468495Y32681D01*
X468551Y32625D01*
X468603Y32566D01*
X468653Y32504D01*
X468699Y32440D01*
X468743Y32374D01*
X468783Y32306D01*
X468819Y32236D01*
X468853Y32164D01*
X468883Y32090D01*
X468909Y32016D01*
X468932Y31940D01*
X468950Y31863D01*
X468966Y31786D01*
X468977Y31707D01*
X468985Y31629D01*
X468989Y31550D01*
X468989Y31470D01*
X468985Y31391D01*
X468977Y31313D01*
X468966Y31234D01*
X468950Y31157D01*
X468932Y31080D01*
X468909Y31004D01*
X468883Y30930D01*
X468853Y30856D01*
X468819Y30784D01*
X468783Y30714D01*
X468743Y30646D01*
X468699Y30580D01*
X468653Y30516D01*
X468603Y30454D01*
X468551Y30395D01*
X468495Y30339D01*
X468438Y30285D01*
X468377Y30234D01*
X468314Y30186D01*
X468249Y30141D01*
X468182Y30099D01*
X468113Y30061D01*
X468042Y30025D01*
X467969Y29994D01*
X467895Y29966D01*
X467820Y29941D01*
X467744Y29921D01*
X467667Y29903D01*
X467589Y29890D01*
X467510Y29881D01*
X467431Y29875D01*
X467352Y29873D01*
X465715Y29873D01*
X482981Y31510D02*
X485027Y33147D01*
X485027Y25781D01*
X482981Y25781D02*
X487073Y25781D01*
X490296Y27418D02*
X491933Y33147D01*
X490296Y27418D02*
X494388Y27418D01*
X493161Y29055D02*
X493161Y25781D01*
X508381Y31510D02*
X510427Y33147D01*
X510427Y25781D01*
X508381Y25781D02*
X512473Y25781D01*
X515696Y25781D02*
X518152Y25781D01*
X518230Y25783D01*
X518308Y25788D01*
X518385Y25798D01*
X518462Y25811D01*
X518538Y25827D01*
X518613Y25847D01*
X518687Y25871D01*
X518760Y25898D01*
X518832Y25929D01*
X518902Y25963D01*
X518971Y26000D01*
X519037Y26041D01*
X519102Y26085D01*
X519164Y26131D01*
X519224Y26181D01*
X519282Y26233D01*
X519337Y26288D01*
X519389Y26346D01*
X519439Y26406D01*
X519485Y26468D01*
X519529Y26533D01*
X519570Y26600D01*
X519607Y26668D01*
X519641Y26738D01*
X519672Y26810D01*
X519699Y26883D01*
X519723Y26957D01*
X519743Y27032D01*
X519759Y27108D01*
X519772Y27185D01*
X519782Y27262D01*
X519787Y27340D01*
X519789Y27418D01*
X519788Y27418D02*
X519788Y28236D01*
X519789Y28236D02*
X519787Y28314D01*
X519782Y28392D01*
X519772Y28469D01*
X519759Y28546D01*
X519743Y28622D01*
X519723Y28697D01*
X519699Y28771D01*
X519672Y28844D01*
X519641Y28916D01*
X519607Y28986D01*
X519570Y29055D01*
X519529Y29121D01*
X519485Y29186D01*
X519439Y29248D01*
X519389Y29308D01*
X519337Y29366D01*
X519282Y29421D01*
X519224Y29473D01*
X519164Y29523D01*
X519102Y29569D01*
X519037Y29613D01*
X518971Y29654D01*
X518902Y29691D01*
X518832Y29725D01*
X518760Y29756D01*
X518687Y29783D01*
X518613Y29807D01*
X518538Y29827D01*
X518462Y29843D01*
X518385Y29856D01*
X518308Y29866D01*
X518230Y29871D01*
X518152Y29873D01*
X515696Y29873D01*
X515696Y33147D01*
X519788Y33147D01*
X533781Y31510D02*
X535827Y33147D01*
X535827Y25781D01*
X533781Y25781D02*
X537873Y25781D01*
X541096Y29873D02*
X543552Y29873D01*
X543630Y29871D01*
X543708Y29866D01*
X543785Y29856D01*
X543862Y29843D01*
X543938Y29827D01*
X544013Y29807D01*
X544087Y29783D01*
X544160Y29756D01*
X544232Y29725D01*
X544302Y29691D01*
X544371Y29654D01*
X544437Y29613D01*
X544502Y29569D01*
X544564Y29523D01*
X544624Y29473D01*
X544682Y29421D01*
X544737Y29366D01*
X544789Y29308D01*
X544839Y29248D01*
X544885Y29186D01*
X544929Y29121D01*
X544970Y29055D01*
X545007Y28986D01*
X545041Y28916D01*
X545072Y28844D01*
X545099Y28771D01*
X545123Y28697D01*
X545143Y28622D01*
X545159Y28546D01*
X545172Y28469D01*
X545182Y28392D01*
X545187Y28314D01*
X545189Y28236D01*
X545188Y28236D02*
X545188Y27827D01*
X545186Y27738D01*
X545180Y27649D01*
X545170Y27560D01*
X545157Y27472D01*
X545140Y27384D01*
X545118Y27297D01*
X545093Y27212D01*
X545065Y27127D01*
X545032Y27044D01*
X544996Y26962D01*
X544957Y26882D01*
X544914Y26804D01*
X544868Y26728D01*
X544818Y26653D01*
X544765Y26581D01*
X544709Y26512D01*
X544650Y26445D01*
X544589Y26380D01*
X544524Y26319D01*
X544457Y26260D01*
X544388Y26204D01*
X544316Y26151D01*
X544241Y26101D01*
X544165Y26055D01*
X544087Y26012D01*
X544007Y25973D01*
X543925Y25937D01*
X543842Y25904D01*
X543757Y25876D01*
X543672Y25851D01*
X543585Y25829D01*
X543497Y25812D01*
X543409Y25799D01*
X543320Y25789D01*
X543231Y25783D01*
X543142Y25781D01*
X543053Y25783D01*
X542964Y25789D01*
X542875Y25799D01*
X542787Y25812D01*
X542699Y25829D01*
X542612Y25851D01*
X542527Y25876D01*
X542442Y25904D01*
X542359Y25937D01*
X542277Y25973D01*
X542197Y26012D01*
X542119Y26055D01*
X542043Y26101D01*
X541968Y26151D01*
X541896Y26204D01*
X541827Y26260D01*
X541760Y26319D01*
X541695Y26380D01*
X541634Y26445D01*
X541575Y26512D01*
X541519Y26581D01*
X541466Y26653D01*
X541416Y26728D01*
X541370Y26804D01*
X541327Y26882D01*
X541288Y26962D01*
X541252Y27044D01*
X541219Y27127D01*
X541191Y27212D01*
X541166Y27297D01*
X541144Y27384D01*
X541127Y27472D01*
X541114Y27560D01*
X541104Y27649D01*
X541098Y27738D01*
X541096Y27827D01*
X541096Y29873D01*
X541098Y29987D01*
X541104Y30101D01*
X541114Y30215D01*
X541128Y30329D01*
X541146Y30442D01*
X541168Y30554D01*
X541193Y30665D01*
X541223Y30775D01*
X541256Y30885D01*
X541293Y30993D01*
X541334Y31099D01*
X541379Y31205D01*
X541427Y31308D01*
X541479Y31410D01*
X541535Y31510D01*
X541593Y31608D01*
X541656Y31704D01*
X541721Y31797D01*
X541790Y31889D01*
X541862Y31977D01*
X541937Y32064D01*
X542015Y32147D01*
X542096Y32228D01*
X542179Y32306D01*
X542266Y32381D01*
X542354Y32453D01*
X542446Y32522D01*
X542539Y32587D01*
X542635Y32649D01*
X542733Y32708D01*
X542833Y32764D01*
X542935Y32816D01*
X543038Y32864D01*
X543144Y32909D01*
X543250Y32950D01*
X543358Y32987D01*
X543468Y33020D01*
X543578Y33050D01*
X543689Y33075D01*
X543801Y33097D01*
X543914Y33115D01*
X544028Y33129D01*
X544142Y33139D01*
X544256Y33145D01*
X544370Y33147D01*
X104027Y223647D02*
X101981Y222010D01*
X104027Y223647D02*
X104027Y216281D01*
X101981Y216281D02*
X106073Y216281D01*
X571881Y425210D02*
X573927Y426847D01*
X573927Y419481D01*
X571881Y419481D02*
X575973Y419481D01*
X573927Y223647D02*
X571881Y222010D01*
X573927Y223647D02*
X573927Y216281D01*
X571881Y216281D02*
X575973Y216281D01*
D11*
X26162Y483362D02*
X26162Y499618D01*
X30678Y499618D01*
X30811Y499616D01*
X30943Y499610D01*
X31075Y499600D01*
X31207Y499587D01*
X31339Y499569D01*
X31469Y499548D01*
X31600Y499523D01*
X31729Y499494D01*
X31857Y499461D01*
X31985Y499425D01*
X32111Y499385D01*
X32236Y499341D01*
X32360Y499293D01*
X32482Y499242D01*
X32603Y499187D01*
X32722Y499129D01*
X32840Y499067D01*
X32955Y499002D01*
X33069Y498933D01*
X33180Y498862D01*
X33289Y498786D01*
X33396Y498708D01*
X33501Y498627D01*
X33603Y498542D01*
X33703Y498455D01*
X33800Y498365D01*
X33895Y498272D01*
X33986Y498176D01*
X34075Y498078D01*
X34161Y497977D01*
X34244Y497873D01*
X34324Y497767D01*
X34400Y497659D01*
X34474Y497549D01*
X34544Y497436D01*
X34611Y497322D01*
X34674Y497205D01*
X34734Y497087D01*
X34791Y496967D01*
X34844Y496845D01*
X34893Y496722D01*
X34939Y496598D01*
X34981Y496472D01*
X35019Y496345D01*
X35054Y496217D01*
X35085Y496088D01*
X35112Y495959D01*
X35135Y495828D01*
X35155Y495697D01*
X35170Y495565D01*
X35182Y495433D01*
X35190Y495301D01*
X35194Y495168D01*
X35194Y495036D01*
X35190Y494903D01*
X35182Y494771D01*
X35170Y494639D01*
X35155Y494507D01*
X35135Y494376D01*
X35112Y494245D01*
X35085Y494116D01*
X35054Y493987D01*
X35019Y493859D01*
X34981Y493732D01*
X34939Y493606D01*
X34893Y493482D01*
X34844Y493359D01*
X34791Y493237D01*
X34734Y493117D01*
X34674Y492999D01*
X34611Y492882D01*
X34544Y492768D01*
X34474Y492655D01*
X34400Y492545D01*
X34324Y492437D01*
X34244Y492331D01*
X34161Y492227D01*
X34075Y492126D01*
X33986Y492028D01*
X33895Y491932D01*
X33800Y491839D01*
X33703Y491749D01*
X33603Y491662D01*
X33501Y491577D01*
X33396Y491496D01*
X33289Y491418D01*
X33180Y491342D01*
X33069Y491271D01*
X32955Y491202D01*
X32840Y491137D01*
X32722Y491075D01*
X32603Y491017D01*
X32482Y490962D01*
X32360Y490911D01*
X32236Y490863D01*
X32111Y490819D01*
X31985Y490779D01*
X31857Y490743D01*
X31729Y490710D01*
X31600Y490681D01*
X31469Y490656D01*
X31339Y490635D01*
X31207Y490617D01*
X31075Y490604D01*
X30943Y490594D01*
X30811Y490588D01*
X30678Y490586D01*
X30678Y490587D02*
X26162Y490587D01*
X31581Y490587D02*
X35193Y483362D01*
X45175Y483362D02*
X45175Y499618D01*
X40660Y499618D02*
X49691Y499618D01*
X55800Y499618D02*
X55800Y483362D01*
X55800Y499618D02*
X63024Y499618D01*
X63024Y492393D02*
X55800Y492393D01*
X69456Y499618D02*
X69456Y483362D01*
X74875Y490587D02*
X69456Y499618D01*
X74875Y490587D02*
X80293Y499618D01*
X80293Y483362D01*
X96503Y483362D02*
X96503Y499618D01*
X101018Y499618D01*
X101151Y499616D01*
X101283Y499610D01*
X101415Y499600D01*
X101547Y499587D01*
X101679Y499569D01*
X101809Y499548D01*
X101940Y499523D01*
X102069Y499494D01*
X102197Y499461D01*
X102325Y499425D01*
X102451Y499385D01*
X102576Y499341D01*
X102700Y499293D01*
X102822Y499242D01*
X102943Y499187D01*
X103062Y499129D01*
X103180Y499067D01*
X103295Y499002D01*
X103409Y498933D01*
X103520Y498862D01*
X103629Y498786D01*
X103736Y498708D01*
X103841Y498627D01*
X103943Y498542D01*
X104043Y498455D01*
X104140Y498365D01*
X104235Y498272D01*
X104326Y498176D01*
X104415Y498078D01*
X104501Y497977D01*
X104584Y497873D01*
X104664Y497767D01*
X104740Y497659D01*
X104814Y497549D01*
X104884Y497436D01*
X104951Y497322D01*
X105014Y497205D01*
X105074Y497087D01*
X105131Y496967D01*
X105184Y496845D01*
X105233Y496722D01*
X105279Y496598D01*
X105321Y496472D01*
X105359Y496345D01*
X105394Y496217D01*
X105425Y496088D01*
X105452Y495959D01*
X105475Y495828D01*
X105495Y495697D01*
X105510Y495565D01*
X105522Y495433D01*
X105530Y495301D01*
X105534Y495168D01*
X105534Y495036D01*
X105530Y494903D01*
X105522Y494771D01*
X105510Y494639D01*
X105495Y494507D01*
X105475Y494376D01*
X105452Y494245D01*
X105425Y494116D01*
X105394Y493987D01*
X105359Y493859D01*
X105321Y493732D01*
X105279Y493606D01*
X105233Y493482D01*
X105184Y493359D01*
X105131Y493237D01*
X105074Y493117D01*
X105014Y492999D01*
X104951Y492882D01*
X104884Y492768D01*
X104814Y492655D01*
X104740Y492545D01*
X104664Y492437D01*
X104584Y492331D01*
X104501Y492227D01*
X104415Y492126D01*
X104326Y492028D01*
X104235Y491932D01*
X104140Y491839D01*
X104043Y491749D01*
X103943Y491662D01*
X103841Y491577D01*
X103736Y491496D01*
X103629Y491418D01*
X103520Y491342D01*
X103409Y491271D01*
X103295Y491202D01*
X103180Y491137D01*
X103062Y491075D01*
X102943Y491017D01*
X102822Y490962D01*
X102700Y490911D01*
X102576Y490863D01*
X102451Y490819D01*
X102325Y490779D01*
X102197Y490743D01*
X102069Y490710D01*
X101940Y490681D01*
X101809Y490656D01*
X101679Y490635D01*
X101547Y490617D01*
X101415Y490604D01*
X101283Y490594D01*
X101151Y490588D01*
X101018Y490586D01*
X101018Y490587D02*
X96503Y490587D01*
X101921Y490587D02*
X105534Y483362D01*
X114613Y483362D02*
X119128Y483362D01*
X114613Y483362D02*
X114512Y483364D01*
X114411Y483370D01*
X114310Y483379D01*
X114209Y483392D01*
X114109Y483409D01*
X114010Y483430D01*
X113912Y483454D01*
X113815Y483482D01*
X113718Y483514D01*
X113623Y483549D01*
X113530Y483588D01*
X113438Y483630D01*
X113347Y483676D01*
X113259Y483725D01*
X113172Y483777D01*
X113087Y483833D01*
X113004Y483891D01*
X112924Y483953D01*
X112846Y484018D01*
X112770Y484085D01*
X112697Y484155D01*
X112627Y484228D01*
X112560Y484304D01*
X112495Y484382D01*
X112433Y484462D01*
X112375Y484545D01*
X112319Y484630D01*
X112267Y484717D01*
X112218Y484805D01*
X112172Y484896D01*
X112130Y484988D01*
X112091Y485081D01*
X112056Y485176D01*
X112024Y485273D01*
X111996Y485370D01*
X111972Y485468D01*
X111951Y485567D01*
X111934Y485667D01*
X111921Y485768D01*
X111912Y485869D01*
X111906Y485970D01*
X111904Y486071D01*
X111903Y486071D02*
X111903Y490587D01*
X111904Y490587D02*
X111906Y490706D01*
X111912Y490826D01*
X111922Y490945D01*
X111936Y491063D01*
X111953Y491182D01*
X111975Y491299D01*
X112000Y491416D01*
X112030Y491531D01*
X112063Y491646D01*
X112100Y491760D01*
X112140Y491872D01*
X112185Y491983D01*
X112233Y492092D01*
X112284Y492200D01*
X112339Y492306D01*
X112398Y492410D01*
X112460Y492512D01*
X112525Y492612D01*
X112594Y492710D01*
X112666Y492806D01*
X112741Y492899D01*
X112818Y492989D01*
X112899Y493077D01*
X112983Y493162D01*
X113070Y493244D01*
X113159Y493324D01*
X113251Y493400D01*
X113345Y493474D01*
X113442Y493544D01*
X113540Y493611D01*
X113641Y493675D01*
X113745Y493735D01*
X113850Y493792D01*
X113957Y493845D01*
X114065Y493895D01*
X114175Y493941D01*
X114287Y493983D01*
X114400Y494022D01*
X114514Y494057D01*
X114629Y494088D01*
X114746Y494116D01*
X114863Y494139D01*
X114980Y494159D01*
X115099Y494175D01*
X115218Y494187D01*
X115337Y494195D01*
X115456Y494199D01*
X115576Y494199D01*
X115695Y494195D01*
X115814Y494187D01*
X115933Y494175D01*
X116052Y494159D01*
X116169Y494139D01*
X116286Y494116D01*
X116403Y494088D01*
X116518Y494057D01*
X116632Y494022D01*
X116745Y493983D01*
X116857Y493941D01*
X116967Y493895D01*
X117075Y493845D01*
X117182Y493792D01*
X117287Y493735D01*
X117391Y493675D01*
X117492Y493611D01*
X117590Y493544D01*
X117687Y493474D01*
X117781Y493400D01*
X117873Y493324D01*
X117962Y493244D01*
X118049Y493162D01*
X118133Y493077D01*
X118214Y492989D01*
X118291Y492899D01*
X118366Y492806D01*
X118438Y492710D01*
X118507Y492612D01*
X118572Y492512D01*
X118634Y492410D01*
X118693Y492306D01*
X118748Y492200D01*
X118799Y492092D01*
X118847Y491983D01*
X118892Y491872D01*
X118932Y491760D01*
X118969Y491646D01*
X119002Y491531D01*
X119032Y491416D01*
X119057Y491299D01*
X119079Y491182D01*
X119096Y491063D01*
X119110Y490945D01*
X119120Y490826D01*
X119126Y490706D01*
X119128Y490587D01*
X119128Y488781D01*
X111903Y488781D01*
X125687Y486071D02*
X125687Y499618D01*
X125688Y486071D02*
X125690Y485970D01*
X125696Y485869D01*
X125705Y485768D01*
X125718Y485667D01*
X125735Y485567D01*
X125756Y485468D01*
X125780Y485370D01*
X125808Y485273D01*
X125840Y485176D01*
X125875Y485081D01*
X125914Y484988D01*
X125956Y484896D01*
X126002Y484805D01*
X126051Y484717D01*
X126103Y484630D01*
X126159Y484545D01*
X126217Y484462D01*
X126279Y484382D01*
X126344Y484304D01*
X126411Y484228D01*
X126481Y484155D01*
X126554Y484085D01*
X126630Y484018D01*
X126708Y483953D01*
X126788Y483891D01*
X126871Y483833D01*
X126956Y483777D01*
X127043Y483725D01*
X127131Y483676D01*
X127222Y483630D01*
X127314Y483588D01*
X127407Y483549D01*
X127502Y483514D01*
X127599Y483482D01*
X127696Y483454D01*
X127794Y483430D01*
X127893Y483409D01*
X127993Y483392D01*
X128094Y483379D01*
X128195Y483370D01*
X128296Y483364D01*
X128397Y483362D01*
X133787Y486974D02*
X133787Y490587D01*
X133789Y490706D01*
X133795Y490826D01*
X133805Y490945D01*
X133819Y491063D01*
X133836Y491182D01*
X133858Y491299D01*
X133883Y491416D01*
X133913Y491531D01*
X133946Y491646D01*
X133983Y491760D01*
X134023Y491872D01*
X134068Y491983D01*
X134116Y492092D01*
X134167Y492200D01*
X134222Y492306D01*
X134281Y492410D01*
X134343Y492512D01*
X134408Y492612D01*
X134477Y492710D01*
X134549Y492806D01*
X134624Y492899D01*
X134701Y492989D01*
X134782Y493077D01*
X134866Y493162D01*
X134953Y493244D01*
X135042Y493324D01*
X135134Y493400D01*
X135228Y493474D01*
X135325Y493544D01*
X135423Y493611D01*
X135524Y493675D01*
X135628Y493735D01*
X135733Y493792D01*
X135840Y493845D01*
X135948Y493895D01*
X136058Y493941D01*
X136170Y493983D01*
X136283Y494022D01*
X136397Y494057D01*
X136512Y494088D01*
X136629Y494116D01*
X136746Y494139D01*
X136863Y494159D01*
X136982Y494175D01*
X137101Y494187D01*
X137220Y494195D01*
X137339Y494199D01*
X137459Y494199D01*
X137578Y494195D01*
X137697Y494187D01*
X137816Y494175D01*
X137935Y494159D01*
X138052Y494139D01*
X138169Y494116D01*
X138286Y494088D01*
X138401Y494057D01*
X138515Y494022D01*
X138628Y493983D01*
X138740Y493941D01*
X138850Y493895D01*
X138958Y493845D01*
X139065Y493792D01*
X139170Y493735D01*
X139274Y493675D01*
X139375Y493611D01*
X139473Y493544D01*
X139570Y493474D01*
X139664Y493400D01*
X139756Y493324D01*
X139845Y493244D01*
X139932Y493162D01*
X140016Y493077D01*
X140097Y492989D01*
X140174Y492899D01*
X140249Y492806D01*
X140321Y492710D01*
X140390Y492612D01*
X140455Y492512D01*
X140517Y492410D01*
X140576Y492306D01*
X140631Y492200D01*
X140682Y492092D01*
X140730Y491983D01*
X140775Y491872D01*
X140815Y491760D01*
X140852Y491646D01*
X140885Y491531D01*
X140915Y491416D01*
X140940Y491299D01*
X140962Y491182D01*
X140979Y491063D01*
X140993Y490945D01*
X141003Y490826D01*
X141009Y490706D01*
X141011Y490587D01*
X141012Y490587D02*
X141012Y486974D01*
X141011Y486974D02*
X141009Y486855D01*
X141003Y486735D01*
X140993Y486616D01*
X140979Y486498D01*
X140962Y486379D01*
X140940Y486262D01*
X140915Y486145D01*
X140885Y486030D01*
X140852Y485915D01*
X140815Y485801D01*
X140775Y485689D01*
X140730Y485578D01*
X140682Y485469D01*
X140631Y485361D01*
X140576Y485255D01*
X140517Y485151D01*
X140455Y485049D01*
X140390Y484949D01*
X140321Y484851D01*
X140249Y484755D01*
X140174Y484662D01*
X140097Y484572D01*
X140016Y484484D01*
X139932Y484399D01*
X139845Y484317D01*
X139756Y484237D01*
X139664Y484161D01*
X139570Y484087D01*
X139473Y484017D01*
X139375Y483950D01*
X139274Y483886D01*
X139170Y483826D01*
X139065Y483769D01*
X138958Y483716D01*
X138850Y483666D01*
X138740Y483620D01*
X138628Y483578D01*
X138515Y483539D01*
X138401Y483504D01*
X138286Y483473D01*
X138169Y483445D01*
X138052Y483422D01*
X137935Y483402D01*
X137816Y483386D01*
X137697Y483374D01*
X137578Y483366D01*
X137459Y483362D01*
X137339Y483362D01*
X137220Y483366D01*
X137101Y483374D01*
X136982Y483386D01*
X136863Y483402D01*
X136746Y483422D01*
X136629Y483445D01*
X136512Y483473D01*
X136397Y483504D01*
X136283Y483539D01*
X136170Y483578D01*
X136058Y483620D01*
X135948Y483666D01*
X135840Y483716D01*
X135733Y483769D01*
X135628Y483826D01*
X135524Y483886D01*
X135423Y483950D01*
X135325Y484017D01*
X135228Y484087D01*
X135134Y484161D01*
X135042Y484237D01*
X134953Y484317D01*
X134866Y484399D01*
X134782Y484484D01*
X134701Y484572D01*
X134624Y484662D01*
X134549Y484755D01*
X134477Y484851D01*
X134408Y484949D01*
X134343Y485049D01*
X134281Y485151D01*
X134222Y485255D01*
X134167Y485361D01*
X134116Y485469D01*
X134068Y485578D01*
X134023Y485689D01*
X133983Y485801D01*
X133946Y485915D01*
X133913Y486030D01*
X133883Y486145D01*
X133858Y486262D01*
X133836Y486379D01*
X133819Y486498D01*
X133805Y486616D01*
X133795Y486735D01*
X133789Y486855D01*
X133787Y486974D01*
X150422Y489684D02*
X154486Y489684D01*
X150422Y489684D02*
X150310Y489682D01*
X150199Y489676D01*
X150088Y489666D01*
X149977Y489653D01*
X149867Y489635D01*
X149758Y489613D01*
X149649Y489588D01*
X149541Y489559D01*
X149435Y489526D01*
X149329Y489489D01*
X149225Y489449D01*
X149123Y489405D01*
X149022Y489357D01*
X148923Y489306D01*
X148825Y489251D01*
X148730Y489193D01*
X148637Y489132D01*
X148546Y489067D01*
X148457Y488999D01*
X148371Y488928D01*
X148288Y488855D01*
X148207Y488778D01*
X148128Y488698D01*
X148053Y488616D01*
X147981Y488531D01*
X147911Y488444D01*
X147845Y488354D01*
X147782Y488262D01*
X147722Y488167D01*
X147666Y488071D01*
X147613Y487973D01*
X147564Y487873D01*
X147518Y487771D01*
X147476Y487668D01*
X147437Y487563D01*
X147402Y487457D01*
X147371Y487350D01*
X147344Y487242D01*
X147320Y487133D01*
X147301Y487023D01*
X147285Y486913D01*
X147273Y486802D01*
X147265Y486690D01*
X147261Y486579D01*
X147261Y486467D01*
X147265Y486356D01*
X147273Y486244D01*
X147285Y486133D01*
X147301Y486023D01*
X147320Y485913D01*
X147344Y485804D01*
X147371Y485696D01*
X147402Y485589D01*
X147437Y485483D01*
X147476Y485378D01*
X147518Y485275D01*
X147564Y485173D01*
X147613Y485073D01*
X147666Y484975D01*
X147722Y484879D01*
X147782Y484784D01*
X147845Y484692D01*
X147911Y484602D01*
X147981Y484515D01*
X148053Y484430D01*
X148128Y484348D01*
X148207Y484268D01*
X148288Y484191D01*
X148371Y484118D01*
X148457Y484047D01*
X148546Y483979D01*
X148637Y483914D01*
X148730Y483853D01*
X148825Y483795D01*
X148923Y483740D01*
X149022Y483689D01*
X149123Y483641D01*
X149225Y483597D01*
X149329Y483557D01*
X149435Y483520D01*
X149541Y483487D01*
X149649Y483458D01*
X149758Y483433D01*
X149867Y483411D01*
X149977Y483393D01*
X150088Y483380D01*
X150199Y483370D01*
X150310Y483364D01*
X150422Y483362D01*
X154486Y483362D01*
X154486Y491490D01*
X154485Y491490D02*
X154483Y491591D01*
X154477Y491692D01*
X154468Y491793D01*
X154455Y491894D01*
X154438Y491994D01*
X154417Y492093D01*
X154393Y492191D01*
X154365Y492288D01*
X154333Y492385D01*
X154298Y492480D01*
X154259Y492573D01*
X154217Y492665D01*
X154171Y492756D01*
X154122Y492845D01*
X154070Y492931D01*
X154014Y493016D01*
X153956Y493099D01*
X153894Y493179D01*
X153829Y493257D01*
X153762Y493333D01*
X153692Y493406D01*
X153619Y493476D01*
X153543Y493543D01*
X153465Y493608D01*
X153385Y493670D01*
X153302Y493728D01*
X153217Y493784D01*
X153131Y493836D01*
X153042Y493885D01*
X152951Y493931D01*
X152859Y493973D01*
X152766Y494012D01*
X152671Y494047D01*
X152574Y494079D01*
X152477Y494107D01*
X152379Y494131D01*
X152280Y494152D01*
X152180Y494169D01*
X152079Y494182D01*
X151978Y494191D01*
X151877Y494197D01*
X151776Y494199D01*
X148164Y494199D01*
X168554Y499618D02*
X168554Y483362D01*
X164038Y483362D01*
X163937Y483364D01*
X163836Y483370D01*
X163735Y483379D01*
X163634Y483392D01*
X163534Y483409D01*
X163435Y483430D01*
X163337Y483454D01*
X163240Y483482D01*
X163143Y483514D01*
X163048Y483549D01*
X162955Y483588D01*
X162863Y483630D01*
X162772Y483676D01*
X162684Y483725D01*
X162597Y483777D01*
X162512Y483833D01*
X162429Y483891D01*
X162349Y483953D01*
X162271Y484018D01*
X162195Y484085D01*
X162122Y484155D01*
X162052Y484228D01*
X161985Y484304D01*
X161920Y484382D01*
X161858Y484462D01*
X161800Y484545D01*
X161744Y484630D01*
X161692Y484717D01*
X161643Y484805D01*
X161597Y484896D01*
X161555Y484988D01*
X161516Y485081D01*
X161481Y485176D01*
X161449Y485273D01*
X161421Y485370D01*
X161397Y485468D01*
X161376Y485567D01*
X161359Y485667D01*
X161346Y485768D01*
X161337Y485869D01*
X161331Y485970D01*
X161329Y486071D01*
X161329Y491490D01*
X161331Y491591D01*
X161337Y491692D01*
X161346Y491793D01*
X161359Y491894D01*
X161376Y491994D01*
X161397Y492093D01*
X161421Y492191D01*
X161449Y492288D01*
X161481Y492385D01*
X161516Y492480D01*
X161555Y492573D01*
X161597Y492665D01*
X161643Y492756D01*
X161692Y492845D01*
X161744Y492931D01*
X161800Y493016D01*
X161858Y493099D01*
X161920Y493179D01*
X161985Y493257D01*
X162052Y493333D01*
X162122Y493406D01*
X162195Y493476D01*
X162271Y493543D01*
X162349Y493608D01*
X162429Y493670D01*
X162512Y493728D01*
X162597Y493784D01*
X162684Y493836D01*
X162772Y493885D01*
X162863Y493931D01*
X162955Y493973D01*
X163048Y494012D01*
X163143Y494047D01*
X163240Y494079D01*
X163337Y494107D01*
X163435Y494131D01*
X163534Y494152D01*
X163634Y494169D01*
X163735Y494182D01*
X163836Y494191D01*
X163937Y494197D01*
X164038Y494199D01*
X168554Y494199D01*
X178180Y483362D02*
X182695Y483362D01*
X178180Y483362D02*
X178079Y483364D01*
X177978Y483370D01*
X177877Y483379D01*
X177776Y483392D01*
X177676Y483409D01*
X177577Y483430D01*
X177479Y483454D01*
X177382Y483482D01*
X177285Y483514D01*
X177190Y483549D01*
X177097Y483588D01*
X177005Y483630D01*
X176914Y483676D01*
X176826Y483725D01*
X176739Y483777D01*
X176654Y483833D01*
X176571Y483891D01*
X176491Y483953D01*
X176413Y484018D01*
X176337Y484085D01*
X176264Y484155D01*
X176194Y484228D01*
X176127Y484304D01*
X176062Y484382D01*
X176000Y484462D01*
X175942Y484545D01*
X175886Y484630D01*
X175834Y484717D01*
X175785Y484805D01*
X175739Y484896D01*
X175697Y484988D01*
X175658Y485081D01*
X175623Y485176D01*
X175591Y485273D01*
X175563Y485370D01*
X175539Y485468D01*
X175518Y485567D01*
X175501Y485667D01*
X175488Y485768D01*
X175479Y485869D01*
X175473Y485970D01*
X175471Y486071D01*
X175470Y486071D02*
X175470Y490587D01*
X175471Y490587D02*
X175473Y490706D01*
X175479Y490826D01*
X175489Y490945D01*
X175503Y491063D01*
X175520Y491182D01*
X175542Y491299D01*
X175567Y491416D01*
X175597Y491531D01*
X175630Y491646D01*
X175667Y491760D01*
X175707Y491872D01*
X175752Y491983D01*
X175800Y492092D01*
X175851Y492200D01*
X175906Y492306D01*
X175965Y492410D01*
X176027Y492512D01*
X176092Y492612D01*
X176161Y492710D01*
X176233Y492806D01*
X176308Y492899D01*
X176385Y492989D01*
X176466Y493077D01*
X176550Y493162D01*
X176637Y493244D01*
X176726Y493324D01*
X176818Y493400D01*
X176912Y493474D01*
X177009Y493544D01*
X177107Y493611D01*
X177208Y493675D01*
X177312Y493735D01*
X177417Y493792D01*
X177524Y493845D01*
X177632Y493895D01*
X177742Y493941D01*
X177854Y493983D01*
X177967Y494022D01*
X178081Y494057D01*
X178196Y494088D01*
X178313Y494116D01*
X178430Y494139D01*
X178547Y494159D01*
X178666Y494175D01*
X178785Y494187D01*
X178904Y494195D01*
X179023Y494199D01*
X179143Y494199D01*
X179262Y494195D01*
X179381Y494187D01*
X179500Y494175D01*
X179619Y494159D01*
X179736Y494139D01*
X179853Y494116D01*
X179970Y494088D01*
X180085Y494057D01*
X180199Y494022D01*
X180312Y493983D01*
X180424Y493941D01*
X180534Y493895D01*
X180642Y493845D01*
X180749Y493792D01*
X180854Y493735D01*
X180958Y493675D01*
X181059Y493611D01*
X181157Y493544D01*
X181254Y493474D01*
X181348Y493400D01*
X181440Y493324D01*
X181529Y493244D01*
X181616Y493162D01*
X181700Y493077D01*
X181781Y492989D01*
X181858Y492899D01*
X181933Y492806D01*
X182005Y492710D01*
X182074Y492612D01*
X182139Y492512D01*
X182201Y492410D01*
X182260Y492306D01*
X182315Y492200D01*
X182366Y492092D01*
X182414Y491983D01*
X182459Y491872D01*
X182499Y491760D01*
X182536Y491646D01*
X182569Y491531D01*
X182599Y491416D01*
X182624Y491299D01*
X182646Y491182D01*
X182663Y491063D01*
X182677Y490945D01*
X182687Y490826D01*
X182693Y490706D01*
X182695Y490587D01*
X182695Y488781D01*
X175470Y488781D01*
X196169Y483362D02*
X196169Y499618D01*
X196169Y483362D02*
X191653Y483362D01*
X191552Y483364D01*
X191451Y483370D01*
X191350Y483379D01*
X191249Y483392D01*
X191149Y483409D01*
X191050Y483430D01*
X190952Y483454D01*
X190855Y483482D01*
X190758Y483514D01*
X190663Y483549D01*
X190570Y483588D01*
X190478Y483630D01*
X190387Y483676D01*
X190299Y483725D01*
X190212Y483777D01*
X190127Y483833D01*
X190044Y483891D01*
X189964Y483953D01*
X189886Y484018D01*
X189810Y484085D01*
X189737Y484155D01*
X189667Y484228D01*
X189600Y484304D01*
X189535Y484382D01*
X189473Y484462D01*
X189415Y484545D01*
X189359Y484630D01*
X189307Y484717D01*
X189258Y484805D01*
X189212Y484896D01*
X189170Y484988D01*
X189131Y485081D01*
X189096Y485176D01*
X189064Y485273D01*
X189036Y485370D01*
X189012Y485468D01*
X188991Y485567D01*
X188974Y485667D01*
X188961Y485768D01*
X188952Y485869D01*
X188946Y485970D01*
X188944Y486071D01*
X188944Y491490D01*
X188946Y491591D01*
X188952Y491692D01*
X188961Y491793D01*
X188974Y491894D01*
X188991Y491994D01*
X189012Y492093D01*
X189036Y492191D01*
X189064Y492288D01*
X189096Y492385D01*
X189131Y492480D01*
X189170Y492573D01*
X189212Y492665D01*
X189258Y492756D01*
X189307Y492845D01*
X189359Y492931D01*
X189415Y493016D01*
X189473Y493099D01*
X189535Y493179D01*
X189600Y493257D01*
X189667Y493333D01*
X189737Y493406D01*
X189810Y493476D01*
X189886Y493543D01*
X189964Y493608D01*
X190044Y493670D01*
X190127Y493728D01*
X190212Y493784D01*
X190299Y493836D01*
X190387Y493885D01*
X190478Y493931D01*
X190570Y493973D01*
X190663Y494012D01*
X190758Y494047D01*
X190855Y494079D01*
X190952Y494107D01*
X191050Y494131D01*
X191149Y494152D01*
X191249Y494169D01*
X191350Y494182D01*
X191451Y494191D01*
X191552Y494197D01*
X191653Y494199D01*
X196169Y494199D01*
X210901Y494199D02*
X214513Y483362D01*
X218126Y494199D01*
X224066Y496006D02*
X228581Y499618D01*
X228581Y483362D01*
X224066Y483362D02*
X233097Y483362D01*
X239072Y483362D02*
X239072Y484265D01*
X239975Y484265D01*
X239975Y483362D01*
X239072Y483362D01*
X245950Y496006D02*
X250465Y499618D01*
X250465Y483362D01*
X245950Y483362D02*
X254981Y483362D01*
D12*
X152908Y291592D02*
X152908Y290294D01*
X152908Y291592D02*
X159399Y291592D01*
X156154Y279908D01*
X164338Y282504D02*
X166934Y291592D01*
X164338Y282504D02*
X170829Y282504D01*
X168882Y285101D02*
X168882Y279908D01*
X176172Y279908D02*
X176172Y291592D01*
X176172Y279908D02*
X181364Y279908D01*
X189188Y279908D02*
X189287Y279910D01*
X189387Y279916D01*
X189486Y279925D01*
X189584Y279938D01*
X189682Y279955D01*
X189780Y279976D01*
X189876Y280001D01*
X189971Y280029D01*
X190065Y280061D01*
X190158Y280096D01*
X190250Y280135D01*
X190340Y280178D01*
X190428Y280223D01*
X190515Y280273D01*
X190599Y280325D01*
X190682Y280381D01*
X190762Y280439D01*
X190840Y280501D01*
X190915Y280566D01*
X190988Y280634D01*
X191058Y280704D01*
X191126Y280777D01*
X191191Y280852D01*
X191253Y280930D01*
X191311Y281010D01*
X191367Y281093D01*
X191419Y281177D01*
X191469Y281264D01*
X191514Y281352D01*
X191557Y281442D01*
X191596Y281534D01*
X191631Y281627D01*
X191663Y281721D01*
X191691Y281816D01*
X191716Y281912D01*
X191737Y282010D01*
X191754Y282108D01*
X191767Y282206D01*
X191776Y282305D01*
X191782Y282405D01*
X191784Y282504D01*
X189188Y279908D02*
X189044Y279910D01*
X188899Y279916D01*
X188755Y279925D01*
X188612Y279938D01*
X188468Y279955D01*
X188325Y279976D01*
X188183Y280001D01*
X188042Y280029D01*
X187901Y280061D01*
X187761Y280097D01*
X187622Y280136D01*
X187484Y280179D01*
X187348Y280226D01*
X187212Y280276D01*
X187078Y280330D01*
X186946Y280387D01*
X186815Y280448D01*
X186686Y280512D01*
X186558Y280580D01*
X186432Y280650D01*
X186308Y280725D01*
X186187Y280802D01*
X186067Y280883D01*
X185949Y280966D01*
X185834Y281053D01*
X185721Y281143D01*
X185610Y281236D01*
X185502Y281331D01*
X185396Y281430D01*
X185293Y281531D01*
X185618Y288996D02*
X185620Y289095D01*
X185626Y289195D01*
X185635Y289294D01*
X185648Y289392D01*
X185665Y289490D01*
X185686Y289588D01*
X185711Y289684D01*
X185739Y289779D01*
X185771Y289873D01*
X185806Y289966D01*
X185845Y290058D01*
X185888Y290148D01*
X185933Y290236D01*
X185983Y290323D01*
X186035Y290407D01*
X186091Y290490D01*
X186149Y290570D01*
X186211Y290648D01*
X186276Y290723D01*
X186344Y290796D01*
X186414Y290866D01*
X186487Y290934D01*
X186562Y290999D01*
X186640Y291061D01*
X186720Y291119D01*
X186803Y291175D01*
X186887Y291227D01*
X186974Y291277D01*
X187062Y291322D01*
X187152Y291365D01*
X187244Y291404D01*
X187337Y291439D01*
X187431Y291471D01*
X187526Y291499D01*
X187623Y291524D01*
X187720Y291545D01*
X187818Y291562D01*
X187916Y291575D01*
X188015Y291584D01*
X188115Y291590D01*
X188214Y291592D01*
X188350Y291590D01*
X188486Y291584D01*
X188622Y291575D01*
X188758Y291562D01*
X188893Y291544D01*
X189027Y291524D01*
X189161Y291499D01*
X189295Y291471D01*
X189427Y291438D01*
X189558Y291403D01*
X189689Y291363D01*
X189818Y291320D01*
X189946Y291274D01*
X190072Y291223D01*
X190198Y291170D01*
X190321Y291112D01*
X190443Y291052D01*
X190563Y290988D01*
X190682Y290920D01*
X190798Y290850D01*
X190912Y290776D01*
X191025Y290699D01*
X191135Y290618D01*
X186915Y286724D02*
X186829Y286777D01*
X186745Y286834D01*
X186663Y286893D01*
X186583Y286956D01*
X186506Y287022D01*
X186431Y287090D01*
X186359Y287162D01*
X186290Y287236D01*
X186224Y287313D01*
X186161Y287392D01*
X186101Y287474D01*
X186044Y287558D01*
X185990Y287644D01*
X185940Y287732D01*
X185893Y287822D01*
X185849Y287913D01*
X185810Y288007D01*
X185773Y288101D01*
X185741Y288197D01*
X185712Y288295D01*
X185687Y288393D01*
X185666Y288492D01*
X185648Y288592D01*
X185635Y288692D01*
X185625Y288793D01*
X185619Y288895D01*
X185617Y288996D01*
X190486Y284776D02*
X190572Y284723D01*
X190656Y284666D01*
X190738Y284607D01*
X190818Y284544D01*
X190895Y284478D01*
X190970Y284410D01*
X191042Y284338D01*
X191111Y284264D01*
X191177Y284187D01*
X191240Y284108D01*
X191300Y284026D01*
X191357Y283942D01*
X191411Y283856D01*
X191461Y283768D01*
X191508Y283678D01*
X191552Y283587D01*
X191591Y283493D01*
X191628Y283399D01*
X191660Y283303D01*
X191689Y283205D01*
X191714Y283107D01*
X191735Y283008D01*
X191753Y282908D01*
X191766Y282808D01*
X191776Y282707D01*
X191782Y282605D01*
X191784Y282504D01*
X190486Y284776D02*
X186916Y286724D01*
X199912Y291592D02*
X200019Y291590D01*
X200125Y291584D01*
X200231Y291574D01*
X200337Y291561D01*
X200443Y291543D01*
X200547Y291522D01*
X200651Y291497D01*
X200754Y291468D01*
X200855Y291436D01*
X200955Y291399D01*
X201054Y291359D01*
X201152Y291316D01*
X201248Y291269D01*
X201342Y291218D01*
X201434Y291164D01*
X201524Y291107D01*
X201612Y291047D01*
X201697Y290983D01*
X201780Y290916D01*
X201861Y290846D01*
X201939Y290774D01*
X202015Y290698D01*
X202087Y290620D01*
X202157Y290539D01*
X202224Y290456D01*
X202288Y290371D01*
X202348Y290283D01*
X202405Y290193D01*
X202459Y290101D01*
X202510Y290007D01*
X202557Y289911D01*
X202600Y289813D01*
X202640Y289714D01*
X202677Y289614D01*
X202709Y289513D01*
X202738Y289410D01*
X202763Y289306D01*
X202784Y289202D01*
X202802Y289096D01*
X202815Y288990D01*
X202825Y288884D01*
X202831Y288778D01*
X202833Y288671D01*
X199912Y291592D02*
X199791Y291590D01*
X199670Y291584D01*
X199550Y291574D01*
X199429Y291561D01*
X199310Y291543D01*
X199190Y291522D01*
X199072Y291497D01*
X198955Y291468D01*
X198838Y291435D01*
X198723Y291399D01*
X198609Y291358D01*
X198496Y291315D01*
X198384Y291267D01*
X198275Y291216D01*
X198167Y291161D01*
X198060Y291103D01*
X197956Y291042D01*
X197854Y290977D01*
X197754Y290909D01*
X197656Y290838D01*
X197560Y290764D01*
X197467Y290687D01*
X197377Y290606D01*
X197289Y290523D01*
X197204Y290437D01*
X197121Y290348D01*
X197042Y290257D01*
X196965Y290163D01*
X196892Y290067D01*
X196822Y289969D01*
X196755Y289868D01*
X196691Y289765D01*
X196631Y289660D01*
X196574Y289553D01*
X196520Y289445D01*
X196470Y289335D01*
X196424Y289223D01*
X196381Y289110D01*
X196342Y288995D01*
X201860Y286399D02*
X201939Y286476D01*
X202015Y286557D01*
X202088Y286640D01*
X202158Y286725D01*
X202225Y286813D01*
X202289Y286903D01*
X202349Y286995D01*
X202406Y287090D01*
X202460Y287186D01*
X202511Y287284D01*
X202558Y287384D01*
X202602Y287486D01*
X202642Y287589D01*
X202678Y287693D01*
X202710Y287799D01*
X202739Y287905D01*
X202764Y288013D01*
X202786Y288121D01*
X202803Y288231D01*
X202817Y288340D01*
X202826Y288450D01*
X202832Y288561D01*
X202834Y288671D01*
X201859Y286399D02*
X196342Y279908D01*
X202833Y279908D01*
X207772Y282504D02*
X210368Y291592D01*
X207772Y282504D02*
X214263Y282504D01*
X212316Y285101D02*
X212316Y279908D01*
X219202Y285750D02*
X219205Y285980D01*
X219213Y286210D01*
X219227Y286439D01*
X219246Y286668D01*
X219271Y286897D01*
X219301Y287124D01*
X219336Y287352D01*
X219377Y287578D01*
X219423Y287803D01*
X219475Y288027D01*
X219532Y288249D01*
X219594Y288471D01*
X219662Y288690D01*
X219735Y288908D01*
X219813Y289125D01*
X219896Y289339D01*
X219984Y289551D01*
X220077Y289761D01*
X220176Y289969D01*
X220175Y289969D02*
X220208Y290059D01*
X220244Y290148D01*
X220284Y290236D01*
X220328Y290321D01*
X220375Y290405D01*
X220425Y290487D01*
X220479Y290567D01*
X220535Y290644D01*
X220595Y290720D01*
X220658Y290793D01*
X220723Y290863D01*
X220792Y290931D01*
X220863Y290995D01*
X220936Y291057D01*
X221012Y291116D01*
X221090Y291172D01*
X221171Y291225D01*
X221253Y291274D01*
X221337Y291320D01*
X221424Y291363D01*
X221511Y291402D01*
X221601Y291438D01*
X221691Y291470D01*
X221783Y291498D01*
X221876Y291523D01*
X221970Y291544D01*
X222064Y291561D01*
X222159Y291575D01*
X222255Y291584D01*
X222351Y291590D01*
X222447Y291592D01*
X222543Y291590D01*
X222639Y291584D01*
X222735Y291575D01*
X222830Y291561D01*
X222924Y291544D01*
X223018Y291523D01*
X223111Y291498D01*
X223203Y291470D01*
X223293Y291438D01*
X223383Y291402D01*
X223470Y291363D01*
X223557Y291320D01*
X223641Y291274D01*
X223723Y291225D01*
X223804Y291172D01*
X223882Y291116D01*
X223958Y291057D01*
X224031Y290995D01*
X224102Y290931D01*
X224171Y290863D01*
X224236Y290793D01*
X224299Y290720D01*
X224359Y290644D01*
X224415Y290567D01*
X224469Y290487D01*
X224519Y290405D01*
X224566Y290321D01*
X224610Y290236D01*
X224650Y290148D01*
X224686Y290059D01*
X224719Y289969D01*
X224818Y289762D01*
X224911Y289552D01*
X224999Y289339D01*
X225082Y289125D01*
X225160Y288909D01*
X225233Y288691D01*
X225301Y288471D01*
X225363Y288250D01*
X225420Y288027D01*
X225472Y287803D01*
X225518Y287578D01*
X225559Y287352D01*
X225594Y287125D01*
X225624Y286897D01*
X225649Y286668D01*
X225668Y286439D01*
X225682Y286210D01*
X225690Y285980D01*
X225693Y285750D01*
X219202Y285750D02*
X219205Y285520D01*
X219213Y285290D01*
X219227Y285061D01*
X219246Y284832D01*
X219271Y284603D01*
X219301Y284375D01*
X219336Y284148D01*
X219377Y283922D01*
X219423Y283697D01*
X219475Y283473D01*
X219532Y283250D01*
X219594Y283029D01*
X219662Y282809D01*
X219735Y282591D01*
X219813Y282375D01*
X219896Y282161D01*
X219984Y281949D01*
X220077Y281738D01*
X220176Y281531D01*
X220175Y281531D02*
X220208Y281441D01*
X220244Y281352D01*
X220285Y281264D01*
X220328Y281179D01*
X220375Y281095D01*
X220425Y281013D01*
X220479Y280933D01*
X220535Y280856D01*
X220595Y280780D01*
X220658Y280707D01*
X220723Y280637D01*
X220792Y280569D01*
X220863Y280505D01*
X220936Y280443D01*
X221012Y280384D01*
X221090Y280328D01*
X221171Y280275D01*
X221253Y280226D01*
X221337Y280180D01*
X221424Y280137D01*
X221511Y280098D01*
X221601Y280062D01*
X221691Y280030D01*
X221783Y280002D01*
X221876Y279977D01*
X221970Y279956D01*
X222064Y279939D01*
X222159Y279925D01*
X222255Y279916D01*
X222351Y279910D01*
X222447Y279908D01*
X224719Y281531D02*
X224818Y281738D01*
X224911Y281949D01*
X224999Y282161D01*
X225082Y282375D01*
X225160Y282591D01*
X225233Y282809D01*
X225301Y283029D01*
X225363Y283250D01*
X225420Y283473D01*
X225472Y283697D01*
X225518Y283922D01*
X225559Y284148D01*
X225594Y284375D01*
X225624Y284603D01*
X225649Y284832D01*
X225668Y285061D01*
X225682Y285290D01*
X225690Y285520D01*
X225693Y285750D01*
X224719Y281531D02*
X224686Y281441D01*
X224650Y281352D01*
X224610Y281264D01*
X224566Y281179D01*
X224519Y281095D01*
X224469Y281013D01*
X224415Y280933D01*
X224359Y280856D01*
X224299Y280780D01*
X224236Y280707D01*
X224171Y280637D01*
X224102Y280569D01*
X224031Y280505D01*
X223958Y280443D01*
X223882Y280384D01*
X223804Y280328D01*
X223723Y280275D01*
X223641Y280226D01*
X223557Y280180D01*
X223470Y280137D01*
X223383Y280098D01*
X223293Y280062D01*
X223203Y280030D01*
X223111Y280002D01*
X223018Y279977D01*
X222924Y279956D01*
X222830Y279939D01*
X222735Y279925D01*
X222639Y279916D01*
X222543Y279910D01*
X222447Y279908D01*
X219851Y282504D02*
X225044Y288996D01*
X231013Y291592D02*
X231013Y279908D01*
X237504Y279908D02*
X231013Y291592D01*
X237504Y291592D02*
X237504Y279908D01*
X457708Y290294D02*
X457708Y291592D01*
X464199Y291592D01*
X460954Y279908D01*
X469138Y282504D02*
X471734Y291592D01*
X469138Y282504D02*
X475629Y282504D01*
X473682Y285101D02*
X473682Y279908D01*
X480972Y279908D02*
X480972Y291592D01*
X480972Y279908D02*
X486164Y279908D01*
X493988Y279908D02*
X494087Y279910D01*
X494187Y279916D01*
X494286Y279925D01*
X494384Y279938D01*
X494482Y279955D01*
X494580Y279976D01*
X494676Y280001D01*
X494771Y280029D01*
X494865Y280061D01*
X494958Y280096D01*
X495050Y280135D01*
X495140Y280178D01*
X495228Y280223D01*
X495315Y280273D01*
X495399Y280325D01*
X495482Y280381D01*
X495562Y280439D01*
X495640Y280501D01*
X495715Y280566D01*
X495788Y280634D01*
X495858Y280704D01*
X495926Y280777D01*
X495991Y280852D01*
X496053Y280930D01*
X496111Y281010D01*
X496167Y281093D01*
X496219Y281177D01*
X496269Y281264D01*
X496314Y281352D01*
X496357Y281442D01*
X496396Y281534D01*
X496431Y281627D01*
X496463Y281721D01*
X496491Y281816D01*
X496516Y281912D01*
X496537Y282010D01*
X496554Y282108D01*
X496567Y282206D01*
X496576Y282305D01*
X496582Y282405D01*
X496584Y282504D01*
X493988Y279908D02*
X493844Y279910D01*
X493699Y279916D01*
X493555Y279925D01*
X493412Y279938D01*
X493268Y279955D01*
X493125Y279976D01*
X492983Y280001D01*
X492842Y280029D01*
X492701Y280061D01*
X492561Y280097D01*
X492422Y280136D01*
X492284Y280179D01*
X492148Y280226D01*
X492012Y280276D01*
X491878Y280330D01*
X491746Y280387D01*
X491615Y280448D01*
X491486Y280512D01*
X491358Y280580D01*
X491232Y280650D01*
X491108Y280725D01*
X490987Y280802D01*
X490867Y280883D01*
X490749Y280966D01*
X490634Y281053D01*
X490521Y281143D01*
X490410Y281236D01*
X490302Y281331D01*
X490196Y281430D01*
X490093Y281531D01*
X490418Y288996D02*
X490420Y289095D01*
X490426Y289195D01*
X490435Y289294D01*
X490448Y289392D01*
X490465Y289490D01*
X490486Y289588D01*
X490511Y289684D01*
X490539Y289779D01*
X490571Y289873D01*
X490606Y289966D01*
X490645Y290058D01*
X490688Y290148D01*
X490733Y290236D01*
X490783Y290323D01*
X490835Y290407D01*
X490891Y290490D01*
X490949Y290570D01*
X491011Y290648D01*
X491076Y290723D01*
X491144Y290796D01*
X491214Y290866D01*
X491287Y290934D01*
X491362Y290999D01*
X491440Y291061D01*
X491520Y291119D01*
X491603Y291175D01*
X491687Y291227D01*
X491774Y291277D01*
X491862Y291322D01*
X491952Y291365D01*
X492044Y291404D01*
X492137Y291439D01*
X492231Y291471D01*
X492326Y291499D01*
X492423Y291524D01*
X492520Y291545D01*
X492618Y291562D01*
X492716Y291575D01*
X492815Y291584D01*
X492915Y291590D01*
X493014Y291592D01*
X493150Y291590D01*
X493286Y291584D01*
X493422Y291575D01*
X493558Y291562D01*
X493693Y291544D01*
X493827Y291524D01*
X493961Y291499D01*
X494095Y291471D01*
X494227Y291438D01*
X494358Y291403D01*
X494489Y291363D01*
X494618Y291320D01*
X494746Y291274D01*
X494872Y291223D01*
X494998Y291170D01*
X495121Y291112D01*
X495243Y291052D01*
X495363Y290988D01*
X495482Y290920D01*
X495598Y290850D01*
X495712Y290776D01*
X495825Y290699D01*
X495935Y290618D01*
X491715Y286724D02*
X491629Y286777D01*
X491545Y286834D01*
X491463Y286893D01*
X491383Y286956D01*
X491306Y287022D01*
X491231Y287090D01*
X491159Y287162D01*
X491090Y287236D01*
X491024Y287313D01*
X490961Y287392D01*
X490901Y287474D01*
X490844Y287558D01*
X490790Y287644D01*
X490740Y287732D01*
X490693Y287822D01*
X490649Y287913D01*
X490610Y288007D01*
X490573Y288101D01*
X490541Y288197D01*
X490512Y288295D01*
X490487Y288393D01*
X490466Y288492D01*
X490448Y288592D01*
X490435Y288692D01*
X490425Y288793D01*
X490419Y288895D01*
X490417Y288996D01*
X495286Y284776D02*
X495372Y284723D01*
X495456Y284666D01*
X495538Y284607D01*
X495618Y284544D01*
X495695Y284478D01*
X495770Y284410D01*
X495842Y284338D01*
X495911Y284264D01*
X495977Y284187D01*
X496040Y284108D01*
X496100Y284026D01*
X496157Y283942D01*
X496211Y283856D01*
X496261Y283768D01*
X496308Y283678D01*
X496352Y283587D01*
X496391Y283493D01*
X496428Y283399D01*
X496460Y283303D01*
X496489Y283205D01*
X496514Y283107D01*
X496535Y283008D01*
X496553Y282908D01*
X496566Y282808D01*
X496576Y282707D01*
X496582Y282605D01*
X496584Y282504D01*
X495286Y284776D02*
X491716Y286724D01*
X504712Y291592D02*
X504819Y291590D01*
X504925Y291584D01*
X505031Y291574D01*
X505137Y291561D01*
X505243Y291543D01*
X505347Y291522D01*
X505451Y291497D01*
X505554Y291468D01*
X505655Y291436D01*
X505755Y291399D01*
X505854Y291359D01*
X505952Y291316D01*
X506048Y291269D01*
X506142Y291218D01*
X506234Y291164D01*
X506324Y291107D01*
X506412Y291047D01*
X506497Y290983D01*
X506580Y290916D01*
X506661Y290846D01*
X506739Y290774D01*
X506815Y290698D01*
X506887Y290620D01*
X506957Y290539D01*
X507024Y290456D01*
X507088Y290371D01*
X507148Y290283D01*
X507205Y290193D01*
X507259Y290101D01*
X507310Y290007D01*
X507357Y289911D01*
X507400Y289813D01*
X507440Y289714D01*
X507477Y289614D01*
X507509Y289513D01*
X507538Y289410D01*
X507563Y289306D01*
X507584Y289202D01*
X507602Y289096D01*
X507615Y288990D01*
X507625Y288884D01*
X507631Y288778D01*
X507633Y288671D01*
X504712Y291592D02*
X504591Y291590D01*
X504470Y291584D01*
X504350Y291574D01*
X504229Y291561D01*
X504110Y291543D01*
X503990Y291522D01*
X503872Y291497D01*
X503755Y291468D01*
X503638Y291435D01*
X503523Y291399D01*
X503409Y291358D01*
X503296Y291315D01*
X503184Y291267D01*
X503075Y291216D01*
X502967Y291161D01*
X502860Y291103D01*
X502756Y291042D01*
X502654Y290977D01*
X502554Y290909D01*
X502456Y290838D01*
X502360Y290764D01*
X502267Y290687D01*
X502177Y290606D01*
X502089Y290523D01*
X502004Y290437D01*
X501921Y290348D01*
X501842Y290257D01*
X501765Y290163D01*
X501692Y290067D01*
X501622Y289969D01*
X501555Y289868D01*
X501491Y289765D01*
X501431Y289660D01*
X501374Y289553D01*
X501320Y289445D01*
X501270Y289335D01*
X501224Y289223D01*
X501181Y289110D01*
X501142Y288995D01*
X506660Y286399D02*
X506739Y286476D01*
X506815Y286557D01*
X506888Y286640D01*
X506958Y286725D01*
X507025Y286813D01*
X507089Y286903D01*
X507149Y286995D01*
X507206Y287090D01*
X507260Y287186D01*
X507311Y287284D01*
X507358Y287384D01*
X507402Y287486D01*
X507442Y287589D01*
X507478Y287693D01*
X507510Y287799D01*
X507539Y287905D01*
X507564Y288013D01*
X507586Y288121D01*
X507603Y288231D01*
X507617Y288340D01*
X507626Y288450D01*
X507632Y288561D01*
X507634Y288671D01*
X506659Y286399D02*
X501142Y279908D01*
X507633Y279908D01*
X512572Y282504D02*
X515168Y291592D01*
X512572Y282504D02*
X519063Y282504D01*
X517116Y285101D02*
X517116Y279908D01*
X524002Y285750D02*
X524005Y285980D01*
X524013Y286210D01*
X524027Y286439D01*
X524046Y286668D01*
X524071Y286897D01*
X524101Y287124D01*
X524136Y287352D01*
X524177Y287578D01*
X524223Y287803D01*
X524275Y288027D01*
X524332Y288249D01*
X524394Y288471D01*
X524462Y288690D01*
X524535Y288908D01*
X524613Y289125D01*
X524696Y289339D01*
X524784Y289551D01*
X524877Y289761D01*
X524976Y289969D01*
X524975Y289969D02*
X525008Y290059D01*
X525044Y290148D01*
X525084Y290236D01*
X525128Y290321D01*
X525175Y290405D01*
X525225Y290487D01*
X525279Y290567D01*
X525335Y290644D01*
X525395Y290720D01*
X525458Y290793D01*
X525523Y290863D01*
X525592Y290931D01*
X525663Y290995D01*
X525736Y291057D01*
X525812Y291116D01*
X525890Y291172D01*
X525971Y291225D01*
X526053Y291274D01*
X526137Y291320D01*
X526224Y291363D01*
X526311Y291402D01*
X526401Y291438D01*
X526491Y291470D01*
X526583Y291498D01*
X526676Y291523D01*
X526770Y291544D01*
X526864Y291561D01*
X526959Y291575D01*
X527055Y291584D01*
X527151Y291590D01*
X527247Y291592D01*
X527343Y291590D01*
X527439Y291584D01*
X527535Y291575D01*
X527630Y291561D01*
X527724Y291544D01*
X527818Y291523D01*
X527911Y291498D01*
X528003Y291470D01*
X528093Y291438D01*
X528183Y291402D01*
X528270Y291363D01*
X528357Y291320D01*
X528441Y291274D01*
X528523Y291225D01*
X528604Y291172D01*
X528682Y291116D01*
X528758Y291057D01*
X528831Y290995D01*
X528902Y290931D01*
X528971Y290863D01*
X529036Y290793D01*
X529099Y290720D01*
X529159Y290644D01*
X529215Y290567D01*
X529269Y290487D01*
X529319Y290405D01*
X529366Y290321D01*
X529410Y290236D01*
X529450Y290148D01*
X529486Y290059D01*
X529519Y289969D01*
X529618Y289762D01*
X529711Y289552D01*
X529799Y289339D01*
X529882Y289125D01*
X529960Y288909D01*
X530033Y288691D01*
X530101Y288471D01*
X530163Y288250D01*
X530220Y288027D01*
X530272Y287803D01*
X530318Y287578D01*
X530359Y287352D01*
X530394Y287125D01*
X530424Y286897D01*
X530449Y286668D01*
X530468Y286439D01*
X530482Y286210D01*
X530490Y285980D01*
X530493Y285750D01*
X524002Y285750D02*
X524005Y285520D01*
X524013Y285290D01*
X524027Y285061D01*
X524046Y284832D01*
X524071Y284603D01*
X524101Y284375D01*
X524136Y284148D01*
X524177Y283922D01*
X524223Y283697D01*
X524275Y283473D01*
X524332Y283250D01*
X524394Y283029D01*
X524462Y282809D01*
X524535Y282591D01*
X524613Y282375D01*
X524696Y282161D01*
X524784Y281949D01*
X524877Y281738D01*
X524976Y281531D01*
X524975Y281531D02*
X525008Y281441D01*
X525044Y281352D01*
X525085Y281264D01*
X525128Y281179D01*
X525175Y281095D01*
X525225Y281013D01*
X525279Y280933D01*
X525335Y280856D01*
X525395Y280780D01*
X525458Y280707D01*
X525523Y280637D01*
X525592Y280569D01*
X525663Y280505D01*
X525736Y280443D01*
X525812Y280384D01*
X525890Y280328D01*
X525971Y280275D01*
X526053Y280226D01*
X526137Y280180D01*
X526224Y280137D01*
X526311Y280098D01*
X526401Y280062D01*
X526491Y280030D01*
X526583Y280002D01*
X526676Y279977D01*
X526770Y279956D01*
X526864Y279939D01*
X526959Y279925D01*
X527055Y279916D01*
X527151Y279910D01*
X527247Y279908D01*
X529519Y281531D02*
X529618Y281738D01*
X529711Y281949D01*
X529799Y282161D01*
X529882Y282375D01*
X529960Y282591D01*
X530033Y282809D01*
X530101Y283029D01*
X530163Y283250D01*
X530220Y283473D01*
X530272Y283697D01*
X530318Y283922D01*
X530359Y284148D01*
X530394Y284375D01*
X530424Y284603D01*
X530449Y284832D01*
X530468Y285061D01*
X530482Y285290D01*
X530490Y285520D01*
X530493Y285750D01*
X529519Y281531D02*
X529486Y281441D01*
X529450Y281352D01*
X529410Y281264D01*
X529366Y281179D01*
X529319Y281095D01*
X529269Y281013D01*
X529215Y280933D01*
X529159Y280856D01*
X529099Y280780D01*
X529036Y280707D01*
X528971Y280637D01*
X528902Y280569D01*
X528831Y280505D01*
X528758Y280443D01*
X528682Y280384D01*
X528604Y280328D01*
X528523Y280275D01*
X528441Y280226D01*
X528357Y280180D01*
X528270Y280137D01*
X528183Y280098D01*
X528093Y280062D01*
X528003Y280030D01*
X527911Y280002D01*
X527818Y279977D01*
X527724Y279956D01*
X527630Y279939D01*
X527535Y279925D01*
X527439Y279916D01*
X527343Y279910D01*
X527247Y279908D01*
X524651Y282504D02*
X529844Y288996D01*
X535813Y291592D02*
X535813Y279908D01*
X542304Y279908D02*
X535813Y291592D01*
X542304Y291592D02*
X542304Y279908D01*
X102108Y139192D02*
X102108Y137894D01*
X102108Y139192D02*
X108599Y139192D01*
X105354Y127508D01*
X113538Y130104D02*
X116134Y139192D01*
X113538Y130104D02*
X120029Y130104D01*
X118082Y132701D02*
X118082Y127508D01*
X125372Y127508D02*
X125372Y139192D01*
X125372Y127508D02*
X130564Y127508D01*
X138388Y127508D02*
X138487Y127510D01*
X138587Y127516D01*
X138686Y127525D01*
X138784Y127538D01*
X138882Y127555D01*
X138980Y127576D01*
X139076Y127601D01*
X139171Y127629D01*
X139265Y127661D01*
X139358Y127696D01*
X139450Y127735D01*
X139540Y127778D01*
X139628Y127823D01*
X139715Y127873D01*
X139799Y127925D01*
X139882Y127981D01*
X139962Y128039D01*
X140040Y128101D01*
X140115Y128166D01*
X140188Y128234D01*
X140258Y128304D01*
X140326Y128377D01*
X140391Y128452D01*
X140453Y128530D01*
X140511Y128610D01*
X140567Y128693D01*
X140619Y128777D01*
X140669Y128864D01*
X140714Y128952D01*
X140757Y129042D01*
X140796Y129134D01*
X140831Y129227D01*
X140863Y129321D01*
X140891Y129416D01*
X140916Y129512D01*
X140937Y129610D01*
X140954Y129708D01*
X140967Y129806D01*
X140976Y129905D01*
X140982Y130005D01*
X140984Y130104D01*
X138388Y127508D02*
X138244Y127510D01*
X138099Y127516D01*
X137955Y127525D01*
X137812Y127538D01*
X137668Y127555D01*
X137525Y127576D01*
X137383Y127601D01*
X137242Y127629D01*
X137101Y127661D01*
X136961Y127697D01*
X136822Y127736D01*
X136684Y127779D01*
X136548Y127826D01*
X136412Y127876D01*
X136278Y127930D01*
X136146Y127987D01*
X136015Y128048D01*
X135886Y128112D01*
X135758Y128180D01*
X135632Y128250D01*
X135508Y128325D01*
X135387Y128402D01*
X135267Y128483D01*
X135149Y128566D01*
X135034Y128653D01*
X134921Y128743D01*
X134810Y128836D01*
X134702Y128931D01*
X134596Y129030D01*
X134493Y129131D01*
X134818Y136596D02*
X134820Y136695D01*
X134826Y136795D01*
X134835Y136894D01*
X134848Y136992D01*
X134865Y137090D01*
X134886Y137188D01*
X134911Y137284D01*
X134939Y137379D01*
X134971Y137473D01*
X135006Y137566D01*
X135045Y137658D01*
X135088Y137748D01*
X135133Y137836D01*
X135183Y137923D01*
X135235Y138007D01*
X135291Y138090D01*
X135349Y138170D01*
X135411Y138248D01*
X135476Y138323D01*
X135544Y138396D01*
X135614Y138466D01*
X135687Y138534D01*
X135762Y138599D01*
X135840Y138661D01*
X135920Y138719D01*
X136003Y138775D01*
X136087Y138827D01*
X136174Y138877D01*
X136262Y138922D01*
X136352Y138965D01*
X136444Y139004D01*
X136537Y139039D01*
X136631Y139071D01*
X136726Y139099D01*
X136823Y139124D01*
X136920Y139145D01*
X137018Y139162D01*
X137116Y139175D01*
X137215Y139184D01*
X137315Y139190D01*
X137414Y139192D01*
X137550Y139190D01*
X137686Y139184D01*
X137822Y139175D01*
X137958Y139162D01*
X138093Y139144D01*
X138227Y139124D01*
X138361Y139099D01*
X138495Y139071D01*
X138627Y139038D01*
X138758Y139003D01*
X138889Y138963D01*
X139018Y138920D01*
X139146Y138874D01*
X139272Y138823D01*
X139398Y138770D01*
X139521Y138712D01*
X139643Y138652D01*
X139763Y138588D01*
X139882Y138520D01*
X139998Y138450D01*
X140112Y138376D01*
X140225Y138299D01*
X140335Y138218D01*
X136115Y134324D02*
X136029Y134377D01*
X135945Y134434D01*
X135863Y134493D01*
X135783Y134556D01*
X135706Y134622D01*
X135631Y134690D01*
X135559Y134762D01*
X135490Y134836D01*
X135424Y134913D01*
X135361Y134992D01*
X135301Y135074D01*
X135244Y135158D01*
X135190Y135244D01*
X135140Y135332D01*
X135093Y135422D01*
X135049Y135513D01*
X135010Y135607D01*
X134973Y135701D01*
X134941Y135797D01*
X134912Y135895D01*
X134887Y135993D01*
X134866Y136092D01*
X134848Y136192D01*
X134835Y136292D01*
X134825Y136393D01*
X134819Y136495D01*
X134817Y136596D01*
X139686Y132376D02*
X139772Y132323D01*
X139856Y132266D01*
X139938Y132207D01*
X140018Y132144D01*
X140095Y132078D01*
X140170Y132010D01*
X140242Y131938D01*
X140311Y131864D01*
X140377Y131787D01*
X140440Y131708D01*
X140500Y131626D01*
X140557Y131542D01*
X140611Y131456D01*
X140661Y131368D01*
X140708Y131278D01*
X140752Y131187D01*
X140791Y131093D01*
X140828Y130999D01*
X140860Y130903D01*
X140889Y130805D01*
X140914Y130707D01*
X140935Y130608D01*
X140953Y130508D01*
X140966Y130408D01*
X140976Y130307D01*
X140982Y130205D01*
X140984Y130104D01*
X139686Y132376D02*
X136116Y134324D01*
X145542Y127508D02*
X148787Y127508D01*
X148900Y127510D01*
X149013Y127516D01*
X149126Y127526D01*
X149239Y127540D01*
X149351Y127557D01*
X149462Y127579D01*
X149572Y127604D01*
X149682Y127634D01*
X149790Y127667D01*
X149897Y127704D01*
X150003Y127744D01*
X150107Y127789D01*
X150210Y127837D01*
X150311Y127888D01*
X150410Y127943D01*
X150507Y128001D01*
X150602Y128063D01*
X150695Y128128D01*
X150785Y128196D01*
X150873Y128267D01*
X150959Y128342D01*
X151042Y128419D01*
X151122Y128499D01*
X151199Y128582D01*
X151274Y128668D01*
X151345Y128756D01*
X151413Y128846D01*
X151478Y128939D01*
X151540Y129034D01*
X151598Y129131D01*
X151653Y129230D01*
X151704Y129331D01*
X151752Y129434D01*
X151797Y129538D01*
X151837Y129644D01*
X151874Y129751D01*
X151907Y129859D01*
X151937Y129969D01*
X151962Y130079D01*
X151984Y130190D01*
X152001Y130302D01*
X152015Y130415D01*
X152025Y130528D01*
X152031Y130641D01*
X152033Y130754D01*
X152031Y130867D01*
X152025Y130980D01*
X152015Y131093D01*
X152001Y131206D01*
X151984Y131318D01*
X151962Y131429D01*
X151937Y131539D01*
X151907Y131649D01*
X151874Y131757D01*
X151837Y131864D01*
X151797Y131970D01*
X151752Y132074D01*
X151704Y132177D01*
X151653Y132278D01*
X151598Y132377D01*
X151540Y132474D01*
X151478Y132569D01*
X151413Y132662D01*
X151345Y132752D01*
X151274Y132840D01*
X151199Y132926D01*
X151122Y133009D01*
X151042Y133089D01*
X150959Y133166D01*
X150873Y133241D01*
X150785Y133312D01*
X150695Y133380D01*
X150602Y133445D01*
X150507Y133507D01*
X150410Y133565D01*
X150311Y133620D01*
X150210Y133671D01*
X150107Y133719D01*
X150003Y133764D01*
X149897Y133804D01*
X149790Y133841D01*
X149682Y133874D01*
X149572Y133904D01*
X149462Y133929D01*
X149351Y133951D01*
X149239Y133968D01*
X149126Y133982D01*
X149013Y133992D01*
X148900Y133998D01*
X148787Y134000D01*
X149437Y139192D02*
X145542Y139192D01*
X149437Y139192D02*
X149538Y139190D01*
X149638Y139184D01*
X149738Y139174D01*
X149838Y139161D01*
X149937Y139143D01*
X150036Y139122D01*
X150133Y139097D01*
X150230Y139068D01*
X150325Y139035D01*
X150419Y138999D01*
X150511Y138959D01*
X150602Y138916D01*
X150691Y138869D01*
X150778Y138819D01*
X150864Y138765D01*
X150947Y138708D01*
X151027Y138648D01*
X151106Y138585D01*
X151182Y138518D01*
X151255Y138449D01*
X151325Y138377D01*
X151393Y138303D01*
X151458Y138226D01*
X151519Y138146D01*
X151578Y138064D01*
X151633Y137980D01*
X151685Y137894D01*
X151734Y137806D01*
X151779Y137716D01*
X151821Y137624D01*
X151859Y137531D01*
X151893Y137436D01*
X151924Y137341D01*
X151951Y137244D01*
X151974Y137146D01*
X151994Y137047D01*
X152009Y136947D01*
X152021Y136847D01*
X152029Y136747D01*
X152033Y136646D01*
X152033Y136546D01*
X152029Y136445D01*
X152021Y136345D01*
X152009Y136245D01*
X151994Y136145D01*
X151974Y136046D01*
X151951Y135948D01*
X151924Y135851D01*
X151893Y135756D01*
X151859Y135661D01*
X151821Y135568D01*
X151779Y135476D01*
X151734Y135386D01*
X151685Y135298D01*
X151633Y135212D01*
X151578Y135128D01*
X151519Y135046D01*
X151458Y134966D01*
X151393Y134889D01*
X151325Y134815D01*
X151255Y134743D01*
X151182Y134674D01*
X151106Y134607D01*
X151027Y134544D01*
X150947Y134484D01*
X150864Y134427D01*
X150778Y134373D01*
X150691Y134323D01*
X150602Y134276D01*
X150511Y134233D01*
X150419Y134193D01*
X150325Y134157D01*
X150230Y134124D01*
X150133Y134095D01*
X150036Y134070D01*
X149937Y134049D01*
X149838Y134031D01*
X149738Y134018D01*
X149638Y134008D01*
X149538Y134002D01*
X149437Y134000D01*
X149437Y133999D02*
X146840Y133999D01*
X160542Y139192D02*
X160649Y139190D01*
X160755Y139184D01*
X160861Y139174D01*
X160967Y139161D01*
X161073Y139143D01*
X161177Y139122D01*
X161281Y139097D01*
X161384Y139068D01*
X161485Y139036D01*
X161585Y138999D01*
X161684Y138959D01*
X161782Y138916D01*
X161878Y138869D01*
X161972Y138818D01*
X162064Y138764D01*
X162154Y138707D01*
X162242Y138647D01*
X162327Y138583D01*
X162410Y138516D01*
X162491Y138446D01*
X162569Y138374D01*
X162645Y138298D01*
X162717Y138220D01*
X162787Y138139D01*
X162854Y138056D01*
X162918Y137971D01*
X162978Y137883D01*
X163035Y137793D01*
X163089Y137701D01*
X163140Y137607D01*
X163187Y137511D01*
X163230Y137413D01*
X163270Y137314D01*
X163307Y137214D01*
X163339Y137113D01*
X163368Y137010D01*
X163393Y136906D01*
X163414Y136802D01*
X163432Y136696D01*
X163445Y136590D01*
X163455Y136484D01*
X163461Y136378D01*
X163463Y136271D01*
X160542Y139192D02*
X160421Y139190D01*
X160300Y139184D01*
X160180Y139174D01*
X160059Y139161D01*
X159940Y139143D01*
X159820Y139122D01*
X159702Y139097D01*
X159585Y139068D01*
X159468Y139035D01*
X159353Y138999D01*
X159239Y138958D01*
X159126Y138915D01*
X159014Y138867D01*
X158905Y138816D01*
X158797Y138761D01*
X158690Y138703D01*
X158586Y138642D01*
X158484Y138577D01*
X158384Y138509D01*
X158286Y138438D01*
X158190Y138364D01*
X158097Y138287D01*
X158007Y138206D01*
X157919Y138123D01*
X157834Y138037D01*
X157751Y137948D01*
X157672Y137857D01*
X157595Y137763D01*
X157522Y137667D01*
X157452Y137569D01*
X157385Y137468D01*
X157321Y137365D01*
X157261Y137260D01*
X157204Y137153D01*
X157150Y137045D01*
X157100Y136935D01*
X157054Y136823D01*
X157011Y136710D01*
X156972Y136595D01*
X162489Y133999D02*
X162568Y134076D01*
X162644Y134157D01*
X162717Y134240D01*
X162787Y134325D01*
X162854Y134413D01*
X162918Y134503D01*
X162978Y134595D01*
X163035Y134690D01*
X163089Y134786D01*
X163140Y134884D01*
X163187Y134984D01*
X163231Y135086D01*
X163271Y135189D01*
X163307Y135293D01*
X163339Y135399D01*
X163368Y135505D01*
X163393Y135613D01*
X163415Y135721D01*
X163432Y135831D01*
X163446Y135940D01*
X163455Y136050D01*
X163461Y136161D01*
X163463Y136271D01*
X162489Y133999D02*
X156972Y127508D01*
X163463Y127508D01*
X168783Y127508D02*
X168783Y139192D01*
X175274Y127508D01*
X175274Y139192D01*
D11*
X228600Y419100D02*
X228600Y444500D01*
X76200Y444500D02*
X76200Y419100D01*
X82550Y425450D01*
X82550Y438150D02*
X76200Y444500D01*
X95250Y438150D02*
X101600Y444500D01*
X228600Y444500D01*
X101600Y419100D02*
X95250Y425450D01*
X101600Y419100D02*
X76200Y419100D01*
X101600Y419100D02*
X101600Y444500D01*
X76200Y444500D01*
X101600Y419100D02*
X228600Y419100D01*
D13*
X80645Y454025D02*
X80645Y462915D01*
X80645Y454025D02*
X80643Y453925D01*
X80637Y453826D01*
X80627Y453726D01*
X80614Y453628D01*
X80596Y453529D01*
X80575Y453432D01*
X80550Y453336D01*
X80521Y453240D01*
X80488Y453146D01*
X80452Y453053D01*
X80412Y452962D01*
X80368Y452872D01*
X80321Y452784D01*
X80271Y452698D01*
X80217Y452614D01*
X80160Y452532D01*
X80100Y452453D01*
X80036Y452375D01*
X79970Y452301D01*
X79901Y452229D01*
X79829Y452160D01*
X79755Y452094D01*
X79677Y452030D01*
X79598Y451970D01*
X79516Y451913D01*
X79432Y451859D01*
X79346Y451809D01*
X79258Y451762D01*
X79168Y451718D01*
X79077Y451678D01*
X78984Y451642D01*
X78890Y451609D01*
X78794Y451580D01*
X78698Y451555D01*
X78601Y451534D01*
X78502Y451516D01*
X78404Y451503D01*
X78304Y451493D01*
X78205Y451487D01*
X78105Y451485D01*
X76835Y451485D01*
X86054Y454660D02*
X86054Y459740D01*
X86056Y459851D01*
X86062Y459961D01*
X86071Y460072D01*
X86085Y460182D01*
X86102Y460291D01*
X86123Y460400D01*
X86148Y460508D01*
X86177Y460615D01*
X86209Y460721D01*
X86245Y460826D01*
X86285Y460929D01*
X86328Y461031D01*
X86375Y461132D01*
X86426Y461231D01*
X86479Y461328D01*
X86536Y461422D01*
X86597Y461515D01*
X86660Y461606D01*
X86727Y461695D01*
X86797Y461781D01*
X86870Y461864D01*
X86945Y461946D01*
X87023Y462024D01*
X87105Y462099D01*
X87188Y462172D01*
X87274Y462242D01*
X87363Y462309D01*
X87454Y462372D01*
X87547Y462433D01*
X87642Y462490D01*
X87738Y462543D01*
X87837Y462594D01*
X87938Y462641D01*
X88040Y462684D01*
X88143Y462724D01*
X88248Y462760D01*
X88354Y462792D01*
X88461Y462821D01*
X88569Y462846D01*
X88678Y462867D01*
X88787Y462884D01*
X88897Y462898D01*
X89008Y462907D01*
X89118Y462913D01*
X89229Y462915D01*
X89340Y462913D01*
X89450Y462907D01*
X89561Y462898D01*
X89671Y462884D01*
X89780Y462867D01*
X89889Y462846D01*
X89997Y462821D01*
X90104Y462792D01*
X90210Y462760D01*
X90315Y462724D01*
X90418Y462684D01*
X90520Y462641D01*
X90621Y462594D01*
X90720Y462543D01*
X90817Y462490D01*
X90911Y462433D01*
X91004Y462372D01*
X91095Y462309D01*
X91184Y462242D01*
X91270Y462172D01*
X91353Y462099D01*
X91435Y462024D01*
X91513Y461946D01*
X91588Y461864D01*
X91661Y461781D01*
X91731Y461695D01*
X91798Y461606D01*
X91861Y461515D01*
X91922Y461422D01*
X91979Y461328D01*
X92032Y461231D01*
X92083Y461132D01*
X92130Y461031D01*
X92173Y460929D01*
X92213Y460826D01*
X92249Y460721D01*
X92281Y460615D01*
X92310Y460508D01*
X92335Y460400D01*
X92356Y460291D01*
X92373Y460182D01*
X92387Y460072D01*
X92396Y459961D01*
X92402Y459851D01*
X92404Y459740D01*
X92404Y454660D01*
X92402Y454549D01*
X92396Y454439D01*
X92387Y454328D01*
X92373Y454218D01*
X92356Y454109D01*
X92335Y454000D01*
X92310Y453892D01*
X92281Y453785D01*
X92249Y453679D01*
X92213Y453574D01*
X92173Y453471D01*
X92130Y453369D01*
X92083Y453268D01*
X92032Y453169D01*
X91979Y453072D01*
X91922Y452978D01*
X91861Y452885D01*
X91798Y452794D01*
X91731Y452705D01*
X91661Y452619D01*
X91588Y452536D01*
X91513Y452454D01*
X91435Y452376D01*
X91353Y452301D01*
X91270Y452228D01*
X91184Y452158D01*
X91095Y452091D01*
X91004Y452028D01*
X90911Y451967D01*
X90816Y451910D01*
X90720Y451857D01*
X90621Y451806D01*
X90520Y451759D01*
X90418Y451716D01*
X90315Y451676D01*
X90210Y451640D01*
X90104Y451608D01*
X89997Y451579D01*
X89889Y451554D01*
X89780Y451533D01*
X89671Y451516D01*
X89561Y451502D01*
X89450Y451493D01*
X89340Y451487D01*
X89229Y451485D01*
X89118Y451487D01*
X89008Y451493D01*
X88897Y451502D01*
X88787Y451516D01*
X88678Y451533D01*
X88569Y451554D01*
X88461Y451579D01*
X88354Y451608D01*
X88248Y451640D01*
X88143Y451676D01*
X88040Y451716D01*
X87938Y451759D01*
X87837Y451806D01*
X87738Y451857D01*
X87642Y451910D01*
X87547Y451967D01*
X87454Y452028D01*
X87363Y452091D01*
X87274Y452158D01*
X87188Y452228D01*
X87105Y452301D01*
X87023Y452376D01*
X86945Y452454D01*
X86870Y452536D01*
X86797Y452619D01*
X86727Y452705D01*
X86660Y452794D01*
X86597Y452885D01*
X86536Y452978D01*
X86479Y453073D01*
X86426Y453169D01*
X86375Y453268D01*
X86328Y453369D01*
X86285Y453471D01*
X86245Y453574D01*
X86209Y453679D01*
X86177Y453785D01*
X86148Y453892D01*
X86123Y454000D01*
X86102Y454109D01*
X86085Y454218D01*
X86071Y454328D01*
X86062Y454439D01*
X86056Y454549D01*
X86054Y454660D01*
X96849Y462915D02*
X100659Y457518D01*
X104469Y462915D01*
X100659Y457518D02*
X100659Y451485D01*
X108914Y460375D02*
X112089Y462915D01*
X112089Y451485D01*
X108914Y451485D02*
X115264Y451485D01*
D11*
X533400Y444500D02*
X533400Y419100D01*
X381000Y419100D02*
X381000Y444500D01*
X387350Y425450D02*
X381000Y419100D01*
X387350Y438150D02*
X381000Y444500D01*
X400050Y438150D02*
X406400Y444500D01*
X533400Y444500D01*
X406400Y419100D02*
X400050Y425450D01*
X406400Y419100D02*
X381000Y419100D01*
X406400Y419100D02*
X406400Y444500D01*
X381000Y444500D01*
X406400Y419100D02*
X533400Y419100D01*
D13*
X385445Y454025D02*
X385445Y462915D01*
X385445Y454025D02*
X385443Y453925D01*
X385437Y453826D01*
X385427Y453726D01*
X385414Y453628D01*
X385396Y453529D01*
X385375Y453432D01*
X385350Y453336D01*
X385321Y453240D01*
X385288Y453146D01*
X385252Y453053D01*
X385212Y452962D01*
X385168Y452872D01*
X385121Y452784D01*
X385071Y452698D01*
X385017Y452614D01*
X384960Y452532D01*
X384900Y452453D01*
X384836Y452375D01*
X384770Y452301D01*
X384701Y452229D01*
X384629Y452160D01*
X384555Y452094D01*
X384477Y452030D01*
X384398Y451970D01*
X384316Y451913D01*
X384232Y451859D01*
X384146Y451809D01*
X384058Y451762D01*
X383968Y451718D01*
X383877Y451678D01*
X383784Y451642D01*
X383690Y451609D01*
X383594Y451580D01*
X383498Y451555D01*
X383401Y451534D01*
X383302Y451516D01*
X383204Y451503D01*
X383104Y451493D01*
X383005Y451487D01*
X382905Y451485D01*
X381635Y451485D01*
X390854Y454660D02*
X390854Y459740D01*
X390856Y459851D01*
X390862Y459961D01*
X390871Y460072D01*
X390885Y460182D01*
X390902Y460291D01*
X390923Y460400D01*
X390948Y460508D01*
X390977Y460615D01*
X391009Y460721D01*
X391045Y460826D01*
X391085Y460929D01*
X391128Y461031D01*
X391175Y461132D01*
X391226Y461231D01*
X391279Y461328D01*
X391336Y461422D01*
X391397Y461515D01*
X391460Y461606D01*
X391527Y461695D01*
X391597Y461781D01*
X391670Y461864D01*
X391745Y461946D01*
X391823Y462024D01*
X391905Y462099D01*
X391988Y462172D01*
X392074Y462242D01*
X392163Y462309D01*
X392254Y462372D01*
X392347Y462433D01*
X392442Y462490D01*
X392538Y462543D01*
X392637Y462594D01*
X392738Y462641D01*
X392840Y462684D01*
X392943Y462724D01*
X393048Y462760D01*
X393154Y462792D01*
X393261Y462821D01*
X393369Y462846D01*
X393478Y462867D01*
X393587Y462884D01*
X393697Y462898D01*
X393808Y462907D01*
X393918Y462913D01*
X394029Y462915D01*
X394140Y462913D01*
X394250Y462907D01*
X394361Y462898D01*
X394471Y462884D01*
X394580Y462867D01*
X394689Y462846D01*
X394797Y462821D01*
X394904Y462792D01*
X395010Y462760D01*
X395115Y462724D01*
X395218Y462684D01*
X395320Y462641D01*
X395421Y462594D01*
X395520Y462543D01*
X395617Y462490D01*
X395711Y462433D01*
X395804Y462372D01*
X395895Y462309D01*
X395984Y462242D01*
X396070Y462172D01*
X396153Y462099D01*
X396235Y462024D01*
X396313Y461946D01*
X396388Y461864D01*
X396461Y461781D01*
X396531Y461695D01*
X396598Y461606D01*
X396661Y461515D01*
X396722Y461422D01*
X396779Y461328D01*
X396832Y461231D01*
X396883Y461132D01*
X396930Y461031D01*
X396973Y460929D01*
X397013Y460826D01*
X397049Y460721D01*
X397081Y460615D01*
X397110Y460508D01*
X397135Y460400D01*
X397156Y460291D01*
X397173Y460182D01*
X397187Y460072D01*
X397196Y459961D01*
X397202Y459851D01*
X397204Y459740D01*
X397204Y454660D01*
X397202Y454549D01*
X397196Y454439D01*
X397187Y454328D01*
X397173Y454218D01*
X397156Y454109D01*
X397135Y454000D01*
X397110Y453892D01*
X397081Y453785D01*
X397049Y453679D01*
X397013Y453574D01*
X396973Y453471D01*
X396930Y453369D01*
X396883Y453268D01*
X396832Y453169D01*
X396779Y453072D01*
X396722Y452978D01*
X396661Y452885D01*
X396598Y452794D01*
X396531Y452705D01*
X396461Y452619D01*
X396388Y452536D01*
X396313Y452454D01*
X396235Y452376D01*
X396153Y452301D01*
X396070Y452228D01*
X395984Y452158D01*
X395895Y452091D01*
X395804Y452028D01*
X395711Y451967D01*
X395616Y451910D01*
X395520Y451857D01*
X395421Y451806D01*
X395320Y451759D01*
X395218Y451716D01*
X395115Y451676D01*
X395010Y451640D01*
X394904Y451608D01*
X394797Y451579D01*
X394689Y451554D01*
X394580Y451533D01*
X394471Y451516D01*
X394361Y451502D01*
X394250Y451493D01*
X394140Y451487D01*
X394029Y451485D01*
X393918Y451487D01*
X393808Y451493D01*
X393697Y451502D01*
X393587Y451516D01*
X393478Y451533D01*
X393369Y451554D01*
X393261Y451579D01*
X393154Y451608D01*
X393048Y451640D01*
X392943Y451676D01*
X392840Y451716D01*
X392738Y451759D01*
X392637Y451806D01*
X392538Y451857D01*
X392442Y451910D01*
X392347Y451967D01*
X392254Y452028D01*
X392163Y452091D01*
X392074Y452158D01*
X391988Y452228D01*
X391905Y452301D01*
X391823Y452376D01*
X391745Y452454D01*
X391670Y452536D01*
X391597Y452619D01*
X391527Y452705D01*
X391460Y452794D01*
X391397Y452885D01*
X391336Y452978D01*
X391279Y453073D01*
X391226Y453169D01*
X391175Y453268D01*
X391128Y453369D01*
X391085Y453471D01*
X391045Y453574D01*
X391009Y453679D01*
X390977Y453785D01*
X390948Y453892D01*
X390923Y454000D01*
X390902Y454109D01*
X390885Y454218D01*
X390871Y454328D01*
X390862Y454439D01*
X390856Y454549D01*
X390854Y454660D01*
X401649Y462915D02*
X405459Y457518D01*
X409269Y462915D01*
X405459Y457518D02*
X405459Y451485D01*
X417206Y462916D02*
X417310Y462914D01*
X417415Y462908D01*
X417519Y462899D01*
X417622Y462886D01*
X417725Y462868D01*
X417827Y462848D01*
X417929Y462823D01*
X418029Y462795D01*
X418129Y462763D01*
X418227Y462727D01*
X418324Y462688D01*
X418419Y462646D01*
X418513Y462600D01*
X418605Y462550D01*
X418695Y462498D01*
X418783Y462442D01*
X418869Y462382D01*
X418953Y462320D01*
X419034Y462255D01*
X419113Y462187D01*
X419190Y462115D01*
X419263Y462042D01*
X419335Y461965D01*
X419403Y461886D01*
X419468Y461805D01*
X419530Y461721D01*
X419590Y461635D01*
X419646Y461547D01*
X419698Y461457D01*
X419748Y461365D01*
X419794Y461271D01*
X419836Y461176D01*
X419875Y461079D01*
X419911Y460981D01*
X419943Y460881D01*
X419971Y460781D01*
X419996Y460679D01*
X420016Y460577D01*
X420034Y460474D01*
X420047Y460371D01*
X420056Y460267D01*
X420062Y460162D01*
X420064Y460058D01*
X417206Y462915D02*
X417088Y462913D01*
X416969Y462907D01*
X416851Y462898D01*
X416734Y462885D01*
X416617Y462867D01*
X416500Y462847D01*
X416384Y462822D01*
X416269Y462794D01*
X416156Y462761D01*
X416043Y462726D01*
X415931Y462686D01*
X415821Y462644D01*
X415712Y462597D01*
X415604Y462547D01*
X415499Y462494D01*
X415395Y462437D01*
X415293Y462377D01*
X415193Y462314D01*
X415095Y462247D01*
X414999Y462178D01*
X414906Y462105D01*
X414815Y462029D01*
X414726Y461951D01*
X414640Y461869D01*
X414557Y461785D01*
X414476Y461699D01*
X414399Y461609D01*
X414324Y461518D01*
X414252Y461424D01*
X414183Y461327D01*
X414118Y461229D01*
X414055Y461128D01*
X413996Y461025D01*
X413940Y460921D01*
X413888Y460815D01*
X413839Y460707D01*
X413794Y460598D01*
X413752Y460487D01*
X413714Y460375D01*
X419112Y457836D02*
X419188Y457911D01*
X419263Y457990D01*
X419334Y458071D01*
X419403Y458155D01*
X419468Y458241D01*
X419530Y458329D01*
X419590Y458419D01*
X419646Y458511D01*
X419699Y458606D01*
X419748Y458702D01*
X419794Y458800D01*
X419837Y458899D01*
X419876Y459000D01*
X419911Y459102D01*
X419943Y459205D01*
X419971Y459309D01*
X419996Y459414D01*
X420017Y459521D01*
X420034Y459627D01*
X420047Y459734D01*
X420056Y459842D01*
X420062Y459950D01*
X420064Y460058D01*
X419111Y457835D02*
X413714Y451485D01*
X420064Y451485D01*
D11*
X317500Y262890D02*
X571500Y262890D01*
X571500Y321310D02*
X317500Y321310D01*
X317500Y262890D01*
X571500Y262890D02*
X571500Y281940D01*
X571500Y302260D02*
X571500Y321310D01*
X571500Y302260D02*
X571253Y302257D01*
X571005Y302248D01*
X570758Y302233D01*
X570512Y302212D01*
X570266Y302185D01*
X570021Y302152D01*
X569776Y302113D01*
X569533Y302068D01*
X569291Y302017D01*
X569050Y301960D01*
X568811Y301898D01*
X568573Y301829D01*
X568337Y301755D01*
X568103Y301675D01*
X567871Y301590D01*
X567641Y301498D01*
X567413Y301402D01*
X567188Y301299D01*
X566965Y301192D01*
X566745Y301078D01*
X566528Y300960D01*
X566313Y300836D01*
X566102Y300707D01*
X565894Y300573D01*
X565689Y300434D01*
X565488Y300290D01*
X565290Y300142D01*
X565096Y299988D01*
X564906Y299830D01*
X564720Y299667D01*
X564538Y299500D01*
X564360Y299328D01*
X564186Y299152D01*
X564016Y298972D01*
X563851Y298787D01*
X563691Y298599D01*
X563535Y298407D01*
X563383Y298211D01*
X563237Y298012D01*
X563095Y297809D01*
X562959Y297602D01*
X562827Y297393D01*
X562701Y297180D01*
X562580Y296964D01*
X562464Y296746D01*
X562354Y296524D01*
X562249Y296300D01*
X562149Y296074D01*
X562055Y295845D01*
X561967Y295614D01*
X561884Y295380D01*
X561807Y295145D01*
X561736Y294908D01*
X561670Y294670D01*
X561611Y294430D01*
X561557Y294188D01*
X561509Y293945D01*
X561467Y293702D01*
X561431Y293457D01*
X561401Y293211D01*
X561377Y292965D01*
X561359Y292718D01*
X561347Y292471D01*
X561341Y292224D01*
X561341Y291976D01*
X561347Y291729D01*
X561359Y291482D01*
X561377Y291235D01*
X561401Y290989D01*
X561431Y290743D01*
X561467Y290498D01*
X561509Y290255D01*
X561557Y290012D01*
X561611Y289770D01*
X561670Y289530D01*
X561736Y289292D01*
X561807Y289055D01*
X561884Y288820D01*
X561967Y288586D01*
X562055Y288355D01*
X562149Y288126D01*
X562249Y287900D01*
X562354Y287676D01*
X562464Y287454D01*
X562580Y287236D01*
X562701Y287020D01*
X562827Y286807D01*
X562959Y286598D01*
X563095Y286391D01*
X563237Y286188D01*
X563383Y285989D01*
X563535Y285793D01*
X563691Y285601D01*
X563851Y285413D01*
X564016Y285228D01*
X564186Y285048D01*
X564360Y284872D01*
X564538Y284700D01*
X564720Y284533D01*
X564906Y284370D01*
X565096Y284212D01*
X565290Y284058D01*
X565488Y283910D01*
X565689Y283766D01*
X565894Y283627D01*
X566102Y283493D01*
X566313Y283364D01*
X566528Y283240D01*
X566745Y283122D01*
X566965Y283008D01*
X567188Y282901D01*
X567413Y282798D01*
X567641Y282702D01*
X567871Y282610D01*
X568103Y282525D01*
X568337Y282445D01*
X568573Y282371D01*
X568811Y282302D01*
X569050Y282240D01*
X569291Y282183D01*
X569533Y282132D01*
X569776Y282087D01*
X570021Y282048D01*
X570266Y282015D01*
X570512Y281988D01*
X570758Y281967D01*
X571005Y281952D01*
X571253Y281943D01*
X571500Y281940D01*
D12*
X575818Y300157D02*
X587502Y300157D01*
X587502Y298859D02*
X587502Y301456D01*
X575818Y301456D02*
X575818Y298859D01*
X587502Y308619D02*
X587502Y311216D01*
X587502Y308619D02*
X587500Y308520D01*
X587494Y308420D01*
X587485Y308321D01*
X587472Y308223D01*
X587455Y308125D01*
X587434Y308027D01*
X587409Y307931D01*
X587381Y307836D01*
X587349Y307742D01*
X587314Y307649D01*
X587275Y307557D01*
X587232Y307467D01*
X587187Y307379D01*
X587137Y307292D01*
X587085Y307208D01*
X587029Y307125D01*
X586971Y307045D01*
X586909Y306967D01*
X586844Y306892D01*
X586776Y306819D01*
X586706Y306749D01*
X586633Y306681D01*
X586558Y306616D01*
X586480Y306554D01*
X586400Y306496D01*
X586317Y306440D01*
X586233Y306388D01*
X586146Y306338D01*
X586058Y306293D01*
X585968Y306250D01*
X585876Y306211D01*
X585783Y306176D01*
X585689Y306144D01*
X585594Y306116D01*
X585498Y306091D01*
X585400Y306070D01*
X585302Y306053D01*
X585204Y306040D01*
X585105Y306031D01*
X585005Y306025D01*
X584906Y306023D01*
X578414Y306023D01*
X578414Y306022D02*
X578315Y306024D01*
X578215Y306030D01*
X578116Y306039D01*
X578018Y306052D01*
X577920Y306070D01*
X577822Y306090D01*
X577726Y306115D01*
X577630Y306143D01*
X577536Y306175D01*
X577443Y306210D01*
X577352Y306249D01*
X577262Y306292D01*
X577173Y306337D01*
X577087Y306387D01*
X577002Y306439D01*
X576920Y306495D01*
X576840Y306554D01*
X576762Y306615D01*
X576686Y306680D01*
X576613Y306748D01*
X576543Y306818D01*
X576475Y306891D01*
X576410Y306967D01*
X576349Y307045D01*
X576290Y307125D01*
X576234Y307207D01*
X576182Y307292D01*
X576133Y307378D01*
X576087Y307467D01*
X576044Y307557D01*
X576005Y307648D01*
X575970Y307741D01*
X575938Y307835D01*
X575910Y307931D01*
X575885Y308027D01*
X575865Y308125D01*
X575847Y308223D01*
X575834Y308321D01*
X575825Y308420D01*
X575819Y308519D01*
X575817Y308619D01*
X575818Y308619D02*
X575818Y311216D01*
X578414Y315581D02*
X575818Y318826D01*
X587502Y318826D01*
X587502Y315581D02*
X587502Y322072D01*
D11*
X190500Y110490D02*
X12700Y110490D01*
X12700Y168910D02*
X190500Y168910D01*
X12700Y168910D02*
X12700Y110490D01*
X190500Y110490D02*
X190500Y129540D01*
X190500Y149860D02*
X190500Y168910D01*
X190500Y149860D02*
X190253Y149857D01*
X190005Y149848D01*
X189758Y149833D01*
X189512Y149812D01*
X189266Y149785D01*
X189021Y149752D01*
X188776Y149713D01*
X188533Y149668D01*
X188291Y149617D01*
X188050Y149560D01*
X187811Y149498D01*
X187573Y149429D01*
X187337Y149355D01*
X187103Y149275D01*
X186871Y149190D01*
X186641Y149098D01*
X186413Y149002D01*
X186188Y148899D01*
X185965Y148792D01*
X185745Y148678D01*
X185528Y148560D01*
X185313Y148436D01*
X185102Y148307D01*
X184894Y148173D01*
X184689Y148034D01*
X184488Y147890D01*
X184290Y147742D01*
X184096Y147588D01*
X183906Y147430D01*
X183720Y147267D01*
X183538Y147100D01*
X183360Y146928D01*
X183186Y146752D01*
X183016Y146572D01*
X182851Y146387D01*
X182691Y146199D01*
X182535Y146007D01*
X182383Y145811D01*
X182237Y145612D01*
X182095Y145409D01*
X181959Y145202D01*
X181827Y144993D01*
X181701Y144780D01*
X181580Y144564D01*
X181464Y144346D01*
X181354Y144124D01*
X181249Y143900D01*
X181149Y143674D01*
X181055Y143445D01*
X180967Y143214D01*
X180884Y142980D01*
X180807Y142745D01*
X180736Y142508D01*
X180670Y142270D01*
X180611Y142030D01*
X180557Y141788D01*
X180509Y141545D01*
X180467Y141302D01*
X180431Y141057D01*
X180401Y140811D01*
X180377Y140565D01*
X180359Y140318D01*
X180347Y140071D01*
X180341Y139824D01*
X180341Y139576D01*
X180347Y139329D01*
X180359Y139082D01*
X180377Y138835D01*
X180401Y138589D01*
X180431Y138343D01*
X180467Y138098D01*
X180509Y137855D01*
X180557Y137612D01*
X180611Y137370D01*
X180670Y137130D01*
X180736Y136892D01*
X180807Y136655D01*
X180884Y136420D01*
X180967Y136186D01*
X181055Y135955D01*
X181149Y135726D01*
X181249Y135500D01*
X181354Y135276D01*
X181464Y135054D01*
X181580Y134836D01*
X181701Y134620D01*
X181827Y134407D01*
X181959Y134198D01*
X182095Y133991D01*
X182237Y133788D01*
X182383Y133589D01*
X182535Y133393D01*
X182691Y133201D01*
X182851Y133013D01*
X183016Y132828D01*
X183186Y132648D01*
X183360Y132472D01*
X183538Y132300D01*
X183720Y132133D01*
X183906Y131970D01*
X184096Y131812D01*
X184290Y131658D01*
X184488Y131510D01*
X184689Y131366D01*
X184894Y131227D01*
X185102Y131093D01*
X185313Y130964D01*
X185528Y130840D01*
X185745Y130722D01*
X185965Y130608D01*
X186188Y130501D01*
X186413Y130398D01*
X186641Y130302D01*
X186871Y130210D01*
X187103Y130125D01*
X187337Y130045D01*
X187573Y129971D01*
X187811Y129902D01*
X188050Y129840D01*
X188291Y129783D01*
X188533Y129732D01*
X188776Y129687D01*
X189021Y129648D01*
X189266Y129615D01*
X189512Y129588D01*
X189758Y129567D01*
X190005Y129552D01*
X190253Y129543D01*
X190500Y129540D01*
D13*
X194945Y147701D02*
X206375Y147701D01*
X206375Y146431D02*
X206375Y148971D01*
X194945Y148971D02*
X194945Y146431D01*
X206375Y156173D02*
X206375Y158713D01*
X206375Y156173D02*
X206373Y156073D01*
X206367Y155974D01*
X206357Y155874D01*
X206344Y155776D01*
X206326Y155677D01*
X206305Y155580D01*
X206280Y155484D01*
X206251Y155388D01*
X206218Y155294D01*
X206182Y155201D01*
X206142Y155110D01*
X206098Y155020D01*
X206051Y154932D01*
X206001Y154846D01*
X205947Y154762D01*
X205890Y154680D01*
X205830Y154601D01*
X205766Y154523D01*
X205700Y154449D01*
X205631Y154377D01*
X205559Y154308D01*
X205485Y154242D01*
X205407Y154178D01*
X205328Y154118D01*
X205246Y154061D01*
X205162Y154007D01*
X205076Y153957D01*
X204988Y153910D01*
X204898Y153866D01*
X204807Y153826D01*
X204714Y153790D01*
X204620Y153757D01*
X204524Y153728D01*
X204428Y153703D01*
X204331Y153682D01*
X204232Y153664D01*
X204134Y153651D01*
X204034Y153641D01*
X203935Y153635D01*
X203835Y153633D01*
X197485Y153633D01*
X197385Y153635D01*
X197286Y153641D01*
X197186Y153651D01*
X197088Y153664D01*
X196989Y153682D01*
X196892Y153703D01*
X196796Y153728D01*
X196700Y153757D01*
X196606Y153790D01*
X196513Y153826D01*
X196422Y153866D01*
X196332Y153910D01*
X196244Y153957D01*
X196158Y154007D01*
X196074Y154061D01*
X195992Y154118D01*
X195913Y154178D01*
X195835Y154242D01*
X195761Y154308D01*
X195689Y154377D01*
X195620Y154449D01*
X195554Y154523D01*
X195490Y154601D01*
X195430Y154680D01*
X195373Y154762D01*
X195319Y154846D01*
X195269Y154932D01*
X195222Y155020D01*
X195178Y155110D01*
X195138Y155201D01*
X195102Y155294D01*
X195069Y155388D01*
X195040Y155484D01*
X195015Y155580D01*
X194994Y155677D01*
X194976Y155776D01*
X194963Y155874D01*
X194953Y155974D01*
X194947Y156073D01*
X194945Y156173D01*
X194945Y158713D01*
X194945Y166688D02*
X194947Y166792D01*
X194953Y166897D01*
X194962Y167001D01*
X194975Y167104D01*
X194993Y167207D01*
X195013Y167309D01*
X195038Y167411D01*
X195066Y167511D01*
X195098Y167611D01*
X195134Y167709D01*
X195173Y167806D01*
X195215Y167901D01*
X195261Y167995D01*
X195311Y168087D01*
X195363Y168177D01*
X195419Y168265D01*
X195479Y168351D01*
X195541Y168435D01*
X195606Y168516D01*
X195674Y168595D01*
X195746Y168672D01*
X195819Y168745D01*
X195896Y168817D01*
X195975Y168885D01*
X196056Y168950D01*
X196140Y169012D01*
X196226Y169072D01*
X196314Y169128D01*
X196404Y169180D01*
X196496Y169230D01*
X196590Y169276D01*
X196685Y169318D01*
X196782Y169357D01*
X196880Y169393D01*
X196980Y169425D01*
X197080Y169453D01*
X197182Y169478D01*
X197284Y169498D01*
X197387Y169516D01*
X197490Y169529D01*
X197594Y169538D01*
X197699Y169544D01*
X197803Y169546D01*
X194945Y166688D02*
X194947Y166570D01*
X194953Y166451D01*
X194962Y166333D01*
X194975Y166216D01*
X194993Y166099D01*
X195013Y165982D01*
X195038Y165866D01*
X195066Y165751D01*
X195099Y165638D01*
X195134Y165525D01*
X195174Y165413D01*
X195216Y165303D01*
X195263Y165194D01*
X195313Y165086D01*
X195366Y164981D01*
X195423Y164877D01*
X195483Y164775D01*
X195546Y164675D01*
X195613Y164577D01*
X195682Y164481D01*
X195755Y164388D01*
X195831Y164297D01*
X195909Y164208D01*
X195991Y164122D01*
X196075Y164039D01*
X196161Y163958D01*
X196251Y163881D01*
X196342Y163806D01*
X196436Y163734D01*
X196533Y163665D01*
X196631Y163600D01*
X196732Y163537D01*
X196835Y163478D01*
X196939Y163422D01*
X197045Y163370D01*
X197153Y163321D01*
X197262Y163276D01*
X197373Y163234D01*
X197485Y163196D01*
X200025Y168593D02*
X199950Y168669D01*
X199871Y168744D01*
X199790Y168815D01*
X199706Y168884D01*
X199620Y168949D01*
X199532Y169011D01*
X199442Y169071D01*
X199350Y169127D01*
X199255Y169180D01*
X199159Y169229D01*
X199061Y169275D01*
X198962Y169318D01*
X198861Y169357D01*
X198759Y169392D01*
X198656Y169424D01*
X198552Y169452D01*
X198447Y169477D01*
X198340Y169498D01*
X198234Y169515D01*
X198127Y169528D01*
X198019Y169537D01*
X197911Y169543D01*
X197803Y169545D01*
X200025Y168593D02*
X206375Y163195D01*
X206375Y169545D01*
D11*
X266700Y262890D02*
X12700Y262890D01*
X12700Y321310D02*
X266700Y321310D01*
X12700Y321310D02*
X12700Y262890D01*
X266700Y262890D02*
X266700Y281940D01*
X266700Y302260D02*
X266700Y321310D01*
X266700Y302260D02*
X266453Y302257D01*
X266205Y302248D01*
X265958Y302233D01*
X265712Y302212D01*
X265466Y302185D01*
X265221Y302152D01*
X264976Y302113D01*
X264733Y302068D01*
X264491Y302017D01*
X264250Y301960D01*
X264011Y301898D01*
X263773Y301829D01*
X263537Y301755D01*
X263303Y301675D01*
X263071Y301590D01*
X262841Y301498D01*
X262613Y301402D01*
X262388Y301299D01*
X262165Y301192D01*
X261945Y301078D01*
X261728Y300960D01*
X261513Y300836D01*
X261302Y300707D01*
X261094Y300573D01*
X260889Y300434D01*
X260688Y300290D01*
X260490Y300142D01*
X260296Y299988D01*
X260106Y299830D01*
X259920Y299667D01*
X259738Y299500D01*
X259560Y299328D01*
X259386Y299152D01*
X259216Y298972D01*
X259051Y298787D01*
X258891Y298599D01*
X258735Y298407D01*
X258583Y298211D01*
X258437Y298012D01*
X258295Y297809D01*
X258159Y297602D01*
X258027Y297393D01*
X257901Y297180D01*
X257780Y296964D01*
X257664Y296746D01*
X257554Y296524D01*
X257449Y296300D01*
X257349Y296074D01*
X257255Y295845D01*
X257167Y295614D01*
X257084Y295380D01*
X257007Y295145D01*
X256936Y294908D01*
X256870Y294670D01*
X256811Y294430D01*
X256757Y294188D01*
X256709Y293945D01*
X256667Y293702D01*
X256631Y293457D01*
X256601Y293211D01*
X256577Y292965D01*
X256559Y292718D01*
X256547Y292471D01*
X256541Y292224D01*
X256541Y291976D01*
X256547Y291729D01*
X256559Y291482D01*
X256577Y291235D01*
X256601Y290989D01*
X256631Y290743D01*
X256667Y290498D01*
X256709Y290255D01*
X256757Y290012D01*
X256811Y289770D01*
X256870Y289530D01*
X256936Y289292D01*
X257007Y289055D01*
X257084Y288820D01*
X257167Y288586D01*
X257255Y288355D01*
X257349Y288126D01*
X257449Y287900D01*
X257554Y287676D01*
X257664Y287454D01*
X257780Y287236D01*
X257901Y287020D01*
X258027Y286807D01*
X258159Y286598D01*
X258295Y286391D01*
X258437Y286188D01*
X258583Y285989D01*
X258735Y285793D01*
X258891Y285601D01*
X259051Y285413D01*
X259216Y285228D01*
X259386Y285048D01*
X259560Y284872D01*
X259738Y284700D01*
X259920Y284533D01*
X260106Y284370D01*
X260296Y284212D01*
X260490Y284058D01*
X260688Y283910D01*
X260889Y283766D01*
X261094Y283627D01*
X261302Y283493D01*
X261513Y283364D01*
X261728Y283240D01*
X261945Y283122D01*
X262165Y283008D01*
X262388Y282901D01*
X262613Y282798D01*
X262841Y282702D01*
X263071Y282610D01*
X263303Y282525D01*
X263537Y282445D01*
X263773Y282371D01*
X264011Y282302D01*
X264250Y282240D01*
X264491Y282183D01*
X264733Y282132D01*
X264976Y282087D01*
X265221Y282048D01*
X265466Y282015D01*
X265712Y281988D01*
X265958Y281967D01*
X266205Y281952D01*
X266453Y281943D01*
X266700Y281940D01*
D12*
X271018Y300157D02*
X282702Y300157D01*
X282702Y298859D02*
X282702Y301456D01*
X271018Y301456D02*
X271018Y298859D01*
X282702Y308619D02*
X282702Y311216D01*
X282702Y308619D02*
X282700Y308520D01*
X282694Y308420D01*
X282685Y308321D01*
X282672Y308223D01*
X282655Y308125D01*
X282634Y308027D01*
X282609Y307931D01*
X282581Y307836D01*
X282549Y307742D01*
X282514Y307649D01*
X282475Y307557D01*
X282432Y307467D01*
X282387Y307379D01*
X282337Y307292D01*
X282285Y307208D01*
X282229Y307125D01*
X282171Y307045D01*
X282109Y306967D01*
X282044Y306892D01*
X281976Y306819D01*
X281906Y306749D01*
X281833Y306681D01*
X281758Y306616D01*
X281680Y306554D01*
X281600Y306496D01*
X281517Y306440D01*
X281433Y306388D01*
X281346Y306338D01*
X281258Y306293D01*
X281168Y306250D01*
X281076Y306211D01*
X280983Y306176D01*
X280889Y306144D01*
X280794Y306116D01*
X280698Y306091D01*
X280600Y306070D01*
X280502Y306053D01*
X280404Y306040D01*
X280305Y306031D01*
X280205Y306025D01*
X280106Y306023D01*
X273614Y306023D01*
X273614Y306022D02*
X273515Y306024D01*
X273415Y306030D01*
X273316Y306039D01*
X273218Y306052D01*
X273120Y306070D01*
X273022Y306090D01*
X272926Y306115D01*
X272830Y306143D01*
X272736Y306175D01*
X272643Y306210D01*
X272552Y306249D01*
X272462Y306292D01*
X272373Y306337D01*
X272287Y306387D01*
X272202Y306439D01*
X272120Y306495D01*
X272040Y306554D01*
X271962Y306615D01*
X271886Y306680D01*
X271813Y306748D01*
X271743Y306818D01*
X271675Y306891D01*
X271610Y306967D01*
X271549Y307045D01*
X271490Y307125D01*
X271434Y307207D01*
X271382Y307292D01*
X271333Y307378D01*
X271287Y307467D01*
X271244Y307557D01*
X271205Y307648D01*
X271170Y307741D01*
X271138Y307835D01*
X271110Y307931D01*
X271085Y308027D01*
X271065Y308125D01*
X271047Y308223D01*
X271034Y308321D01*
X271025Y308420D01*
X271019Y308519D01*
X271017Y308619D01*
X271018Y308619D02*
X271018Y311216D01*
X282702Y315581D02*
X282702Y318826D01*
X282700Y318939D01*
X282694Y319052D01*
X282684Y319165D01*
X282670Y319278D01*
X282653Y319390D01*
X282631Y319501D01*
X282606Y319611D01*
X282576Y319721D01*
X282543Y319829D01*
X282506Y319936D01*
X282466Y320042D01*
X282421Y320146D01*
X282373Y320249D01*
X282322Y320350D01*
X282267Y320449D01*
X282209Y320546D01*
X282147Y320641D01*
X282082Y320734D01*
X282014Y320824D01*
X281943Y320912D01*
X281868Y320998D01*
X281791Y321081D01*
X281711Y321161D01*
X281628Y321238D01*
X281542Y321313D01*
X281454Y321384D01*
X281364Y321452D01*
X281271Y321517D01*
X281176Y321579D01*
X281079Y321637D01*
X280980Y321692D01*
X280879Y321743D01*
X280776Y321791D01*
X280672Y321836D01*
X280566Y321876D01*
X280459Y321913D01*
X280351Y321946D01*
X280241Y321976D01*
X280131Y322001D01*
X280020Y322023D01*
X279908Y322040D01*
X279795Y322054D01*
X279682Y322064D01*
X279569Y322070D01*
X279456Y322072D01*
X279343Y322070D01*
X279230Y322064D01*
X279117Y322054D01*
X279004Y322040D01*
X278892Y322023D01*
X278781Y322001D01*
X278671Y321976D01*
X278561Y321946D01*
X278453Y321913D01*
X278346Y321876D01*
X278240Y321836D01*
X278136Y321791D01*
X278033Y321743D01*
X277932Y321692D01*
X277833Y321637D01*
X277736Y321579D01*
X277641Y321517D01*
X277548Y321452D01*
X277458Y321384D01*
X277370Y321313D01*
X277284Y321238D01*
X277201Y321161D01*
X277121Y321081D01*
X277044Y320998D01*
X276969Y320912D01*
X276898Y320824D01*
X276830Y320734D01*
X276765Y320641D01*
X276703Y320546D01*
X276645Y320449D01*
X276590Y320350D01*
X276539Y320249D01*
X276491Y320146D01*
X276446Y320042D01*
X276406Y319936D01*
X276369Y319829D01*
X276336Y319721D01*
X276306Y319611D01*
X276281Y319501D01*
X276259Y319390D01*
X276242Y319278D01*
X276228Y319165D01*
X276218Y319052D01*
X276212Y318939D01*
X276210Y318826D01*
X271018Y319476D02*
X271018Y315581D01*
X271018Y319476D02*
X271020Y319577D01*
X271026Y319677D01*
X271036Y319777D01*
X271049Y319877D01*
X271067Y319976D01*
X271088Y320075D01*
X271113Y320172D01*
X271142Y320269D01*
X271175Y320364D01*
X271211Y320458D01*
X271251Y320550D01*
X271294Y320641D01*
X271341Y320730D01*
X271391Y320817D01*
X271445Y320903D01*
X271502Y320986D01*
X271562Y321066D01*
X271625Y321145D01*
X271692Y321221D01*
X271761Y321294D01*
X271833Y321364D01*
X271907Y321432D01*
X271984Y321497D01*
X272064Y321558D01*
X272146Y321617D01*
X272230Y321672D01*
X272316Y321724D01*
X272404Y321773D01*
X272494Y321818D01*
X272586Y321860D01*
X272679Y321898D01*
X272774Y321932D01*
X272869Y321963D01*
X272966Y321990D01*
X273064Y322013D01*
X273163Y322033D01*
X273263Y322048D01*
X273363Y322060D01*
X273463Y322068D01*
X273564Y322072D01*
X273664Y322072D01*
X273765Y322068D01*
X273865Y322060D01*
X273965Y322048D01*
X274065Y322033D01*
X274164Y322013D01*
X274262Y321990D01*
X274359Y321963D01*
X274454Y321932D01*
X274549Y321898D01*
X274642Y321860D01*
X274734Y321818D01*
X274824Y321773D01*
X274912Y321724D01*
X274998Y321672D01*
X275082Y321617D01*
X275164Y321558D01*
X275244Y321497D01*
X275321Y321432D01*
X275395Y321364D01*
X275467Y321294D01*
X275536Y321221D01*
X275603Y321145D01*
X275666Y321066D01*
X275726Y320986D01*
X275783Y320903D01*
X275837Y320817D01*
X275887Y320730D01*
X275934Y320641D01*
X275977Y320550D01*
X276017Y320458D01*
X276053Y320364D01*
X276086Y320269D01*
X276115Y320172D01*
X276140Y320075D01*
X276161Y319976D01*
X276179Y319877D01*
X276192Y319777D01*
X276202Y319677D01*
X276208Y319577D01*
X276210Y319476D01*
X276211Y319476D02*
X276211Y316879D01*
D11*
X527050Y63500D02*
X539750Y63500D01*
X546100Y57150D01*
X546100Y44450D01*
X539750Y38100D01*
X501650Y63500D02*
X495300Y57150D01*
X501650Y63500D02*
X514350Y63500D01*
X520700Y57150D01*
X520700Y44450D01*
X514350Y38100D01*
X501650Y38100D01*
X495300Y44450D01*
X520700Y57150D02*
X527050Y63500D01*
X520700Y44450D02*
X527050Y38100D01*
X539750Y38100D01*
X463550Y63500D02*
X450850Y63500D01*
X463550Y63500D02*
X469900Y57150D01*
X469900Y44450D01*
X463550Y38100D01*
X469900Y57150D02*
X476250Y63500D01*
X488950Y63500D01*
X495300Y57150D01*
X495300Y44450D01*
X488950Y38100D01*
X476250Y38100D01*
X469900Y44450D01*
X425450Y63500D02*
X419100Y57150D01*
X425450Y63500D02*
X438150Y63500D01*
X444500Y57150D01*
X444500Y44450D01*
X438150Y38100D01*
X425450Y38100D01*
X419100Y44450D01*
X444500Y57150D02*
X450850Y63500D01*
X444500Y44450D02*
X450850Y38100D01*
X463550Y38100D01*
X387350Y63500D02*
X374650Y63500D01*
X387350Y63500D02*
X393700Y57150D01*
X393700Y44450D01*
X387350Y38100D01*
X393700Y57150D02*
X400050Y63500D01*
X412750Y63500D01*
X419100Y57150D01*
X419100Y44450D01*
X412750Y38100D01*
X400050Y38100D01*
X393700Y44450D01*
X349250Y63500D02*
X342900Y57150D01*
X349250Y63500D02*
X361950Y63500D01*
X368300Y57150D01*
X368300Y44450D01*
X361950Y38100D01*
X349250Y38100D01*
X342900Y44450D01*
X368300Y57150D02*
X374650Y63500D01*
X368300Y44450D02*
X374650Y38100D01*
X387350Y38100D01*
X311150Y63500D02*
X298450Y63500D01*
X311150Y63500D02*
X317500Y57150D01*
X317500Y44450D01*
X311150Y38100D01*
X317500Y57150D02*
X323850Y63500D01*
X336550Y63500D01*
X342900Y57150D01*
X342900Y44450D01*
X336550Y38100D01*
X323850Y38100D01*
X317500Y44450D01*
X273050Y63500D02*
X266700Y57150D01*
X273050Y63500D02*
X285750Y63500D01*
X292100Y57150D01*
X292100Y44450D01*
X285750Y38100D01*
X273050Y38100D01*
X266700Y44450D01*
X292100Y57150D02*
X298450Y63500D01*
X292100Y44450D02*
X298450Y38100D01*
X311150Y38100D01*
X234950Y63500D02*
X222250Y63500D01*
X234950Y63500D02*
X241300Y57150D01*
X241300Y44450D01*
X234950Y38100D01*
X241300Y57150D02*
X247650Y63500D01*
X260350Y63500D01*
X266700Y57150D01*
X266700Y44450D01*
X260350Y38100D01*
X247650Y38100D01*
X241300Y44450D01*
X196850Y63500D02*
X190500Y57150D01*
X196850Y63500D02*
X209550Y63500D01*
X215900Y57150D01*
X215900Y44450D01*
X209550Y38100D01*
X196850Y38100D01*
X190500Y44450D01*
X215900Y57150D02*
X222250Y63500D01*
X215900Y44450D02*
X222250Y38100D01*
X234950Y38100D01*
X158750Y63500D02*
X146050Y63500D01*
X158750Y63500D02*
X165100Y57150D01*
X165100Y44450D01*
X158750Y38100D01*
X165100Y57150D02*
X171450Y63500D01*
X184150Y63500D01*
X190500Y57150D01*
X190500Y44450D01*
X184150Y38100D01*
X171450Y38100D01*
X165100Y44450D01*
X139700Y44450D02*
X139700Y57150D01*
X146050Y63500D01*
X139700Y44450D02*
X146050Y38100D01*
X158750Y38100D01*
X546100Y57150D02*
X552450Y63500D01*
X565150Y63500D01*
X571500Y57150D01*
X571500Y44450D01*
X565150Y38100D01*
X552450Y38100D01*
X546100Y44450D01*
D13*
X144653Y69723D02*
X139573Y69723D01*
X139573Y81153D01*
X144653Y81153D01*
X143383Y76073D02*
X139573Y76073D01*
X151575Y69723D02*
X154115Y69723D01*
X151575Y69723D02*
X151475Y69725D01*
X151376Y69731D01*
X151276Y69741D01*
X151178Y69754D01*
X151079Y69772D01*
X150982Y69793D01*
X150886Y69818D01*
X150790Y69847D01*
X150696Y69880D01*
X150603Y69916D01*
X150512Y69956D01*
X150422Y70000D01*
X150334Y70047D01*
X150248Y70097D01*
X150164Y70151D01*
X150082Y70208D01*
X150003Y70268D01*
X149925Y70332D01*
X149851Y70398D01*
X149779Y70467D01*
X149710Y70539D01*
X149644Y70613D01*
X149580Y70691D01*
X149520Y70770D01*
X149463Y70852D01*
X149409Y70936D01*
X149359Y71022D01*
X149312Y71110D01*
X149268Y71200D01*
X149228Y71291D01*
X149192Y71384D01*
X149159Y71478D01*
X149130Y71574D01*
X149105Y71670D01*
X149084Y71767D01*
X149066Y71866D01*
X149053Y71964D01*
X149043Y72064D01*
X149037Y72163D01*
X149035Y72263D01*
X149035Y78613D01*
X149037Y78713D01*
X149043Y78812D01*
X149053Y78912D01*
X149066Y79010D01*
X149084Y79109D01*
X149105Y79206D01*
X149130Y79302D01*
X149159Y79398D01*
X149192Y79492D01*
X149228Y79585D01*
X149268Y79676D01*
X149312Y79766D01*
X149359Y79854D01*
X149409Y79940D01*
X149463Y80024D01*
X149520Y80106D01*
X149580Y80185D01*
X149644Y80263D01*
X149710Y80337D01*
X149779Y80409D01*
X149851Y80478D01*
X149925Y80544D01*
X150003Y80608D01*
X150082Y80668D01*
X150164Y80725D01*
X150248Y80779D01*
X150334Y80829D01*
X150422Y80876D01*
X150512Y80920D01*
X150603Y80960D01*
X150696Y80996D01*
X150790Y81029D01*
X150886Y81058D01*
X150982Y81083D01*
X151079Y81104D01*
X151178Y81122D01*
X151276Y81135D01*
X151376Y81145D01*
X151475Y81151D01*
X151575Y81153D01*
X154115Y81153D01*
X158598Y77978D02*
X158598Y72898D01*
X158598Y77978D02*
X158600Y78089D01*
X158606Y78199D01*
X158615Y78310D01*
X158629Y78420D01*
X158646Y78529D01*
X158667Y78638D01*
X158692Y78746D01*
X158721Y78853D01*
X158753Y78959D01*
X158789Y79064D01*
X158829Y79167D01*
X158872Y79269D01*
X158919Y79370D01*
X158970Y79469D01*
X159023Y79565D01*
X159080Y79660D01*
X159141Y79753D01*
X159204Y79844D01*
X159271Y79933D01*
X159341Y80019D01*
X159414Y80102D01*
X159489Y80184D01*
X159567Y80262D01*
X159649Y80337D01*
X159732Y80410D01*
X159818Y80480D01*
X159907Y80547D01*
X159998Y80610D01*
X160091Y80671D01*
X160186Y80728D01*
X160282Y80781D01*
X160381Y80832D01*
X160482Y80879D01*
X160584Y80922D01*
X160687Y80962D01*
X160792Y80998D01*
X160898Y81030D01*
X161005Y81059D01*
X161113Y81084D01*
X161222Y81105D01*
X161331Y81122D01*
X161441Y81136D01*
X161552Y81145D01*
X161662Y81151D01*
X161773Y81153D01*
X161884Y81151D01*
X161994Y81145D01*
X162105Y81136D01*
X162215Y81122D01*
X162324Y81105D01*
X162433Y81084D01*
X162541Y81059D01*
X162648Y81030D01*
X162754Y80998D01*
X162859Y80962D01*
X162962Y80922D01*
X163064Y80879D01*
X163165Y80832D01*
X163264Y80781D01*
X163361Y80728D01*
X163455Y80671D01*
X163548Y80610D01*
X163639Y80547D01*
X163728Y80480D01*
X163814Y80410D01*
X163897Y80337D01*
X163979Y80262D01*
X164057Y80184D01*
X164132Y80102D01*
X164205Y80019D01*
X164275Y79933D01*
X164342Y79844D01*
X164405Y79753D01*
X164466Y79660D01*
X164523Y79566D01*
X164576Y79469D01*
X164627Y79370D01*
X164674Y79269D01*
X164717Y79167D01*
X164757Y79064D01*
X164793Y78959D01*
X164825Y78853D01*
X164854Y78746D01*
X164879Y78638D01*
X164900Y78529D01*
X164917Y78420D01*
X164931Y78310D01*
X164940Y78199D01*
X164946Y78089D01*
X164948Y77978D01*
X164948Y72898D01*
X164946Y72787D01*
X164940Y72677D01*
X164931Y72566D01*
X164917Y72456D01*
X164900Y72347D01*
X164879Y72238D01*
X164854Y72130D01*
X164825Y72023D01*
X164793Y71917D01*
X164757Y71812D01*
X164717Y71709D01*
X164674Y71607D01*
X164627Y71506D01*
X164576Y71407D01*
X164523Y71310D01*
X164466Y71216D01*
X164405Y71123D01*
X164342Y71032D01*
X164275Y70943D01*
X164205Y70857D01*
X164132Y70774D01*
X164057Y70692D01*
X163979Y70614D01*
X163897Y70539D01*
X163814Y70466D01*
X163728Y70396D01*
X163639Y70329D01*
X163548Y70266D01*
X163455Y70205D01*
X163360Y70148D01*
X163264Y70095D01*
X163165Y70044D01*
X163064Y69997D01*
X162962Y69954D01*
X162859Y69914D01*
X162754Y69878D01*
X162648Y69846D01*
X162541Y69817D01*
X162433Y69792D01*
X162324Y69771D01*
X162215Y69754D01*
X162105Y69740D01*
X161994Y69731D01*
X161884Y69725D01*
X161773Y69723D01*
X161662Y69725D01*
X161552Y69731D01*
X161441Y69740D01*
X161331Y69754D01*
X161222Y69771D01*
X161113Y69792D01*
X161005Y69817D01*
X160898Y69846D01*
X160792Y69878D01*
X160687Y69914D01*
X160584Y69954D01*
X160482Y69997D01*
X160381Y70044D01*
X160282Y70095D01*
X160186Y70148D01*
X160091Y70205D01*
X159998Y70266D01*
X159907Y70329D01*
X159818Y70396D01*
X159732Y70466D01*
X159649Y70539D01*
X159567Y70614D01*
X159489Y70692D01*
X159414Y70774D01*
X159341Y70857D01*
X159271Y70943D01*
X159204Y71032D01*
X159141Y71123D01*
X159080Y71216D01*
X159023Y71311D01*
X158970Y71407D01*
X158919Y71506D01*
X158872Y71607D01*
X158829Y71709D01*
X158789Y71812D01*
X158753Y71917D01*
X158721Y72023D01*
X158692Y72130D01*
X158667Y72238D01*
X158646Y72347D01*
X158629Y72456D01*
X158615Y72566D01*
X158606Y72677D01*
X158600Y72787D01*
X158598Y72898D01*
X170409Y69723D02*
X170409Y81153D01*
X176759Y69723D01*
X176759Y81153D01*
X182626Y69723D02*
X187706Y69723D01*
X182626Y69723D02*
X182626Y81153D01*
X187706Y81153D01*
X186436Y76073D02*
X182626Y76073D01*
X194539Y81153D02*
X194539Y69723D01*
X191364Y81153D02*
X197714Y81153D01*
X202032Y78613D02*
X205207Y81153D01*
X205207Y69723D01*
X202032Y69723D02*
X208382Y69723D01*
X213462Y79883D02*
X213462Y81153D01*
X219812Y81153D01*
X216637Y69723D01*
D11*
X476250Y495300D02*
X488950Y495300D01*
X495300Y488950D01*
X495300Y476250D01*
X488950Y469900D01*
X450850Y495300D02*
X444500Y488950D01*
X450850Y495300D02*
X463550Y495300D01*
X469900Y488950D01*
X469900Y476250D01*
X463550Y469900D01*
X450850Y469900D01*
X444500Y476250D01*
X469900Y488950D02*
X476250Y495300D01*
X469900Y476250D02*
X476250Y469900D01*
X488950Y469900D01*
X412750Y495300D02*
X400050Y495300D01*
X412750Y495300D02*
X419100Y488950D01*
X419100Y476250D01*
X412750Y469900D01*
X419100Y488950D02*
X425450Y495300D01*
X438150Y495300D01*
X444500Y488950D01*
X444500Y476250D01*
X438150Y469900D01*
X425450Y469900D01*
X419100Y476250D01*
X393700Y476250D02*
X393700Y488950D01*
X400050Y495300D01*
X393700Y476250D02*
X400050Y469900D01*
X412750Y469900D01*
X501650Y495300D02*
X514350Y495300D01*
X520700Y488950D01*
X520700Y476250D01*
X514350Y469900D01*
X495300Y488950D02*
X501650Y495300D01*
X495300Y476250D02*
X501650Y469900D01*
X514350Y469900D01*
D13*
X398653Y501523D02*
X393573Y501523D01*
X393573Y512953D01*
X398653Y512953D01*
X397383Y507873D02*
X393573Y507873D01*
X405575Y501523D02*
X408115Y501523D01*
X405575Y501523D02*
X405475Y501525D01*
X405376Y501531D01*
X405276Y501541D01*
X405178Y501554D01*
X405079Y501572D01*
X404982Y501593D01*
X404886Y501618D01*
X404790Y501647D01*
X404696Y501680D01*
X404603Y501716D01*
X404512Y501756D01*
X404422Y501800D01*
X404334Y501847D01*
X404248Y501897D01*
X404164Y501951D01*
X404082Y502008D01*
X404003Y502068D01*
X403925Y502132D01*
X403851Y502198D01*
X403779Y502267D01*
X403710Y502339D01*
X403644Y502413D01*
X403580Y502491D01*
X403520Y502570D01*
X403463Y502652D01*
X403409Y502736D01*
X403359Y502822D01*
X403312Y502910D01*
X403268Y503000D01*
X403228Y503091D01*
X403192Y503184D01*
X403159Y503278D01*
X403130Y503374D01*
X403105Y503470D01*
X403084Y503567D01*
X403066Y503666D01*
X403053Y503764D01*
X403043Y503864D01*
X403037Y503963D01*
X403035Y504063D01*
X403035Y510413D01*
X403037Y510513D01*
X403043Y510612D01*
X403053Y510712D01*
X403066Y510810D01*
X403084Y510909D01*
X403105Y511006D01*
X403130Y511102D01*
X403159Y511198D01*
X403192Y511292D01*
X403228Y511385D01*
X403268Y511476D01*
X403312Y511566D01*
X403359Y511654D01*
X403409Y511740D01*
X403463Y511824D01*
X403520Y511906D01*
X403580Y511985D01*
X403644Y512063D01*
X403710Y512137D01*
X403779Y512209D01*
X403851Y512278D01*
X403925Y512344D01*
X404003Y512408D01*
X404082Y512468D01*
X404164Y512525D01*
X404248Y512579D01*
X404334Y512629D01*
X404422Y512676D01*
X404512Y512720D01*
X404603Y512760D01*
X404696Y512796D01*
X404790Y512829D01*
X404886Y512858D01*
X404982Y512883D01*
X405079Y512904D01*
X405178Y512922D01*
X405276Y512935D01*
X405376Y512945D01*
X405475Y512951D01*
X405575Y512953D01*
X408115Y512953D01*
X412598Y509778D02*
X412598Y504698D01*
X412598Y509778D02*
X412600Y509889D01*
X412606Y509999D01*
X412615Y510110D01*
X412629Y510220D01*
X412646Y510329D01*
X412667Y510438D01*
X412692Y510546D01*
X412721Y510653D01*
X412753Y510759D01*
X412789Y510864D01*
X412829Y510967D01*
X412872Y511069D01*
X412919Y511170D01*
X412970Y511269D01*
X413023Y511366D01*
X413080Y511460D01*
X413141Y511553D01*
X413204Y511644D01*
X413271Y511733D01*
X413341Y511819D01*
X413414Y511902D01*
X413489Y511984D01*
X413567Y512062D01*
X413649Y512137D01*
X413732Y512210D01*
X413818Y512280D01*
X413907Y512347D01*
X413998Y512410D01*
X414091Y512471D01*
X414186Y512528D01*
X414282Y512581D01*
X414381Y512632D01*
X414482Y512679D01*
X414584Y512722D01*
X414687Y512762D01*
X414792Y512798D01*
X414898Y512830D01*
X415005Y512859D01*
X415113Y512884D01*
X415222Y512905D01*
X415331Y512922D01*
X415441Y512936D01*
X415552Y512945D01*
X415662Y512951D01*
X415773Y512953D01*
X415884Y512951D01*
X415994Y512945D01*
X416105Y512936D01*
X416215Y512922D01*
X416324Y512905D01*
X416433Y512884D01*
X416541Y512859D01*
X416648Y512830D01*
X416754Y512798D01*
X416859Y512762D01*
X416962Y512722D01*
X417064Y512679D01*
X417165Y512632D01*
X417264Y512581D01*
X417361Y512528D01*
X417455Y512471D01*
X417548Y512410D01*
X417639Y512347D01*
X417728Y512280D01*
X417814Y512210D01*
X417897Y512137D01*
X417979Y512062D01*
X418057Y511984D01*
X418132Y511902D01*
X418205Y511819D01*
X418275Y511733D01*
X418342Y511644D01*
X418405Y511553D01*
X418466Y511460D01*
X418523Y511366D01*
X418576Y511269D01*
X418627Y511170D01*
X418674Y511069D01*
X418717Y510967D01*
X418757Y510864D01*
X418793Y510759D01*
X418825Y510653D01*
X418854Y510546D01*
X418879Y510438D01*
X418900Y510329D01*
X418917Y510220D01*
X418931Y510110D01*
X418940Y509999D01*
X418946Y509889D01*
X418948Y509778D01*
X418948Y504698D01*
X418946Y504587D01*
X418940Y504477D01*
X418931Y504366D01*
X418917Y504256D01*
X418900Y504147D01*
X418879Y504038D01*
X418854Y503930D01*
X418825Y503823D01*
X418793Y503717D01*
X418757Y503612D01*
X418717Y503509D01*
X418674Y503407D01*
X418627Y503306D01*
X418576Y503207D01*
X418523Y503110D01*
X418466Y503016D01*
X418405Y502923D01*
X418342Y502832D01*
X418275Y502743D01*
X418205Y502657D01*
X418132Y502574D01*
X418057Y502492D01*
X417979Y502414D01*
X417897Y502339D01*
X417814Y502266D01*
X417728Y502196D01*
X417639Y502129D01*
X417548Y502066D01*
X417455Y502005D01*
X417360Y501948D01*
X417264Y501895D01*
X417165Y501844D01*
X417064Y501797D01*
X416962Y501754D01*
X416859Y501714D01*
X416754Y501678D01*
X416648Y501646D01*
X416541Y501617D01*
X416433Y501592D01*
X416324Y501571D01*
X416215Y501554D01*
X416105Y501540D01*
X415994Y501531D01*
X415884Y501525D01*
X415773Y501523D01*
X415662Y501525D01*
X415552Y501531D01*
X415441Y501540D01*
X415331Y501554D01*
X415222Y501571D01*
X415113Y501592D01*
X415005Y501617D01*
X414898Y501646D01*
X414792Y501678D01*
X414687Y501714D01*
X414584Y501754D01*
X414482Y501797D01*
X414381Y501844D01*
X414282Y501895D01*
X414186Y501948D01*
X414091Y502005D01*
X413998Y502066D01*
X413907Y502129D01*
X413818Y502196D01*
X413732Y502266D01*
X413649Y502339D01*
X413567Y502414D01*
X413489Y502492D01*
X413414Y502574D01*
X413341Y502657D01*
X413271Y502743D01*
X413204Y502832D01*
X413141Y502923D01*
X413080Y503016D01*
X413023Y503111D01*
X412970Y503207D01*
X412919Y503306D01*
X412872Y503407D01*
X412829Y503509D01*
X412789Y503612D01*
X412753Y503717D01*
X412721Y503823D01*
X412692Y503930D01*
X412667Y504038D01*
X412646Y504147D01*
X412629Y504256D01*
X412615Y504366D01*
X412606Y504477D01*
X412600Y504587D01*
X412598Y504698D01*
X424409Y501523D02*
X424409Y512953D01*
X430759Y501523D01*
X430759Y512953D01*
X436626Y501523D02*
X441706Y501523D01*
X436626Y501523D02*
X436626Y512953D01*
X441706Y512953D01*
X440436Y507873D02*
X436626Y507873D01*
X448539Y512953D02*
X448539Y501523D01*
X445364Y512953D02*
X451714Y512953D01*
X456984Y511365D02*
X456888Y511162D01*
X456797Y510957D01*
X456711Y510749D01*
X456630Y510539D01*
X456553Y510328D01*
X456482Y510115D01*
X456416Y509900D01*
X456355Y509683D01*
X456299Y509465D01*
X456249Y509246D01*
X456203Y509026D01*
X456163Y508805D01*
X456128Y508583D01*
X456099Y508360D01*
X456075Y508136D01*
X456056Y507912D01*
X456043Y507688D01*
X456035Y507463D01*
X456032Y507238D01*
X456984Y511366D02*
X457016Y511454D01*
X457052Y511541D01*
X457091Y511627D01*
X457134Y511711D01*
X457180Y511793D01*
X457229Y511873D01*
X457281Y511951D01*
X457337Y512027D01*
X457395Y512101D01*
X457457Y512172D01*
X457521Y512241D01*
X457588Y512307D01*
X457657Y512370D01*
X457729Y512431D01*
X457803Y512489D01*
X457880Y512543D01*
X457958Y512595D01*
X458039Y512643D01*
X458121Y512688D01*
X458206Y512730D01*
X458292Y512768D01*
X458379Y512803D01*
X458467Y512835D01*
X458557Y512862D01*
X458648Y512887D01*
X458740Y512907D01*
X458832Y512924D01*
X458926Y512937D01*
X459019Y512946D01*
X459113Y512952D01*
X459207Y512954D01*
X459301Y512952D01*
X459395Y512946D01*
X459488Y512937D01*
X459582Y512924D01*
X459674Y512907D01*
X459766Y512887D01*
X459857Y512862D01*
X459947Y512835D01*
X460035Y512803D01*
X460122Y512768D01*
X460208Y512730D01*
X460293Y512688D01*
X460375Y512643D01*
X460456Y512595D01*
X460534Y512543D01*
X460611Y512489D01*
X460685Y512431D01*
X460757Y512370D01*
X460826Y512307D01*
X460893Y512241D01*
X460957Y512172D01*
X461019Y512101D01*
X461077Y512027D01*
X461133Y511951D01*
X461185Y511873D01*
X461234Y511793D01*
X461280Y511711D01*
X461323Y511627D01*
X461362Y511541D01*
X461398Y511454D01*
X461430Y511366D01*
X461429Y511365D02*
X461525Y511162D01*
X461616Y510957D01*
X461702Y510749D01*
X461783Y510539D01*
X461860Y510328D01*
X461931Y510115D01*
X461997Y509900D01*
X462058Y509683D01*
X462114Y509465D01*
X462164Y509246D01*
X462210Y509026D01*
X462250Y508805D01*
X462285Y508583D01*
X462314Y508360D01*
X462338Y508136D01*
X462357Y507912D01*
X462370Y507688D01*
X462378Y507463D01*
X462381Y507238D01*
X456032Y507238D02*
X456035Y507013D01*
X456043Y506788D01*
X456056Y506564D01*
X456075Y506340D01*
X456099Y506116D01*
X456128Y505893D01*
X456163Y505671D01*
X456203Y505450D01*
X456249Y505230D01*
X456299Y505011D01*
X456355Y504793D01*
X456416Y504576D01*
X456482Y504361D01*
X456553Y504148D01*
X456630Y503937D01*
X456711Y503727D01*
X456797Y503519D01*
X456888Y503314D01*
X456984Y503111D01*
X457016Y503023D01*
X457052Y502936D01*
X457091Y502850D01*
X457134Y502766D01*
X457180Y502684D01*
X457229Y502604D01*
X457281Y502526D01*
X457337Y502450D01*
X457395Y502376D01*
X457457Y502305D01*
X457521Y502236D01*
X457588Y502170D01*
X457657Y502107D01*
X457729Y502046D01*
X457803Y501988D01*
X457880Y501934D01*
X457958Y501882D01*
X458039Y501834D01*
X458121Y501789D01*
X458206Y501747D01*
X458292Y501709D01*
X458379Y501674D01*
X458467Y501642D01*
X458557Y501615D01*
X458648Y501590D01*
X458740Y501570D01*
X458832Y501553D01*
X458926Y501540D01*
X459019Y501531D01*
X459113Y501525D01*
X459207Y501523D01*
X461429Y503111D02*
X461525Y503314D01*
X461616Y503519D01*
X461702Y503727D01*
X461783Y503937D01*
X461860Y504148D01*
X461931Y504361D01*
X461997Y504576D01*
X462058Y504793D01*
X462114Y505011D01*
X462164Y505230D01*
X462210Y505450D01*
X462250Y505671D01*
X462285Y505893D01*
X462314Y506116D01*
X462338Y506340D01*
X462357Y506564D01*
X462370Y506788D01*
X462378Y507013D01*
X462381Y507238D01*
X461430Y503111D02*
X461398Y503023D01*
X461362Y502936D01*
X461323Y502850D01*
X461280Y502766D01*
X461234Y502684D01*
X461185Y502604D01*
X461133Y502526D01*
X461077Y502450D01*
X461019Y502376D01*
X460957Y502305D01*
X460893Y502236D01*
X460826Y502170D01*
X460757Y502107D01*
X460685Y502046D01*
X460611Y501988D01*
X460534Y501934D01*
X460456Y501882D01*
X460375Y501834D01*
X460293Y501789D01*
X460208Y501747D01*
X460122Y501709D01*
X460035Y501674D01*
X459947Y501642D01*
X459857Y501615D01*
X459766Y501590D01*
X459674Y501570D01*
X459582Y501553D01*
X459488Y501540D01*
X459395Y501531D01*
X459301Y501525D01*
X459207Y501523D01*
X456667Y504063D02*
X461747Y510413D01*
X467462Y501523D02*
X471272Y501523D01*
X471372Y501525D01*
X471471Y501531D01*
X471571Y501541D01*
X471669Y501554D01*
X471768Y501572D01*
X471865Y501593D01*
X471961Y501618D01*
X472057Y501647D01*
X472151Y501680D01*
X472244Y501716D01*
X472335Y501756D01*
X472425Y501800D01*
X472513Y501847D01*
X472599Y501897D01*
X472683Y501951D01*
X472765Y502008D01*
X472844Y502068D01*
X472922Y502132D01*
X472996Y502198D01*
X473068Y502267D01*
X473137Y502339D01*
X473203Y502413D01*
X473267Y502491D01*
X473327Y502570D01*
X473384Y502652D01*
X473438Y502736D01*
X473488Y502822D01*
X473535Y502910D01*
X473579Y503000D01*
X473619Y503091D01*
X473655Y503184D01*
X473688Y503278D01*
X473717Y503374D01*
X473742Y503470D01*
X473763Y503567D01*
X473781Y503666D01*
X473794Y503764D01*
X473804Y503864D01*
X473810Y503963D01*
X473812Y504063D01*
X473812Y505333D01*
X473810Y505433D01*
X473804Y505532D01*
X473794Y505632D01*
X473781Y505730D01*
X473763Y505829D01*
X473742Y505926D01*
X473717Y506022D01*
X473688Y506118D01*
X473655Y506212D01*
X473619Y506305D01*
X473579Y506396D01*
X473535Y506486D01*
X473488Y506574D01*
X473438Y506660D01*
X473384Y506744D01*
X473327Y506826D01*
X473267Y506905D01*
X473203Y506983D01*
X473137Y507057D01*
X473068Y507129D01*
X472996Y507198D01*
X472922Y507264D01*
X472844Y507328D01*
X472765Y507388D01*
X472683Y507445D01*
X472599Y507499D01*
X472513Y507549D01*
X472425Y507596D01*
X472335Y507640D01*
X472244Y507680D01*
X472151Y507716D01*
X472057Y507749D01*
X471961Y507778D01*
X471865Y507803D01*
X471768Y507824D01*
X471669Y507842D01*
X471571Y507855D01*
X471471Y507865D01*
X471372Y507871D01*
X471272Y507873D01*
X467462Y507873D01*
X467462Y512953D01*
X473812Y512953D01*
X483464Y514223D02*
X478384Y500253D01*
X488036Y510413D02*
X491211Y512953D01*
X491211Y501523D01*
X488036Y501523D02*
X494386Y501523D01*
X499466Y501523D02*
X503276Y501523D01*
X503376Y501525D01*
X503475Y501531D01*
X503575Y501541D01*
X503673Y501554D01*
X503772Y501572D01*
X503869Y501593D01*
X503965Y501618D01*
X504061Y501647D01*
X504155Y501680D01*
X504248Y501716D01*
X504339Y501756D01*
X504429Y501800D01*
X504517Y501847D01*
X504603Y501897D01*
X504687Y501951D01*
X504769Y502008D01*
X504848Y502068D01*
X504926Y502132D01*
X505000Y502198D01*
X505072Y502267D01*
X505141Y502339D01*
X505207Y502413D01*
X505271Y502491D01*
X505331Y502570D01*
X505388Y502652D01*
X505442Y502736D01*
X505492Y502822D01*
X505539Y502910D01*
X505583Y503000D01*
X505623Y503091D01*
X505659Y503184D01*
X505692Y503278D01*
X505721Y503374D01*
X505746Y503470D01*
X505767Y503567D01*
X505785Y503666D01*
X505798Y503764D01*
X505808Y503864D01*
X505814Y503963D01*
X505816Y504063D01*
X505816Y505333D01*
X505814Y505433D01*
X505808Y505532D01*
X505798Y505632D01*
X505785Y505730D01*
X505767Y505829D01*
X505746Y505926D01*
X505721Y506022D01*
X505692Y506118D01*
X505659Y506212D01*
X505623Y506305D01*
X505583Y506396D01*
X505539Y506486D01*
X505492Y506574D01*
X505442Y506660D01*
X505388Y506744D01*
X505331Y506826D01*
X505271Y506905D01*
X505207Y506983D01*
X505141Y507057D01*
X505072Y507129D01*
X505000Y507198D01*
X504926Y507264D01*
X504848Y507328D01*
X504769Y507388D01*
X504687Y507445D01*
X504603Y507499D01*
X504517Y507549D01*
X504429Y507596D01*
X504339Y507640D01*
X504248Y507680D01*
X504155Y507716D01*
X504061Y507749D01*
X503965Y507778D01*
X503869Y507803D01*
X503772Y507824D01*
X503673Y507842D01*
X503575Y507855D01*
X503475Y507865D01*
X503376Y507871D01*
X503276Y507873D01*
X499466Y507873D01*
X499466Y512953D01*
X505816Y512953D01*
D11*
X488950Y406400D02*
X482600Y400050D01*
X488950Y406400D02*
X501650Y406400D01*
X508000Y400050D01*
X508000Y387350D01*
X501650Y381000D01*
X488950Y381000D01*
X482600Y387350D01*
X450850Y406400D02*
X438150Y406400D01*
X450850Y406400D02*
X457200Y400050D01*
X457200Y387350D01*
X450850Y381000D01*
X457200Y400050D02*
X463550Y406400D01*
X476250Y406400D01*
X482600Y400050D01*
X482600Y387350D01*
X476250Y381000D01*
X463550Y381000D01*
X457200Y387350D01*
X412750Y406400D02*
X406400Y400050D01*
X412750Y406400D02*
X425450Y406400D01*
X431800Y400050D01*
X431800Y387350D01*
X425450Y381000D01*
X412750Y381000D01*
X406400Y387350D01*
X431800Y400050D02*
X438150Y406400D01*
X431800Y387350D02*
X438150Y381000D01*
X450850Y381000D01*
X374650Y406400D02*
X361950Y406400D01*
X374650Y406400D02*
X381000Y400050D01*
X381000Y387350D01*
X374650Y381000D01*
X381000Y400050D02*
X387350Y406400D01*
X400050Y406400D01*
X406400Y400050D01*
X406400Y387350D01*
X400050Y381000D01*
X387350Y381000D01*
X381000Y387350D01*
X355600Y387350D02*
X355600Y400050D01*
X361950Y406400D01*
X355600Y387350D02*
X361950Y381000D01*
X374650Y381000D01*
X514350Y406400D02*
X527050Y406400D01*
X533400Y400050D01*
X533400Y387350D01*
X527050Y381000D01*
X508000Y400050D02*
X514350Y406400D01*
X508000Y387350D02*
X514350Y381000D01*
X527050Y381000D01*
D13*
X359283Y427863D02*
X359283Y436753D01*
X359283Y427863D02*
X359281Y427763D01*
X359275Y427664D01*
X359265Y427564D01*
X359252Y427466D01*
X359234Y427367D01*
X359213Y427270D01*
X359188Y427174D01*
X359159Y427078D01*
X359126Y426984D01*
X359090Y426891D01*
X359050Y426800D01*
X359006Y426710D01*
X358959Y426622D01*
X358909Y426536D01*
X358855Y426452D01*
X358798Y426370D01*
X358738Y426291D01*
X358674Y426213D01*
X358608Y426139D01*
X358539Y426067D01*
X358467Y425998D01*
X358393Y425932D01*
X358315Y425868D01*
X358236Y425808D01*
X358154Y425751D01*
X358070Y425697D01*
X357984Y425647D01*
X357896Y425600D01*
X357806Y425556D01*
X357715Y425516D01*
X357622Y425480D01*
X357528Y425447D01*
X357432Y425418D01*
X357336Y425393D01*
X357239Y425372D01*
X357140Y425354D01*
X357042Y425341D01*
X356942Y425331D01*
X356843Y425325D01*
X356743Y425323D01*
X355473Y425323D01*
X368184Y436754D02*
X368288Y436752D01*
X368393Y436746D01*
X368497Y436737D01*
X368600Y436724D01*
X368703Y436706D01*
X368805Y436686D01*
X368907Y436661D01*
X369007Y436633D01*
X369107Y436601D01*
X369205Y436565D01*
X369302Y436526D01*
X369397Y436484D01*
X369491Y436438D01*
X369583Y436388D01*
X369673Y436336D01*
X369761Y436280D01*
X369847Y436220D01*
X369931Y436158D01*
X370012Y436093D01*
X370091Y436025D01*
X370168Y435953D01*
X370241Y435880D01*
X370313Y435803D01*
X370381Y435724D01*
X370446Y435643D01*
X370508Y435559D01*
X370568Y435473D01*
X370624Y435385D01*
X370676Y435295D01*
X370726Y435203D01*
X370772Y435109D01*
X370814Y435014D01*
X370853Y434917D01*
X370889Y434819D01*
X370921Y434719D01*
X370949Y434619D01*
X370974Y434517D01*
X370994Y434415D01*
X371012Y434312D01*
X371025Y434209D01*
X371034Y434105D01*
X371040Y434000D01*
X371042Y433896D01*
X368184Y436753D02*
X368066Y436751D01*
X367947Y436745D01*
X367829Y436736D01*
X367712Y436723D01*
X367595Y436705D01*
X367478Y436685D01*
X367362Y436660D01*
X367247Y436632D01*
X367134Y436599D01*
X367021Y436564D01*
X366909Y436524D01*
X366799Y436482D01*
X366690Y436435D01*
X366582Y436385D01*
X366477Y436332D01*
X366373Y436275D01*
X366271Y436215D01*
X366171Y436152D01*
X366073Y436085D01*
X365977Y436016D01*
X365884Y435943D01*
X365793Y435867D01*
X365704Y435789D01*
X365618Y435707D01*
X365535Y435623D01*
X365454Y435537D01*
X365377Y435447D01*
X365302Y435356D01*
X365230Y435262D01*
X365161Y435165D01*
X365096Y435067D01*
X365033Y434966D01*
X364974Y434863D01*
X364918Y434759D01*
X364866Y434653D01*
X364817Y434545D01*
X364772Y434436D01*
X364730Y434325D01*
X364692Y434213D01*
X370090Y431674D02*
X370166Y431749D01*
X370241Y431828D01*
X370312Y431909D01*
X370381Y431993D01*
X370446Y432079D01*
X370508Y432167D01*
X370568Y432257D01*
X370624Y432349D01*
X370677Y432444D01*
X370726Y432540D01*
X370772Y432638D01*
X370815Y432737D01*
X370854Y432838D01*
X370889Y432940D01*
X370921Y433043D01*
X370949Y433147D01*
X370974Y433252D01*
X370995Y433359D01*
X371012Y433465D01*
X371025Y433572D01*
X371034Y433680D01*
X371040Y433788D01*
X371042Y433896D01*
X370089Y431673D02*
X364692Y425323D01*
X371042Y425323D01*
D11*
X184150Y406400D02*
X177800Y400050D01*
X184150Y406400D02*
X196850Y406400D01*
X203200Y400050D01*
X203200Y387350D01*
X196850Y381000D01*
X184150Y381000D01*
X177800Y387350D01*
X146050Y406400D02*
X133350Y406400D01*
X146050Y406400D02*
X152400Y400050D01*
X152400Y387350D01*
X146050Y381000D01*
X152400Y400050D02*
X158750Y406400D01*
X171450Y406400D01*
X177800Y400050D01*
X177800Y387350D01*
X171450Y381000D01*
X158750Y381000D01*
X152400Y387350D01*
X107950Y406400D02*
X101600Y400050D01*
X107950Y406400D02*
X120650Y406400D01*
X127000Y400050D01*
X127000Y387350D01*
X120650Y381000D01*
X107950Y381000D01*
X101600Y387350D01*
X127000Y400050D02*
X133350Y406400D01*
X127000Y387350D02*
X133350Y381000D01*
X146050Y381000D01*
X69850Y406400D02*
X57150Y406400D01*
X69850Y406400D02*
X76200Y400050D01*
X76200Y387350D01*
X69850Y381000D01*
X76200Y400050D02*
X82550Y406400D01*
X95250Y406400D01*
X101600Y400050D01*
X101600Y387350D01*
X95250Y381000D01*
X82550Y381000D01*
X76200Y387350D01*
X50800Y387350D02*
X50800Y400050D01*
X57150Y406400D01*
X50800Y387350D02*
X57150Y381000D01*
X69850Y381000D01*
X209550Y406400D02*
X222250Y406400D01*
X228600Y400050D01*
X228600Y387350D01*
X222250Y381000D01*
X203200Y400050D02*
X209550Y406400D01*
X203200Y387350D02*
X209550Y381000D01*
X222250Y381000D01*
D13*
X54483Y427863D02*
X54483Y436753D01*
X54483Y427863D02*
X54481Y427763D01*
X54475Y427664D01*
X54465Y427564D01*
X54452Y427466D01*
X54434Y427367D01*
X54413Y427270D01*
X54388Y427174D01*
X54359Y427078D01*
X54326Y426984D01*
X54290Y426891D01*
X54250Y426800D01*
X54206Y426710D01*
X54159Y426622D01*
X54109Y426536D01*
X54055Y426452D01*
X53998Y426370D01*
X53938Y426291D01*
X53874Y426213D01*
X53808Y426139D01*
X53739Y426067D01*
X53667Y425998D01*
X53593Y425932D01*
X53515Y425868D01*
X53436Y425808D01*
X53354Y425751D01*
X53270Y425697D01*
X53184Y425647D01*
X53096Y425600D01*
X53006Y425556D01*
X52915Y425516D01*
X52822Y425480D01*
X52728Y425447D01*
X52632Y425418D01*
X52536Y425393D01*
X52439Y425372D01*
X52340Y425354D01*
X52242Y425341D01*
X52142Y425331D01*
X52043Y425325D01*
X51943Y425323D01*
X50673Y425323D01*
X59892Y434213D02*
X63067Y436753D01*
X63067Y425323D01*
X59892Y425323D02*
X66242Y425323D01*
M02*
