G04 EAGLE Gerber RS-274X export*
G75*
%MOMM*%
%FSLAX34Y34*%
%LPD*%
%INSoldermask Bottom*%
%IPPOS*%
%AMOC8*
5,1,8,0,0,1.08239X$1,22.5*%
G01*
%ADD10C,1.524000*%
%ADD11C,1.727200*%
%ADD12C,0.959600*%


D10*
X101600Y348996D02*
X101600Y362204D01*
X127000Y362204D02*
X127000Y348996D01*
X152400Y348996D02*
X152400Y362204D01*
X177800Y362204D02*
X177800Y348996D01*
X203200Y348996D02*
X203200Y362204D01*
X228600Y362204D02*
X228600Y348996D01*
X101600Y470916D02*
X101600Y484124D01*
X127000Y484124D02*
X127000Y470916D01*
X152400Y470916D02*
X152400Y484124D01*
X177800Y484124D02*
X177800Y470916D01*
X203200Y470916D02*
X203200Y484124D01*
X228600Y484124D02*
X228600Y470916D01*
X825500Y413004D02*
X825500Y399796D01*
X800100Y399796D02*
X800100Y413004D01*
X673100Y413004D02*
X673100Y399796D01*
X647700Y399796D02*
X647700Y413004D01*
X774700Y413004D02*
X774700Y399796D01*
X749300Y399796D02*
X749300Y413004D01*
X698500Y413004D02*
X698500Y399796D01*
X723900Y399796D02*
X723900Y413004D01*
X622300Y413004D02*
X622300Y399796D01*
X596900Y399796D02*
X596900Y413004D01*
X596900Y336804D02*
X596900Y323596D01*
X622300Y323596D02*
X622300Y336804D01*
X647700Y336804D02*
X647700Y323596D01*
X673100Y323596D02*
X673100Y336804D01*
X698500Y336804D02*
X698500Y323596D01*
X723900Y323596D02*
X723900Y336804D01*
X749300Y336804D02*
X749300Y323596D01*
X774700Y323596D02*
X774700Y336804D01*
X800100Y336804D02*
X800100Y323596D01*
X825500Y323596D02*
X825500Y336804D01*
X355600Y209804D02*
X355600Y196596D01*
X330200Y196596D02*
X330200Y209804D01*
X203200Y209804D02*
X203200Y196596D01*
X203200Y133604D02*
X203200Y120396D01*
X304800Y196596D02*
X304800Y209804D01*
X279400Y209804D02*
X279400Y196596D01*
X228600Y196596D02*
X228600Y209804D01*
X254000Y209804D02*
X254000Y196596D01*
X228600Y133604D02*
X228600Y120396D01*
X254000Y120396D02*
X254000Y133604D01*
X279400Y133604D02*
X279400Y120396D01*
X304800Y120396D02*
X304800Y133604D01*
X330200Y133604D02*
X330200Y120396D01*
X355600Y120396D02*
X355600Y133604D01*
X825500Y196596D02*
X825500Y209804D01*
X800100Y209804D02*
X800100Y196596D01*
X673100Y196596D02*
X673100Y209804D01*
X647700Y209804D02*
X647700Y196596D01*
X774700Y196596D02*
X774700Y209804D01*
X749300Y209804D02*
X749300Y196596D01*
X698500Y196596D02*
X698500Y209804D01*
X723900Y209804D02*
X723900Y196596D01*
X622300Y196596D02*
X622300Y209804D01*
X596900Y209804D02*
X596900Y196596D01*
X596900Y133604D02*
X596900Y120396D01*
X622300Y120396D02*
X622300Y133604D01*
X647700Y133604D02*
X647700Y120396D01*
X673100Y120396D02*
X673100Y133604D01*
X698500Y133604D02*
X698500Y120396D01*
X723900Y120396D02*
X723900Y133604D01*
X749300Y133604D02*
X749300Y120396D01*
X774700Y120396D02*
X774700Y133604D01*
X800100Y133604D02*
X800100Y120396D01*
X825500Y120396D02*
X825500Y133604D01*
D11*
X152400Y58420D02*
X152400Y43180D01*
X177800Y43180D02*
X177800Y58420D01*
X203200Y58420D02*
X203200Y43180D01*
X228600Y43180D02*
X228600Y58420D01*
X254000Y58420D02*
X254000Y43180D01*
X279400Y43180D02*
X279400Y58420D01*
X304800Y58420D02*
X304800Y43180D01*
X330200Y43180D02*
X330200Y58420D01*
X355600Y58420D02*
X355600Y43180D01*
X381000Y43180D02*
X381000Y58420D01*
X406400Y58420D02*
X406400Y43180D01*
X431800Y43180D02*
X431800Y58420D01*
X457200Y58420D02*
X457200Y43180D01*
X482600Y43180D02*
X482600Y58420D01*
X508000Y58420D02*
X508000Y43180D01*
X533400Y43180D02*
X533400Y58420D01*
X558800Y58420D02*
X558800Y43180D01*
X406400Y474980D02*
X406400Y490220D01*
X431800Y490220D02*
X431800Y474980D01*
X457200Y474980D02*
X457200Y490220D01*
X482600Y490220D02*
X482600Y474980D01*
X508000Y474980D02*
X508000Y490220D01*
X76200Y452120D02*
X76200Y436880D01*
X101600Y436880D02*
X101600Y452120D01*
X127000Y452120D02*
X127000Y436880D01*
X152400Y436880D02*
X152400Y452120D01*
X177800Y452120D02*
X177800Y436880D01*
X203200Y436880D02*
X203200Y452120D01*
X228600Y452120D02*
X228600Y436880D01*
X76200Y325120D02*
X76200Y309880D01*
X101600Y309880D02*
X101600Y325120D01*
X127000Y325120D02*
X127000Y309880D01*
X152400Y309880D02*
X152400Y325120D01*
X177800Y325120D02*
X177800Y309880D01*
X203200Y309880D02*
X203200Y325120D01*
X228600Y325120D02*
X228600Y309880D01*
D12*
X266700Y228600D03*
X266700Y304800D03*
X406400Y228600D03*
X431800Y355600D03*
X457200Y368300D03*
X482600Y381000D03*
X571500Y241300D03*
X114300Y25400D03*
X533400Y203200D03*
X558800Y127000D03*
M02*
