M48
;GenerationSoftware,Autodesk,EAGLE,9.5.0*%
;CreationDate,2019-09-15T18:48:29Z*%
FMAT,2
ICI,OFF
METRIC,TZ,000.000
T3C0.350
T2C0.813
T1C1.016
%
G90
M71
T1
X15240Y5080
X25400Y5080
X22860Y5080
X20320Y5080
X17780Y5080
X36830Y39370
X27940Y5080
X30480Y5080
X33020Y5080
X35560Y5080
X38100Y5080
X40640Y5080
X43180Y5080
X45720Y5080
X48260Y5080
X50800Y5080
X53340Y5080
X55880Y5080
X40640Y48260
X43180Y48260
X45720Y48260
X48260Y48260
X50800Y48260
X39370Y39370
X41910Y39370
X44450Y39370
X46990Y39370
X49530Y39370
X52070Y39370
X6350Y39370
X8890Y39370
X11430Y39370
X13970Y39370
X16510Y39370
X19050Y39370
X21590Y39370
T2
X55880Y25400
X17780Y17780
X15240Y17780
X2540Y17780
X2540Y10160
X12700Y17780
X10160Y17780
X5080Y17780
X7620Y17780
X5080Y10160
X7620Y10160
X10160Y10160
X12700Y10160
X15240Y10160
X17780Y10160
X25400Y33020
X22860Y33020
X33020Y33020
X7620Y33020
X20320Y33020
X17780Y33020
X12700Y33020
X15240Y33020
X5080Y33020
X2540Y33020
X2540Y25400
X5080Y25400
X7620Y25400
X10160Y25400
X12700Y25400
X15240Y25400
X17780Y25400
X20320Y25400
X22860Y25400
X25400Y25400
X44450Y43180
X8890Y43180
X11430Y43180
X13970Y43180
X16510Y43180
X19050Y43180
X21590Y43180
X39370Y43180
X41910Y43180
X46990Y43180
X49530Y43180
X52070Y43180
X55880Y33020
X53340Y33020
X40640Y33020
X38100Y33020
X50800Y33020
X10160Y33020
X48260Y33020
X43180Y33020
X45720Y33020
X35560Y33020
X33020Y25400
X35560Y25400
X38100Y25400
X40640Y25400
X43180Y25400
X45720Y25400
X48260Y25400
X50800Y25400
X53340Y25400
T3
X35560Y30480
X35560Y21590
X53340Y20320
X5080Y20320
X20320Y11430
M30